%TF.GenerationSoftware,KiCad,Pcbnew,9.0.7*%
%TF.CreationDate,2026-06-10T23:03:17-03:00*%
%TF.ProjectId,Estacion_Nivel,45737461-6369-46f6-9e5f-4e6976656c2e,rev?*%
%TF.SameCoordinates,Original*%
%TF.FileFunction,Copper,L1,Top*%
%TF.FilePolarity,Positive*%
%FSLAX46Y46*%
G04 Gerber Fmt 4.6, Leading zero omitted, Abs format (unit mm)*
G04 Created by KiCad (PCBNEW 9.0.7) date 2026-06-10 23:03:17*
%MOMM*%
%LPD*%
G01*
G04 APERTURE LIST*
%TA.AperFunction,SMDPad,CuDef*%
%ADD10R,0.940000X0.750000*%
%TD*%
%TA.AperFunction,SMDPad,CuDef*%
%ADD11R,0.800000X1.700000*%
%TD*%
%TA.AperFunction,ComponentPad*%
%ADD12R,1.650000X1.650000*%
%TD*%
%TA.AperFunction,ComponentPad*%
%ADD13C,1.650000*%
%TD*%
%TA.AperFunction,SMDPad,CuDef*%
%ADD14R,2.350000X1.550000*%
%TD*%
%TA.AperFunction,ComponentPad*%
%ADD15C,0.650000*%
%TD*%
%TA.AperFunction,ComponentPad*%
%ADD16O,0.900000X1.700000*%
%TD*%
%TA.AperFunction,ComponentPad*%
%ADD17O,0.900000X2.400000*%
%TD*%
%TA.AperFunction,SMDPad,CuDef*%
%ADD18R,0.750000X0.940000*%
%TD*%
%TA.AperFunction,SMDPad,CuDef*%
%ADD19R,0.950000X0.800000*%
%TD*%
%TA.AperFunction,SMDPad,CuDef*%
%ADD20R,1.525000X0.650000*%
%TD*%
%TA.AperFunction,SMDPad,CuDef*%
%ADD21R,0.800000X0.950000*%
%TD*%
%TA.AperFunction,SMDPad,CuDef*%
%ADD22R,2.370000X2.230000*%
%TD*%
%TA.AperFunction,SMDPad,CuDef*%
%ADD23R,0.800000X0.800000*%
%TD*%
%TA.AperFunction,SMDPad,CuDef*%
%ADD24R,3.610000X2.590000*%
%TD*%
%TA.AperFunction,SMDPad,CuDef*%
%ADD25R,7.010000X11.000000*%
%TD*%
%TA.AperFunction,SMDPad,CuDef*%
%ADD26R,1.750000X0.950000*%
%TD*%
%TA.AperFunction,SMDPad,CuDef*%
%ADD27R,1.750000X3.200000*%
%TD*%
%TA.AperFunction,SMDPad,CuDef*%
%ADD28R,1.020000X1.820000*%
%TD*%
%TA.AperFunction,SMDPad,CuDef*%
%ADD29R,0.900000X0.950000*%
%TD*%
%TA.AperFunction,SMDPad,CuDef*%
%ADD30R,0.700000X1.300000*%
%TD*%
%TA.AperFunction,SMDPad,CuDef*%
%ADD31R,4.060000X3.300000*%
%TD*%
%TA.AperFunction,SMDPad,CuDef*%
%ADD32R,6.350000X3.810000*%
%TD*%
%TA.AperFunction,ComponentPad*%
%ADD33C,2.680000*%
%TD*%
%TA.AperFunction,SMDPad,CuDef*%
%ADD34R,0.780000X0.780000*%
%TD*%
%TA.AperFunction,SMDPad,CuDef*%
%ADD35R,1.500000X0.900000*%
%TD*%
%TA.AperFunction,SMDPad,CuDef*%
%ADD36R,0.900000X1.500000*%
%TD*%
%TA.AperFunction,SMDPad,CuDef*%
%ADD37R,0.900000X0.900000*%
%TD*%
%TA.AperFunction,SMDPad,CuDef*%
%ADD38R,1.100000X0.700000*%
%TD*%
%TA.AperFunction,SMDPad,CuDef*%
%ADD39R,0.930000X0.900000*%
%TD*%
%TA.AperFunction,SMDPad,CuDef*%
%ADD40R,0.780000X1.050000*%
%TD*%
%TA.AperFunction,SMDPad,CuDef*%
%ADD41R,3.330000X0.700000*%
%TD*%
%TA.AperFunction,SMDPad,CuDef*%
%ADD42R,2.800000X0.860000*%
%TD*%
%TA.AperFunction,SMDPad,CuDef*%
%ADD43R,1.830000X1.140000*%
%TD*%
%TA.AperFunction,SMDPad,CuDef*%
%ADD44R,1.250000X0.600000*%
%TD*%
%TA.AperFunction,SMDPad,CuDef*%
%ADD45R,0.950000X0.900000*%
%TD*%
%TA.AperFunction,ViaPad*%
%ADD46C,0.600000*%
%TD*%
%TA.AperFunction,Conductor*%
%ADD47C,0.500000*%
%TD*%
%TA.AperFunction,Conductor*%
%ADD48C,0.200000*%
%TD*%
G04 APERTURE END LIST*
D10*
%TO.P,C6,1,1*%
%TO.N,GND*%
X118820000Y-85675000D03*
%TO.P,C6,2,2*%
%TO.N,3V3*%
X118820000Y-84275000D03*
%TD*%
D11*
%TO.P,SW1,1,K*%
%TO.N,GND*%
X109150000Y-39320000D03*
%TO.P,SW1,2,A*%
%TO.N,ESP_EN*%
X112550000Y-39320000D03*
%TD*%
D12*
%TO.P,J10,1,1*%
%TO.N,GND*%
X159300000Y-34500000D03*
D13*
%TO.P,J10,2,2*%
%TO.N,DI1*%
X161840000Y-34500000D03*
%TO.P,J10,3,3*%
%TO.N,RO1*%
X164380000Y-34500000D03*
%TO.P,J10,4,4*%
%TO.N,U0TX*%
X166920000Y-34500000D03*
%TO.P,J10,5,5*%
%TO.N,U0RX*%
X169460000Y-34500000D03*
%TO.P,J10,6,6*%
%TO.N,GPIO42*%
X172000000Y-34500000D03*
%TO.P,J10,7,7*%
%TO.N,GPIO41*%
X174540000Y-34500000D03*
%TO.P,J10,8,8*%
%TO.N,GPIO40*%
X177080000Y-34500000D03*
%TO.P,J10,9,9*%
%TO.N,GPIO39*%
X179620000Y-34500000D03*
%TO.P,J10,10,10*%
%TO.N,GPIO38*%
X182160000Y-34500000D03*
%TD*%
D14*
%TO.P,D4,1,K*%
%TO.N,VCC*%
X126000000Y-98000000D03*
%TO.P,D4,2,A*%
%TO.N,VBUS*%
X121700000Y-98000000D03*
%TD*%
D15*
%TO.P,J9,A1,GND*%
%TO.N,GND*%
X111200000Y-69140000D03*
%TO.P,J9,A4,VBUS*%
%TO.N,VBUS*%
X112050000Y-69140000D03*
%TO.P,J9,A5,CC1*%
%TO.N,Net-(J9-CC1)*%
X112900000Y-69140000D03*
%TO.P,J9,A6,DP1*%
%TO.N,D+*%
X113750000Y-69140000D03*
%TO.P,J9,A7,DN1*%
%TO.N,D-*%
X114600000Y-69140000D03*
%TO.P,J9,A8,SBU1*%
%TO.N,unconnected-(J9-SBU1-PadA8)*%
X115450000Y-69140000D03*
%TO.P,J9,A9,VBUS*%
%TO.N,VBUS*%
X116300000Y-69140000D03*
%TO.P,J9,A12,GND*%
%TO.N,GND*%
X117150000Y-69140000D03*
%TO.P,J9,B1,GND*%
X117150000Y-70490000D03*
%TO.P,J9,B4,VBUS*%
%TO.N,VBUS*%
X116300000Y-70490000D03*
%TO.P,J9,B5,CC2*%
%TO.N,Net-(J9-CC2)*%
X115450000Y-70490000D03*
%TO.P,J9,B6,DP2*%
%TO.N,unconnected-(J9-DP2-PadB6)*%
X114600000Y-70490000D03*
%TO.P,J9,B7,DN2*%
%TO.N,unconnected-(J9-DN2-PadB7)*%
X113750000Y-70490000D03*
%TO.P,J9,B8,SBU2*%
%TO.N,unconnected-(J9-SBU2-PadB8)*%
X112900000Y-70490000D03*
%TO.P,J9,B9,VBUS*%
%TO.N,VBUS*%
X112050000Y-70490000D03*
%TO.P,J9,B12,GND*%
%TO.N,GND*%
X111200000Y-70490000D03*
D16*
%TO.P,J9,S1,SHELL*%
X109850000Y-73500000D03*
%TO.P,J9,S2,SHELL*%
X118500000Y-73500000D03*
D17*
%TO.P,J9,S3,SHELL*%
X109850000Y-70120000D03*
%TO.P,J9,S4,SHELL*%
X118500000Y-70120000D03*
%TD*%
D12*
%TO.P,J2,1,1*%
%TO.N,VCC*%
X105000000Y-96000000D03*
D13*
%TO.P,J2,2,2*%
%TO.N,GND*%
X105000000Y-99500000D03*
%TD*%
D18*
%TO.P,C3,1,1*%
%TO.N,GND*%
X172725000Y-115095000D03*
%TO.P,C3,2,2*%
%TO.N,3V3*%
X171325000Y-115095000D03*
%TD*%
D19*
%TO.P,R1,1,1*%
%TO.N,A1*%
X165300000Y-89000000D03*
%TO.P,R1,2,2*%
%TO.N,3V3*%
X165300000Y-87400000D03*
%TD*%
D20*
%TO.P,U5,1,RO*%
%TO.N,RO2*%
X184788000Y-59740000D03*
%TO.P,U5,2,~{RE}*%
%TO.N,DE{slash}RE 2*%
X184788000Y-61010000D03*
%TO.P,U5,3,DE*%
X184788000Y-62280000D03*
%TO.P,U5,4,DI*%
%TO.N,DI2*%
X184788000Y-63550000D03*
%TO.P,U5,5,GND*%
%TO.N,GND*%
X190212000Y-63550000D03*
%TO.P,U5,6,A*%
%TO.N,A2*%
X190212000Y-62280000D03*
%TO.P,U5,7,B*%
%TO.N,B2*%
X190212000Y-61010000D03*
%TO.P,U5,8,VCC*%
%TO.N,3V3*%
X190212000Y-59740000D03*
%TD*%
D10*
%TO.P,C8,1,1*%
%TO.N,GND*%
X178260000Y-71800000D03*
%TO.P,C8,2,2*%
%TO.N,3V3*%
X178260000Y-70400000D03*
%TD*%
D12*
%TO.P,J7,1,1*%
%TO.N,GPIO21*%
X130000000Y-59000000D03*
D13*
%TO.P,J7,2,2*%
%TO.N,ESP_IO*%
X127460000Y-59000000D03*
%TD*%
D21*
%TO.P,R16,1,1*%
%TO.N,Net-(J9-CC2)*%
X118575000Y-96425000D03*
%TO.P,R16,2,2*%
%TO.N,GND*%
X116975000Y-96425000D03*
%TD*%
D22*
%TO.P,C5,1,+*%
%TO.N,3V3*%
X132620000Y-125500000D03*
%TO.P,C5,2,-*%
%TO.N,GND*%
X127680000Y-125500000D03*
%TD*%
D19*
%TO.P,R23,1,1*%
%TO.N,A2*%
X178050000Y-89000000D03*
%TO.P,R23,2,2*%
%TO.N,3V3*%
X178050000Y-87400000D03*
%TD*%
D18*
%TO.P,C13,1,1*%
%TO.N,GND*%
X124600000Y-46500000D03*
%TO.P,C13,2,2*%
%TO.N,ESP_IO*%
X126000000Y-46500000D03*
%TD*%
D12*
%TO.P,J3,1,1*%
%TO.N,VCC*%
X105000000Y-85750000D03*
D13*
%TO.P,J3,2,2*%
%TO.N,GND*%
X105000000Y-89250000D03*
%TD*%
D19*
%TO.P,R22,1,1*%
%TO.N,DE{slash}RE 2*%
X175500000Y-89000000D03*
%TO.P,R22,2,2*%
%TO.N,GND*%
X175500000Y-87400000D03*
%TD*%
D20*
%TO.P,U1,1,RO*%
%TO.N,RO1*%
X184788000Y-53190000D03*
%TO.P,U1,2,~{RE}*%
%TO.N,DE{slash}RE 1*%
X184788000Y-54460000D03*
%TO.P,U1,3,DE*%
X184788000Y-55730000D03*
%TO.P,U1,4,DI*%
%TO.N,DI1*%
X184788000Y-57000000D03*
%TO.P,U1,5,GND*%
%TO.N,GND*%
X190212000Y-57000000D03*
%TO.P,U1,6,A*%
%TO.N,A1*%
X190212000Y-55730000D03*
%TO.P,U1,7,B*%
%TO.N,B1*%
X190212000Y-54460000D03*
%TO.P,U1,8,VCC*%
%TO.N,3V3*%
X190212000Y-53190000D03*
%TD*%
D21*
%TO.P,R26,1,1*%
%TO.N,Net-(D6-A)*%
X140150000Y-116500000D03*
%TO.P,R26,2,2*%
%TO.N,GPIO21*%
X141750000Y-116500000D03*
%TD*%
D19*
%TO.P,R10,1,1*%
%TO.N,3V3*%
X163725000Y-107695000D03*
%TO.P,R10,2,2*%
%TO.N,SD DET*%
X163725000Y-106095000D03*
%TD*%
%TO.P,R20,1,1*%
%TO.N,SDA*%
X124050000Y-89500000D03*
%TO.P,R20,2,2*%
%TO.N,3V3*%
X124050000Y-87900000D03*
%TD*%
D18*
%TO.P,C11,1,1*%
%TO.N,GND*%
X117100000Y-46820000D03*
%TO.P,C11,2,2*%
%TO.N,ESP_EN*%
X118500000Y-46820000D03*
%TD*%
D23*
%TO.P,D6,1,K*%
%TO.N,GND*%
X147650000Y-113000000D03*
%TO.P,D6,2,A*%
%TO.N,Net-(D6-A)*%
X147650000Y-114500000D03*
%TD*%
D24*
%TO.P,BT1,1,+*%
%TO.N,Net-(BT1-+)*%
X149000000Y-72845000D03*
%TO.P,BT1,2,-*%
%TO.N,GND*%
X149000000Y-102155000D03*
D25*
%TO.P,BT1,3,EP*%
X149000000Y-87500000D03*
%TD*%
D19*
%TO.P,R4,1,1*%
%TO.N,ESP_IO*%
X124850000Y-39820000D03*
%TO.P,R4,2,2*%
%TO.N,3V3*%
X124850000Y-38220000D03*
%TD*%
%TO.P,R17,1,1*%
%TO.N,DE{slash}RE 1*%
X172950000Y-89000000D03*
%TO.P,R17,2,2*%
%TO.N,GND*%
X172950000Y-87400000D03*
%TD*%
D26*
%TO.P,U3,1,ADJ/GND*%
%TO.N,GND*%
X128500000Y-114700000D03*
%TO.P,U3,2,OUTPUT*%
%TO.N,3V3*%
X128500000Y-117000000D03*
%TO.P,U3,3,INPUT*%
%TO.N,VCC*%
X128500000Y-119300000D03*
D27*
%TO.P,U3,4,VOUT*%
%TO.N,3V3*%
X134800000Y-117000000D03*
%TD*%
D19*
%TO.P,R24,1,1*%
%TO.N,GND*%
X180600000Y-89000000D03*
%TO.P,R24,2,2*%
%TO.N,B2*%
X180600000Y-87400000D03*
%TD*%
D28*
%TO.P,C4,1,1*%
%TO.N,VCC*%
X125050000Y-119500000D03*
%TO.P,C4,2,2*%
%TO.N,GND*%
X122250000Y-119500000D03*
%TD*%
D29*
%TO.P,D7,1,K*%
%TO.N,GND*%
X129550000Y-109000000D03*
%TO.P,D7,2,A*%
%TO.N,Net-(D7-A)*%
X131150000Y-109000000D03*
%TD*%
D21*
%TO.P,R11,1,1*%
%TO.N,Net-(D2-A)*%
X155500000Y-108500000D03*
%TO.P,R11,2,2*%
%TO.N,3V3*%
X157100000Y-108500000D03*
%TD*%
D18*
%TO.P,C14,1,1*%
%TO.N,GND*%
X109500000Y-52000000D03*
%TO.P,C14,2,2*%
%TO.N,3V3*%
X110900000Y-52000000D03*
%TD*%
D30*
%TO.P,C10,1,1*%
%TO.N,GND*%
X109100000Y-56000000D03*
%TO.P,C10,2,2*%
%TO.N,3V3*%
X111000000Y-56000000D03*
%TD*%
D19*
%TO.P,R19,1,1*%
%TO.N,SCL*%
X121500000Y-89500000D03*
%TO.P,R19,2,2*%
%TO.N,3V3*%
X121500000Y-87900000D03*
%TD*%
%TO.P,R2,1,1*%
%TO.N,GND*%
X167850000Y-89000000D03*
%TO.P,R2,2,2*%
%TO.N,B1*%
X167850000Y-87400000D03*
%TD*%
D31*
%TO.P,J8,1,TIP_TERMINAL_(CENTER_PIN)*%
%TO.N,VCC*%
X115690000Y-112545000D03*
D32*
%TO.P,J8,2,SHUNT_TERMINAL*%
%TO.N,GND*%
X106550000Y-105355000D03*
%TO.P,J8,3,SLEEVE_TERMINAL*%
X106550000Y-118645000D03*
D33*
%TO.P,J8,4*%
%TO.N,N/C*%
X102790000Y-111785000D03*
%TD*%
D11*
%TO.P,SW2,1,K*%
%TO.N,GND*%
X108800000Y-46500000D03*
%TO.P,SW2,2,A*%
%TO.N,ESP_IO*%
X112200000Y-46500000D03*
%TD*%
D10*
%TO.P,C1,1,1*%
%TO.N,GND*%
X175970000Y-71800000D03*
%TO.P,C1,2,2*%
%TO.N,3V3*%
X175970000Y-70400000D03*
%TD*%
D19*
%TO.P,R12,1,1*%
%TO.N,ESP_EN*%
X116000000Y-58500000D03*
%TO.P,R12,2,2*%
%TO.N,3V3*%
X116000000Y-56900000D03*
%TD*%
D34*
%TO.P,D5,1,1*%
%TO.N,A2*%
X175950000Y-60210000D03*
%TO.P,D5,2,2*%
%TO.N,B2*%
X174050000Y-60210000D03*
%TO.P,D5,3,3*%
%TO.N,GND*%
X175000000Y-62500000D03*
%TD*%
D35*
%TO.P,U2,1,GND_1*%
%TO.N,GND*%
X131075000Y-32740000D03*
%TO.P,U2,2,3V3*%
%TO.N,3V3*%
X131075000Y-34010000D03*
%TO.P,U2,3,EN*%
%TO.N,ESP_EN*%
X131075000Y-35280000D03*
%TO.P,U2,4,IO4*%
%TO.N,DE{slash}RE 1*%
X131075000Y-36550000D03*
%TO.P,U2,5,IO5*%
%TO.N,DI2*%
X131075000Y-37820000D03*
%TO.P,U2,6,IO6*%
%TO.N,RO2*%
X131075000Y-39090000D03*
%TO.P,U2,7,IO7*%
%TO.N,DE{slash}RE 2*%
X131075000Y-40360000D03*
%TO.P,U2,8,IO15*%
%TO.N,SD DET*%
X131075000Y-41630000D03*
%TO.P,U2,9,IO16*%
%TO.N,SQW*%
X131075000Y-42900000D03*
%TO.P,U2,10,IO17*%
%TO.N,unconnected-(U2-IO17-Pad10)*%
X131075000Y-44170000D03*
%TO.P,U2,11,IO18*%
%TO.N,unconnected-(U2-IO18-Pad11)*%
X131075000Y-45440000D03*
%TO.P,U2,12,IO8*%
%TO.N,SDA*%
X131075000Y-46710000D03*
%TO.P,U2,13,IO19*%
%TO.N,D-*%
X131075000Y-47980000D03*
%TO.P,U2,14,IO20*%
%TO.N,D+*%
X131075000Y-49250000D03*
D36*
%TO.P,U2,15,IO3*%
%TO.N,unconnected-(U2-IO3-Pad15)*%
X132840000Y-50500000D03*
%TO.P,U2,16,IO46*%
%TO.N,unconnected-(U2-IO46-Pad16)*%
X134110000Y-50500000D03*
%TO.P,U2,17,IO9*%
%TO.N,SCL*%
X135380000Y-50500000D03*
%TO.P,U2,18,IO10*%
%TO.N,SD CS*%
X136650000Y-50500000D03*
%TO.P,U2,19,IO11*%
%TO.N,SD MOSI*%
X137920000Y-50500000D03*
%TO.P,U2,20,IO12*%
%TO.N,3V3*%
X139190000Y-50500000D03*
%TO.P,U2,21,IO13*%
%TO.N,SD MISO*%
X140460000Y-50500000D03*
%TO.P,U2,22,IO14*%
%TO.N,unconnected-(U2-IO14-Pad22)*%
X141730000Y-50500000D03*
%TO.P,U2,23,IO21*%
%TO.N,GPIO21*%
X143000000Y-50500000D03*
%TO.P,U2,24,IO47*%
%TO.N,unconnected-(U2-IO47-Pad24)*%
X144270000Y-50500000D03*
%TO.P,U2,25,IO48*%
%TO.N,unconnected-(U2-IO48-Pad25)*%
X145540000Y-50500000D03*
%TO.P,U2,26,IO45*%
%TO.N,unconnected-(U2-IO45-Pad26)*%
X146810000Y-50500000D03*
D35*
%TO.P,U2,27,IO0*%
%TO.N,ESP_IO*%
X148575000Y-49250000D03*
%TO.P,U2,28,IO35*%
%TO.N,unconnected-(U2-IO35-Pad28)*%
X148575000Y-47980000D03*
%TO.P,U2,29,IO36*%
%TO.N,unconnected-(U2-IO36-Pad29)*%
X148575000Y-46710000D03*
%TO.P,U2,30,IO37*%
%TO.N,unconnected-(U2-IO37-Pad30)*%
X148575000Y-45440000D03*
%TO.P,U2,31,IO38*%
%TO.N,GPIO38*%
X148575000Y-44170000D03*
%TO.P,U2,32,IO39*%
%TO.N,GPIO39*%
X148575000Y-42900000D03*
%TO.P,U2,33,IO40*%
%TO.N,GPIO40*%
X148575000Y-41630000D03*
%TO.P,U2,34,IO41*%
%TO.N,GPIO41*%
X148575000Y-40360000D03*
%TO.P,U2,35,IO42*%
%TO.N,GPIO42*%
X148575000Y-39090000D03*
%TO.P,U2,36,RXD0*%
%TO.N,U0RX*%
X148575000Y-37820000D03*
%TO.P,U2,37,TXD0*%
%TO.N,U0TX*%
X148575000Y-36550000D03*
%TO.P,U2,38,IO2*%
%TO.N,RO1*%
X148575000Y-35280000D03*
%TO.P,U2,39,IO1*%
%TO.N,DI1*%
X148575000Y-34010000D03*
%TO.P,U2,40,GND_2*%
%TO.N,GND*%
X148575000Y-32740000D03*
D37*
%TO.P,U2,41,GND_3*%
X138325000Y-40460000D03*
%TO.P,U2,42,GND_4*%
X136925000Y-39060000D03*
%TO.P,U2,43,GND_5*%
X136925000Y-40460000D03*
%TO.P,U2,44,GND_6*%
X136925000Y-41860000D03*
%TO.P,U2,45,GND_7*%
X138325000Y-41860000D03*
%TO.P,U2,46,GND_8*%
X139725000Y-41860000D03*
%TO.P,U2,47,GND_9*%
X139725000Y-40460000D03*
%TO.P,U2,48,GND_10*%
X139725000Y-39060000D03*
%TO.P,U2,49,GND_11*%
X138325000Y-39060000D03*
%TD*%
D20*
%TO.P,U4,1,32KHZ*%
%TO.N,unconnected-(U4-32KHZ-Pad1)*%
X133500000Y-78270000D03*
%TO.P,U4,2,VCC*%
%TO.N,3V3*%
X133500000Y-77000000D03*
%TO.P,U4,3,~{INT}/SQW*%
%TO.N,SQW*%
X133500000Y-75730000D03*
%TO.P,U4,4,~{RST}*%
%TO.N,unconnected-(U4-~{RST}-Pad4)*%
X133500000Y-74460000D03*
%TO.P,U4,5,GND*%
%TO.N,GND*%
X128076000Y-74460000D03*
%TO.P,U4,6,VBAT*%
%TO.N,Net-(BT1-+)*%
X128076000Y-75730000D03*
%TO.P,U4,7,SDA*%
%TO.N,SDA*%
X128076000Y-77000000D03*
%TO.P,U4,8,SCL*%
%TO.N,SCL*%
X128076000Y-78270000D03*
%TD*%
D21*
%TO.P,R27,1,1*%
%TO.N,Net-(D7-A)*%
X121650000Y-109000000D03*
%TO.P,R27,2,2*%
%TO.N,VCC*%
X123250000Y-109000000D03*
%TD*%
D12*
%TO.P,J4,1,1*%
%TO.N,A1*%
X161000000Y-53645000D03*
D13*
%TO.P,J4,2,2*%
%TO.N,B1*%
X164500000Y-53645000D03*
%TD*%
D19*
%TO.P,R3,1,1*%
%TO.N,B1*%
X170400000Y-89000000D03*
%TO.P,R3,2,2*%
%TO.N,A1*%
X170400000Y-87400000D03*
%TD*%
%TO.P,R7,1,1*%
%TO.N,Net-(J1-DAT2)*%
X174225000Y-107695000D03*
%TO.P,R7,2,2*%
%TO.N,3V3*%
X174225000Y-106095000D03*
%TD*%
D34*
%TO.P,D1,1,1*%
%TO.N,A1*%
X175950000Y-53855000D03*
%TO.P,D1,2,2*%
%TO.N,B1*%
X174050000Y-53855000D03*
%TO.P,D1,3,3*%
%TO.N,GND*%
X175000000Y-56145000D03*
%TD*%
D19*
%TO.P,R18,1,1*%
%TO.N,SQW*%
X191500000Y-40000000D03*
%TO.P,R18,2,2*%
%TO.N,3V3*%
X191500000Y-41600000D03*
%TD*%
%TO.P,R25,1,1*%
%TO.N,B2*%
X183150000Y-89000000D03*
%TO.P,R25,2,2*%
%TO.N,A2*%
X183150000Y-87400000D03*
%TD*%
%TO.P,R6,1,1*%
%TO.N,SD CS*%
X170725000Y-106095000D03*
%TO.P,R6,2,2*%
%TO.N,3V3*%
X170725000Y-107695000D03*
%TD*%
%TO.P,R8,1,1*%
%TO.N,SD MISO*%
X180960000Y-124075000D03*
%TO.P,R8,2,2*%
%TO.N,3V3*%
X180960000Y-122475000D03*
%TD*%
D38*
%TO.P,J1,1,DAT2*%
%TO.N,Net-(J1-DAT2)*%
X181460000Y-109975000D03*
%TO.P,J1,2,CD/DAT3*%
%TO.N,SD CS*%
X181460000Y-108875000D03*
%TO.P,J1,3,CMD*%
%TO.N,SD MOSI*%
X181460000Y-107775000D03*
%TO.P,J1,4,VDD*%
%TO.N,3V3*%
X181460000Y-106675000D03*
%TO.P,J1,5,CLK*%
X181460000Y-105575000D03*
%TO.P,J1,6,VSS*%
%TO.N,GND*%
X181460000Y-104475000D03*
%TO.P,J1,7,DAT0*%
%TO.N,SD MISO*%
X181460000Y-103375000D03*
%TO.P,J1,8,DAT1*%
%TO.N,Net-(J1-DAT1)*%
X181460000Y-102275000D03*
D39*
%TO.P,J1,9,DETECT_LEVER*%
%TO.N,GND*%
X193925000Y-111765000D03*
D40*
%TO.P,J1,10,DETECT_SWITCH*%
%TO.N,SD DET*%
X194000000Y-107500000D03*
D41*
%TO.P,J1,11,11*%
%TO.N,GND*%
X192725000Y-101115000D03*
D42*
%TO.P,J1,12,12*%
X181960000Y-101195000D03*
D43*
%TO.P,J1,13,13*%
X181475000Y-113855000D03*
D41*
%TO.P,J1,14,14*%
X192725000Y-114075000D03*
%TD*%
D18*
%TO.P,C12,1,1*%
%TO.N,GND*%
X109100000Y-62000000D03*
%TO.P,C12,2,2*%
%TO.N,ESP_EN*%
X110500000Y-62000000D03*
%TD*%
D44*
%TO.P,C2,1,1*%
%TO.N,GND*%
X177000000Y-76500000D03*
%TO.P,C2,2,2*%
%TO.N,3V3*%
X177000000Y-74700000D03*
%TD*%
D10*
%TO.P,C7,1,1*%
%TO.N,3V3*%
X121110000Y-85675000D03*
%TO.P,C7,2,2*%
%TO.N,GND*%
X121110000Y-84275000D03*
%TD*%
D19*
%TO.P,R9,1,1*%
%TO.N,3V3*%
X167725000Y-107695000D03*
%TO.P,R9,2,2*%
%TO.N,Net-(J1-DAT1)*%
X167725000Y-106095000D03*
%TD*%
D44*
%TO.P,C9,1,1*%
%TO.N,GND*%
X182000000Y-76000000D03*
%TO.P,C9,2,2*%
%TO.N,3V3*%
X182000000Y-74200000D03*
%TD*%
D21*
%TO.P,R15,1,1*%
%TO.N,Net-(J9-CC1)*%
X118575000Y-98975000D03*
%TO.P,R15,2,2*%
%TO.N,GND*%
X116975000Y-98975000D03*
%TD*%
D45*
%TO.P,D2,1,K*%
%TO.N,GND*%
X139150000Y-108400000D03*
%TO.P,D2,2,A*%
%TO.N,Net-(D2-A)*%
X139150000Y-110000000D03*
%TD*%
D12*
%TO.P,J5,1,1*%
%TO.N,A2*%
X161000000Y-64045000D03*
D13*
%TO.P,J5,2,2*%
%TO.N,B2*%
X164500000Y-64045000D03*
%TD*%
D19*
%TO.P,R5,1,1*%
%TO.N,SD MOSI*%
X173310000Y-124075000D03*
%TO.P,R5,2,2*%
%TO.N,3V3*%
X173310000Y-122475000D03*
%TD*%
D46*
%TO.N,GND*%
X136000000Y-35000000D03*
X120500000Y-123500000D03*
X123500000Y-127500000D03*
X149000000Y-110500000D03*
X141500000Y-108000000D03*
X110500000Y-100500000D03*
X154000000Y-86000000D03*
X151000000Y-106000000D03*
X181000000Y-91500000D03*
X182000000Y-70500000D03*
X181000000Y-79000000D03*
X114500000Y-100000000D03*
X178525000Y-104475000D03*
X111500000Y-105000000D03*
X174500000Y-84500000D03*
X124000000Y-83500000D03*
X116000000Y-49500000D03*
X177145000Y-56145000D03*
X105000000Y-57000000D03*
X107500000Y-39000000D03*
X111000000Y-89000000D03*
X107500000Y-46500000D03*
X125000000Y-113000000D03*
X192000000Y-117000000D03*
X196500000Y-111000000D03*
X123500000Y-49500000D03*
X174500000Y-116000000D03*
X193000000Y-63500000D03*
X178500000Y-101000000D03*
X176000000Y-65000000D03*
X127500000Y-32000000D03*
X107000000Y-51000000D03*
X168500000Y-91500000D03*
X130500000Y-111500000D03*
X176000000Y-79000000D03*
X177000000Y-84500000D03*
X194000000Y-98500000D03*
X152500000Y-32000000D03*
X115000000Y-95500000D03*
X118000000Y-87500000D03*
X105500000Y-60500000D03*
X107500000Y-122500000D03*
X173500000Y-71000000D03*
X193500000Y-56000000D03*
X183000000Y-116500000D03*
X125000000Y-73000000D03*
%TO.N,3V3*%
X128500000Y-34000000D03*
X184500000Y-74000000D03*
X180960000Y-120540000D03*
X174500000Y-104500000D03*
X122500000Y-37000000D03*
X120000000Y-88500000D03*
X135500000Y-124500000D03*
X193500000Y-42000000D03*
X125500000Y-116500000D03*
X124000000Y-85000000D03*
X192500000Y-52500000D03*
X119000000Y-82500000D03*
X139500000Y-54000000D03*
X174500000Y-69500000D03*
X158000000Y-110500000D03*
X126000000Y-87000000D03*
X174500000Y-74500000D03*
X110500000Y-50000000D03*
X181000000Y-69500000D03*
X171000000Y-109500000D03*
X164000000Y-109500000D03*
X192000000Y-60000000D03*
X111000000Y-59000000D03*
X169500000Y-114500000D03*
X173500000Y-120500000D03*
X117000000Y-54500000D03*
X136000000Y-76000000D03*
X168000000Y-109500000D03*
X137000000Y-119000000D03*
X178500000Y-105500000D03*
X178500000Y-107000000D03*
X178500000Y-85500000D03*
%TO.N,DI1*%
X161500000Y-36000000D03*
X173500000Y-48500000D03*
%TO.N,DE{slash}RE 2*%
X189500000Y-65500000D03*
X131000000Y-40500000D03*
%TO.N,SDA*%
X131000000Y-47000000D03*
X125000000Y-83000000D03*
X131000000Y-47000000D03*
X126000000Y-77000000D03*
%TO.N,SCL*%
X130000000Y-80500000D03*
X135500000Y-50500000D03*
X122500000Y-91000000D03*
%TO.N,RO2*%
X131000000Y-39000000D03*
X187000000Y-60000000D03*
%TO.N,Net-(D7-A)*%
X123000000Y-105500000D03*
X131000000Y-106500000D03*
%TO.N,ESP_IO*%
X115500000Y-41500000D03*
X128000000Y-49500000D03*
X122500000Y-41500000D03*
X126500000Y-40000000D03*
X148000000Y-53000000D03*
X128000000Y-45500000D03*
%TO.N,VCC*%
X128500000Y-121500000D03*
%TO.N,B1*%
X174000000Y-51000000D03*
X186500000Y-48500000D03*
%TO.N,A1*%
X168000000Y-57500000D03*
X194500000Y-53500000D03*
X171500000Y-57500000D03*
X176000000Y-52500000D03*
%TO.N,D-*%
X128500000Y-48000000D03*
X114674265Y-67674265D03*
%TO.N,SD MISO*%
X140500000Y-50500000D03*
X181500000Y-103500000D03*
%TO.N,B2*%
X172000000Y-60000000D03*
X194500000Y-62500000D03*
X164500000Y-62945000D03*
X192500000Y-61000000D03*
%TO.N,SD MOSI*%
X177500000Y-104500000D03*
X178212925Y-107775000D03*
X176500000Y-124000000D03*
X138000000Y-54500000D03*
%TO.N,A2*%
X177000000Y-61000000D03*
X177000000Y-61000000D03*
X168000000Y-67000000D03*
%TO.N,SD CS*%
X136500000Y-54500000D03*
X171000000Y-104000000D03*
%TO.N,DE{slash}RE 1*%
X182500000Y-56000000D03*
X181500000Y-59500000D03*
X131075000Y-36550000D03*
%TO.N,SD DET*%
X178000000Y-93000000D03*
X131000000Y-41500000D03*
%TO.N,SQW*%
X191500000Y-38000000D03*
X131000000Y-43000000D03*
X133500000Y-75730000D03*
X126500000Y-70000000D03*
%TO.N,DI2*%
X183530331Y-63530331D03*
X131000000Y-38000000D03*
%TD*%
D47*
%TO.N,GND*%
X136925000Y-35925000D02*
X136000000Y-35000000D01*
X136925000Y-39060000D02*
X136925000Y-35925000D01*
X117100000Y-46820000D02*
X117100000Y-48400000D01*
X192950000Y-63550000D02*
X193000000Y-63500000D01*
X147650000Y-111850000D02*
X149000000Y-110500000D01*
X111145000Y-105355000D02*
X111500000Y-105000000D01*
X106550000Y-121550000D02*
X107500000Y-122500000D01*
X105000000Y-89250000D02*
X110750000Y-89250000D01*
X141100000Y-108400000D02*
X141500000Y-108000000D01*
X109150000Y-39320000D02*
X107820000Y-39320000D01*
X181960000Y-101195000D02*
X178695000Y-101195000D01*
X129550000Y-110550000D02*
X130500000Y-111500000D01*
X118820000Y-85675000D02*
X118820000Y-86680000D01*
X180700000Y-71800000D02*
X182000000Y-70500000D01*
X195735000Y-111765000D02*
X196500000Y-111000000D01*
X115925000Y-96425000D02*
X115000000Y-95500000D01*
X124600000Y-46500000D02*
X124600000Y-48400000D01*
X192500000Y-57000000D02*
X193500000Y-56000000D01*
X117100000Y-48400000D02*
X116000000Y-49500000D01*
X178500000Y-104500000D02*
X178525000Y-104475000D01*
X190212000Y-57000000D02*
X192500000Y-57000000D01*
X174300000Y-71800000D02*
X173500000Y-71000000D01*
X193925000Y-111765000D02*
X195735000Y-111765000D01*
X107820000Y-39320000D02*
X107500000Y-39000000D01*
X127680000Y-125500000D02*
X125500000Y-125500000D01*
X172950000Y-86050000D02*
X174500000Y-84500000D01*
X108800000Y-46500000D02*
X107500000Y-46500000D01*
X128240000Y-32740000D02*
X127500000Y-32000000D01*
X116975000Y-96425000D02*
X115925000Y-96425000D01*
X106550000Y-105355000D02*
X111145000Y-105355000D01*
X172950000Y-87400000D02*
X172950000Y-86050000D01*
X182000000Y-76000000D02*
X182000000Y-78000000D01*
X123225000Y-84275000D02*
X124000000Y-83500000D01*
X180600000Y-91100000D02*
X181000000Y-91500000D01*
X106000000Y-56000000D02*
X105000000Y-57000000D01*
X147650000Y-113000000D02*
X147650000Y-111850000D01*
X148575000Y-32740000D02*
X151760000Y-32740000D01*
X106550000Y-118645000D02*
X106550000Y-121550000D01*
X172725000Y-115095000D02*
X173595000Y-115095000D01*
X126700000Y-114700000D02*
X125000000Y-113000000D01*
X177145000Y-56145000D02*
X175000000Y-56145000D01*
X180600000Y-89000000D02*
X180600000Y-91100000D01*
X181475000Y-113855000D02*
X181475000Y-114975000D01*
X116975000Y-98975000D02*
X115525000Y-98975000D01*
X109100000Y-62000000D02*
X107000000Y-62000000D01*
X150500000Y-86000000D02*
X154000000Y-86000000D01*
X192725000Y-99775000D02*
X194000000Y-98500000D01*
X107000000Y-62000000D02*
X105500000Y-60500000D01*
X167850000Y-89000000D02*
X167850000Y-90850000D01*
X181475000Y-114975000D02*
X183000000Y-116500000D01*
X115525000Y-98975000D02*
X114500000Y-100000000D01*
X122250000Y-121750000D02*
X120500000Y-123500000D01*
X109100000Y-56000000D02*
X106000000Y-56000000D01*
X139150000Y-108400000D02*
X141100000Y-108400000D01*
X175000000Y-64000000D02*
X176000000Y-65000000D01*
X177000000Y-76500000D02*
X177000000Y-78000000D01*
X192725000Y-116275000D02*
X192000000Y-117000000D01*
X129550000Y-109000000D02*
X129550000Y-110550000D01*
X121110000Y-84275000D02*
X123225000Y-84275000D01*
X182000000Y-78000000D02*
X181000000Y-79000000D01*
X108000000Y-52000000D02*
X107000000Y-51000000D01*
X109500000Y-52000000D02*
X108000000Y-52000000D01*
X192725000Y-101115000D02*
X192725000Y-99775000D01*
X149000000Y-102155000D02*
X149000000Y-104000000D01*
X125500000Y-125500000D02*
X123500000Y-127500000D01*
X149000000Y-87500000D02*
X150500000Y-86000000D01*
X178695000Y-101195000D02*
X178500000Y-101000000D01*
X149000000Y-104000000D02*
X151000000Y-106000000D01*
X105000000Y-99500000D02*
X106000000Y-100500000D01*
X177000000Y-78000000D02*
X176000000Y-79000000D01*
X181460000Y-104475000D02*
X178525000Y-104475000D01*
X110750000Y-89250000D02*
X111000000Y-89000000D01*
X167850000Y-90850000D02*
X168500000Y-91500000D01*
X175000000Y-62500000D02*
X175000000Y-64000000D01*
X190212000Y-63550000D02*
X192950000Y-63550000D01*
X124600000Y-48400000D02*
X123500000Y-49500000D01*
X131075000Y-32740000D02*
X128240000Y-32740000D01*
X126460000Y-74460000D02*
X128076000Y-74460000D01*
X151760000Y-32740000D02*
X152500000Y-32000000D01*
X122250000Y-119500000D02*
X122250000Y-121750000D01*
X128500000Y-114700000D02*
X126700000Y-114700000D01*
X118820000Y-86680000D02*
X118000000Y-87500000D01*
X175500000Y-87400000D02*
X175500000Y-86000000D01*
X178260000Y-71800000D02*
X180700000Y-71800000D01*
X173595000Y-115095000D02*
X174500000Y-116000000D01*
X106000000Y-100500000D02*
X110500000Y-100500000D01*
X125000000Y-73000000D02*
X126460000Y-74460000D01*
X175970000Y-71800000D02*
X174300000Y-71800000D01*
X192725000Y-114075000D02*
X192725000Y-116275000D01*
X175500000Y-86000000D02*
X177000000Y-84500000D01*
%TO.N,3V3*%
X190212000Y-53190000D02*
X191810000Y-53190000D01*
X123720000Y-38220000D02*
X122500000Y-37000000D01*
X111000000Y-56000000D02*
X111000000Y-59000000D01*
X121500000Y-87900000D02*
X120600000Y-87900000D01*
X178825000Y-106675000D02*
X178500000Y-107000000D01*
X178260000Y-70400000D02*
X180100000Y-70400000D01*
X177000000Y-74700000D02*
X174700000Y-74700000D01*
X178050000Y-85950000D02*
X178500000Y-85500000D01*
X181000000Y-120500000D02*
X180960000Y-120540000D01*
X124050000Y-87900000D02*
X125100000Y-87900000D01*
X121110000Y-85675000D02*
X123325000Y-85675000D01*
X180100000Y-70400000D02*
X181000000Y-69500000D01*
X174225000Y-104775000D02*
X174500000Y-104500000D01*
X182000000Y-74200000D02*
X184300000Y-74200000D01*
X175970000Y-70400000D02*
X175400000Y-70400000D01*
X123325000Y-85675000D02*
X124000000Y-85000000D01*
X178575000Y-105575000D02*
X178500000Y-105500000D01*
X191500000Y-41600000D02*
X193100000Y-41600000D01*
X170725000Y-109225000D02*
X171000000Y-109500000D01*
X110900000Y-52000000D02*
X110900000Y-50400000D01*
X134500000Y-125500000D02*
X135500000Y-124500000D01*
X163725000Y-107695000D02*
X163725000Y-109225000D01*
X163725000Y-109225000D02*
X164000000Y-109500000D01*
X174225000Y-106095000D02*
X174225000Y-104775000D01*
X135000000Y-77000000D02*
X136000000Y-76000000D01*
X181460000Y-106675000D02*
X178825000Y-106675000D01*
X157100000Y-108500000D02*
X157100000Y-109600000D01*
X116000000Y-55500000D02*
X117000000Y-54500000D01*
X134800000Y-117000000D02*
X135000000Y-117000000D01*
X171325000Y-115095000D02*
X170095000Y-115095000D01*
X116000000Y-56900000D02*
X116000000Y-55500000D01*
X193100000Y-41600000D02*
X193500000Y-42000000D01*
X128510000Y-34010000D02*
X128500000Y-34000000D01*
X180960000Y-122475000D02*
X180960000Y-120540000D01*
X167725000Y-107695000D02*
X167725000Y-109225000D01*
X173310000Y-122475000D02*
X173310000Y-120690000D01*
X118820000Y-84275000D02*
X118820000Y-82680000D01*
X190212000Y-59740000D02*
X191740000Y-59740000D01*
X133500000Y-77000000D02*
X135000000Y-77000000D01*
X175400000Y-70400000D02*
X174500000Y-69500000D01*
X184300000Y-74200000D02*
X184500000Y-74000000D01*
X126000000Y-117000000D02*
X125500000Y-116500000D01*
X174700000Y-74700000D02*
X174500000Y-74500000D01*
X135000000Y-117000000D02*
X137000000Y-119000000D01*
X131075000Y-34010000D02*
X128510000Y-34010000D01*
X173310000Y-120690000D02*
X173500000Y-120500000D01*
X139190000Y-50500000D02*
X139190000Y-53690000D01*
X120600000Y-87900000D02*
X120000000Y-88500000D01*
X118820000Y-82680000D02*
X119000000Y-82500000D01*
X124850000Y-38220000D02*
X123720000Y-38220000D01*
X139190000Y-53690000D02*
X139500000Y-54000000D01*
X132620000Y-125500000D02*
X134500000Y-125500000D01*
X178050000Y-87400000D02*
X178050000Y-85950000D01*
X167725000Y-109225000D02*
X168000000Y-109500000D01*
X125100000Y-87900000D02*
X126000000Y-87000000D01*
X170095000Y-115095000D02*
X169500000Y-114500000D01*
X110900000Y-50400000D02*
X110500000Y-50000000D01*
X181460000Y-105575000D02*
X178575000Y-105575000D01*
X157100000Y-109600000D02*
X158000000Y-110500000D01*
X191810000Y-53190000D02*
X192500000Y-52500000D01*
X128500000Y-117000000D02*
X126000000Y-117000000D01*
X170725000Y-107695000D02*
X170725000Y-109225000D01*
X191740000Y-59740000D02*
X192000000Y-60000000D01*
%TO.N,DI1*%
X161500000Y-34840000D02*
X161840000Y-34500000D01*
X156500000Y-32000000D02*
X159340000Y-32000000D01*
X184788000Y-57000000D02*
X182000000Y-57000000D01*
X159340000Y-32000000D02*
X161840000Y-34500000D01*
X154490000Y-34010000D02*
X156500000Y-32000000D01*
X148575000Y-34010000D02*
X154490000Y-34010000D01*
X182000000Y-57000000D02*
X173500000Y-48500000D01*
X161500000Y-36000000D02*
X161500000Y-34840000D01*
%TO.N,DE{slash}RE 2*%
X188500000Y-65500000D02*
X186000000Y-68000000D01*
X186000000Y-68000000D02*
X182500000Y-64500000D01*
X184788000Y-62280000D02*
X184788000Y-61010000D01*
X186000000Y-76562075D02*
X186000000Y-68000000D01*
X189500000Y-65500000D02*
X188500000Y-65500000D01*
X131075000Y-40360000D02*
X131075000Y-40425000D01*
X182500000Y-63500000D02*
X183720000Y-62280000D01*
X175500000Y-89000000D02*
X176426000Y-88074000D01*
X183720000Y-62280000D02*
X184788000Y-62280000D01*
X182500000Y-64500000D02*
X182500000Y-63500000D01*
X176426000Y-88074000D02*
X176426000Y-86136075D01*
X176426000Y-86136075D02*
X186000000Y-76562075D01*
X131075000Y-40425000D02*
X131000000Y-40500000D01*
%TO.N,RO1*%
X148575000Y-35280000D02*
X154780000Y-35280000D01*
X157299000Y-37799000D02*
X162701000Y-37799000D01*
X164380000Y-33120000D02*
X164380000Y-34500000D01*
X184788000Y-53190000D02*
X184788000Y-35323463D01*
X184788000Y-35323463D02*
X180964537Y-31500000D01*
X164380000Y-36120000D02*
X164380000Y-34500000D01*
X154780000Y-35280000D02*
X157299000Y-37799000D01*
X180964537Y-31500000D02*
X166000000Y-31500000D01*
X166000000Y-31500000D02*
X164380000Y-33120000D01*
X162701000Y-37799000D02*
X164380000Y-36120000D01*
%TO.N,SDA*%
X124050000Y-89500000D02*
X123124000Y-88574000D01*
X123124000Y-87049000D02*
X125000000Y-85173000D01*
X123124000Y-88574000D02*
X123124000Y-87049000D01*
X125000000Y-85173000D02*
X125000000Y-83000000D01*
X131075000Y-46925000D02*
X131000000Y-47000000D01*
X126000000Y-77000000D02*
X128076000Y-77000000D01*
X131075000Y-46710000D02*
X131075000Y-46925000D01*
%TO.N,SCL*%
X121500000Y-90500000D02*
X121500000Y-89500000D01*
X122500000Y-91000000D02*
X122000000Y-91000000D01*
X135380000Y-50500000D02*
X135500000Y-50500000D01*
X128076000Y-78270000D02*
X130000000Y-80194000D01*
X130000000Y-80194000D02*
X130000000Y-80500000D01*
X122000000Y-91000000D02*
X121500000Y-90500000D01*
%TO.N,RO2*%
X185048000Y-60000000D02*
X184788000Y-59740000D01*
X131075000Y-39075000D02*
X131000000Y-39000000D01*
X187000000Y-60000000D02*
X185048000Y-60000000D01*
X131075000Y-39090000D02*
X131075000Y-39075000D01*
%TO.N,GPIO39*%
X172000000Y-45500000D02*
X179620000Y-37880000D01*
X148575000Y-42900000D02*
X152900000Y-42900000D01*
X152900000Y-42900000D02*
X155500000Y-45500000D01*
X179620000Y-37880000D02*
X179620000Y-34500000D01*
X155500000Y-45500000D02*
X172000000Y-45500000D01*
%TO.N,Net-(D6-A)*%
X140150000Y-116500000D02*
X140150000Y-115850000D01*
X140150000Y-115850000D02*
X141500000Y-114500000D01*
X141500000Y-114500000D02*
X147650000Y-114500000D01*
%TO.N,Net-(D7-A)*%
X121650000Y-106850000D02*
X123000000Y-105500000D01*
X121650000Y-109000000D02*
X121650000Y-106850000D01*
X131000000Y-108850000D02*
X131150000Y-109000000D01*
X131000000Y-106500000D02*
X131000000Y-108850000D01*
%TO.N,ESP_IO*%
X122500000Y-41500000D02*
X123170000Y-41500000D01*
X114500000Y-41500000D02*
X115500000Y-41500000D01*
X127749000Y-49249000D02*
X127749000Y-45751000D01*
X112200000Y-43800000D02*
X114500000Y-41500000D01*
X126000000Y-57540000D02*
X127460000Y-59000000D01*
X127749000Y-45751000D02*
X128000000Y-45500000D01*
X112200000Y-46500000D02*
X112200000Y-43800000D01*
X127000000Y-46500000D02*
X128000000Y-45500000D01*
X148575000Y-52425000D02*
X148000000Y-53000000D01*
X126000000Y-46500000D02*
X126000000Y-57540000D01*
X123170000Y-41500000D02*
X124850000Y-39820000D01*
X126000000Y-46500000D02*
X127000000Y-46500000D01*
X125030000Y-40000000D02*
X124850000Y-39820000D01*
X128000000Y-49500000D02*
X127749000Y-49249000D01*
X148575000Y-49250000D02*
X148575000Y-52425000D01*
X126500000Y-40000000D02*
X125030000Y-40000000D01*
%TO.N,ESP_EN*%
X129720000Y-35280000D02*
X131075000Y-35280000D01*
X127500000Y-41500000D02*
X127500000Y-37500000D01*
X118500000Y-46820000D02*
X118500000Y-56000000D01*
X114500000Y-62000000D02*
X116000000Y-60500000D01*
X112550000Y-39320000D02*
X115320000Y-39320000D01*
X118500000Y-42500000D02*
X118500000Y-46820000D01*
X110500000Y-62000000D02*
X114500000Y-62000000D01*
X127500000Y-37500000D02*
X129720000Y-35280000D01*
X122180000Y-46820000D02*
X127500000Y-41500000D01*
X118500000Y-56000000D02*
X116000000Y-58500000D01*
X115320000Y-39320000D02*
X118500000Y-42500000D01*
X116000000Y-60500000D02*
X116000000Y-58500000D01*
X118500000Y-46820000D02*
X122180000Y-46820000D01*
%TO.N,VCC*%
X121455000Y-112545000D02*
X123250000Y-110750000D01*
X123000000Y-116000000D02*
X125050000Y-118050000D01*
X112000000Y-98000000D02*
X112000000Y-101000000D01*
X113000000Y-93000000D02*
X110000000Y-96000000D01*
X110000000Y-96000000D02*
X112000000Y-98000000D01*
X119145000Y-116000000D02*
X123000000Y-116000000D01*
X128500000Y-119300000D02*
X128500000Y-121500000D01*
X123250000Y-110750000D02*
X123250000Y-109000000D01*
X124500000Y-109000000D02*
X126000000Y-107500000D01*
X126000000Y-98500000D02*
X126000000Y-98000000D01*
X125050000Y-119500000D02*
X128300000Y-119500000D01*
X122500000Y-102000000D02*
X126000000Y-98500000D01*
X112000000Y-101000000D02*
X113000000Y-102000000D01*
X126000000Y-107500000D02*
X126000000Y-98000000D01*
X105000000Y-85750000D02*
X110750000Y-85750000D01*
X123250000Y-109000000D02*
X124500000Y-109000000D01*
X128300000Y-119500000D02*
X128500000Y-119300000D01*
X110000000Y-96000000D02*
X105000000Y-96000000D01*
X125050000Y-118050000D02*
X125050000Y-119500000D01*
X115690000Y-112545000D02*
X121455000Y-112545000D01*
X115690000Y-112545000D02*
X119145000Y-116000000D01*
X113000000Y-102000000D02*
X122500000Y-102000000D01*
X110750000Y-85750000D02*
X113000000Y-88000000D01*
X113000000Y-88000000D02*
X113000000Y-93000000D01*
%TO.N,B1*%
X174000000Y-53805000D02*
X174050000Y-53855000D01*
X169474000Y-56500000D02*
X169474000Y-56026000D01*
X192040000Y-54460000D02*
X194500000Y-52000000D01*
X193000000Y-48500000D02*
X186500000Y-48500000D01*
X170400000Y-89000000D02*
X169474000Y-88074000D01*
X166619000Y-53645000D02*
X169474000Y-56500000D01*
X169474000Y-56026000D02*
X171645000Y-53855000D01*
X167850000Y-87400000D02*
X168800000Y-87400000D01*
X171645000Y-53855000D02*
X174050000Y-53855000D01*
X194500000Y-50000000D02*
X193000000Y-48500000D01*
X169474000Y-88074000D02*
X169474000Y-56500000D01*
X194500000Y-52000000D02*
X194500000Y-50000000D01*
X190212000Y-54460000D02*
X192040000Y-54460000D01*
X168800000Y-87400000D02*
X169474000Y-88074000D01*
X164500000Y-53645000D02*
X166619000Y-53645000D01*
X174000000Y-51000000D02*
X174000000Y-53805000D01*
%TO.N,A1*%
X170500000Y-93000000D02*
X171500000Y-92000000D01*
X179000000Y-55500000D02*
X177355000Y-53855000D01*
X170400000Y-60100000D02*
X172500000Y-58000000D01*
X164855000Y-57500000D02*
X168000000Y-57500000D01*
X161000000Y-53645000D02*
X164855000Y-57500000D01*
X165300000Y-90800000D02*
X167500000Y-93000000D01*
X192270000Y-55730000D02*
X194500000Y-53500000D01*
X176000000Y-53805000D02*
X175950000Y-53855000D01*
X171500000Y-57500000D02*
X172000000Y-57500000D01*
X171500000Y-92000000D02*
X171500000Y-88500000D01*
X176000000Y-52500000D02*
X176000000Y-53805000D01*
X167500000Y-93000000D02*
X170500000Y-93000000D01*
X172500000Y-58000000D02*
X177500000Y-58000000D01*
X179000000Y-56500000D02*
X179000000Y-55500000D01*
X165300000Y-89000000D02*
X165300000Y-90800000D01*
X170400000Y-87400000D02*
X170400000Y-60100000D01*
X171500000Y-88500000D02*
X170400000Y-87400000D01*
X190212000Y-55730000D02*
X192270000Y-55730000D01*
X177355000Y-53855000D02*
X175950000Y-53855000D01*
X172000000Y-57500000D02*
X172500000Y-58000000D01*
X177500000Y-58000000D02*
X179000000Y-56500000D01*
D48*
%TO.N,D-*%
X129000000Y-48000000D02*
X129020000Y-47980000D01*
X114600000Y-69140000D02*
X114600000Y-67748530D01*
X129020000Y-47980000D02*
X131075000Y-47980000D01*
X128500000Y-48000000D02*
X129000000Y-48000000D01*
X114600000Y-67748530D02*
X114674265Y-67674265D01*
D47*
%TO.N,Net-(D2-A)*%
X139150000Y-110000000D02*
X139150000Y-110650000D01*
X144000000Y-112000000D02*
X148500000Y-107500000D01*
X139150000Y-110650000D02*
X140500000Y-112000000D01*
X148500000Y-107500000D02*
X154500000Y-107500000D01*
X154500000Y-107500000D02*
X155500000Y-108500000D01*
X140500000Y-112000000D02*
X144000000Y-112000000D01*
%TO.N,SD MISO*%
X140460000Y-50500000D02*
X140500000Y-50500000D01*
X180960000Y-124075000D02*
X186000000Y-119035000D01*
X186000000Y-105000000D02*
X184375000Y-103375000D01*
X186000000Y-119035000D02*
X186000000Y-105000000D01*
X183500000Y-103375000D02*
X181460000Y-103375000D01*
X184375000Y-103375000D02*
X183500000Y-103375000D01*
D48*
%TO.N,D+*%
X113750000Y-67750000D02*
X113750000Y-69140000D01*
X128586000Y-59914000D02*
X124500000Y-64000000D01*
X128586000Y-51739000D02*
X128586000Y-59914000D01*
X131075000Y-49250000D02*
X128586000Y-51739000D01*
X124500000Y-64000000D02*
X117500000Y-64000000D01*
X117500000Y-64000000D02*
X113750000Y-67750000D01*
D47*
%TO.N,B2*%
X192500000Y-61000000D02*
X190222000Y-61000000D01*
X190222000Y-61000000D02*
X190212000Y-61010000D01*
X195000000Y-63000000D02*
X194500000Y-62500000D01*
X181550000Y-87400000D02*
X183150000Y-89000000D01*
X173840000Y-60000000D02*
X174050000Y-60210000D01*
X195000000Y-73000000D02*
X195000000Y-63000000D01*
X180600000Y-87400000D02*
X181550000Y-87400000D01*
X172000000Y-60000000D02*
X173840000Y-60000000D01*
X180600000Y-87400000D02*
X195000000Y-73000000D01*
X164500000Y-64045000D02*
X164500000Y-62945000D01*
%TO.N,SD MOSI*%
X177968962Y-107531038D02*
X177718962Y-107281038D01*
X177718962Y-107281038D02*
X178212925Y-107775000D01*
X177968962Y-107531038D02*
X177500000Y-107062075D01*
X173385000Y-124000000D02*
X173310000Y-124075000D01*
X181460000Y-107775000D02*
X178212925Y-107775000D01*
X176500000Y-124000000D02*
X173385000Y-124000000D01*
X138000000Y-54500000D02*
X138000000Y-50580000D01*
X177500000Y-107062075D02*
X177500000Y-104500000D01*
X138000000Y-50580000D02*
X137920000Y-50500000D01*
%TO.N,A2*%
X194500000Y-59500000D02*
X193500000Y-58500000D01*
X185500000Y-91500000D02*
X185500000Y-88500000D01*
X184400000Y-87400000D02*
X183150000Y-87400000D01*
X190212000Y-62280000D02*
X193220000Y-62280000D01*
X197000000Y-63000000D02*
X195000000Y-61000000D01*
X161000000Y-64045000D02*
X161000000Y-65500000D01*
X177290000Y-60210000D02*
X175950000Y-60210000D01*
X183150000Y-87400000D02*
X189100000Y-87400000D01*
X194500000Y-61000000D02*
X194500000Y-59500000D01*
X193220000Y-62280000D02*
X194500000Y-61000000D01*
X184500000Y-92500000D02*
X185500000Y-91500000D01*
X177000000Y-61000000D02*
X176740000Y-61000000D01*
X179000000Y-58500000D02*
X177290000Y-60210000D01*
X178050000Y-89000000D02*
X178050000Y-90550000D01*
X162500000Y-67000000D02*
X168000000Y-67000000D01*
X180000000Y-92500000D02*
X184500000Y-92500000D01*
X178050000Y-90550000D02*
X180000000Y-92500000D01*
X193500000Y-58500000D02*
X179000000Y-58500000D01*
X197000000Y-79500000D02*
X197000000Y-63000000D01*
X189100000Y-87400000D02*
X197000000Y-79500000D01*
X176740000Y-61000000D02*
X175950000Y-60210000D01*
X161000000Y-65500000D02*
X162500000Y-67000000D01*
X195000000Y-61000000D02*
X194500000Y-61000000D01*
X185500000Y-88500000D02*
X184400000Y-87400000D01*
%TO.N,Net-(J1-DAT2)*%
X174225000Y-109225000D02*
X175000000Y-110000000D01*
X175000000Y-110000000D02*
X175025000Y-109975000D01*
X175025000Y-109975000D02*
X181460000Y-109975000D01*
X174225000Y-107695000D02*
X174225000Y-109225000D01*
%TO.N,SD CS*%
X170725000Y-106095000D02*
X173071000Y-103749000D01*
X176500000Y-105000000D02*
X176500000Y-108000000D01*
X170725000Y-104275000D02*
X171000000Y-104000000D01*
X177375000Y-108875000D02*
X181460000Y-108875000D01*
X136500000Y-50650000D02*
X136650000Y-50500000D01*
X176500000Y-108000000D02*
X177375000Y-108875000D01*
X175249000Y-103749000D02*
X176500000Y-105000000D01*
X170725000Y-106095000D02*
X170725000Y-104275000D01*
X136500000Y-54500000D02*
X136500000Y-50650000D01*
X173071000Y-103749000D02*
X175249000Y-103749000D01*
%TO.N,DE{slash}RE 1*%
X177751000Y-83749000D02*
X185251000Y-76249000D01*
X185251000Y-76249000D02*
X185251000Y-68242364D01*
X184788000Y-55730000D02*
X184788000Y-54460000D01*
X131075000Y-36550000D02*
X131025000Y-36500000D01*
X185251000Y-68242364D02*
X181500000Y-64491364D01*
X184518000Y-56000000D02*
X184788000Y-55730000D01*
X176688925Y-83749000D02*
X177751000Y-83749000D01*
X172950000Y-89000000D02*
X173876000Y-88074000D01*
X173876000Y-86561925D02*
X176688925Y-83749000D01*
X182500000Y-56000000D02*
X184518000Y-56000000D01*
X173876000Y-88074000D02*
X173876000Y-86561925D01*
X181500000Y-64491364D02*
X181500000Y-59500000D01*
%TO.N,SD DET*%
X131075000Y-41575000D02*
X131000000Y-41500000D01*
X163725000Y-104775000D02*
X173000000Y-95500000D01*
X180500000Y-95500000D02*
X195500000Y-95500000D01*
X131075000Y-41630000D02*
X131075000Y-41575000D01*
X197500000Y-106000000D02*
X196000000Y-107500000D01*
X178000000Y-93000000D02*
X180500000Y-95500000D01*
X173000000Y-95500000D02*
X180500000Y-95500000D01*
X195500000Y-95500000D02*
X197500000Y-97500000D01*
X196000000Y-107500000D02*
X194000000Y-107500000D01*
X163725000Y-106095000D02*
X163725000Y-104775000D01*
X197500000Y-97500000D02*
X197500000Y-106000000D01*
%TO.N,SQW*%
X131075000Y-42900000D02*
X131075000Y-42925000D01*
X131075000Y-42925000D02*
X131000000Y-43000000D01*
X133500000Y-75730000D02*
X134219500Y-75730000D01*
X135500000Y-74449500D02*
X135500000Y-71500000D01*
X134219500Y-75730000D02*
X135500000Y-74449500D01*
X134000000Y-70000000D02*
X126500000Y-70000000D01*
X191500000Y-38000000D02*
X191500000Y-40000000D01*
X135500000Y-71500000D02*
X134000000Y-70000000D01*
%TO.N,Net-(J1-DAT1)*%
X167725000Y-106095000D02*
X171545000Y-102275000D01*
X171545000Y-102275000D02*
X181460000Y-102275000D01*
%TO.N,U0RX*%
X166500000Y-39500000D02*
X169500000Y-36500000D01*
X169460000Y-36460000D02*
X169460000Y-34500000D01*
X155500000Y-39500000D02*
X166500000Y-39500000D01*
X169500000Y-36500000D02*
X169460000Y-36460000D01*
X148575000Y-37820000D02*
X153820000Y-37820000D01*
X153820000Y-37820000D02*
X155500000Y-39500000D01*
%TO.N,GPIO21*%
X132286500Y-110413500D02*
X132286500Y-84470000D01*
X122799000Y-67526000D02*
X130000000Y-60325000D01*
X132286500Y-84470000D02*
X122799000Y-74982500D01*
X130000000Y-60325000D02*
X130000000Y-59000000D01*
X140824000Y-117426000D02*
X139299000Y-117426000D01*
X122799000Y-74982500D02*
X122799000Y-67526000D01*
X143000000Y-55500000D02*
X143000000Y-50500000D01*
X139299000Y-117426000D02*
X132286500Y-110413500D01*
X139500000Y-59000000D02*
X143000000Y-55500000D01*
X130000000Y-59000000D02*
X139500000Y-59000000D01*
X141750000Y-116500000D02*
X140824000Y-117426000D01*
%TO.N,U0TX*%
X156000000Y-38500000D02*
X165000000Y-38500000D01*
X154050000Y-36550000D02*
X156000000Y-38500000D01*
X166920000Y-36580000D02*
X166920000Y-34500000D01*
X148575000Y-36550000D02*
X154050000Y-36550000D01*
X165000000Y-38500000D02*
X166920000Y-36580000D01*
%TO.N,GPIO42*%
X167000000Y-41500000D02*
X172000000Y-36500000D01*
X172000000Y-36500000D02*
X172000000Y-34500000D01*
X156250000Y-41500000D02*
X167000000Y-41500000D01*
X148575000Y-39090000D02*
X153840000Y-39090000D01*
X153840000Y-39090000D02*
X156250000Y-41500000D01*
%TO.N,GPIO41*%
X157000000Y-43500000D02*
X168000000Y-43500000D01*
X174540000Y-36960000D02*
X174540000Y-34500000D01*
X148575000Y-40360000D02*
X153860000Y-40360000D01*
X168000000Y-43500000D02*
X174540000Y-36960000D01*
X153860000Y-40360000D02*
X157000000Y-43500000D01*
%TO.N,DI2*%
X183530331Y-63530331D02*
X184768331Y-63530331D01*
X131075000Y-37925000D02*
X131000000Y-38000000D01*
X184768331Y-63530331D02*
X184788000Y-63550000D01*
X131075000Y-37820000D02*
X131075000Y-37925000D01*
%TO.N,GPIO40*%
X148575000Y-41630000D02*
X153630000Y-41630000D01*
X170500000Y-44500000D02*
X177080000Y-37920000D01*
X156500000Y-44500000D02*
X170500000Y-44500000D01*
X153630000Y-41630000D02*
X156500000Y-44500000D01*
X177080000Y-37920000D02*
X177080000Y-34500000D01*
%TO.N,GPIO38*%
X182000000Y-37500000D02*
X182000000Y-34660000D01*
X182000000Y-34660000D02*
X182160000Y-34500000D01*
X152670000Y-44170000D02*
X155000000Y-46500000D01*
X148575000Y-44170000D02*
X152670000Y-44170000D01*
X155000000Y-46500000D02*
X173000000Y-46500000D01*
X173000000Y-46500000D02*
X182000000Y-37500000D01*
%TO.N,Net-(BT1-+)*%
X146500000Y-68500000D02*
X126000000Y-68500000D01*
X123500000Y-71000000D02*
X123500000Y-73000000D01*
X126230000Y-75730000D02*
X128076000Y-75730000D01*
X149000000Y-71000000D02*
X146500000Y-68500000D01*
X149000000Y-72845000D02*
X149000000Y-71000000D01*
X126000000Y-68500000D02*
X123500000Y-71000000D01*
X123500000Y-73000000D02*
X126230000Y-75730000D01*
%TO.N,VBUS*%
X121700000Y-98000000D02*
X116300000Y-92600000D01*
X112050000Y-69140000D02*
X112050000Y-70490000D01*
X116300000Y-92600000D02*
X116300000Y-70490000D01*
X116300000Y-69140000D02*
X116300000Y-70490000D01*
%TO.N,Net-(J9-CC2)*%
X115450000Y-93300000D02*
X118575000Y-96425000D01*
X115450000Y-70490000D02*
X115450000Y-93300000D01*
%TO.N,Net-(J9-CC1)*%
X116486925Y-98049000D02*
X117649000Y-98049000D01*
X109581794Y-68364000D02*
X108949000Y-68996794D01*
X108949000Y-71449000D02*
X109699000Y-72199000D01*
X109699000Y-72199000D02*
X110223206Y-72199000D01*
X112900000Y-68892570D02*
X112371430Y-68364000D01*
X110223206Y-72199000D02*
X114249000Y-76224794D01*
X112900000Y-69140000D02*
X112900000Y-68892570D01*
X117649000Y-98049000D02*
X118575000Y-98975000D01*
X108949000Y-68996794D02*
X108949000Y-71449000D01*
X112371430Y-68364000D02*
X109581794Y-68364000D01*
X114249000Y-95811075D02*
X116486925Y-98049000D01*
X114249000Y-76224794D02*
X114249000Y-95811075D01*
%TD*%
M02*
