%TF.GenerationSoftware,KiCad,Pcbnew,9.0.7*%
%TF.CreationDate,2026-06-10T23:03:18-03:00*%
%TF.ProjectId,Estacion_Nivel,45737461-6369-46f6-9e5f-4e6976656c2e,rev?*%
%TF.SameCoordinates,Original*%
%TF.FileFunction,Soldermask,Top*%
%TF.FilePolarity,Negative*%
%FSLAX46Y46*%
G04 Gerber Fmt 4.6, Leading zero omitted, Abs format (unit mm)*
G04 Created by KiCad (PCBNEW 9.0.7) date 2026-06-10 23:03:18*
%MOMM*%
%LPD*%
G01*
G04 APERTURE LIST*
%ADD10R,0.940000X0.750000*%
%ADD11R,0.800000X1.700000*%
%ADD12R,1.650000X1.650000*%
%ADD13C,1.650000*%
%ADD14R,2.350000X1.550000*%
%ADD15C,0.854000*%
%ADD16O,1.104000X1.904000*%
%ADD17O,1.104000X2.604000*%
%ADD18R,0.750000X0.940000*%
%ADD19R,0.950000X0.800000*%
%ADD20R,1.525000X0.650000*%
%ADD21R,0.800000X0.950000*%
%ADD22R,2.370000X2.230000*%
%ADD23R,0.800000X0.800000*%
%ADD24R,3.610000X2.590000*%
%ADD25R,7.010000X11.000000*%
%ADD26R,1.750000X0.950000*%
%ADD27R,1.750000X3.200000*%
%ADD28R,1.020000X1.820000*%
%ADD29R,0.900000X0.950000*%
%ADD30R,0.700000X1.300000*%
%ADD31R,4.060000X3.300000*%
%ADD32R,6.350000X3.810000*%
%ADD33C,2.680000*%
%ADD34R,0.780000X0.780000*%
%ADD35R,1.500000X0.900000*%
%ADD36R,0.900000X1.500000*%
%ADD37R,0.900000X0.900000*%
%ADD38R,1.100000X0.700000*%
%ADD39R,0.930000X0.900000*%
%ADD40R,0.780000X1.050000*%
%ADD41R,3.330000X0.700000*%
%ADD42R,2.800000X0.860000*%
%ADD43R,1.830000X1.140000*%
%ADD44R,1.250000X0.600000*%
%ADD45R,0.950000X0.900000*%
G04 APERTURE END LIST*
D10*
%TO.C,C6*%
X118820000Y-85675000D03*
X118820000Y-84275000D03*
%TD*%
D11*
%TO.C,SW1*%
X109150000Y-39320000D03*
X112550000Y-39320000D03*
%TD*%
D12*
%TO.C,J10*%
X159300000Y-34500000D03*
D13*
X161840000Y-34500000D03*
X164380000Y-34500000D03*
X166920000Y-34500000D03*
X169460000Y-34500000D03*
X172000000Y-34500000D03*
X174540000Y-34500000D03*
X177080000Y-34500000D03*
X179620000Y-34500000D03*
X182160000Y-34500000D03*
%TD*%
D14*
%TO.C,D4*%
X126000000Y-98000000D03*
X121700000Y-98000000D03*
%TD*%
D15*
%TO.C,J9*%
X111200000Y-69140000D03*
X112050000Y-69140000D03*
X112900000Y-69140000D03*
X113750000Y-69140000D03*
X114600000Y-69140000D03*
X115450000Y-69140000D03*
X116300000Y-69140000D03*
X117150000Y-69140000D03*
X117150000Y-70490000D03*
X116300000Y-70490000D03*
X115450000Y-70490000D03*
X114600000Y-70490000D03*
X113750000Y-70490000D03*
X112900000Y-70490000D03*
X112050000Y-70490000D03*
X111200000Y-70490000D03*
D16*
X109850000Y-73500000D03*
X118500000Y-73500000D03*
D17*
X109850000Y-70120000D03*
X118500000Y-70120000D03*
%TD*%
D12*
%TO.C,J2*%
X105000000Y-96000000D03*
D13*
X105000000Y-99500000D03*
%TD*%
D18*
%TO.C,C3*%
X172725000Y-115095000D03*
X171325000Y-115095000D03*
%TD*%
D19*
%TO.C,R1*%
X165300000Y-89000000D03*
X165300000Y-87400000D03*
%TD*%
D20*
%TO.C,U5*%
X184788000Y-59740000D03*
X184788000Y-61010000D03*
X184788000Y-62280000D03*
X184788000Y-63550000D03*
X190212000Y-63550000D03*
X190212000Y-62280000D03*
X190212000Y-61010000D03*
X190212000Y-59740000D03*
%TD*%
D10*
%TO.C,C8*%
X178260000Y-71800000D03*
X178260000Y-70400000D03*
%TD*%
D12*
%TO.C,J7*%
X130000000Y-59000000D03*
D13*
X127460000Y-59000000D03*
%TD*%
D21*
%TO.C,R16*%
X118575000Y-96425000D03*
X116975000Y-96425000D03*
%TD*%
D22*
%TO.C,C5*%
X132620000Y-125500000D03*
X127680000Y-125500000D03*
%TD*%
D19*
%TO.C,R23*%
X178050000Y-89000000D03*
X178050000Y-87400000D03*
%TD*%
D18*
%TO.C,C13*%
X124600000Y-46500000D03*
X126000000Y-46500000D03*
%TD*%
D12*
%TO.C,J3*%
X105000000Y-85750000D03*
D13*
X105000000Y-89250000D03*
%TD*%
D19*
%TO.C,R22*%
X175500000Y-89000000D03*
X175500000Y-87400000D03*
%TD*%
D20*
%TO.C,U1*%
X184788000Y-53190000D03*
X184788000Y-54460000D03*
X184788000Y-55730000D03*
X184788000Y-57000000D03*
X190212000Y-57000000D03*
X190212000Y-55730000D03*
X190212000Y-54460000D03*
X190212000Y-53190000D03*
%TD*%
D21*
%TO.C,R26*%
X140150000Y-116500000D03*
X141750000Y-116500000D03*
%TD*%
D19*
%TO.C,R10*%
X163725000Y-107695000D03*
X163725000Y-106095000D03*
%TD*%
%TO.C,R20*%
X124050000Y-89500000D03*
X124050000Y-87900000D03*
%TD*%
D18*
%TO.C,C11*%
X117100000Y-46820000D03*
X118500000Y-46820000D03*
%TD*%
D23*
%TO.C,D6*%
X147650000Y-113000000D03*
X147650000Y-114500000D03*
%TD*%
D24*
%TO.C,BT1*%
X149000000Y-72845000D03*
X149000000Y-102155000D03*
D25*
X149000000Y-87500000D03*
%TD*%
D19*
%TO.C,R4*%
X124850000Y-39820000D03*
X124850000Y-38220000D03*
%TD*%
%TO.C,R17*%
X172950000Y-89000000D03*
X172950000Y-87400000D03*
%TD*%
D26*
%TO.C,U3*%
X128500000Y-114700000D03*
X128500000Y-117000000D03*
X128500000Y-119300000D03*
D27*
X134800000Y-117000000D03*
%TD*%
D19*
%TO.C,R24*%
X180600000Y-89000000D03*
X180600000Y-87400000D03*
%TD*%
D28*
%TO.C,C4*%
X125050000Y-119500000D03*
X122250000Y-119500000D03*
%TD*%
D29*
%TO.C,D7*%
X129550000Y-109000000D03*
X131150000Y-109000000D03*
%TD*%
D21*
%TO.C,R11*%
X155500000Y-108500000D03*
X157100000Y-108500000D03*
%TD*%
D18*
%TO.C,C14*%
X109500000Y-52000000D03*
X110900000Y-52000000D03*
%TD*%
D30*
%TO.C,C10*%
X109100000Y-56000000D03*
X111000000Y-56000000D03*
%TD*%
D19*
%TO.C,R19*%
X121500000Y-89500000D03*
X121500000Y-87900000D03*
%TD*%
%TO.C,R2*%
X167850000Y-89000000D03*
X167850000Y-87400000D03*
%TD*%
D31*
%TO.C,J8*%
X115690000Y-112545000D03*
D32*
X106550000Y-105355000D03*
X106550000Y-118645000D03*
D33*
X102790000Y-111785000D03*
%TD*%
D11*
%TO.C,SW2*%
X108800000Y-46500000D03*
X112200000Y-46500000D03*
%TD*%
D10*
%TO.C,C1*%
X175970000Y-71800000D03*
X175970000Y-70400000D03*
%TD*%
D19*
%TO.C,R12*%
X116000000Y-58500000D03*
X116000000Y-56900000D03*
%TD*%
D34*
%TO.C,D5*%
X175950000Y-60210000D03*
X174050000Y-60210000D03*
X175000000Y-62500000D03*
%TD*%
D35*
%TO.C,U2*%
X131075000Y-32740000D03*
X131075000Y-34010000D03*
X131075000Y-35280000D03*
X131075000Y-36550000D03*
X131075000Y-37820000D03*
X131075000Y-39090000D03*
X131075000Y-40360000D03*
X131075000Y-41630000D03*
X131075000Y-42900000D03*
X131075000Y-44170000D03*
X131075000Y-45440000D03*
X131075000Y-46710000D03*
X131075000Y-47980000D03*
X131075000Y-49250000D03*
D36*
X132840000Y-50500000D03*
X134110000Y-50500000D03*
X135380000Y-50500000D03*
X136650000Y-50500000D03*
X137920000Y-50500000D03*
X139190000Y-50500000D03*
X140460000Y-50500000D03*
X141730000Y-50500000D03*
X143000000Y-50500000D03*
X144270000Y-50500000D03*
X145540000Y-50500000D03*
X146810000Y-50500000D03*
D35*
X148575000Y-49250000D03*
X148575000Y-47980000D03*
X148575000Y-46710000D03*
X148575000Y-45440000D03*
X148575000Y-44170000D03*
X148575000Y-42900000D03*
X148575000Y-41630000D03*
X148575000Y-40360000D03*
X148575000Y-39090000D03*
X148575000Y-37820000D03*
X148575000Y-36550000D03*
X148575000Y-35280000D03*
X148575000Y-34010000D03*
X148575000Y-32740000D03*
D37*
X138325000Y-40460000D03*
X136925000Y-39060000D03*
X136925000Y-40460000D03*
X136925000Y-41860000D03*
X138325000Y-41860000D03*
X139725000Y-41860000D03*
X139725000Y-40460000D03*
X139725000Y-39060000D03*
X138325000Y-39060000D03*
%TD*%
D20*
%TO.C,U4*%
X133500000Y-78270000D03*
X133500000Y-77000000D03*
X133500000Y-75730000D03*
X133500000Y-74460000D03*
X128076000Y-74460000D03*
X128076000Y-75730000D03*
X128076000Y-77000000D03*
X128076000Y-78270000D03*
%TD*%
D21*
%TO.C,R27*%
X121650000Y-109000000D03*
X123250000Y-109000000D03*
%TD*%
D12*
%TO.C,J4*%
X161000000Y-53645000D03*
D13*
X164500000Y-53645000D03*
%TD*%
D19*
%TO.C,R3*%
X170400000Y-89000000D03*
X170400000Y-87400000D03*
%TD*%
%TO.C,R7*%
X174225000Y-107695000D03*
X174225000Y-106095000D03*
%TD*%
D34*
%TO.C,D1*%
X175950000Y-53855000D03*
X174050000Y-53855000D03*
X175000000Y-56145000D03*
%TD*%
D19*
%TO.C,R18*%
X191500000Y-40000000D03*
X191500000Y-41600000D03*
%TD*%
%TO.C,R25*%
X183150000Y-89000000D03*
X183150000Y-87400000D03*
%TD*%
%TO.C,R6*%
X170725000Y-106095000D03*
X170725000Y-107695000D03*
%TD*%
%TO.C,R8*%
X180960000Y-124075000D03*
X180960000Y-122475000D03*
%TD*%
D38*
%TO.C,J1*%
X181460000Y-109975000D03*
X181460000Y-108875000D03*
X181460000Y-107775000D03*
X181460000Y-106675000D03*
X181460000Y-105575000D03*
X181460000Y-104475000D03*
X181460000Y-103375000D03*
X181460000Y-102275000D03*
D39*
X193925000Y-111765000D03*
D40*
X194000000Y-107500000D03*
D41*
X192725000Y-101115000D03*
D42*
X181960000Y-101195000D03*
D43*
X181475000Y-113855000D03*
D41*
X192725000Y-114075000D03*
%TD*%
D18*
%TO.C,C12*%
X109100000Y-62000000D03*
X110500000Y-62000000D03*
%TD*%
D44*
%TO.C,C2*%
X177000000Y-76500000D03*
X177000000Y-74700000D03*
%TD*%
D10*
%TO.C,C7*%
X121110000Y-85675000D03*
X121110000Y-84275000D03*
%TD*%
D19*
%TO.C,R9*%
X167725000Y-107695000D03*
X167725000Y-106095000D03*
%TD*%
D44*
%TO.C,C9*%
X182000000Y-76000000D03*
X182000000Y-74200000D03*
%TD*%
D21*
%TO.C,R15*%
X118575000Y-98975000D03*
X116975000Y-98975000D03*
%TD*%
D45*
%TO.C,D2*%
X139150000Y-108400000D03*
X139150000Y-110000000D03*
%TD*%
D12*
%TO.C,J5*%
X161000000Y-64045000D03*
D13*
X164500000Y-64045000D03*
%TD*%
D19*
%TO.C,R5*%
X173310000Y-124075000D03*
X173310000Y-122475000D03*
%TD*%
M02*
