%TF.GenerationSoftware,KiCad,Pcbnew,9.0.7*%
%TF.CreationDate,2026-06-10T23:03:17-03:00*%
%TF.ProjectId,Estacion_Nivel,45737461-6369-46f6-9e5f-4e6976656c2e,rev?*%
%TF.SameCoordinates,Original*%
%TF.FileFunction,Copper,L3,Inr*%
%TF.FilePolarity,Positive*%
%FSLAX46Y46*%
G04 Gerber Fmt 4.6, Leading zero omitted, Abs format (unit mm)*
G04 Created by KiCad (PCBNEW 9.0.7) date 2026-06-10 23:03:17*
%MOMM*%
%LPD*%
G01*
G04 APERTURE LIST*
%TA.AperFunction,ComponentPad*%
%ADD10R,1.650000X1.650000*%
%TD*%
%TA.AperFunction,ComponentPad*%
%ADD11C,1.650000*%
%TD*%
%TA.AperFunction,ComponentPad*%
%ADD12C,0.650000*%
%TD*%
%TA.AperFunction,ComponentPad*%
%ADD13O,0.900000X1.700000*%
%TD*%
%TA.AperFunction,ComponentPad*%
%ADD14O,0.900000X2.400000*%
%TD*%
%TA.AperFunction,ComponentPad*%
%ADD15C,2.680000*%
%TD*%
%TA.AperFunction,ViaPad*%
%ADD16C,0.600000*%
%TD*%
G04 APERTURE END LIST*
D10*
%TO.N,GND*%
%TO.C,J10*%
X159300000Y-34500000D03*
D11*
%TO.N,DI1*%
X161840000Y-34500000D03*
%TO.N,RO1*%
X164380000Y-34500000D03*
%TO.N,U0TX*%
X166920000Y-34500000D03*
%TO.N,U0RX*%
X169460000Y-34500000D03*
%TO.N,GPIO42*%
X172000000Y-34500000D03*
%TO.N,GPIO41*%
X174540000Y-34500000D03*
%TO.N,GPIO40*%
X177080000Y-34500000D03*
%TO.N,GPIO39*%
X179620000Y-34500000D03*
%TO.N,GPIO38*%
X182160000Y-34500000D03*
%TD*%
D12*
%TO.N,GND*%
%TO.C,J9*%
X111200000Y-69140000D03*
%TO.N,VBUS*%
X112050000Y-69140000D03*
%TO.N,Net-(J9-CC1)*%
X112900000Y-69140000D03*
%TO.N,D+*%
X113750000Y-69140000D03*
%TO.N,D-*%
X114600000Y-69140000D03*
%TO.N,unconnected-(J9-SBU1-PadA8)*%
X115450000Y-69140000D03*
%TO.N,VBUS*%
X116300000Y-69140000D03*
%TO.N,GND*%
X117150000Y-69140000D03*
X117150000Y-70490000D03*
%TO.N,VBUS*%
X116300000Y-70490000D03*
%TO.N,Net-(J9-CC2)*%
X115450000Y-70490000D03*
%TO.N,unconnected-(J9-DP2-PadB6)*%
X114600000Y-70490000D03*
%TO.N,unconnected-(J9-DN2-PadB7)*%
X113750000Y-70490000D03*
%TO.N,unconnected-(J9-SBU2-PadB8)*%
X112900000Y-70490000D03*
%TO.N,VBUS*%
X112050000Y-70490000D03*
%TO.N,GND*%
X111200000Y-70490000D03*
D13*
X109850000Y-73500000D03*
X118500000Y-73500000D03*
D14*
X109850000Y-70120000D03*
X118500000Y-70120000D03*
%TD*%
D10*
%TO.N,VCC*%
%TO.C,J2*%
X105000000Y-96000000D03*
D11*
%TO.N,GND*%
X105000000Y-99500000D03*
%TD*%
D10*
%TO.N,GPIO21*%
%TO.C,J7*%
X130000000Y-59000000D03*
D11*
%TO.N,ESP_IO*%
X127460000Y-59000000D03*
%TD*%
D10*
%TO.N,VCC*%
%TO.C,J3*%
X105000000Y-85750000D03*
D11*
%TO.N,GND*%
X105000000Y-89250000D03*
%TD*%
D15*
%TO.N,N/C*%
%TO.C,J8*%
X102790000Y-111785000D03*
%TD*%
D10*
%TO.N,A1*%
%TO.C,J4*%
X161000000Y-53645000D03*
D11*
%TO.N,B1*%
X164500000Y-53645000D03*
%TD*%
D10*
%TO.N,A2*%
%TO.C,J5*%
X161000000Y-64045000D03*
D11*
%TO.N,B2*%
X164500000Y-64045000D03*
%TD*%
D16*
%TO.N,GND*%
X136000000Y-35000000D03*
X120500000Y-123500000D03*
X123500000Y-127500000D03*
X149000000Y-110500000D03*
X141500000Y-108000000D03*
X110500000Y-100500000D03*
X154000000Y-86000000D03*
X151000000Y-106000000D03*
X181000000Y-91500000D03*
X182000000Y-70500000D03*
X181000000Y-79000000D03*
X114500000Y-100000000D03*
X178525000Y-104475000D03*
X111500000Y-105000000D03*
X174500000Y-84500000D03*
X124000000Y-83500000D03*
X116000000Y-49500000D03*
X177145000Y-56145000D03*
X105000000Y-57000000D03*
X107500000Y-39000000D03*
X111000000Y-89000000D03*
X107500000Y-46500000D03*
X125000000Y-113000000D03*
X192000000Y-117000000D03*
X196500000Y-111000000D03*
X123500000Y-49500000D03*
X174500000Y-116000000D03*
X193000000Y-63500000D03*
X178500000Y-101000000D03*
X176000000Y-65000000D03*
X127500000Y-32000000D03*
X107000000Y-51000000D03*
X168500000Y-91500000D03*
X130500000Y-111500000D03*
X176000000Y-79000000D03*
X177000000Y-84500000D03*
X194000000Y-98500000D03*
X152500000Y-32000000D03*
X115000000Y-95500000D03*
X118000000Y-87500000D03*
X105500000Y-60500000D03*
X107500000Y-122500000D03*
X173500000Y-71000000D03*
X193500000Y-56000000D03*
X183000000Y-116500000D03*
X125000000Y-73000000D03*
%TO.N,3V3*%
X128500000Y-34000000D03*
X184500000Y-74000000D03*
X180960000Y-120540000D03*
X174500000Y-104500000D03*
X122500000Y-37000000D03*
X120000000Y-88500000D03*
X135500000Y-124500000D03*
X193500000Y-42000000D03*
X125500000Y-116500000D03*
X124000000Y-85000000D03*
X192500000Y-52500000D03*
X119000000Y-82500000D03*
X139500000Y-54000000D03*
X174500000Y-69500000D03*
X158000000Y-110500000D03*
X126000000Y-87000000D03*
X174500000Y-74500000D03*
X110500000Y-50000000D03*
X181000000Y-69500000D03*
X171000000Y-109500000D03*
X164000000Y-109500000D03*
X192000000Y-60000000D03*
X111000000Y-59000000D03*
X169500000Y-114500000D03*
X173500000Y-120500000D03*
X117000000Y-54500000D03*
X136000000Y-76000000D03*
X168000000Y-109500000D03*
X137000000Y-119000000D03*
X178500000Y-105500000D03*
X178500000Y-107000000D03*
X178500000Y-85500000D03*
%TO.N,DI1*%
X161500000Y-36000000D03*
X173500000Y-48500000D03*
%TO.N,DE{slash}RE 2*%
X189500000Y-65500000D03*
X131000000Y-40500000D03*
%TO.N,SDA*%
X131000000Y-47000000D03*
X125000000Y-83000000D03*
X131000000Y-47000000D03*
X126000000Y-77000000D03*
%TO.N,SCL*%
X130000000Y-80500000D03*
X135500000Y-50500000D03*
X122500000Y-91000000D03*
%TO.N,RO2*%
X131000000Y-39000000D03*
X187000000Y-60000000D03*
%TO.N,Net-(D7-A)*%
X123000000Y-105500000D03*
X131000000Y-106500000D03*
%TO.N,ESP_IO*%
X115500000Y-41500000D03*
X128000000Y-49500000D03*
X122500000Y-41500000D03*
X126500000Y-40000000D03*
X148000000Y-53000000D03*
X128000000Y-45500000D03*
%TO.N,VCC*%
X128500000Y-121500000D03*
%TO.N,B1*%
X174000000Y-51000000D03*
X186500000Y-48500000D03*
%TO.N,A1*%
X168000000Y-57500000D03*
X194500000Y-53500000D03*
X171500000Y-57500000D03*
X176000000Y-52500000D03*
%TO.N,D-*%
X128500000Y-48000000D03*
X114674265Y-67674265D03*
%TO.N,SD MISO*%
X140500000Y-50500000D03*
X181500000Y-103500000D03*
%TO.N,B2*%
X172000000Y-60000000D03*
X194500000Y-62500000D03*
X164500000Y-62945000D03*
X192500000Y-61000000D03*
%TO.N,SD MOSI*%
X177500000Y-104500000D03*
X178212925Y-107775000D03*
X176500000Y-124000000D03*
X138000000Y-54500000D03*
%TO.N,A2*%
X177000000Y-61000000D03*
X177000000Y-61000000D03*
X168000000Y-67000000D03*
%TO.N,SD CS*%
X136500000Y-54500000D03*
X171000000Y-104000000D03*
%TO.N,DE{slash}RE 1*%
X182500000Y-56000000D03*
X181500000Y-59500000D03*
X131075000Y-36550000D03*
%TO.N,SD DET*%
X178000000Y-93000000D03*
X131000000Y-41500000D03*
%TO.N,SQW*%
X191500000Y-38000000D03*
X131000000Y-43000000D03*
X133500000Y-75730000D03*
X126500000Y-70000000D03*
%TO.N,DI2*%
X183530331Y-63530331D03*
X131000000Y-38000000D03*
%TD*%
%TA.AperFunction,Conductor*%
%TO.N,3V3*%
G36*
X199442539Y-30520185D02*
G01*
X199488294Y-30572989D01*
X199499500Y-30624500D01*
X199499500Y-129375500D01*
X199479815Y-129442539D01*
X199427011Y-129488294D01*
X199375500Y-129499500D01*
X100624500Y-129499500D01*
X100557461Y-129479815D01*
X100511706Y-129427011D01*
X100500500Y-129375500D01*
X100500500Y-127421153D01*
X122699500Y-127421153D01*
X122699500Y-127578846D01*
X122730261Y-127733489D01*
X122730264Y-127733501D01*
X122790602Y-127879172D01*
X122790609Y-127879185D01*
X122878210Y-128010288D01*
X122878213Y-128010292D01*
X122989707Y-128121786D01*
X122989711Y-128121789D01*
X123120814Y-128209390D01*
X123120827Y-128209397D01*
X123266498Y-128269735D01*
X123266503Y-128269737D01*
X123421153Y-128300499D01*
X123421156Y-128300500D01*
X123421158Y-128300500D01*
X123578844Y-128300500D01*
X123578845Y-128300499D01*
X123733497Y-128269737D01*
X123879179Y-128209394D01*
X124010289Y-128121789D01*
X124121789Y-128010289D01*
X124209394Y-127879179D01*
X124269737Y-127733497D01*
X124300500Y-127578842D01*
X124300500Y-127421158D01*
X124300500Y-127421155D01*
X124300499Y-127421153D01*
X124269738Y-127266510D01*
X124269737Y-127266503D01*
X124269735Y-127266498D01*
X124209397Y-127120827D01*
X124209390Y-127120814D01*
X124121789Y-126989711D01*
X124121786Y-126989707D01*
X124010292Y-126878213D01*
X124010288Y-126878210D01*
X123879185Y-126790609D01*
X123879172Y-126790602D01*
X123733501Y-126730264D01*
X123733489Y-126730261D01*
X123578845Y-126699500D01*
X123578842Y-126699500D01*
X123421158Y-126699500D01*
X123421155Y-126699500D01*
X123266510Y-126730261D01*
X123266498Y-126730264D01*
X123120827Y-126790602D01*
X123120814Y-126790609D01*
X122989711Y-126878210D01*
X122989707Y-126878213D01*
X122878213Y-126989707D01*
X122878210Y-126989711D01*
X122790609Y-127120814D01*
X122790602Y-127120827D01*
X122730264Y-127266498D01*
X122730261Y-127266510D01*
X122699500Y-127421153D01*
X100500500Y-127421153D01*
X100500500Y-123421153D01*
X119699500Y-123421153D01*
X119699500Y-123578846D01*
X119730261Y-123733489D01*
X119730264Y-123733501D01*
X119790602Y-123879172D01*
X119790609Y-123879185D01*
X119878210Y-124010288D01*
X119878213Y-124010292D01*
X119989707Y-124121786D01*
X119989711Y-124121789D01*
X120120814Y-124209390D01*
X120120827Y-124209397D01*
X120266498Y-124269735D01*
X120266503Y-124269737D01*
X120421153Y-124300499D01*
X120421156Y-124300500D01*
X120421158Y-124300500D01*
X120578844Y-124300500D01*
X120578845Y-124300499D01*
X120733497Y-124269737D01*
X120879179Y-124209394D01*
X121010289Y-124121789D01*
X121121789Y-124010289D01*
X121181348Y-123921153D01*
X175699500Y-123921153D01*
X175699500Y-124078846D01*
X175730261Y-124233489D01*
X175730264Y-124233501D01*
X175790602Y-124379172D01*
X175790609Y-124379185D01*
X175878210Y-124510288D01*
X175878213Y-124510292D01*
X175989707Y-124621786D01*
X175989711Y-124621789D01*
X176120814Y-124709390D01*
X176120827Y-124709397D01*
X176266498Y-124769735D01*
X176266503Y-124769737D01*
X176421153Y-124800499D01*
X176421156Y-124800500D01*
X176421158Y-124800500D01*
X176578844Y-124800500D01*
X176578845Y-124800499D01*
X176733497Y-124769737D01*
X176879179Y-124709394D01*
X177010289Y-124621789D01*
X177121789Y-124510289D01*
X177209394Y-124379179D01*
X177269737Y-124233497D01*
X177300500Y-124078842D01*
X177300500Y-123921158D01*
X177300500Y-123921155D01*
X177300499Y-123921153D01*
X177269738Y-123766510D01*
X177269737Y-123766503D01*
X177256062Y-123733489D01*
X177209397Y-123620827D01*
X177209390Y-123620814D01*
X177121789Y-123489711D01*
X177121786Y-123489707D01*
X177010292Y-123378213D01*
X177010288Y-123378210D01*
X176879185Y-123290609D01*
X176879172Y-123290602D01*
X176733501Y-123230264D01*
X176733489Y-123230261D01*
X176578845Y-123199500D01*
X176578842Y-123199500D01*
X176421158Y-123199500D01*
X176421155Y-123199500D01*
X176266510Y-123230261D01*
X176266498Y-123230264D01*
X176120827Y-123290602D01*
X176120814Y-123290609D01*
X175989711Y-123378210D01*
X175989707Y-123378213D01*
X175878213Y-123489707D01*
X175878210Y-123489711D01*
X175790609Y-123620814D01*
X175790602Y-123620827D01*
X175730264Y-123766498D01*
X175730261Y-123766510D01*
X175699500Y-123921153D01*
X121181348Y-123921153D01*
X121209394Y-123879179D01*
X121269737Y-123733497D01*
X121300500Y-123578842D01*
X121300500Y-123421158D01*
X121300500Y-123421155D01*
X121300499Y-123421153D01*
X121274531Y-123290606D01*
X121269737Y-123266503D01*
X121269735Y-123266498D01*
X121209397Y-123120827D01*
X121209390Y-123120814D01*
X121121789Y-122989711D01*
X121121786Y-122989707D01*
X121010292Y-122878213D01*
X121010288Y-122878210D01*
X120879185Y-122790609D01*
X120879172Y-122790602D01*
X120733501Y-122730264D01*
X120733489Y-122730261D01*
X120578845Y-122699500D01*
X120578842Y-122699500D01*
X120421158Y-122699500D01*
X120421155Y-122699500D01*
X120266510Y-122730261D01*
X120266498Y-122730264D01*
X120120827Y-122790602D01*
X120120814Y-122790609D01*
X119989711Y-122878210D01*
X119989707Y-122878213D01*
X119878213Y-122989707D01*
X119878210Y-122989711D01*
X119790609Y-123120814D01*
X119790602Y-123120827D01*
X119730264Y-123266498D01*
X119730261Y-123266510D01*
X119699500Y-123421153D01*
X100500500Y-123421153D01*
X100500500Y-122421153D01*
X106699500Y-122421153D01*
X106699500Y-122578846D01*
X106730261Y-122733489D01*
X106730264Y-122733501D01*
X106790602Y-122879172D01*
X106790609Y-122879185D01*
X106878210Y-123010288D01*
X106878213Y-123010292D01*
X106989707Y-123121786D01*
X106989711Y-123121789D01*
X107120814Y-123209390D01*
X107120827Y-123209397D01*
X107258683Y-123266498D01*
X107266503Y-123269737D01*
X107421153Y-123300499D01*
X107421156Y-123300500D01*
X107421158Y-123300500D01*
X107578844Y-123300500D01*
X107578845Y-123300499D01*
X107589179Y-123298443D01*
X107614287Y-123293450D01*
X107614292Y-123293449D01*
X107699800Y-123276439D01*
X107733497Y-123269737D01*
X107879179Y-123209394D01*
X108010289Y-123121789D01*
X108121789Y-123010289D01*
X108209394Y-122879179D01*
X108269737Y-122733497D01*
X108300500Y-122578842D01*
X108300500Y-122421158D01*
X108300500Y-122421155D01*
X108300499Y-122421153D01*
X108269738Y-122266510D01*
X108269737Y-122266503D01*
X108209794Y-122121786D01*
X108209397Y-122120827D01*
X108209390Y-122120814D01*
X108121789Y-121989711D01*
X108121786Y-121989707D01*
X108010292Y-121878213D01*
X108010288Y-121878210D01*
X107879185Y-121790609D01*
X107879172Y-121790602D01*
X107733501Y-121730264D01*
X107733489Y-121730261D01*
X107578845Y-121699500D01*
X107578842Y-121699500D01*
X107421158Y-121699500D01*
X107421155Y-121699500D01*
X107266510Y-121730261D01*
X107266498Y-121730264D01*
X107120827Y-121790602D01*
X107120814Y-121790609D01*
X106989711Y-121878210D01*
X106989707Y-121878213D01*
X106878213Y-121989707D01*
X106878210Y-121989711D01*
X106790609Y-122120814D01*
X106790602Y-122120827D01*
X106730264Y-122266498D01*
X106730261Y-122266510D01*
X106699500Y-122421153D01*
X100500500Y-122421153D01*
X100500500Y-121421153D01*
X127699500Y-121421153D01*
X127699500Y-121578846D01*
X127730261Y-121733489D01*
X127730264Y-121733501D01*
X127790602Y-121879172D01*
X127790609Y-121879185D01*
X127878210Y-122010288D01*
X127878213Y-122010292D01*
X127989707Y-122121786D01*
X127989711Y-122121789D01*
X128120814Y-122209390D01*
X128120827Y-122209397D01*
X128258683Y-122266498D01*
X128266503Y-122269737D01*
X128421153Y-122300499D01*
X128421156Y-122300500D01*
X128421158Y-122300500D01*
X128578844Y-122300500D01*
X128578845Y-122300499D01*
X128733497Y-122269737D01*
X128879179Y-122209394D01*
X129010289Y-122121789D01*
X129121789Y-122010289D01*
X129209394Y-121879179D01*
X129269737Y-121733497D01*
X129300500Y-121578842D01*
X129300500Y-121421158D01*
X129300500Y-121421155D01*
X129300499Y-121421153D01*
X129269738Y-121266510D01*
X129269737Y-121266503D01*
X129269735Y-121266498D01*
X129209397Y-121120827D01*
X129209390Y-121120814D01*
X129121789Y-120989711D01*
X129121786Y-120989707D01*
X129010292Y-120878213D01*
X129010288Y-120878210D01*
X128879185Y-120790609D01*
X128879172Y-120790602D01*
X128733501Y-120730264D01*
X128733489Y-120730261D01*
X128578845Y-120699500D01*
X128578842Y-120699500D01*
X128421158Y-120699500D01*
X128421155Y-120699500D01*
X128266510Y-120730261D01*
X128266498Y-120730264D01*
X128120827Y-120790602D01*
X128120814Y-120790609D01*
X127989711Y-120878210D01*
X127989707Y-120878213D01*
X127878213Y-120989707D01*
X127878210Y-120989711D01*
X127790609Y-121120814D01*
X127790602Y-121120827D01*
X127730264Y-121266498D01*
X127730261Y-121266510D01*
X127699500Y-121421153D01*
X100500500Y-121421153D01*
X100500500Y-115921153D01*
X173699500Y-115921153D01*
X173699500Y-116078846D01*
X173730261Y-116233489D01*
X173730264Y-116233501D01*
X173790602Y-116379172D01*
X173790609Y-116379185D01*
X173878210Y-116510288D01*
X173878213Y-116510292D01*
X173989707Y-116621786D01*
X173989711Y-116621789D01*
X174120814Y-116709390D01*
X174120827Y-116709397D01*
X174258683Y-116766498D01*
X174266503Y-116769737D01*
X174421153Y-116800499D01*
X174421156Y-116800500D01*
X174421158Y-116800500D01*
X174578844Y-116800500D01*
X174578845Y-116800499D01*
X174733497Y-116769737D01*
X174879179Y-116709394D01*
X175010289Y-116621789D01*
X175121789Y-116510289D01*
X175181348Y-116421153D01*
X182199500Y-116421153D01*
X182199500Y-116578846D01*
X182230261Y-116733489D01*
X182230264Y-116733501D01*
X182290602Y-116879172D01*
X182290609Y-116879185D01*
X182378210Y-117010288D01*
X182378213Y-117010292D01*
X182489707Y-117121786D01*
X182489711Y-117121789D01*
X182620814Y-117209390D01*
X182620827Y-117209397D01*
X182766498Y-117269735D01*
X182766503Y-117269737D01*
X182921153Y-117300499D01*
X182921156Y-117300500D01*
X182921158Y-117300500D01*
X183078844Y-117300500D01*
X183078845Y-117300499D01*
X183233497Y-117269737D01*
X183379179Y-117209394D01*
X183510289Y-117121789D01*
X183621789Y-117010289D01*
X183681348Y-116921153D01*
X191199500Y-116921153D01*
X191199500Y-117078846D01*
X191230261Y-117233489D01*
X191230264Y-117233501D01*
X191290602Y-117379172D01*
X191290609Y-117379185D01*
X191378210Y-117510288D01*
X191378213Y-117510292D01*
X191489707Y-117621786D01*
X191489711Y-117621789D01*
X191620814Y-117709390D01*
X191620827Y-117709397D01*
X191766498Y-117769735D01*
X191766503Y-117769737D01*
X191921153Y-117800499D01*
X191921156Y-117800500D01*
X191921158Y-117800500D01*
X192078844Y-117800500D01*
X192078845Y-117800499D01*
X192233497Y-117769737D01*
X192379179Y-117709394D01*
X192510289Y-117621789D01*
X192621789Y-117510289D01*
X192709394Y-117379179D01*
X192769737Y-117233497D01*
X192800500Y-117078842D01*
X192800500Y-116921158D01*
X192800500Y-116921155D01*
X192800499Y-116921153D01*
X192769738Y-116766510D01*
X192769737Y-116766503D01*
X192709794Y-116621786D01*
X192709397Y-116620827D01*
X192709390Y-116620814D01*
X192621789Y-116489711D01*
X192621786Y-116489707D01*
X192510292Y-116378213D01*
X192510288Y-116378210D01*
X192379185Y-116290609D01*
X192379172Y-116290602D01*
X192233501Y-116230264D01*
X192233489Y-116230261D01*
X192078845Y-116199500D01*
X192078842Y-116199500D01*
X191921158Y-116199500D01*
X191921155Y-116199500D01*
X191766510Y-116230261D01*
X191766498Y-116230264D01*
X191620827Y-116290602D01*
X191620814Y-116290609D01*
X191489711Y-116378210D01*
X191489707Y-116378213D01*
X191378213Y-116489707D01*
X191378210Y-116489711D01*
X191290609Y-116620814D01*
X191290602Y-116620827D01*
X191230264Y-116766498D01*
X191230261Y-116766510D01*
X191199500Y-116921153D01*
X183681348Y-116921153D01*
X183709394Y-116879179D01*
X183769737Y-116733497D01*
X183800500Y-116578842D01*
X183800500Y-116421158D01*
X183800500Y-116421155D01*
X183800499Y-116421153D01*
X183774531Y-116290606D01*
X183769737Y-116266503D01*
X183756062Y-116233489D01*
X183709397Y-116120827D01*
X183709390Y-116120814D01*
X183621789Y-115989711D01*
X183621786Y-115989707D01*
X183510292Y-115878213D01*
X183510288Y-115878210D01*
X183379185Y-115790609D01*
X183379172Y-115790602D01*
X183233501Y-115730264D01*
X183233489Y-115730261D01*
X183078845Y-115699500D01*
X183078842Y-115699500D01*
X182921158Y-115699500D01*
X182921155Y-115699500D01*
X182766510Y-115730261D01*
X182766498Y-115730264D01*
X182620827Y-115790602D01*
X182620814Y-115790609D01*
X182489711Y-115878210D01*
X182489707Y-115878213D01*
X182378213Y-115989707D01*
X182378210Y-115989711D01*
X182290609Y-116120814D01*
X182290602Y-116120827D01*
X182230264Y-116266498D01*
X182230261Y-116266510D01*
X182199500Y-116421153D01*
X175181348Y-116421153D01*
X175209394Y-116379179D01*
X175269737Y-116233497D01*
X175300500Y-116078842D01*
X175300500Y-115921158D01*
X175300500Y-115921155D01*
X175300499Y-115921153D01*
X175274531Y-115790606D01*
X175269737Y-115766503D01*
X175269735Y-115766498D01*
X175209397Y-115620827D01*
X175209390Y-115620814D01*
X175121789Y-115489711D01*
X175121786Y-115489707D01*
X175010292Y-115378213D01*
X175010288Y-115378210D01*
X174879185Y-115290609D01*
X174879172Y-115290602D01*
X174733501Y-115230264D01*
X174733489Y-115230261D01*
X174578845Y-115199500D01*
X174578842Y-115199500D01*
X174421158Y-115199500D01*
X174421155Y-115199500D01*
X174266510Y-115230261D01*
X174266498Y-115230264D01*
X174120827Y-115290602D01*
X174120814Y-115290609D01*
X173989711Y-115378210D01*
X173989707Y-115378213D01*
X173878213Y-115489707D01*
X173878210Y-115489711D01*
X173790609Y-115620814D01*
X173790602Y-115620827D01*
X173730264Y-115766498D01*
X173730261Y-115766510D01*
X173699500Y-115921153D01*
X100500500Y-115921153D01*
X100500500Y-111664359D01*
X100949500Y-111664359D01*
X100949500Y-111905640D01*
X100973993Y-112091678D01*
X100980992Y-112144834D01*
X101043436Y-112377878D01*
X101043439Y-112377888D01*
X101135762Y-112600775D01*
X101135767Y-112600786D01*
X101256392Y-112809713D01*
X101256403Y-112809729D01*
X101403268Y-113001128D01*
X101403274Y-113001135D01*
X101573864Y-113171725D01*
X101573870Y-113171730D01*
X101765279Y-113318603D01*
X101765286Y-113318607D01*
X101974213Y-113439232D01*
X101974218Y-113439234D01*
X101974221Y-113439236D01*
X102197121Y-113531564D01*
X102430166Y-113594008D01*
X102669367Y-113625500D01*
X102669374Y-113625500D01*
X102910626Y-113625500D01*
X102910633Y-113625500D01*
X103149834Y-113594008D01*
X103382879Y-113531564D01*
X103605779Y-113439236D01*
X103814721Y-113318603D01*
X104006130Y-113171730D01*
X104176730Y-113001130D01*
X104238098Y-112921153D01*
X124199500Y-112921153D01*
X124199500Y-113078846D01*
X124230261Y-113233489D01*
X124230264Y-113233501D01*
X124290602Y-113379172D01*
X124290609Y-113379185D01*
X124378210Y-113510288D01*
X124378213Y-113510292D01*
X124489707Y-113621786D01*
X124489711Y-113621789D01*
X124620814Y-113709390D01*
X124620827Y-113709397D01*
X124766498Y-113769735D01*
X124766503Y-113769737D01*
X124921153Y-113800499D01*
X124921156Y-113800500D01*
X124921158Y-113800500D01*
X125078844Y-113800500D01*
X125078845Y-113800499D01*
X125233497Y-113769737D01*
X125379179Y-113709394D01*
X125510289Y-113621789D01*
X125621789Y-113510289D01*
X125709394Y-113379179D01*
X125769737Y-113233497D01*
X125800500Y-113078842D01*
X125800500Y-112921158D01*
X125800500Y-112921155D01*
X125800499Y-112921153D01*
X125778335Y-112809729D01*
X125769737Y-112766503D01*
X125769735Y-112766498D01*
X125709397Y-112620827D01*
X125709390Y-112620814D01*
X125621789Y-112489711D01*
X125621786Y-112489707D01*
X125510292Y-112378213D01*
X125510288Y-112378210D01*
X125379185Y-112290609D01*
X125379172Y-112290602D01*
X125233501Y-112230264D01*
X125233489Y-112230261D01*
X125078845Y-112199500D01*
X125078842Y-112199500D01*
X124921158Y-112199500D01*
X124921155Y-112199500D01*
X124766510Y-112230261D01*
X124766498Y-112230264D01*
X124620827Y-112290602D01*
X124620814Y-112290609D01*
X124489711Y-112378210D01*
X124489707Y-112378213D01*
X124378213Y-112489707D01*
X124378210Y-112489711D01*
X124290609Y-112620814D01*
X124290602Y-112620827D01*
X124230264Y-112766498D01*
X124230261Y-112766510D01*
X124199500Y-112921153D01*
X104238098Y-112921153D01*
X104300692Y-112839580D01*
X104323596Y-112809730D01*
X104323597Y-112809729D01*
X104323603Y-112809721D01*
X104444236Y-112600779D01*
X104536564Y-112377879D01*
X104599008Y-112144834D01*
X104630500Y-111905633D01*
X104630500Y-111664367D01*
X104599008Y-111425166D01*
X104597933Y-111421153D01*
X129699500Y-111421153D01*
X129699500Y-111578846D01*
X129730261Y-111733489D01*
X129730264Y-111733501D01*
X129790602Y-111879172D01*
X129790609Y-111879185D01*
X129878210Y-112010288D01*
X129878213Y-112010292D01*
X129989707Y-112121786D01*
X129989711Y-112121789D01*
X130120814Y-112209390D01*
X130120827Y-112209397D01*
X130266498Y-112269735D01*
X130266503Y-112269737D01*
X130421153Y-112300499D01*
X130421156Y-112300500D01*
X130421158Y-112300500D01*
X130578844Y-112300500D01*
X130578845Y-112300499D01*
X130733497Y-112269737D01*
X130879179Y-112209394D01*
X131010289Y-112121789D01*
X131121789Y-112010289D01*
X131209394Y-111879179D01*
X131269737Y-111733497D01*
X131300500Y-111578842D01*
X131300500Y-111421158D01*
X131300500Y-111421155D01*
X131300499Y-111421153D01*
X131269738Y-111266510D01*
X131269737Y-111266503D01*
X131209794Y-111121786D01*
X131209397Y-111120827D01*
X131209390Y-111120814D01*
X131121789Y-110989711D01*
X131121786Y-110989707D01*
X131010292Y-110878213D01*
X131010288Y-110878210D01*
X130879185Y-110790609D01*
X130879172Y-110790602D01*
X130733501Y-110730264D01*
X130733489Y-110730261D01*
X130578845Y-110699500D01*
X130578842Y-110699500D01*
X130421158Y-110699500D01*
X130421155Y-110699500D01*
X130266510Y-110730261D01*
X130266498Y-110730264D01*
X130120827Y-110790602D01*
X130120814Y-110790609D01*
X129989711Y-110878210D01*
X129989707Y-110878213D01*
X129878213Y-110989707D01*
X129878210Y-110989711D01*
X129790609Y-111120814D01*
X129790602Y-111120827D01*
X129730264Y-111266498D01*
X129730261Y-111266510D01*
X129699500Y-111421153D01*
X104597933Y-111421153D01*
X104536564Y-111192121D01*
X104444236Y-110969221D01*
X104444234Y-110969218D01*
X104444232Y-110969213D01*
X104323607Y-110760286D01*
X104323603Y-110760279D01*
X104184385Y-110578846D01*
X104176731Y-110568871D01*
X104176725Y-110568864D01*
X104029014Y-110421153D01*
X148199500Y-110421153D01*
X148199500Y-110578846D01*
X148230261Y-110733489D01*
X148230264Y-110733501D01*
X148290602Y-110879172D01*
X148290609Y-110879185D01*
X148378210Y-111010288D01*
X148378213Y-111010292D01*
X148489707Y-111121786D01*
X148489711Y-111121789D01*
X148620814Y-111209390D01*
X148620827Y-111209397D01*
X148758683Y-111266498D01*
X148766503Y-111269737D01*
X148921153Y-111300499D01*
X148921156Y-111300500D01*
X148921158Y-111300500D01*
X149078844Y-111300500D01*
X149078845Y-111300499D01*
X149233497Y-111269737D01*
X149379179Y-111209394D01*
X149510289Y-111121789D01*
X149621789Y-111010289D01*
X149681348Y-110921153D01*
X195699500Y-110921153D01*
X195699500Y-111078846D01*
X195730261Y-111233489D01*
X195730264Y-111233501D01*
X195790602Y-111379172D01*
X195790609Y-111379185D01*
X195878210Y-111510288D01*
X195878213Y-111510292D01*
X195989707Y-111621786D01*
X195989711Y-111621789D01*
X196120814Y-111709390D01*
X196120827Y-111709397D01*
X196266498Y-111769735D01*
X196266503Y-111769737D01*
X196421153Y-111800499D01*
X196421156Y-111800500D01*
X196421158Y-111800500D01*
X196578844Y-111800500D01*
X196578845Y-111800499D01*
X196733497Y-111769737D01*
X196879179Y-111709394D01*
X197010289Y-111621789D01*
X197121789Y-111510289D01*
X197209394Y-111379179D01*
X197269737Y-111233497D01*
X197300500Y-111078842D01*
X197300500Y-110921158D01*
X197300500Y-110921155D01*
X197300499Y-110921153D01*
X197274531Y-110790606D01*
X197269737Y-110766503D01*
X197256062Y-110733489D01*
X197209397Y-110620827D01*
X197209390Y-110620814D01*
X197121789Y-110489711D01*
X197121786Y-110489707D01*
X197010292Y-110378213D01*
X197010288Y-110378210D01*
X196879185Y-110290609D01*
X196879172Y-110290602D01*
X196733501Y-110230264D01*
X196733489Y-110230261D01*
X196578845Y-110199500D01*
X196578842Y-110199500D01*
X196421158Y-110199500D01*
X196421155Y-110199500D01*
X196266510Y-110230261D01*
X196266498Y-110230264D01*
X196120827Y-110290602D01*
X196120814Y-110290609D01*
X195989711Y-110378210D01*
X195989707Y-110378213D01*
X195878213Y-110489707D01*
X195878210Y-110489711D01*
X195790609Y-110620814D01*
X195790602Y-110620827D01*
X195730264Y-110766498D01*
X195730261Y-110766510D01*
X195699500Y-110921153D01*
X149681348Y-110921153D01*
X149709394Y-110879179D01*
X149769737Y-110733497D01*
X149800500Y-110578842D01*
X149800500Y-110421158D01*
X149800500Y-110421155D01*
X149800499Y-110421153D01*
X149774531Y-110290606D01*
X149769737Y-110266503D01*
X149769735Y-110266498D01*
X149709397Y-110120827D01*
X149709390Y-110120814D01*
X149621789Y-109989711D01*
X149621786Y-109989707D01*
X149510292Y-109878213D01*
X149510288Y-109878210D01*
X149379185Y-109790609D01*
X149379172Y-109790602D01*
X149233501Y-109730264D01*
X149233489Y-109730261D01*
X149078845Y-109699500D01*
X149078842Y-109699500D01*
X148921158Y-109699500D01*
X148921155Y-109699500D01*
X148766510Y-109730261D01*
X148766498Y-109730264D01*
X148620827Y-109790602D01*
X148620814Y-109790609D01*
X148489711Y-109878210D01*
X148489707Y-109878213D01*
X148378213Y-109989707D01*
X148378210Y-109989711D01*
X148290609Y-110120814D01*
X148290602Y-110120827D01*
X148230264Y-110266498D01*
X148230261Y-110266510D01*
X148199500Y-110421153D01*
X104029014Y-110421153D01*
X104006135Y-110398274D01*
X104006128Y-110398268D01*
X103814729Y-110251403D01*
X103814727Y-110251401D01*
X103814721Y-110251397D01*
X103814716Y-110251394D01*
X103814713Y-110251392D01*
X103605786Y-110130767D01*
X103605775Y-110130762D01*
X103382888Y-110038439D01*
X103382881Y-110038437D01*
X103382879Y-110038436D01*
X103149834Y-109975992D01*
X103096678Y-109968993D01*
X102910640Y-109944500D01*
X102910633Y-109944500D01*
X102669367Y-109944500D01*
X102669359Y-109944500D01*
X102456743Y-109972492D01*
X102430166Y-109975992D01*
X102197121Y-110038436D01*
X102197111Y-110038439D01*
X101974224Y-110130762D01*
X101974213Y-110130767D01*
X101765286Y-110251392D01*
X101765270Y-110251403D01*
X101573871Y-110398268D01*
X101573864Y-110398274D01*
X101403274Y-110568864D01*
X101403268Y-110568871D01*
X101256403Y-110760270D01*
X101256392Y-110760286D01*
X101135767Y-110969213D01*
X101135762Y-110969224D01*
X101043439Y-111192111D01*
X101043436Y-111192121D01*
X100982068Y-111421153D01*
X100980992Y-111425167D01*
X100949500Y-111664359D01*
X100500500Y-111664359D01*
X100500500Y-107921153D01*
X140699500Y-107921153D01*
X140699500Y-108078846D01*
X140730261Y-108233489D01*
X140730264Y-108233501D01*
X140790602Y-108379172D01*
X140790609Y-108379185D01*
X140878210Y-108510288D01*
X140878213Y-108510292D01*
X140989707Y-108621786D01*
X140989711Y-108621789D01*
X141120814Y-108709390D01*
X141120827Y-108709397D01*
X141266498Y-108769735D01*
X141266503Y-108769737D01*
X141421153Y-108800499D01*
X141421156Y-108800500D01*
X141421158Y-108800500D01*
X141578844Y-108800500D01*
X141578845Y-108800499D01*
X141733497Y-108769737D01*
X141879179Y-108709394D01*
X142010289Y-108621789D01*
X142121789Y-108510289D01*
X142209394Y-108379179D01*
X142269737Y-108233497D01*
X142300500Y-108078842D01*
X142300500Y-107921158D01*
X142300500Y-107921155D01*
X142300499Y-107921153D01*
X142269738Y-107766510D01*
X142269737Y-107766503D01*
X142240597Y-107696153D01*
X177412425Y-107696153D01*
X177412425Y-107853846D01*
X177443186Y-108008489D01*
X177443189Y-108008501D01*
X177503527Y-108154172D01*
X177503534Y-108154185D01*
X177591135Y-108285288D01*
X177591138Y-108285292D01*
X177702632Y-108396786D01*
X177702636Y-108396789D01*
X177833739Y-108484390D01*
X177833752Y-108484397D01*
X177979423Y-108544735D01*
X177979428Y-108544737D01*
X178134078Y-108575499D01*
X178134081Y-108575500D01*
X178134083Y-108575500D01*
X178291769Y-108575500D01*
X178291770Y-108575499D01*
X178446422Y-108544737D01*
X178592104Y-108484394D01*
X178723214Y-108396789D01*
X178834714Y-108285289D01*
X178922319Y-108154179D01*
X178982662Y-108008497D01*
X179013425Y-107853842D01*
X179013425Y-107696158D01*
X179013425Y-107696155D01*
X179013424Y-107696153D01*
X178982662Y-107541503D01*
X178961208Y-107489707D01*
X178922322Y-107395827D01*
X178922315Y-107395814D01*
X178834714Y-107264711D01*
X178834711Y-107264707D01*
X178723217Y-107153213D01*
X178723213Y-107153210D01*
X178592110Y-107065609D01*
X178592097Y-107065602D01*
X178446426Y-107005264D01*
X178446414Y-107005261D01*
X178291770Y-106974500D01*
X178291767Y-106974500D01*
X178134083Y-106974500D01*
X178134080Y-106974500D01*
X177979435Y-107005261D01*
X177979423Y-107005264D01*
X177833752Y-107065602D01*
X177833739Y-107065609D01*
X177702636Y-107153210D01*
X177702632Y-107153213D01*
X177591138Y-107264707D01*
X177591135Y-107264711D01*
X177503534Y-107395814D01*
X177503527Y-107395827D01*
X177443189Y-107541498D01*
X177443186Y-107541510D01*
X177412425Y-107696153D01*
X142240597Y-107696153D01*
X142229924Y-107670386D01*
X142209397Y-107620827D01*
X142209390Y-107620814D01*
X142121789Y-107489711D01*
X142121786Y-107489707D01*
X142010292Y-107378213D01*
X142010288Y-107378210D01*
X141879185Y-107290609D01*
X141879172Y-107290602D01*
X141733501Y-107230264D01*
X141733489Y-107230261D01*
X141578845Y-107199500D01*
X141578842Y-107199500D01*
X141421158Y-107199500D01*
X141421155Y-107199500D01*
X141266510Y-107230261D01*
X141266498Y-107230264D01*
X141120827Y-107290602D01*
X141120814Y-107290609D01*
X140989711Y-107378210D01*
X140989707Y-107378213D01*
X140878213Y-107489707D01*
X140878210Y-107489711D01*
X140790609Y-107620814D01*
X140790602Y-107620827D01*
X140730264Y-107766498D01*
X140730261Y-107766510D01*
X140699500Y-107921153D01*
X100500500Y-107921153D01*
X100500500Y-106421153D01*
X130199500Y-106421153D01*
X130199500Y-106578846D01*
X130230261Y-106733489D01*
X130230264Y-106733501D01*
X130290602Y-106879172D01*
X130290609Y-106879185D01*
X130378210Y-107010288D01*
X130378213Y-107010292D01*
X130489707Y-107121786D01*
X130489711Y-107121789D01*
X130620814Y-107209390D01*
X130620827Y-107209397D01*
X130754359Y-107264707D01*
X130766503Y-107269737D01*
X130921153Y-107300499D01*
X130921156Y-107300500D01*
X130921158Y-107300500D01*
X131078844Y-107300500D01*
X131078845Y-107300499D01*
X131233497Y-107269737D01*
X131379179Y-107209394D01*
X131510289Y-107121789D01*
X131621789Y-107010289D01*
X131709394Y-106879179D01*
X131769737Y-106733497D01*
X131800500Y-106578842D01*
X131800500Y-106421158D01*
X131800500Y-106421155D01*
X131800499Y-106421153D01*
X131769738Y-106266510D01*
X131769737Y-106266503D01*
X131709794Y-106121786D01*
X131709397Y-106120827D01*
X131709390Y-106120814D01*
X131621790Y-105989712D01*
X131621784Y-105989705D01*
X131553232Y-105921153D01*
X150199500Y-105921153D01*
X150199500Y-106078846D01*
X150230261Y-106233489D01*
X150230264Y-106233501D01*
X150290602Y-106379172D01*
X150290609Y-106379185D01*
X150378210Y-106510288D01*
X150378213Y-106510292D01*
X150489707Y-106621786D01*
X150489711Y-106621789D01*
X150620814Y-106709390D01*
X150620827Y-106709397D01*
X150766498Y-106769735D01*
X150766503Y-106769737D01*
X150921153Y-106800499D01*
X150921156Y-106800500D01*
X150921158Y-106800500D01*
X151078844Y-106800500D01*
X151078845Y-106800499D01*
X151233497Y-106769737D01*
X151379179Y-106709394D01*
X151510289Y-106621789D01*
X151621789Y-106510289D01*
X151709394Y-106379179D01*
X151769737Y-106233497D01*
X151800500Y-106078842D01*
X151800500Y-105921158D01*
X151800500Y-105921155D01*
X151800499Y-105921153D01*
X151774531Y-105790606D01*
X151769737Y-105766503D01*
X151756062Y-105733489D01*
X151709397Y-105620827D01*
X151709390Y-105620814D01*
X151621789Y-105489711D01*
X151621786Y-105489707D01*
X151510292Y-105378213D01*
X151510288Y-105378210D01*
X151379185Y-105290609D01*
X151379172Y-105290602D01*
X151233501Y-105230264D01*
X151233489Y-105230261D01*
X151078845Y-105199500D01*
X151078842Y-105199500D01*
X150921158Y-105199500D01*
X150921155Y-105199500D01*
X150766510Y-105230261D01*
X150766498Y-105230264D01*
X150620827Y-105290602D01*
X150620814Y-105290609D01*
X150489711Y-105378210D01*
X150489707Y-105378213D01*
X150378213Y-105489707D01*
X150378210Y-105489711D01*
X150290609Y-105620814D01*
X150290602Y-105620827D01*
X150230264Y-105766498D01*
X150230261Y-105766510D01*
X150199500Y-105921153D01*
X131553232Y-105921153D01*
X131510292Y-105878213D01*
X131510288Y-105878210D01*
X131379185Y-105790609D01*
X131379172Y-105790602D01*
X131233501Y-105730264D01*
X131233489Y-105730261D01*
X131078845Y-105699500D01*
X131078842Y-105699500D01*
X130921158Y-105699500D01*
X130921155Y-105699500D01*
X130766510Y-105730261D01*
X130766498Y-105730264D01*
X130620827Y-105790602D01*
X130620814Y-105790609D01*
X130489711Y-105878210D01*
X130489707Y-105878213D01*
X130378213Y-105989707D01*
X130378210Y-105989711D01*
X130290609Y-106120814D01*
X130290602Y-106120827D01*
X130230264Y-106266498D01*
X130230261Y-106266510D01*
X130199500Y-106421153D01*
X100500500Y-106421153D01*
X100500500Y-104921153D01*
X110699500Y-104921153D01*
X110699500Y-105078846D01*
X110730261Y-105233489D01*
X110730264Y-105233501D01*
X110790602Y-105379172D01*
X110790609Y-105379185D01*
X110878210Y-105510288D01*
X110878213Y-105510292D01*
X110989707Y-105621786D01*
X110989711Y-105621789D01*
X111120814Y-105709390D01*
X111120827Y-105709397D01*
X111258683Y-105766498D01*
X111266503Y-105769737D01*
X111421153Y-105800499D01*
X111421156Y-105800500D01*
X111421158Y-105800500D01*
X111578844Y-105800500D01*
X111578845Y-105800499D01*
X111733497Y-105769737D01*
X111879179Y-105709394D01*
X112010289Y-105621789D01*
X112121789Y-105510289D01*
X112181348Y-105421153D01*
X122199500Y-105421153D01*
X122199500Y-105578846D01*
X122230261Y-105733489D01*
X122230264Y-105733501D01*
X122290602Y-105879172D01*
X122290609Y-105879185D01*
X122378210Y-106010288D01*
X122378213Y-106010292D01*
X122489707Y-106121786D01*
X122489711Y-106121789D01*
X122620814Y-106209390D01*
X122620827Y-106209397D01*
X122758683Y-106266498D01*
X122766503Y-106269737D01*
X122921153Y-106300499D01*
X122921156Y-106300500D01*
X122921158Y-106300500D01*
X123078844Y-106300500D01*
X123078845Y-106300499D01*
X123089179Y-106298443D01*
X123114287Y-106293450D01*
X123114292Y-106293449D01*
X123199800Y-106276439D01*
X123233497Y-106269737D01*
X123379179Y-106209394D01*
X123510289Y-106121789D01*
X123621789Y-106010289D01*
X123709394Y-105879179D01*
X123769737Y-105733497D01*
X123800500Y-105578842D01*
X123800500Y-105421158D01*
X123800500Y-105421155D01*
X123800499Y-105421153D01*
X123774531Y-105290606D01*
X123769737Y-105266503D01*
X123760721Y-105244737D01*
X123709397Y-105120827D01*
X123709390Y-105120814D01*
X123621789Y-104989711D01*
X123621786Y-104989707D01*
X123510292Y-104878213D01*
X123510288Y-104878210D01*
X123379185Y-104790609D01*
X123379172Y-104790602D01*
X123233501Y-104730264D01*
X123233489Y-104730261D01*
X123078845Y-104699500D01*
X123078842Y-104699500D01*
X122921158Y-104699500D01*
X122921155Y-104699500D01*
X122766510Y-104730261D01*
X122766498Y-104730264D01*
X122620827Y-104790602D01*
X122620814Y-104790609D01*
X122489711Y-104878210D01*
X122489707Y-104878213D01*
X122378213Y-104989707D01*
X122378210Y-104989711D01*
X122290609Y-105120814D01*
X122290602Y-105120827D01*
X122230264Y-105266498D01*
X122230261Y-105266510D01*
X122199500Y-105421153D01*
X112181348Y-105421153D01*
X112209394Y-105379179D01*
X112269737Y-105233497D01*
X112300500Y-105078842D01*
X112300500Y-104921158D01*
X112300500Y-104921155D01*
X112300499Y-104921153D01*
X112287177Y-104854179D01*
X112269737Y-104766503D01*
X112256062Y-104733489D01*
X112209397Y-104620827D01*
X112209390Y-104620814D01*
X112121789Y-104489711D01*
X112121786Y-104489707D01*
X112010292Y-104378213D01*
X112010288Y-104378210D01*
X111879185Y-104290609D01*
X111879172Y-104290602D01*
X111733501Y-104230264D01*
X111733489Y-104230261D01*
X111578845Y-104199500D01*
X111578842Y-104199500D01*
X111421158Y-104199500D01*
X111421155Y-104199500D01*
X111266510Y-104230261D01*
X111266498Y-104230264D01*
X111120827Y-104290602D01*
X111120814Y-104290609D01*
X110989711Y-104378210D01*
X110989707Y-104378213D01*
X110878213Y-104489707D01*
X110878210Y-104489711D01*
X110790609Y-104620814D01*
X110790602Y-104620827D01*
X110730264Y-104766498D01*
X110730261Y-104766510D01*
X110699500Y-104921153D01*
X100500500Y-104921153D01*
X100500500Y-103921153D01*
X170199500Y-103921153D01*
X170199500Y-104078846D01*
X170230261Y-104233489D01*
X170230264Y-104233501D01*
X170290602Y-104379172D01*
X170290609Y-104379185D01*
X170378210Y-104510288D01*
X170378213Y-104510292D01*
X170489707Y-104621786D01*
X170489711Y-104621789D01*
X170620814Y-104709390D01*
X170620827Y-104709397D01*
X170758683Y-104766498D01*
X170766503Y-104769737D01*
X170921153Y-104800499D01*
X170921156Y-104800500D01*
X170921158Y-104800500D01*
X171078844Y-104800500D01*
X171078845Y-104800499D01*
X171233497Y-104769737D01*
X171379179Y-104709394D01*
X171510289Y-104621789D01*
X171621789Y-104510289D01*
X171681348Y-104421153D01*
X176699500Y-104421153D01*
X176699500Y-104578846D01*
X176730261Y-104733489D01*
X176730264Y-104733501D01*
X176790602Y-104879172D01*
X176790609Y-104879185D01*
X176878210Y-105010288D01*
X176878213Y-105010292D01*
X176989707Y-105121786D01*
X176989711Y-105121789D01*
X177120814Y-105209390D01*
X177120827Y-105209397D01*
X177258683Y-105266498D01*
X177266503Y-105269737D01*
X177421153Y-105300499D01*
X177421156Y-105300500D01*
X177421158Y-105300500D01*
X177578844Y-105300500D01*
X177578845Y-105300499D01*
X177733497Y-105269737D01*
X177879179Y-105209394D01*
X177962318Y-105153841D01*
X178028992Y-105132965D01*
X178096373Y-105151449D01*
X178100098Y-105153843D01*
X178145821Y-105184394D01*
X178145823Y-105184395D01*
X178145827Y-105184397D01*
X178291498Y-105244735D01*
X178291503Y-105244737D01*
X178400963Y-105266510D01*
X178446153Y-105275499D01*
X178446156Y-105275500D01*
X178446158Y-105275500D01*
X178603844Y-105275500D01*
X178603845Y-105275499D01*
X178758497Y-105244737D01*
X178904179Y-105184394D01*
X179035289Y-105096789D01*
X179146789Y-104985289D01*
X179234394Y-104854179D01*
X179294737Y-104708497D01*
X179325500Y-104553842D01*
X179325500Y-104396158D01*
X179325500Y-104396155D01*
X179325499Y-104396153D01*
X179294738Y-104241510D01*
X179294737Y-104241503D01*
X179294735Y-104241498D01*
X179234397Y-104095827D01*
X179234390Y-104095814D01*
X179146789Y-103964711D01*
X179146786Y-103964707D01*
X179035292Y-103853213D01*
X179035288Y-103853210D01*
X178904185Y-103765609D01*
X178904172Y-103765602D01*
X178758501Y-103705264D01*
X178758489Y-103705261D01*
X178603845Y-103674500D01*
X178603842Y-103674500D01*
X178446158Y-103674500D01*
X178446155Y-103674500D01*
X178291510Y-103705261D01*
X178291498Y-103705264D01*
X178145827Y-103765602D01*
X178145809Y-103765612D01*
X178062682Y-103821156D01*
X177996005Y-103842034D01*
X177928625Y-103823549D01*
X177924902Y-103821157D01*
X177922591Y-103819613D01*
X177879179Y-103790606D01*
X177879176Y-103790604D01*
X177879175Y-103790604D01*
X177733501Y-103730264D01*
X177733489Y-103730261D01*
X177578845Y-103699500D01*
X177578842Y-103699500D01*
X177421158Y-103699500D01*
X177421155Y-103699500D01*
X177266510Y-103730261D01*
X177266498Y-103730264D01*
X177120827Y-103790602D01*
X177120814Y-103790609D01*
X176989711Y-103878210D01*
X176989707Y-103878213D01*
X176878213Y-103989707D01*
X176878210Y-103989711D01*
X176790609Y-104120814D01*
X176790602Y-104120827D01*
X176730264Y-104266498D01*
X176730261Y-104266510D01*
X176699500Y-104421153D01*
X171681348Y-104421153D01*
X171709394Y-104379179D01*
X171769737Y-104233497D01*
X171800500Y-104078842D01*
X171800500Y-103921158D01*
X171800500Y-103921155D01*
X171800499Y-103921153D01*
X171791957Y-103878210D01*
X171769737Y-103766503D01*
X171769367Y-103765609D01*
X171709397Y-103620827D01*
X171709390Y-103620814D01*
X171621789Y-103489711D01*
X171621786Y-103489707D01*
X171510292Y-103378213D01*
X171510288Y-103378210D01*
X171379185Y-103290609D01*
X171379172Y-103290602D01*
X171233501Y-103230264D01*
X171233489Y-103230261D01*
X171078845Y-103199500D01*
X171078842Y-103199500D01*
X170921158Y-103199500D01*
X170921155Y-103199500D01*
X170766510Y-103230261D01*
X170766498Y-103230264D01*
X170620827Y-103290602D01*
X170620814Y-103290609D01*
X170489711Y-103378210D01*
X170489707Y-103378213D01*
X170378213Y-103489707D01*
X170378210Y-103489711D01*
X170290609Y-103620814D01*
X170290602Y-103620827D01*
X170230264Y-103766498D01*
X170230261Y-103766510D01*
X170199500Y-103921153D01*
X100500500Y-103921153D01*
X100500500Y-99395675D01*
X103674500Y-99395675D01*
X103674500Y-99604324D01*
X103707137Y-99810389D01*
X103771612Y-100008820D01*
X103828676Y-100120814D01*
X103866330Y-100194714D01*
X103988965Y-100363505D01*
X104136495Y-100511035D01*
X104305286Y-100633670D01*
X104393116Y-100678421D01*
X104491179Y-100728387D01*
X104491181Y-100728387D01*
X104491184Y-100728389D01*
X104597545Y-100762948D01*
X104689610Y-100792862D01*
X104895676Y-100825500D01*
X104895681Y-100825500D01*
X105104324Y-100825500D01*
X105310389Y-100792862D01*
X105508816Y-100728389D01*
X105694714Y-100633670D01*
X105863505Y-100511035D01*
X105953387Y-100421153D01*
X109699500Y-100421153D01*
X109699500Y-100578846D01*
X109730261Y-100733489D01*
X109730264Y-100733501D01*
X109790602Y-100879172D01*
X109790609Y-100879185D01*
X109878210Y-101010288D01*
X109878213Y-101010292D01*
X109989707Y-101121786D01*
X109989711Y-101121789D01*
X110120814Y-101209390D01*
X110120827Y-101209397D01*
X110266498Y-101269735D01*
X110266503Y-101269737D01*
X110421153Y-101300499D01*
X110421156Y-101300500D01*
X110421158Y-101300500D01*
X110578844Y-101300500D01*
X110578845Y-101300499D01*
X110733497Y-101269737D01*
X110879179Y-101209394D01*
X111010289Y-101121789D01*
X111121789Y-101010289D01*
X111181348Y-100921153D01*
X177699500Y-100921153D01*
X177699500Y-101078846D01*
X177730261Y-101233489D01*
X177730264Y-101233501D01*
X177790602Y-101379172D01*
X177790609Y-101379185D01*
X177878210Y-101510288D01*
X177878213Y-101510292D01*
X177989707Y-101621786D01*
X177989711Y-101621789D01*
X178120814Y-101709390D01*
X178120827Y-101709397D01*
X178266498Y-101769735D01*
X178266503Y-101769737D01*
X178421153Y-101800499D01*
X178421156Y-101800500D01*
X178421158Y-101800500D01*
X178578844Y-101800500D01*
X178578845Y-101800499D01*
X178733497Y-101769737D01*
X178879179Y-101709394D01*
X179010289Y-101621789D01*
X179121789Y-101510289D01*
X179209394Y-101379179D01*
X179269737Y-101233497D01*
X179300500Y-101078842D01*
X179300500Y-100921158D01*
X179300500Y-100921155D01*
X179300499Y-100921153D01*
X179269738Y-100766510D01*
X179269737Y-100766503D01*
X179246080Y-100709390D01*
X179209397Y-100620827D01*
X179209390Y-100620814D01*
X179121789Y-100489711D01*
X179121786Y-100489707D01*
X179010292Y-100378213D01*
X179010288Y-100378210D01*
X178879185Y-100290609D01*
X178879172Y-100290602D01*
X178733501Y-100230264D01*
X178733489Y-100230261D01*
X178578845Y-100199500D01*
X178578842Y-100199500D01*
X178421158Y-100199500D01*
X178421155Y-100199500D01*
X178266510Y-100230261D01*
X178266498Y-100230264D01*
X178120827Y-100290602D01*
X178120814Y-100290609D01*
X177989711Y-100378210D01*
X177989707Y-100378213D01*
X177878213Y-100489707D01*
X177878210Y-100489711D01*
X177790609Y-100620814D01*
X177790602Y-100620827D01*
X177730264Y-100766498D01*
X177730261Y-100766510D01*
X177699500Y-100921153D01*
X111181348Y-100921153D01*
X111209394Y-100879179D01*
X111269737Y-100733497D01*
X111300500Y-100578842D01*
X111300500Y-100421158D01*
X111300500Y-100421155D01*
X111300499Y-100421153D01*
X111274531Y-100290606D01*
X111269737Y-100266503D01*
X111256062Y-100233489D01*
X111209397Y-100120827D01*
X111209390Y-100120814D01*
X111121790Y-99989712D01*
X111121784Y-99989705D01*
X111053232Y-99921153D01*
X113699500Y-99921153D01*
X113699500Y-100078846D01*
X113730261Y-100233489D01*
X113730264Y-100233501D01*
X113790602Y-100379172D01*
X113790609Y-100379185D01*
X113878210Y-100510288D01*
X113878213Y-100510292D01*
X113989707Y-100621786D01*
X113989711Y-100621789D01*
X114120814Y-100709390D01*
X114120827Y-100709397D01*
X114258683Y-100766498D01*
X114266503Y-100769737D01*
X114421153Y-100800499D01*
X114421156Y-100800500D01*
X114421158Y-100800500D01*
X114578844Y-100800500D01*
X114578845Y-100800499D01*
X114589179Y-100798443D01*
X114614287Y-100793450D01*
X114614292Y-100793449D01*
X114699800Y-100776439D01*
X114733497Y-100769737D01*
X114879179Y-100709394D01*
X115010289Y-100621789D01*
X115121789Y-100510289D01*
X115209394Y-100379179D01*
X115269737Y-100233497D01*
X115300500Y-100078842D01*
X115300500Y-99921158D01*
X115300500Y-99921155D01*
X115300499Y-99921153D01*
X115291957Y-99878210D01*
X115269737Y-99766503D01*
X115269735Y-99766498D01*
X115209397Y-99620827D01*
X115209390Y-99620814D01*
X115121789Y-99489711D01*
X115121786Y-99489707D01*
X115010292Y-99378213D01*
X115010288Y-99378210D01*
X114879185Y-99290609D01*
X114879172Y-99290602D01*
X114733501Y-99230264D01*
X114733489Y-99230261D01*
X114578845Y-99199500D01*
X114578842Y-99199500D01*
X114421158Y-99199500D01*
X114421155Y-99199500D01*
X114266510Y-99230261D01*
X114266498Y-99230264D01*
X114120827Y-99290602D01*
X114120814Y-99290609D01*
X113989711Y-99378210D01*
X113989707Y-99378213D01*
X113878213Y-99489707D01*
X113878210Y-99489711D01*
X113790609Y-99620814D01*
X113790602Y-99620827D01*
X113730264Y-99766498D01*
X113730261Y-99766510D01*
X113699500Y-99921153D01*
X111053232Y-99921153D01*
X111010292Y-99878213D01*
X111010288Y-99878210D01*
X110879185Y-99790609D01*
X110879172Y-99790602D01*
X110733501Y-99730264D01*
X110733489Y-99730261D01*
X110578845Y-99699500D01*
X110578842Y-99699500D01*
X110421158Y-99699500D01*
X110421155Y-99699500D01*
X110266510Y-99730261D01*
X110266498Y-99730264D01*
X110120827Y-99790602D01*
X110120814Y-99790609D01*
X109989711Y-99878210D01*
X109989707Y-99878213D01*
X109878213Y-99989707D01*
X109878210Y-99989711D01*
X109790609Y-100120814D01*
X109790602Y-100120827D01*
X109730264Y-100266498D01*
X109730261Y-100266510D01*
X109699500Y-100421153D01*
X105953387Y-100421153D01*
X106011035Y-100363505D01*
X106133670Y-100194714D01*
X106228389Y-100008816D01*
X106292862Y-99810389D01*
X106299814Y-99766498D01*
X106325500Y-99604324D01*
X106325500Y-99395675D01*
X106292862Y-99189610D01*
X106262948Y-99097545D01*
X106228389Y-98991184D01*
X106228387Y-98991181D01*
X106228387Y-98991179D01*
X106133669Y-98805285D01*
X106011035Y-98636495D01*
X105863505Y-98488965D01*
X105770171Y-98421153D01*
X193199500Y-98421153D01*
X193199500Y-98578846D01*
X193230261Y-98733489D01*
X193230264Y-98733501D01*
X193290602Y-98879172D01*
X193290609Y-98879185D01*
X193378210Y-99010288D01*
X193378213Y-99010292D01*
X193489707Y-99121786D01*
X193489711Y-99121789D01*
X193620814Y-99209390D01*
X193620827Y-99209397D01*
X193766498Y-99269735D01*
X193766503Y-99269737D01*
X193921153Y-99300499D01*
X193921156Y-99300500D01*
X193921158Y-99300500D01*
X194078844Y-99300500D01*
X194078845Y-99300499D01*
X194233497Y-99269737D01*
X194379179Y-99209394D01*
X194510289Y-99121789D01*
X194621789Y-99010289D01*
X194709394Y-98879179D01*
X194769737Y-98733497D01*
X194800500Y-98578842D01*
X194800500Y-98421158D01*
X194800500Y-98421155D01*
X194800499Y-98421153D01*
X194769738Y-98266510D01*
X194769737Y-98266503D01*
X194769735Y-98266498D01*
X194709397Y-98120827D01*
X194709390Y-98120814D01*
X194621789Y-97989711D01*
X194621786Y-97989707D01*
X194510292Y-97878213D01*
X194510288Y-97878210D01*
X194379185Y-97790609D01*
X194379172Y-97790602D01*
X194233501Y-97730264D01*
X194233489Y-97730261D01*
X194078845Y-97699500D01*
X194078842Y-97699500D01*
X193921158Y-97699500D01*
X193921155Y-97699500D01*
X193766510Y-97730261D01*
X193766498Y-97730264D01*
X193620827Y-97790602D01*
X193620814Y-97790609D01*
X193489711Y-97878210D01*
X193489707Y-97878213D01*
X193378213Y-97989707D01*
X193378210Y-97989711D01*
X193290609Y-98120814D01*
X193290602Y-98120827D01*
X193230264Y-98266498D01*
X193230261Y-98266510D01*
X193199500Y-98421153D01*
X105770171Y-98421153D01*
X105694714Y-98366330D01*
X105508820Y-98271612D01*
X105310389Y-98207137D01*
X105104324Y-98174500D01*
X105104319Y-98174500D01*
X104895681Y-98174500D01*
X104895676Y-98174500D01*
X104689610Y-98207137D01*
X104491179Y-98271612D01*
X104305285Y-98366330D01*
X104136493Y-98488966D01*
X103988966Y-98636493D01*
X103866330Y-98805285D01*
X103771612Y-98991179D01*
X103707137Y-99189610D01*
X103674500Y-99395675D01*
X100500500Y-99395675D01*
X100500500Y-95127135D01*
X103674500Y-95127135D01*
X103674500Y-96872870D01*
X103674501Y-96872876D01*
X103680908Y-96932483D01*
X103731202Y-97067328D01*
X103731206Y-97067335D01*
X103817452Y-97182544D01*
X103817455Y-97182547D01*
X103932664Y-97268793D01*
X103932671Y-97268797D01*
X104067517Y-97319091D01*
X104067516Y-97319091D01*
X104074444Y-97319835D01*
X104127127Y-97325500D01*
X105872872Y-97325499D01*
X105932483Y-97319091D01*
X106067331Y-97268796D01*
X106182546Y-97182546D01*
X106268796Y-97067331D01*
X106319091Y-96932483D01*
X106325500Y-96872873D01*
X106325499Y-95421153D01*
X114199500Y-95421153D01*
X114199500Y-95578846D01*
X114230261Y-95733489D01*
X114230264Y-95733501D01*
X114290602Y-95879172D01*
X114290609Y-95879185D01*
X114378210Y-96010288D01*
X114378213Y-96010292D01*
X114489707Y-96121786D01*
X114489711Y-96121789D01*
X114620814Y-96209390D01*
X114620827Y-96209397D01*
X114766498Y-96269735D01*
X114766503Y-96269737D01*
X114921153Y-96300499D01*
X114921156Y-96300500D01*
X114921158Y-96300500D01*
X115078844Y-96300500D01*
X115078845Y-96300499D01*
X115233497Y-96269737D01*
X115379179Y-96209394D01*
X115510289Y-96121789D01*
X115621789Y-96010289D01*
X115709394Y-95879179D01*
X115769737Y-95733497D01*
X115800500Y-95578842D01*
X115800500Y-95421158D01*
X115800500Y-95421155D01*
X115800499Y-95421153D01*
X115769738Y-95266510D01*
X115769737Y-95266503D01*
X115769735Y-95266498D01*
X115709397Y-95120827D01*
X115709390Y-95120814D01*
X115621789Y-94989711D01*
X115621786Y-94989707D01*
X115510292Y-94878213D01*
X115510288Y-94878210D01*
X115379185Y-94790609D01*
X115379172Y-94790602D01*
X115233501Y-94730264D01*
X115233489Y-94730261D01*
X115078845Y-94699500D01*
X115078842Y-94699500D01*
X114921158Y-94699500D01*
X114921155Y-94699500D01*
X114766510Y-94730261D01*
X114766498Y-94730264D01*
X114620827Y-94790602D01*
X114620814Y-94790609D01*
X114489711Y-94878210D01*
X114489707Y-94878213D01*
X114378213Y-94989707D01*
X114378210Y-94989711D01*
X114290609Y-95120814D01*
X114290602Y-95120827D01*
X114230264Y-95266498D01*
X114230261Y-95266510D01*
X114199500Y-95421153D01*
X106325499Y-95421153D01*
X106325499Y-95127128D01*
X106319091Y-95067517D01*
X106290071Y-94989711D01*
X106268797Y-94932671D01*
X106268793Y-94932664D01*
X106182547Y-94817455D01*
X106182544Y-94817452D01*
X106067335Y-94731206D01*
X106067328Y-94731202D01*
X105932482Y-94680908D01*
X105932483Y-94680908D01*
X105872883Y-94674501D01*
X105872881Y-94674500D01*
X105872873Y-94674500D01*
X105872864Y-94674500D01*
X104127129Y-94674500D01*
X104127123Y-94674501D01*
X104067516Y-94680908D01*
X103932671Y-94731202D01*
X103932664Y-94731206D01*
X103817455Y-94817452D01*
X103817452Y-94817455D01*
X103731206Y-94932664D01*
X103731202Y-94932671D01*
X103680908Y-95067517D01*
X103675178Y-95120821D01*
X103674501Y-95127123D01*
X103674500Y-95127135D01*
X100500500Y-95127135D01*
X100500500Y-90921153D01*
X121699500Y-90921153D01*
X121699500Y-91078846D01*
X121730261Y-91233489D01*
X121730264Y-91233501D01*
X121790602Y-91379172D01*
X121790609Y-91379185D01*
X121878210Y-91510288D01*
X121878213Y-91510292D01*
X121989707Y-91621786D01*
X121989711Y-91621789D01*
X122120814Y-91709390D01*
X122120827Y-91709397D01*
X122266498Y-91769735D01*
X122266503Y-91769737D01*
X122421153Y-91800499D01*
X122421156Y-91800500D01*
X122421158Y-91800500D01*
X122578844Y-91800500D01*
X122578845Y-91800499D01*
X122733497Y-91769737D01*
X122879179Y-91709394D01*
X123010289Y-91621789D01*
X123121789Y-91510289D01*
X123181348Y-91421153D01*
X167699500Y-91421153D01*
X167699500Y-91578846D01*
X167730261Y-91733489D01*
X167730264Y-91733501D01*
X167790602Y-91879172D01*
X167790609Y-91879185D01*
X167878210Y-92010288D01*
X167878213Y-92010292D01*
X167989707Y-92121786D01*
X167989711Y-92121789D01*
X168120814Y-92209390D01*
X168120827Y-92209397D01*
X168266498Y-92269735D01*
X168266503Y-92269737D01*
X168421153Y-92300499D01*
X168421156Y-92300500D01*
X168421158Y-92300500D01*
X168578844Y-92300500D01*
X168578845Y-92300499D01*
X168733497Y-92269737D01*
X168879179Y-92209394D01*
X169010289Y-92121789D01*
X169121789Y-92010289D01*
X169209394Y-91879179D01*
X169269737Y-91733497D01*
X169300500Y-91578842D01*
X169300500Y-91421158D01*
X169300500Y-91421155D01*
X169300499Y-91421153D01*
X180199500Y-91421153D01*
X180199500Y-91578846D01*
X180230261Y-91733489D01*
X180230264Y-91733501D01*
X180290602Y-91879172D01*
X180290609Y-91879185D01*
X180378210Y-92010288D01*
X180378213Y-92010292D01*
X180489707Y-92121786D01*
X180489711Y-92121789D01*
X180620814Y-92209390D01*
X180620827Y-92209397D01*
X180766498Y-92269735D01*
X180766503Y-92269737D01*
X180921153Y-92300499D01*
X180921156Y-92300500D01*
X180921158Y-92300500D01*
X181078844Y-92300500D01*
X181078845Y-92300499D01*
X181233497Y-92269737D01*
X181379179Y-92209394D01*
X181510289Y-92121789D01*
X181621789Y-92010289D01*
X181709394Y-91879179D01*
X181769737Y-91733497D01*
X181800500Y-91578842D01*
X181800500Y-91421158D01*
X181800500Y-91421155D01*
X181800499Y-91421153D01*
X181769738Y-91266510D01*
X181769737Y-91266503D01*
X181756062Y-91233489D01*
X181709397Y-91120827D01*
X181709390Y-91120814D01*
X181621789Y-90989711D01*
X181621786Y-90989707D01*
X181510292Y-90878213D01*
X181510288Y-90878210D01*
X181379185Y-90790609D01*
X181379172Y-90790602D01*
X181233501Y-90730264D01*
X181233489Y-90730261D01*
X181078845Y-90699500D01*
X181078842Y-90699500D01*
X180921158Y-90699500D01*
X180921155Y-90699500D01*
X180766510Y-90730261D01*
X180766498Y-90730264D01*
X180620827Y-90790602D01*
X180620814Y-90790609D01*
X180489711Y-90878210D01*
X180489707Y-90878213D01*
X180378213Y-90989707D01*
X180378210Y-90989711D01*
X180290609Y-91120814D01*
X180290602Y-91120827D01*
X180230264Y-91266498D01*
X180230261Y-91266510D01*
X180199500Y-91421153D01*
X169300499Y-91421153D01*
X169269738Y-91266510D01*
X169269737Y-91266503D01*
X169256062Y-91233489D01*
X169209397Y-91120827D01*
X169209390Y-91120814D01*
X169121789Y-90989711D01*
X169121786Y-90989707D01*
X169010292Y-90878213D01*
X169010288Y-90878210D01*
X168879185Y-90790609D01*
X168879172Y-90790602D01*
X168733501Y-90730264D01*
X168733489Y-90730261D01*
X168578845Y-90699500D01*
X168578842Y-90699500D01*
X168421158Y-90699500D01*
X168421155Y-90699500D01*
X168266510Y-90730261D01*
X168266498Y-90730264D01*
X168120827Y-90790602D01*
X168120814Y-90790609D01*
X167989711Y-90878210D01*
X167989707Y-90878213D01*
X167878213Y-90989707D01*
X167878210Y-90989711D01*
X167790609Y-91120814D01*
X167790602Y-91120827D01*
X167730264Y-91266498D01*
X167730261Y-91266510D01*
X167699500Y-91421153D01*
X123181348Y-91421153D01*
X123209394Y-91379179D01*
X123269737Y-91233497D01*
X123300500Y-91078842D01*
X123300500Y-90921158D01*
X123300500Y-90921155D01*
X123300499Y-90921153D01*
X123274531Y-90790606D01*
X123269737Y-90766503D01*
X123269735Y-90766498D01*
X123209397Y-90620827D01*
X123209390Y-90620814D01*
X123121789Y-90489711D01*
X123121786Y-90489707D01*
X123010292Y-90378213D01*
X123010288Y-90378210D01*
X122879185Y-90290609D01*
X122879172Y-90290602D01*
X122733501Y-90230264D01*
X122733489Y-90230261D01*
X122578845Y-90199500D01*
X122578842Y-90199500D01*
X122421158Y-90199500D01*
X122421155Y-90199500D01*
X122266510Y-90230261D01*
X122266498Y-90230264D01*
X122120827Y-90290602D01*
X122120814Y-90290609D01*
X121989711Y-90378210D01*
X121989707Y-90378213D01*
X121878213Y-90489707D01*
X121878210Y-90489711D01*
X121790609Y-90620814D01*
X121790602Y-90620827D01*
X121730264Y-90766498D01*
X121730261Y-90766510D01*
X121699500Y-90921153D01*
X100500500Y-90921153D01*
X100500500Y-89145675D01*
X103674500Y-89145675D01*
X103674500Y-89354324D01*
X103707137Y-89560389D01*
X103771612Y-89758820D01*
X103866330Y-89944714D01*
X103988965Y-90113505D01*
X104136495Y-90261035D01*
X104305286Y-90383670D01*
X104393116Y-90428421D01*
X104491179Y-90478387D01*
X104491181Y-90478387D01*
X104491184Y-90478389D01*
X104597545Y-90512948D01*
X104689610Y-90542862D01*
X104895676Y-90575500D01*
X104895681Y-90575500D01*
X105104324Y-90575500D01*
X105310389Y-90542862D01*
X105508816Y-90478389D01*
X105694714Y-90383670D01*
X105863505Y-90261035D01*
X106011035Y-90113505D01*
X106133670Y-89944714D01*
X106228389Y-89758816D01*
X106292862Y-89560389D01*
X106321564Y-89379172D01*
X106325500Y-89354324D01*
X106325500Y-89145675D01*
X106292862Y-88939610D01*
X106286865Y-88921153D01*
X110199500Y-88921153D01*
X110199500Y-89078846D01*
X110230261Y-89233489D01*
X110230264Y-89233501D01*
X110290602Y-89379172D01*
X110290609Y-89379185D01*
X110378210Y-89510288D01*
X110378213Y-89510292D01*
X110489707Y-89621786D01*
X110489711Y-89621789D01*
X110620814Y-89709390D01*
X110620827Y-89709397D01*
X110766498Y-89769735D01*
X110766503Y-89769737D01*
X110921153Y-89800499D01*
X110921156Y-89800500D01*
X110921158Y-89800500D01*
X111078844Y-89800500D01*
X111078845Y-89800499D01*
X111233497Y-89769737D01*
X111379179Y-89709394D01*
X111510289Y-89621789D01*
X111621789Y-89510289D01*
X111709394Y-89379179D01*
X111769737Y-89233497D01*
X111800500Y-89078842D01*
X111800500Y-88921158D01*
X111800500Y-88921155D01*
X111800499Y-88921153D01*
X111769738Y-88766510D01*
X111769737Y-88766503D01*
X111759248Y-88741179D01*
X111709397Y-88620827D01*
X111709390Y-88620814D01*
X111621789Y-88489711D01*
X111621786Y-88489707D01*
X111510292Y-88378213D01*
X111510288Y-88378210D01*
X111379185Y-88290609D01*
X111379172Y-88290602D01*
X111233501Y-88230264D01*
X111233489Y-88230261D01*
X111078845Y-88199500D01*
X111078842Y-88199500D01*
X110921158Y-88199500D01*
X110921155Y-88199500D01*
X110766510Y-88230261D01*
X110766498Y-88230264D01*
X110620827Y-88290602D01*
X110620814Y-88290609D01*
X110489711Y-88378210D01*
X110489707Y-88378213D01*
X110378213Y-88489707D01*
X110378210Y-88489711D01*
X110290609Y-88620814D01*
X110290602Y-88620827D01*
X110230264Y-88766498D01*
X110230261Y-88766510D01*
X110199500Y-88921153D01*
X106286865Y-88921153D01*
X106236618Y-88766510D01*
X106228389Y-88741184D01*
X106228387Y-88741181D01*
X106228387Y-88741179D01*
X106178421Y-88643116D01*
X106133670Y-88555286D01*
X106011035Y-88386495D01*
X105863505Y-88238965D01*
X105694714Y-88116330D01*
X105508820Y-88021612D01*
X105310389Y-87957137D01*
X105104324Y-87924500D01*
X105104319Y-87924500D01*
X104895681Y-87924500D01*
X104895676Y-87924500D01*
X104689610Y-87957137D01*
X104491179Y-88021612D01*
X104305285Y-88116330D01*
X104136493Y-88238966D01*
X103988966Y-88386493D01*
X103866330Y-88555285D01*
X103771612Y-88741179D01*
X103707137Y-88939610D01*
X103674500Y-89145675D01*
X100500500Y-89145675D01*
X100500500Y-87421153D01*
X117199500Y-87421153D01*
X117199500Y-87578846D01*
X117230261Y-87733489D01*
X117230264Y-87733501D01*
X117290602Y-87879172D01*
X117290609Y-87879185D01*
X117378210Y-88010288D01*
X117378213Y-88010292D01*
X117489707Y-88121786D01*
X117489711Y-88121789D01*
X117620814Y-88209390D01*
X117620827Y-88209397D01*
X117766498Y-88269735D01*
X117766503Y-88269737D01*
X117921153Y-88300499D01*
X117921156Y-88300500D01*
X117921158Y-88300500D01*
X118078844Y-88300500D01*
X118078845Y-88300499D01*
X118233497Y-88269737D01*
X118379179Y-88209394D01*
X118510289Y-88121789D01*
X118621789Y-88010289D01*
X118709394Y-87879179D01*
X118769737Y-87733497D01*
X118800500Y-87578842D01*
X118800500Y-87421158D01*
X118800500Y-87421155D01*
X118800499Y-87421153D01*
X118769738Y-87266510D01*
X118769737Y-87266503D01*
X118769735Y-87266498D01*
X118709397Y-87120827D01*
X118709390Y-87120814D01*
X118621789Y-86989711D01*
X118621786Y-86989707D01*
X118510292Y-86878213D01*
X118510288Y-86878210D01*
X118379185Y-86790609D01*
X118379172Y-86790602D01*
X118233501Y-86730264D01*
X118233489Y-86730261D01*
X118078845Y-86699500D01*
X118078842Y-86699500D01*
X117921158Y-86699500D01*
X117921155Y-86699500D01*
X117766510Y-86730261D01*
X117766498Y-86730264D01*
X117620827Y-86790602D01*
X117620814Y-86790609D01*
X117489711Y-86878210D01*
X117489707Y-86878213D01*
X117378213Y-86989707D01*
X117378210Y-86989711D01*
X117290609Y-87120814D01*
X117290602Y-87120827D01*
X117230264Y-87266498D01*
X117230261Y-87266510D01*
X117199500Y-87421153D01*
X100500500Y-87421153D01*
X100500500Y-84877135D01*
X103674500Y-84877135D01*
X103674500Y-86622870D01*
X103674501Y-86622876D01*
X103680908Y-86682483D01*
X103731202Y-86817328D01*
X103731206Y-86817335D01*
X103817452Y-86932544D01*
X103817455Y-86932547D01*
X103932664Y-87018793D01*
X103932671Y-87018797D01*
X104067517Y-87069091D01*
X104067516Y-87069091D01*
X104074444Y-87069835D01*
X104127127Y-87075500D01*
X105872872Y-87075499D01*
X105932483Y-87069091D01*
X106067331Y-87018796D01*
X106182546Y-86932546D01*
X106268796Y-86817331D01*
X106319091Y-86682483D01*
X106325500Y-86622873D01*
X106325499Y-85921153D01*
X153199500Y-85921153D01*
X153199500Y-86078846D01*
X153230261Y-86233489D01*
X153230264Y-86233501D01*
X153290602Y-86379172D01*
X153290609Y-86379185D01*
X153378210Y-86510288D01*
X153378213Y-86510292D01*
X153489707Y-86621786D01*
X153489711Y-86621789D01*
X153620814Y-86709390D01*
X153620827Y-86709397D01*
X153766498Y-86769735D01*
X153766503Y-86769737D01*
X153921153Y-86800499D01*
X153921156Y-86800500D01*
X153921158Y-86800500D01*
X154078844Y-86800500D01*
X154078845Y-86800499D01*
X154233497Y-86769737D01*
X154379179Y-86709394D01*
X154510289Y-86621789D01*
X154621789Y-86510289D01*
X154709394Y-86379179D01*
X154769737Y-86233497D01*
X154800500Y-86078842D01*
X154800500Y-85921158D01*
X154800500Y-85921155D01*
X154800499Y-85921153D01*
X154769738Y-85766510D01*
X154769737Y-85766503D01*
X154769735Y-85766498D01*
X154709397Y-85620827D01*
X154709390Y-85620814D01*
X154621789Y-85489711D01*
X154621786Y-85489707D01*
X154510292Y-85378213D01*
X154510288Y-85378210D01*
X154379185Y-85290609D01*
X154379172Y-85290602D01*
X154233501Y-85230264D01*
X154233489Y-85230261D01*
X154078845Y-85199500D01*
X154078842Y-85199500D01*
X153921158Y-85199500D01*
X153921155Y-85199500D01*
X153766510Y-85230261D01*
X153766498Y-85230264D01*
X153620827Y-85290602D01*
X153620814Y-85290609D01*
X153489711Y-85378210D01*
X153489707Y-85378213D01*
X153378213Y-85489707D01*
X153378210Y-85489711D01*
X153290609Y-85620814D01*
X153290602Y-85620827D01*
X153230264Y-85766498D01*
X153230261Y-85766510D01*
X153199500Y-85921153D01*
X106325499Y-85921153D01*
X106325499Y-85620827D01*
X106325499Y-84877129D01*
X106325498Y-84877123D01*
X106325497Y-84877116D01*
X106319091Y-84817517D01*
X106268796Y-84682669D01*
X106268795Y-84682668D01*
X106268793Y-84682664D01*
X106182547Y-84567455D01*
X106182544Y-84567452D01*
X106067335Y-84481206D01*
X106067328Y-84481202D01*
X105932482Y-84430908D01*
X105932483Y-84430908D01*
X105872883Y-84424501D01*
X105872881Y-84424500D01*
X105872873Y-84424500D01*
X105872864Y-84424500D01*
X104127129Y-84424500D01*
X104127123Y-84424501D01*
X104067516Y-84430908D01*
X103932671Y-84481202D01*
X103932664Y-84481206D01*
X103817455Y-84567452D01*
X103817452Y-84567455D01*
X103731206Y-84682664D01*
X103731202Y-84682671D01*
X103680908Y-84817517D01*
X103674501Y-84877116D01*
X103674501Y-84877123D01*
X103674500Y-84877135D01*
X100500500Y-84877135D01*
X100500500Y-84421153D01*
X173699500Y-84421153D01*
X173699500Y-84578846D01*
X173730261Y-84733489D01*
X173730264Y-84733501D01*
X173790602Y-84879172D01*
X173790609Y-84879185D01*
X173878210Y-85010288D01*
X173878213Y-85010292D01*
X173989707Y-85121786D01*
X173989711Y-85121789D01*
X174120814Y-85209390D01*
X174120827Y-85209397D01*
X174266498Y-85269735D01*
X174266503Y-85269737D01*
X174421153Y-85300499D01*
X174421156Y-85300500D01*
X174421158Y-85300500D01*
X174578844Y-85300500D01*
X174578845Y-85300499D01*
X174733497Y-85269737D01*
X174879179Y-85209394D01*
X175010289Y-85121789D01*
X175121789Y-85010289D01*
X175209394Y-84879179D01*
X175269737Y-84733497D01*
X175300500Y-84578842D01*
X175300500Y-84421158D01*
X175300500Y-84421155D01*
X175300499Y-84421153D01*
X176199500Y-84421153D01*
X176199500Y-84578846D01*
X176230261Y-84733489D01*
X176230264Y-84733501D01*
X176290602Y-84879172D01*
X176290609Y-84879185D01*
X176378210Y-85010288D01*
X176378213Y-85010292D01*
X176489707Y-85121786D01*
X176489711Y-85121789D01*
X176620814Y-85209390D01*
X176620827Y-85209397D01*
X176766498Y-85269735D01*
X176766503Y-85269737D01*
X176921153Y-85300499D01*
X176921156Y-85300500D01*
X176921158Y-85300500D01*
X177078844Y-85300500D01*
X177078845Y-85300499D01*
X177233497Y-85269737D01*
X177379179Y-85209394D01*
X177510289Y-85121789D01*
X177621789Y-85010289D01*
X177709394Y-84879179D01*
X177769737Y-84733497D01*
X177800500Y-84578842D01*
X177800500Y-84421158D01*
X177800500Y-84421155D01*
X177800499Y-84421153D01*
X177769738Y-84266510D01*
X177769737Y-84266503D01*
X177709794Y-84121786D01*
X177709397Y-84120827D01*
X177709390Y-84120814D01*
X177621789Y-83989711D01*
X177621786Y-83989707D01*
X177510292Y-83878213D01*
X177510288Y-83878210D01*
X177379185Y-83790609D01*
X177379172Y-83790602D01*
X177233501Y-83730264D01*
X177233489Y-83730261D01*
X177078845Y-83699500D01*
X177078842Y-83699500D01*
X176921158Y-83699500D01*
X176921155Y-83699500D01*
X176766510Y-83730261D01*
X176766498Y-83730264D01*
X176620827Y-83790602D01*
X176620814Y-83790609D01*
X176489711Y-83878210D01*
X176489707Y-83878213D01*
X176378213Y-83989707D01*
X176378210Y-83989711D01*
X176290609Y-84120814D01*
X176290602Y-84120827D01*
X176230264Y-84266498D01*
X176230261Y-84266510D01*
X176199500Y-84421153D01*
X175300499Y-84421153D01*
X175269738Y-84266510D01*
X175269737Y-84266503D01*
X175209794Y-84121786D01*
X175209397Y-84120827D01*
X175209390Y-84120814D01*
X175121789Y-83989711D01*
X175121786Y-83989707D01*
X175010292Y-83878213D01*
X175010288Y-83878210D01*
X174879185Y-83790609D01*
X174879172Y-83790602D01*
X174733501Y-83730264D01*
X174733489Y-83730261D01*
X174578845Y-83699500D01*
X174578842Y-83699500D01*
X174421158Y-83699500D01*
X174421155Y-83699500D01*
X174266510Y-83730261D01*
X174266498Y-83730264D01*
X174120827Y-83790602D01*
X174120814Y-83790609D01*
X173989711Y-83878210D01*
X173989707Y-83878213D01*
X173878213Y-83989707D01*
X173878210Y-83989711D01*
X173790609Y-84120814D01*
X173790602Y-84120827D01*
X173730264Y-84266498D01*
X173730261Y-84266510D01*
X173699500Y-84421153D01*
X100500500Y-84421153D01*
X100500500Y-83421153D01*
X123199500Y-83421153D01*
X123199500Y-83578846D01*
X123230261Y-83733489D01*
X123230264Y-83733501D01*
X123290602Y-83879172D01*
X123290609Y-83879185D01*
X123378210Y-84010288D01*
X123378213Y-84010292D01*
X123489707Y-84121786D01*
X123489711Y-84121789D01*
X123620814Y-84209390D01*
X123620827Y-84209397D01*
X123758683Y-84266498D01*
X123766503Y-84269737D01*
X123921153Y-84300499D01*
X123921156Y-84300500D01*
X123921158Y-84300500D01*
X124078844Y-84300500D01*
X124078845Y-84300499D01*
X124089179Y-84298443D01*
X124114287Y-84293450D01*
X124114292Y-84293449D01*
X124199800Y-84276439D01*
X124233497Y-84269737D01*
X124379179Y-84209394D01*
X124510289Y-84121789D01*
X124621789Y-84010289D01*
X124709394Y-83879179D01*
X124716677Y-83861593D01*
X124760514Y-83807190D01*
X124826807Y-83785122D01*
X124855431Y-83787426D01*
X124921155Y-83800500D01*
X124921158Y-83800500D01*
X125078844Y-83800500D01*
X125078845Y-83800499D01*
X125233497Y-83769737D01*
X125379179Y-83709394D01*
X125510289Y-83621789D01*
X125621789Y-83510289D01*
X125709394Y-83379179D01*
X125769737Y-83233497D01*
X125800500Y-83078842D01*
X125800500Y-82921158D01*
X125800500Y-82921155D01*
X125800499Y-82921153D01*
X125774531Y-82790606D01*
X125769737Y-82766503D01*
X125769735Y-82766498D01*
X125709397Y-82620827D01*
X125709390Y-82620814D01*
X125621789Y-82489711D01*
X125621786Y-82489707D01*
X125510292Y-82378213D01*
X125510288Y-82378210D01*
X125379185Y-82290609D01*
X125379172Y-82290602D01*
X125233501Y-82230264D01*
X125233489Y-82230261D01*
X125078845Y-82199500D01*
X125078842Y-82199500D01*
X124921158Y-82199500D01*
X124921155Y-82199500D01*
X124766510Y-82230261D01*
X124766498Y-82230264D01*
X124620827Y-82290602D01*
X124620814Y-82290609D01*
X124489711Y-82378210D01*
X124489707Y-82378213D01*
X124378213Y-82489707D01*
X124378210Y-82489711D01*
X124290609Y-82620814D01*
X124290603Y-82620826D01*
X124283319Y-82638411D01*
X124239477Y-82692814D01*
X124173182Y-82714877D01*
X124144568Y-82712573D01*
X124078846Y-82699500D01*
X124078842Y-82699500D01*
X123921158Y-82699500D01*
X123921155Y-82699500D01*
X123766510Y-82730261D01*
X123766498Y-82730264D01*
X123620827Y-82790602D01*
X123620814Y-82790609D01*
X123489711Y-82878210D01*
X123489707Y-82878213D01*
X123378213Y-82989707D01*
X123378210Y-82989711D01*
X123290609Y-83120814D01*
X123290602Y-83120827D01*
X123230264Y-83266498D01*
X123230261Y-83266510D01*
X123199500Y-83421153D01*
X100500500Y-83421153D01*
X100500500Y-80421153D01*
X129199500Y-80421153D01*
X129199500Y-80578846D01*
X129230261Y-80733489D01*
X129230264Y-80733501D01*
X129290602Y-80879172D01*
X129290609Y-80879185D01*
X129378210Y-81010288D01*
X129378213Y-81010292D01*
X129489707Y-81121786D01*
X129489711Y-81121789D01*
X129620814Y-81209390D01*
X129620827Y-81209397D01*
X129766498Y-81269735D01*
X129766503Y-81269737D01*
X129921153Y-81300499D01*
X129921156Y-81300500D01*
X129921158Y-81300500D01*
X130078844Y-81300500D01*
X130078845Y-81300499D01*
X130233497Y-81269737D01*
X130379179Y-81209394D01*
X130510289Y-81121789D01*
X130621789Y-81010289D01*
X130709394Y-80879179D01*
X130769737Y-80733497D01*
X130800500Y-80578842D01*
X130800500Y-80421158D01*
X130800500Y-80421155D01*
X130800499Y-80421153D01*
X130769738Y-80266510D01*
X130769737Y-80266503D01*
X130769735Y-80266498D01*
X130709397Y-80120827D01*
X130709390Y-80120814D01*
X130621789Y-79989711D01*
X130621786Y-79989707D01*
X130510292Y-79878213D01*
X130510288Y-79878210D01*
X130379185Y-79790609D01*
X130379172Y-79790602D01*
X130233501Y-79730264D01*
X130233489Y-79730261D01*
X130078845Y-79699500D01*
X130078842Y-79699500D01*
X129921158Y-79699500D01*
X129921155Y-79699500D01*
X129766510Y-79730261D01*
X129766498Y-79730264D01*
X129620827Y-79790602D01*
X129620814Y-79790609D01*
X129489711Y-79878210D01*
X129489707Y-79878213D01*
X129378213Y-79989707D01*
X129378210Y-79989711D01*
X129290609Y-80120814D01*
X129290602Y-80120827D01*
X129230264Y-80266498D01*
X129230261Y-80266510D01*
X129199500Y-80421153D01*
X100500500Y-80421153D01*
X100500500Y-78921153D01*
X175199500Y-78921153D01*
X175199500Y-79078846D01*
X175230261Y-79233489D01*
X175230264Y-79233501D01*
X175290602Y-79379172D01*
X175290609Y-79379185D01*
X175378210Y-79510288D01*
X175378213Y-79510292D01*
X175489707Y-79621786D01*
X175489711Y-79621789D01*
X175620814Y-79709390D01*
X175620827Y-79709397D01*
X175766498Y-79769735D01*
X175766503Y-79769737D01*
X175921153Y-79800499D01*
X175921156Y-79800500D01*
X175921158Y-79800500D01*
X176078844Y-79800500D01*
X176078845Y-79800499D01*
X176233497Y-79769737D01*
X176379179Y-79709394D01*
X176510289Y-79621789D01*
X176621789Y-79510289D01*
X176709394Y-79379179D01*
X176769737Y-79233497D01*
X176800500Y-79078842D01*
X176800500Y-78921158D01*
X176800500Y-78921155D01*
X176800499Y-78921153D01*
X180199500Y-78921153D01*
X180199500Y-79078846D01*
X180230261Y-79233489D01*
X180230264Y-79233501D01*
X180290602Y-79379172D01*
X180290609Y-79379185D01*
X180378210Y-79510288D01*
X180378213Y-79510292D01*
X180489707Y-79621786D01*
X180489711Y-79621789D01*
X180620814Y-79709390D01*
X180620827Y-79709397D01*
X180766498Y-79769735D01*
X180766503Y-79769737D01*
X180921153Y-79800499D01*
X180921156Y-79800500D01*
X180921158Y-79800500D01*
X181078844Y-79800500D01*
X181078845Y-79800499D01*
X181233497Y-79769737D01*
X181379179Y-79709394D01*
X181510289Y-79621789D01*
X181621789Y-79510289D01*
X181709394Y-79379179D01*
X181769737Y-79233497D01*
X181800500Y-79078842D01*
X181800500Y-78921158D01*
X181800500Y-78921155D01*
X181800499Y-78921153D01*
X181769738Y-78766510D01*
X181769737Y-78766503D01*
X181769735Y-78766498D01*
X181709397Y-78620827D01*
X181709390Y-78620814D01*
X181621789Y-78489711D01*
X181621786Y-78489707D01*
X181510292Y-78378213D01*
X181510288Y-78378210D01*
X181379185Y-78290609D01*
X181379172Y-78290602D01*
X181233501Y-78230264D01*
X181233489Y-78230261D01*
X181078845Y-78199500D01*
X181078842Y-78199500D01*
X180921158Y-78199500D01*
X180921155Y-78199500D01*
X180766510Y-78230261D01*
X180766498Y-78230264D01*
X180620827Y-78290602D01*
X180620814Y-78290609D01*
X180489711Y-78378210D01*
X180489707Y-78378213D01*
X180378213Y-78489707D01*
X180378210Y-78489711D01*
X180290609Y-78620814D01*
X180290602Y-78620827D01*
X180230264Y-78766498D01*
X180230261Y-78766510D01*
X180199500Y-78921153D01*
X176800499Y-78921153D01*
X176769738Y-78766510D01*
X176769737Y-78766503D01*
X176769735Y-78766498D01*
X176709397Y-78620827D01*
X176709390Y-78620814D01*
X176621789Y-78489711D01*
X176621786Y-78489707D01*
X176510292Y-78378213D01*
X176510288Y-78378210D01*
X176379185Y-78290609D01*
X176379172Y-78290602D01*
X176233501Y-78230264D01*
X176233489Y-78230261D01*
X176078845Y-78199500D01*
X176078842Y-78199500D01*
X175921158Y-78199500D01*
X175921155Y-78199500D01*
X175766510Y-78230261D01*
X175766498Y-78230264D01*
X175620827Y-78290602D01*
X175620814Y-78290609D01*
X175489711Y-78378210D01*
X175489707Y-78378213D01*
X175378213Y-78489707D01*
X175378210Y-78489711D01*
X175290609Y-78620814D01*
X175290602Y-78620827D01*
X175230264Y-78766498D01*
X175230261Y-78766510D01*
X175199500Y-78921153D01*
X100500500Y-78921153D01*
X100500500Y-76921153D01*
X125199500Y-76921153D01*
X125199500Y-77078846D01*
X125230261Y-77233489D01*
X125230264Y-77233501D01*
X125290602Y-77379172D01*
X125290609Y-77379185D01*
X125378210Y-77510288D01*
X125378213Y-77510292D01*
X125489707Y-77621786D01*
X125489711Y-77621789D01*
X125620814Y-77709390D01*
X125620827Y-77709397D01*
X125766498Y-77769735D01*
X125766503Y-77769737D01*
X125921153Y-77800499D01*
X125921156Y-77800500D01*
X125921158Y-77800500D01*
X126078844Y-77800500D01*
X126078845Y-77800499D01*
X126233497Y-77769737D01*
X126379179Y-77709394D01*
X126510289Y-77621789D01*
X126621789Y-77510289D01*
X126709394Y-77379179D01*
X126769737Y-77233497D01*
X126800500Y-77078842D01*
X126800500Y-76921158D01*
X126800500Y-76921155D01*
X126800499Y-76921153D01*
X126769738Y-76766510D01*
X126769737Y-76766503D01*
X126769735Y-76766498D01*
X126709397Y-76620827D01*
X126709390Y-76620814D01*
X126621789Y-76489711D01*
X126621786Y-76489707D01*
X126510292Y-76378213D01*
X126510288Y-76378210D01*
X126379185Y-76290609D01*
X126379172Y-76290602D01*
X126233501Y-76230264D01*
X126233489Y-76230261D01*
X126078845Y-76199500D01*
X126078842Y-76199500D01*
X125921158Y-76199500D01*
X125921155Y-76199500D01*
X125766510Y-76230261D01*
X125766498Y-76230264D01*
X125620827Y-76290602D01*
X125620814Y-76290609D01*
X125489711Y-76378210D01*
X125489707Y-76378213D01*
X125378213Y-76489707D01*
X125378210Y-76489711D01*
X125290609Y-76620814D01*
X125290602Y-76620827D01*
X125230264Y-76766498D01*
X125230261Y-76766510D01*
X125199500Y-76921153D01*
X100500500Y-76921153D01*
X100500500Y-73006379D01*
X108899500Y-73006379D01*
X108899500Y-73993620D01*
X108936025Y-74177243D01*
X108936027Y-74177251D01*
X109007676Y-74350228D01*
X109007681Y-74350237D01*
X109111697Y-74505907D01*
X109111700Y-74505911D01*
X109244088Y-74638299D01*
X109244092Y-74638302D01*
X109399762Y-74742318D01*
X109399768Y-74742321D01*
X109399769Y-74742322D01*
X109572749Y-74813973D01*
X109756379Y-74850499D01*
X109756383Y-74850500D01*
X109756384Y-74850500D01*
X109943617Y-74850500D01*
X109943618Y-74850499D01*
X110127251Y-74813973D01*
X110300231Y-74742322D01*
X110455908Y-74638302D01*
X110588302Y-74505908D01*
X110692322Y-74350231D01*
X110763973Y-74177251D01*
X110800500Y-73993616D01*
X110800500Y-73006384D01*
X110800499Y-73006379D01*
X117549500Y-73006379D01*
X117549500Y-73993620D01*
X117586025Y-74177243D01*
X117586027Y-74177251D01*
X117657676Y-74350228D01*
X117657681Y-74350237D01*
X117761697Y-74505907D01*
X117761700Y-74505911D01*
X117894088Y-74638299D01*
X117894092Y-74638302D01*
X118049762Y-74742318D01*
X118049768Y-74742321D01*
X118049769Y-74742322D01*
X118222749Y-74813973D01*
X118406379Y-74850499D01*
X118406383Y-74850500D01*
X118406384Y-74850500D01*
X118593617Y-74850500D01*
X118593618Y-74850499D01*
X118777251Y-74813973D01*
X118950231Y-74742322D01*
X119105908Y-74638302D01*
X119238302Y-74505908D01*
X119342322Y-74350231D01*
X119413973Y-74177251D01*
X119450500Y-73993616D01*
X119450500Y-73006384D01*
X119433547Y-72921153D01*
X124199500Y-72921153D01*
X124199500Y-73078846D01*
X124230261Y-73233489D01*
X124230264Y-73233501D01*
X124290602Y-73379172D01*
X124290609Y-73379185D01*
X124378210Y-73510288D01*
X124378213Y-73510292D01*
X124489707Y-73621786D01*
X124489711Y-73621789D01*
X124620814Y-73709390D01*
X124620827Y-73709397D01*
X124766498Y-73769735D01*
X124766503Y-73769737D01*
X124921153Y-73800499D01*
X124921156Y-73800500D01*
X124921158Y-73800500D01*
X125078844Y-73800500D01*
X125078845Y-73800499D01*
X125233497Y-73769737D01*
X125379179Y-73709394D01*
X125510289Y-73621789D01*
X125621789Y-73510289D01*
X125709394Y-73379179D01*
X125769737Y-73233497D01*
X125800500Y-73078842D01*
X125800500Y-72921158D01*
X125800500Y-72921155D01*
X125800499Y-72921153D01*
X125769738Y-72766510D01*
X125769737Y-72766503D01*
X125769735Y-72766498D01*
X125709397Y-72620827D01*
X125709390Y-72620814D01*
X125621789Y-72489711D01*
X125621786Y-72489707D01*
X125510292Y-72378213D01*
X125510288Y-72378210D01*
X125379185Y-72290609D01*
X125379172Y-72290602D01*
X125233501Y-72230264D01*
X125233489Y-72230261D01*
X125078845Y-72199500D01*
X125078842Y-72199500D01*
X124921158Y-72199500D01*
X124921155Y-72199500D01*
X124766510Y-72230261D01*
X124766498Y-72230264D01*
X124620827Y-72290602D01*
X124620814Y-72290609D01*
X124489711Y-72378210D01*
X124489707Y-72378213D01*
X124378213Y-72489707D01*
X124378210Y-72489711D01*
X124290609Y-72620814D01*
X124290602Y-72620827D01*
X124230264Y-72766498D01*
X124230261Y-72766510D01*
X124199500Y-72921153D01*
X119433547Y-72921153D01*
X119413973Y-72822749D01*
X119342322Y-72649769D01*
X119342321Y-72649768D01*
X119342318Y-72649762D01*
X119238302Y-72494092D01*
X119238299Y-72494088D01*
X119105911Y-72361700D01*
X119105907Y-72361697D01*
X118950237Y-72257681D01*
X118950228Y-72257676D01*
X118777251Y-72186027D01*
X118777243Y-72186025D01*
X118593620Y-72149500D01*
X118593616Y-72149500D01*
X118406384Y-72149500D01*
X118406379Y-72149500D01*
X118222756Y-72186025D01*
X118222748Y-72186027D01*
X118049771Y-72257676D01*
X118049762Y-72257681D01*
X117894092Y-72361697D01*
X117894088Y-72361700D01*
X117761700Y-72494088D01*
X117761697Y-72494092D01*
X117657681Y-72649762D01*
X117657676Y-72649771D01*
X117586027Y-72822748D01*
X117586025Y-72822756D01*
X117549500Y-73006379D01*
X110800499Y-73006379D01*
X110763973Y-72822749D01*
X110692322Y-72649769D01*
X110692321Y-72649768D01*
X110692318Y-72649762D01*
X110588302Y-72494092D01*
X110588299Y-72494088D01*
X110455911Y-72361700D01*
X110455907Y-72361697D01*
X110300237Y-72257681D01*
X110300228Y-72257676D01*
X110127251Y-72186027D01*
X110127243Y-72186025D01*
X109943620Y-72149500D01*
X109943616Y-72149500D01*
X109756384Y-72149500D01*
X109756379Y-72149500D01*
X109572756Y-72186025D01*
X109572748Y-72186027D01*
X109399771Y-72257676D01*
X109399762Y-72257681D01*
X109244092Y-72361697D01*
X109244088Y-72361700D01*
X109111700Y-72494088D01*
X109111697Y-72494092D01*
X109007681Y-72649762D01*
X109007676Y-72649771D01*
X108936027Y-72822748D01*
X108936025Y-72822756D01*
X108899500Y-73006379D01*
X100500500Y-73006379D01*
X100500500Y-69276379D01*
X108899500Y-69276379D01*
X108899500Y-70963620D01*
X108936025Y-71147243D01*
X108936027Y-71147251D01*
X109007676Y-71320228D01*
X109007681Y-71320237D01*
X109111697Y-71475907D01*
X109111700Y-71475911D01*
X109244088Y-71608299D01*
X109244092Y-71608302D01*
X109399762Y-71712318D01*
X109399768Y-71712321D01*
X109399769Y-71712322D01*
X109572749Y-71783973D01*
X109756379Y-71820499D01*
X109756383Y-71820500D01*
X109756384Y-71820500D01*
X109943617Y-71820500D01*
X109943618Y-71820499D01*
X110127251Y-71783973D01*
X110300231Y-71712322D01*
X110455908Y-71608302D01*
X110588302Y-71475908D01*
X110692322Y-71320231D01*
X110696842Y-71309317D01*
X110740682Y-71254914D01*
X110806976Y-71232848D01*
X110858856Y-71242207D01*
X110959211Y-71283776D01*
X110959215Y-71283776D01*
X110959216Y-71283777D01*
X111118692Y-71315500D01*
X111118695Y-71315500D01*
X111281307Y-71315500D01*
X111388598Y-71294157D01*
X111440789Y-71283776D01*
X111577547Y-71227128D01*
X111647017Y-71219660D01*
X111672452Y-71227128D01*
X111809211Y-71283776D01*
X111809215Y-71283776D01*
X111809216Y-71283777D01*
X111968692Y-71315500D01*
X111968695Y-71315500D01*
X112131307Y-71315500D01*
X112238598Y-71294157D01*
X112290789Y-71283776D01*
X112427547Y-71227128D01*
X112497017Y-71219660D01*
X112522452Y-71227128D01*
X112659211Y-71283776D01*
X112659215Y-71283776D01*
X112659216Y-71283777D01*
X112818692Y-71315500D01*
X112818695Y-71315500D01*
X112981307Y-71315500D01*
X113088598Y-71294157D01*
X113140789Y-71283776D01*
X113277547Y-71227128D01*
X113347017Y-71219660D01*
X113372452Y-71227128D01*
X113509211Y-71283776D01*
X113509215Y-71283776D01*
X113509216Y-71283777D01*
X113668692Y-71315500D01*
X113668695Y-71315500D01*
X113831307Y-71315500D01*
X113938598Y-71294157D01*
X113990789Y-71283776D01*
X114127547Y-71227128D01*
X114197017Y-71219660D01*
X114222452Y-71227128D01*
X114359211Y-71283776D01*
X114359215Y-71283776D01*
X114359216Y-71283777D01*
X114518692Y-71315500D01*
X114518695Y-71315500D01*
X114681307Y-71315500D01*
X114788598Y-71294157D01*
X114840789Y-71283776D01*
X114977547Y-71227128D01*
X115047017Y-71219660D01*
X115072452Y-71227128D01*
X115209211Y-71283776D01*
X115209215Y-71283776D01*
X115209216Y-71283777D01*
X115368692Y-71315500D01*
X115368695Y-71315500D01*
X115531307Y-71315500D01*
X115638598Y-71294157D01*
X115690789Y-71283776D01*
X115827547Y-71227128D01*
X115897017Y-71219660D01*
X115922452Y-71227128D01*
X116059211Y-71283776D01*
X116059215Y-71283776D01*
X116059216Y-71283777D01*
X116218692Y-71315500D01*
X116218695Y-71315500D01*
X116381307Y-71315500D01*
X116488598Y-71294157D01*
X116540789Y-71283776D01*
X116677547Y-71227128D01*
X116747017Y-71219660D01*
X116772452Y-71227128D01*
X116909211Y-71283776D01*
X116909215Y-71283776D01*
X116909216Y-71283777D01*
X117068692Y-71315500D01*
X117068695Y-71315500D01*
X117231307Y-71315500D01*
X117338598Y-71294157D01*
X117390789Y-71283776D01*
X117491143Y-71242207D01*
X117560611Y-71234739D01*
X117623091Y-71266014D01*
X117653154Y-71309312D01*
X117657674Y-71320223D01*
X117657681Y-71320237D01*
X117761697Y-71475907D01*
X117761700Y-71475911D01*
X117894088Y-71608299D01*
X117894092Y-71608302D01*
X118049762Y-71712318D01*
X118049768Y-71712321D01*
X118049769Y-71712322D01*
X118222749Y-71783973D01*
X118406379Y-71820499D01*
X118406383Y-71820500D01*
X118406384Y-71820500D01*
X118593617Y-71820500D01*
X118593618Y-71820499D01*
X118777251Y-71783973D01*
X118950231Y-71712322D01*
X119105908Y-71608302D01*
X119238302Y-71475908D01*
X119342322Y-71320231D01*
X119413973Y-71147251D01*
X119450500Y-70963616D01*
X119450500Y-70921153D01*
X172699500Y-70921153D01*
X172699500Y-71078846D01*
X172730261Y-71233489D01*
X172730264Y-71233501D01*
X172790602Y-71379172D01*
X172790609Y-71379185D01*
X172878210Y-71510288D01*
X172878213Y-71510292D01*
X172989707Y-71621786D01*
X172989711Y-71621789D01*
X173120814Y-71709390D01*
X173120827Y-71709397D01*
X173266498Y-71769735D01*
X173266503Y-71769737D01*
X173421153Y-71800499D01*
X173421156Y-71800500D01*
X173421158Y-71800500D01*
X173578844Y-71800500D01*
X173578845Y-71800499D01*
X173733497Y-71769737D01*
X173879179Y-71709394D01*
X174010289Y-71621789D01*
X174121789Y-71510289D01*
X174209394Y-71379179D01*
X174269737Y-71233497D01*
X174300500Y-71078842D01*
X174300500Y-70921158D01*
X174300500Y-70921155D01*
X174300499Y-70921153D01*
X174269738Y-70766510D01*
X174269737Y-70766503D01*
X174256062Y-70733489D01*
X174209397Y-70620827D01*
X174209390Y-70620814D01*
X174121790Y-70489712D01*
X174121784Y-70489705D01*
X174053232Y-70421153D01*
X181199500Y-70421153D01*
X181199500Y-70578846D01*
X181230261Y-70733489D01*
X181230264Y-70733501D01*
X181290602Y-70879172D01*
X181290609Y-70879185D01*
X181378210Y-71010288D01*
X181378213Y-71010292D01*
X181489707Y-71121786D01*
X181489711Y-71121789D01*
X181620814Y-71209390D01*
X181620827Y-71209397D01*
X181757515Y-71266014D01*
X181766503Y-71269737D01*
X181921153Y-71300499D01*
X181921156Y-71300500D01*
X181921158Y-71300500D01*
X182078844Y-71300500D01*
X182078845Y-71300499D01*
X182233497Y-71269737D01*
X182349836Y-71221548D01*
X182379172Y-71209397D01*
X182379172Y-71209396D01*
X182379179Y-71209394D01*
X182510289Y-71121789D01*
X182621789Y-71010289D01*
X182709394Y-70879179D01*
X182769737Y-70733497D01*
X182800500Y-70578842D01*
X182800500Y-70421158D01*
X182800500Y-70421155D01*
X182800499Y-70421153D01*
X182774531Y-70290606D01*
X182769737Y-70266503D01*
X182769735Y-70266498D01*
X182709397Y-70120827D01*
X182709390Y-70120814D01*
X182621789Y-69989711D01*
X182621786Y-69989707D01*
X182510292Y-69878213D01*
X182510288Y-69878210D01*
X182379185Y-69790609D01*
X182379172Y-69790602D01*
X182233501Y-69730264D01*
X182233489Y-69730261D01*
X182078845Y-69699500D01*
X182078842Y-69699500D01*
X181921158Y-69699500D01*
X181921155Y-69699500D01*
X181766510Y-69730261D01*
X181766498Y-69730264D01*
X181620827Y-69790602D01*
X181620814Y-69790609D01*
X181489711Y-69878210D01*
X181489707Y-69878213D01*
X181378213Y-69989707D01*
X181378210Y-69989711D01*
X181290609Y-70120814D01*
X181290602Y-70120827D01*
X181230264Y-70266498D01*
X181230261Y-70266510D01*
X181199500Y-70421153D01*
X174053232Y-70421153D01*
X174010292Y-70378213D01*
X174010288Y-70378210D01*
X173879185Y-70290609D01*
X173879172Y-70290602D01*
X173733501Y-70230264D01*
X173733489Y-70230261D01*
X173578845Y-70199500D01*
X173578842Y-70199500D01*
X173421158Y-70199500D01*
X173421155Y-70199500D01*
X173266510Y-70230261D01*
X173266498Y-70230264D01*
X173120827Y-70290602D01*
X173120814Y-70290609D01*
X172989711Y-70378210D01*
X172989707Y-70378213D01*
X172878213Y-70489707D01*
X172878210Y-70489711D01*
X172790609Y-70620814D01*
X172790602Y-70620827D01*
X172730264Y-70766498D01*
X172730261Y-70766510D01*
X172699500Y-70921153D01*
X119450500Y-70921153D01*
X119450500Y-69276384D01*
X119413973Y-69092749D01*
X119342322Y-68919769D01*
X119342321Y-68919768D01*
X119342318Y-68919762D01*
X119238302Y-68764092D01*
X119238299Y-68764088D01*
X119105911Y-68631700D01*
X119105907Y-68631697D01*
X118950237Y-68527681D01*
X118950228Y-68527676D01*
X118777251Y-68456027D01*
X118777243Y-68456025D01*
X118593620Y-68419500D01*
X118593616Y-68419500D01*
X118406384Y-68419500D01*
X118406379Y-68419500D01*
X118222756Y-68456025D01*
X118222748Y-68456027D01*
X118049771Y-68527676D01*
X118049764Y-68527680D01*
X117927774Y-68609191D01*
X117861097Y-68630068D01*
X117793717Y-68611583D01*
X117771203Y-68593769D01*
X117676228Y-68498794D01*
X117676220Y-68498788D01*
X117541023Y-68408452D01*
X117541019Y-68408450D01*
X117390793Y-68346225D01*
X117390783Y-68346222D01*
X117231307Y-68314500D01*
X117231305Y-68314500D01*
X117068695Y-68314500D01*
X117068693Y-68314500D01*
X116909216Y-68346222D01*
X116909210Y-68346224D01*
X116772453Y-68402871D01*
X116702983Y-68410340D01*
X116677547Y-68402871D01*
X116614958Y-68376946D01*
X116540789Y-68346224D01*
X116540783Y-68346222D01*
X116381307Y-68314500D01*
X116381305Y-68314500D01*
X116218695Y-68314500D01*
X116218693Y-68314500D01*
X116059216Y-68346222D01*
X116059210Y-68346224D01*
X115922453Y-68402871D01*
X115852983Y-68410340D01*
X115827547Y-68402871D01*
X115764958Y-68376946D01*
X115690789Y-68346224D01*
X115690783Y-68346222D01*
X115531307Y-68314500D01*
X115531305Y-68314500D01*
X115441215Y-68314500D01*
X115374176Y-68294815D01*
X115328421Y-68242011D01*
X115318477Y-68172853D01*
X115338113Y-68121609D01*
X115383655Y-68053450D01*
X115383656Y-68053448D01*
X115383659Y-68053444D01*
X115444002Y-67907762D01*
X115474765Y-67753107D01*
X115474765Y-67595423D01*
X115474765Y-67595420D01*
X115474764Y-67595418D01*
X115444003Y-67440775D01*
X115444002Y-67440768D01*
X115444000Y-67440763D01*
X115383662Y-67295092D01*
X115383655Y-67295079D01*
X115296054Y-67163976D01*
X115296051Y-67163972D01*
X115184557Y-67052478D01*
X115184553Y-67052475D01*
X115053450Y-66964874D01*
X115053437Y-66964867D01*
X114907766Y-66904529D01*
X114907754Y-66904526D01*
X114753110Y-66873765D01*
X114753107Y-66873765D01*
X114595423Y-66873765D01*
X114595420Y-66873765D01*
X114440775Y-66904526D01*
X114440763Y-66904529D01*
X114295092Y-66964867D01*
X114295079Y-66964874D01*
X114163976Y-67052475D01*
X114163972Y-67052478D01*
X114052478Y-67163972D01*
X114052475Y-67163976D01*
X113964874Y-67295079D01*
X113964867Y-67295092D01*
X113904529Y-67440763D01*
X113904526Y-67440775D01*
X113873765Y-67595418D01*
X113873765Y-67753111D01*
X113904526Y-67907754D01*
X113904529Y-67907766D01*
X113964867Y-68053437D01*
X113964873Y-68053448D01*
X114020196Y-68136245D01*
X114041073Y-68202922D01*
X114022588Y-68270302D01*
X113970609Y-68316992D01*
X113901639Y-68328168D01*
X113892901Y-68326752D01*
X113831307Y-68314500D01*
X113831305Y-68314500D01*
X113668695Y-68314500D01*
X113668693Y-68314500D01*
X113509216Y-68346222D01*
X113509210Y-68346224D01*
X113372453Y-68402871D01*
X113302983Y-68410340D01*
X113277547Y-68402871D01*
X113214958Y-68376946D01*
X113140789Y-68346224D01*
X113140783Y-68346222D01*
X112981307Y-68314500D01*
X112981305Y-68314500D01*
X112818695Y-68314500D01*
X112818693Y-68314500D01*
X112659216Y-68346222D01*
X112659210Y-68346224D01*
X112522453Y-68402871D01*
X112452983Y-68410340D01*
X112427547Y-68402871D01*
X112364958Y-68376946D01*
X112290789Y-68346224D01*
X112290783Y-68346222D01*
X112131307Y-68314500D01*
X112131305Y-68314500D01*
X111968695Y-68314500D01*
X111968693Y-68314500D01*
X111809216Y-68346222D01*
X111809210Y-68346224D01*
X111672453Y-68402871D01*
X111602983Y-68410340D01*
X111577547Y-68402871D01*
X111514958Y-68376946D01*
X111440789Y-68346224D01*
X111440783Y-68346222D01*
X111281307Y-68314500D01*
X111281305Y-68314500D01*
X111118695Y-68314500D01*
X111118693Y-68314500D01*
X110959216Y-68346222D01*
X110959206Y-68346225D01*
X110808980Y-68408450D01*
X110808976Y-68408452D01*
X110673779Y-68498788D01*
X110673776Y-68498790D01*
X110578796Y-68593770D01*
X110517472Y-68627254D01*
X110447781Y-68622270D01*
X110422225Y-68609190D01*
X110300242Y-68527684D01*
X110300228Y-68527676D01*
X110127251Y-68456027D01*
X110127243Y-68456025D01*
X109943620Y-68419500D01*
X109943616Y-68419500D01*
X109756384Y-68419500D01*
X109756379Y-68419500D01*
X109572756Y-68456025D01*
X109572748Y-68456027D01*
X109399771Y-68527676D01*
X109399762Y-68527681D01*
X109244092Y-68631697D01*
X109244088Y-68631700D01*
X109111700Y-68764088D01*
X109111697Y-68764092D01*
X109007681Y-68919762D01*
X109007676Y-68919771D01*
X108936027Y-69092748D01*
X108936025Y-69092756D01*
X108899500Y-69276379D01*
X100500500Y-69276379D01*
X100500500Y-63172135D01*
X159674500Y-63172135D01*
X159674500Y-64917870D01*
X159674501Y-64917876D01*
X159680908Y-64977483D01*
X159731202Y-65112328D01*
X159731206Y-65112335D01*
X159817452Y-65227544D01*
X159817455Y-65227547D01*
X159932664Y-65313793D01*
X159932671Y-65313797D01*
X160067517Y-65364091D01*
X160067516Y-65364091D01*
X160074444Y-65364835D01*
X160127127Y-65370500D01*
X161872872Y-65370499D01*
X161932483Y-65364091D01*
X162067331Y-65313796D01*
X162182546Y-65227546D01*
X162268796Y-65112331D01*
X162319091Y-64977483D01*
X162325500Y-64917873D01*
X162325499Y-63940675D01*
X163174500Y-63940675D01*
X163174500Y-64149324D01*
X163207137Y-64355389D01*
X163271612Y-64553820D01*
X163366330Y-64739714D01*
X163488965Y-64908505D01*
X163636495Y-65056035D01*
X163805286Y-65178670D01*
X163893116Y-65223421D01*
X163991179Y-65273387D01*
X163991181Y-65273387D01*
X163991184Y-65273389D01*
X164097545Y-65307948D01*
X164189610Y-65337862D01*
X164395676Y-65370500D01*
X164395681Y-65370500D01*
X164604324Y-65370500D01*
X164810389Y-65337862D01*
X165008816Y-65273389D01*
X165194714Y-65178670D01*
X165363505Y-65056035D01*
X165498387Y-64921153D01*
X175199500Y-64921153D01*
X175199500Y-65078846D01*
X175230261Y-65233489D01*
X175230264Y-65233501D01*
X175290602Y-65379172D01*
X175290609Y-65379185D01*
X175378210Y-65510288D01*
X175378213Y-65510292D01*
X175489707Y-65621786D01*
X175489711Y-65621789D01*
X175620814Y-65709390D01*
X175620827Y-65709397D01*
X175766498Y-65769735D01*
X175766503Y-65769737D01*
X175921153Y-65800499D01*
X175921156Y-65800500D01*
X175921158Y-65800500D01*
X176078844Y-65800500D01*
X176078845Y-65800499D01*
X176233497Y-65769737D01*
X176379179Y-65709394D01*
X176510289Y-65621789D01*
X176621789Y-65510289D01*
X176709394Y-65379179D01*
X176769737Y-65233497D01*
X176800500Y-65078842D01*
X176800500Y-64921158D01*
X176800500Y-64921155D01*
X176800499Y-64921153D01*
X176769738Y-64766510D01*
X176769737Y-64766503D01*
X176758641Y-64739714D01*
X176709397Y-64620827D01*
X176709390Y-64620814D01*
X176621789Y-64489711D01*
X176621786Y-64489707D01*
X176510292Y-64378213D01*
X176510288Y-64378210D01*
X176379185Y-64290609D01*
X176379172Y-64290602D01*
X176233501Y-64230264D01*
X176233489Y-64230261D01*
X176078845Y-64199500D01*
X176078842Y-64199500D01*
X175921158Y-64199500D01*
X175921155Y-64199500D01*
X175766510Y-64230261D01*
X175766498Y-64230264D01*
X175620827Y-64290602D01*
X175620814Y-64290609D01*
X175489711Y-64378210D01*
X175489707Y-64378213D01*
X175378213Y-64489707D01*
X175378210Y-64489711D01*
X175290609Y-64620814D01*
X175290602Y-64620827D01*
X175230264Y-64766498D01*
X175230261Y-64766510D01*
X175199500Y-64921153D01*
X165498387Y-64921153D01*
X165511035Y-64908505D01*
X165633670Y-64739714D01*
X165728389Y-64553816D01*
X165792862Y-64355389D01*
X165825500Y-64149324D01*
X165825500Y-63940675D01*
X165792862Y-63734610D01*
X165728387Y-63536179D01*
X165695360Y-63471361D01*
X165695359Y-63471359D01*
X165669778Y-63421153D01*
X192199500Y-63421153D01*
X192199500Y-63578846D01*
X192230261Y-63733489D01*
X192230264Y-63733501D01*
X192290602Y-63879172D01*
X192290609Y-63879185D01*
X192378210Y-64010288D01*
X192378213Y-64010292D01*
X192489707Y-64121786D01*
X192489711Y-64121789D01*
X192620814Y-64209390D01*
X192620827Y-64209397D01*
X192766498Y-64269735D01*
X192766503Y-64269737D01*
X192921153Y-64300499D01*
X192921156Y-64300500D01*
X192921158Y-64300500D01*
X193078844Y-64300500D01*
X193078845Y-64300499D01*
X193233497Y-64269737D01*
X193379179Y-64209394D01*
X193510289Y-64121789D01*
X193621789Y-64010289D01*
X193709394Y-63879179D01*
X193769737Y-63733497D01*
X193800500Y-63578842D01*
X193800500Y-63421158D01*
X193800500Y-63421155D01*
X193800499Y-63421153D01*
X193786403Y-63350287D01*
X193769737Y-63266503D01*
X193750424Y-63219879D01*
X193742956Y-63150410D01*
X193774231Y-63087931D01*
X193834320Y-63052279D01*
X193904145Y-63054773D01*
X193952667Y-63084746D01*
X193989707Y-63121786D01*
X193989711Y-63121789D01*
X194120814Y-63209390D01*
X194120827Y-63209397D01*
X194258683Y-63266498D01*
X194266503Y-63269737D01*
X194421153Y-63300499D01*
X194421156Y-63300500D01*
X194421158Y-63300500D01*
X194578844Y-63300500D01*
X194578845Y-63300499D01*
X194733497Y-63269737D01*
X194879179Y-63209394D01*
X195010289Y-63121789D01*
X195121789Y-63010289D01*
X195209394Y-62879179D01*
X195216323Y-62862452D01*
X195235310Y-62816611D01*
X195269737Y-62733497D01*
X195300500Y-62578842D01*
X195300500Y-62421158D01*
X195300500Y-62421155D01*
X195300499Y-62421153D01*
X195269738Y-62266510D01*
X195269737Y-62266503D01*
X195269735Y-62266498D01*
X195209397Y-62120827D01*
X195209390Y-62120814D01*
X195121789Y-61989711D01*
X195121786Y-61989707D01*
X195010292Y-61878213D01*
X195010288Y-61878210D01*
X194879185Y-61790609D01*
X194879172Y-61790602D01*
X194733501Y-61730264D01*
X194733489Y-61730261D01*
X194578845Y-61699500D01*
X194578842Y-61699500D01*
X194421158Y-61699500D01*
X194421155Y-61699500D01*
X194266510Y-61730261D01*
X194266498Y-61730264D01*
X194120827Y-61790602D01*
X194120814Y-61790609D01*
X193989711Y-61878210D01*
X193989707Y-61878213D01*
X193878213Y-61989707D01*
X193878210Y-61989711D01*
X193790609Y-62120814D01*
X193790602Y-62120827D01*
X193730264Y-62266498D01*
X193730261Y-62266510D01*
X193699500Y-62421153D01*
X193699500Y-62578846D01*
X193730261Y-62733489D01*
X193730263Y-62733497D01*
X193747952Y-62776202D01*
X193749575Y-62780120D01*
X193757043Y-62849590D01*
X193725767Y-62912069D01*
X193665678Y-62947721D01*
X193595853Y-62945226D01*
X193547332Y-62915253D01*
X193510292Y-62878213D01*
X193510288Y-62878210D01*
X193379185Y-62790609D01*
X193379172Y-62790602D01*
X193233501Y-62730264D01*
X193233489Y-62730261D01*
X193078845Y-62699500D01*
X193078842Y-62699500D01*
X192921158Y-62699500D01*
X192921155Y-62699500D01*
X192766510Y-62730261D01*
X192766498Y-62730264D01*
X192620827Y-62790602D01*
X192620814Y-62790609D01*
X192489711Y-62878210D01*
X192489707Y-62878213D01*
X192378213Y-62989707D01*
X192378210Y-62989711D01*
X192290609Y-63120814D01*
X192290602Y-63120827D01*
X192230264Y-63266498D01*
X192230261Y-63266510D01*
X192199500Y-63421153D01*
X165669778Y-63421153D01*
X165633671Y-63350287D01*
X165575146Y-63269735D01*
X165511035Y-63181495D01*
X165363505Y-63033965D01*
X165194714Y-62911330D01*
X165008820Y-62816612D01*
X164810389Y-62752137D01*
X164604324Y-62719500D01*
X164604319Y-62719500D01*
X164395681Y-62719500D01*
X164395676Y-62719500D01*
X164189610Y-62752137D01*
X163991179Y-62816612D01*
X163805285Y-62911330D01*
X163636493Y-63033966D01*
X163488966Y-63181493D01*
X163366330Y-63350285D01*
X163271612Y-63536179D01*
X163207137Y-63734610D01*
X163174500Y-63940675D01*
X162325499Y-63940675D01*
X162325499Y-63172128D01*
X162319091Y-63112517D01*
X162289793Y-63033966D01*
X162268797Y-62977671D01*
X162268793Y-62977664D01*
X162182547Y-62862455D01*
X162182544Y-62862452D01*
X162067335Y-62776206D01*
X162067328Y-62776202D01*
X161932482Y-62725908D01*
X161932483Y-62725908D01*
X161872883Y-62719501D01*
X161872881Y-62719500D01*
X161872873Y-62719500D01*
X161872864Y-62719500D01*
X160127129Y-62719500D01*
X160127123Y-62719501D01*
X160067516Y-62725908D01*
X159932671Y-62776202D01*
X159932664Y-62776206D01*
X159817455Y-62862452D01*
X159817452Y-62862455D01*
X159731206Y-62977664D01*
X159731202Y-62977671D01*
X159680908Y-63112517D01*
X159674501Y-63172116D01*
X159674501Y-63172123D01*
X159674500Y-63172135D01*
X100500500Y-63172135D01*
X100500500Y-60421153D01*
X104699500Y-60421153D01*
X104699500Y-60578846D01*
X104730261Y-60733489D01*
X104730264Y-60733501D01*
X104790602Y-60879172D01*
X104790609Y-60879185D01*
X104878210Y-61010288D01*
X104878213Y-61010292D01*
X104989707Y-61121786D01*
X104989711Y-61121789D01*
X105120814Y-61209390D01*
X105120827Y-61209397D01*
X105266498Y-61269735D01*
X105266503Y-61269737D01*
X105421153Y-61300499D01*
X105421156Y-61300500D01*
X105421158Y-61300500D01*
X105578844Y-61300500D01*
X105578845Y-61300499D01*
X105733497Y-61269737D01*
X105879179Y-61209394D01*
X106010289Y-61121789D01*
X106121789Y-61010289D01*
X106181348Y-60921153D01*
X191699500Y-60921153D01*
X191699500Y-61078846D01*
X191730261Y-61233489D01*
X191730264Y-61233501D01*
X191790602Y-61379172D01*
X191790609Y-61379185D01*
X191878210Y-61510288D01*
X191878213Y-61510292D01*
X191989707Y-61621786D01*
X191989711Y-61621789D01*
X192120814Y-61709390D01*
X192120827Y-61709397D01*
X192266498Y-61769735D01*
X192266503Y-61769737D01*
X192421153Y-61800499D01*
X192421156Y-61800500D01*
X192421158Y-61800500D01*
X192578844Y-61800500D01*
X192578845Y-61800499D01*
X192733497Y-61769737D01*
X192879179Y-61709394D01*
X193010289Y-61621789D01*
X193121789Y-61510289D01*
X193209394Y-61379179D01*
X193269737Y-61233497D01*
X193300500Y-61078842D01*
X193300500Y-60921158D01*
X193300500Y-60921155D01*
X193300499Y-60921153D01*
X193269738Y-60766510D01*
X193269737Y-60766503D01*
X193256062Y-60733489D01*
X193209397Y-60620827D01*
X193209390Y-60620814D01*
X193121789Y-60489711D01*
X193121786Y-60489707D01*
X193010292Y-60378213D01*
X193010288Y-60378210D01*
X192879185Y-60290609D01*
X192879172Y-60290602D01*
X192733501Y-60230264D01*
X192733489Y-60230261D01*
X192578845Y-60199500D01*
X192578842Y-60199500D01*
X192421158Y-60199500D01*
X192421155Y-60199500D01*
X192266510Y-60230261D01*
X192266498Y-60230264D01*
X192120827Y-60290602D01*
X192120814Y-60290609D01*
X191989711Y-60378210D01*
X191989707Y-60378213D01*
X191878213Y-60489707D01*
X191878210Y-60489711D01*
X191790609Y-60620814D01*
X191790602Y-60620827D01*
X191730264Y-60766498D01*
X191730261Y-60766510D01*
X191699500Y-60921153D01*
X106181348Y-60921153D01*
X106209394Y-60879179D01*
X106269737Y-60733497D01*
X106300500Y-60578842D01*
X106300500Y-60421158D01*
X106300500Y-60421155D01*
X106300499Y-60421153D01*
X106274531Y-60290606D01*
X106269737Y-60266503D01*
X106269735Y-60266498D01*
X106209397Y-60120827D01*
X106209390Y-60120814D01*
X106121789Y-59989711D01*
X106121786Y-59989707D01*
X106010292Y-59878213D01*
X106010288Y-59878210D01*
X105879185Y-59790609D01*
X105879172Y-59790602D01*
X105733501Y-59730264D01*
X105733489Y-59730261D01*
X105578845Y-59699500D01*
X105578842Y-59699500D01*
X105421158Y-59699500D01*
X105421155Y-59699500D01*
X105266510Y-59730261D01*
X105266498Y-59730264D01*
X105120827Y-59790602D01*
X105120814Y-59790609D01*
X104989711Y-59878210D01*
X104989707Y-59878213D01*
X104878213Y-59989707D01*
X104878210Y-59989711D01*
X104790609Y-60120814D01*
X104790602Y-60120827D01*
X104730264Y-60266498D01*
X104730261Y-60266510D01*
X104699500Y-60421153D01*
X100500500Y-60421153D01*
X100500500Y-58895675D01*
X126134500Y-58895675D01*
X126134500Y-59104324D01*
X126167137Y-59310389D01*
X126231612Y-59508820D01*
X126326330Y-59694714D01*
X126448965Y-59863505D01*
X126596495Y-60011035D01*
X126765286Y-60133670D01*
X126853116Y-60178421D01*
X126951179Y-60228387D01*
X126951181Y-60228387D01*
X126951184Y-60228389D01*
X127057545Y-60262948D01*
X127149610Y-60292862D01*
X127355676Y-60325500D01*
X127355681Y-60325500D01*
X127564324Y-60325500D01*
X127770389Y-60292862D01*
X127777332Y-60290606D01*
X127968816Y-60228389D01*
X128154714Y-60133670D01*
X128323505Y-60011035D01*
X128470576Y-59863963D01*
X128531896Y-59830481D01*
X128601587Y-59835465D01*
X128657521Y-59877336D01*
X128676496Y-59925552D01*
X128679124Y-59924932D01*
X128680907Y-59932479D01*
X128731202Y-60067328D01*
X128731206Y-60067335D01*
X128817452Y-60182544D01*
X128817455Y-60182547D01*
X128932664Y-60268793D01*
X128932671Y-60268797D01*
X129067517Y-60319091D01*
X129067516Y-60319091D01*
X129074444Y-60319835D01*
X129127127Y-60325500D01*
X130872872Y-60325499D01*
X130932483Y-60319091D01*
X131067331Y-60268796D01*
X131182546Y-60182546D01*
X131268796Y-60067331D01*
X131319091Y-59932483D01*
X131325500Y-59872873D01*
X131325499Y-59421153D01*
X180699500Y-59421153D01*
X180699500Y-59578846D01*
X180730261Y-59733489D01*
X180730264Y-59733501D01*
X180790602Y-59879172D01*
X180790609Y-59879185D01*
X180878210Y-60010288D01*
X180878213Y-60010292D01*
X180989707Y-60121786D01*
X180989711Y-60121789D01*
X181120814Y-60209390D01*
X181120827Y-60209397D01*
X181266498Y-60269735D01*
X181266503Y-60269737D01*
X181421153Y-60300499D01*
X181421156Y-60300500D01*
X181421158Y-60300500D01*
X181578844Y-60300500D01*
X181578845Y-60300499D01*
X181733497Y-60269737D01*
X181879179Y-60209394D01*
X182010289Y-60121789D01*
X182121789Y-60010289D01*
X182209394Y-59879179D01*
X182212007Y-59872872D01*
X182229565Y-59830481D01*
X182269737Y-59733497D01*
X182300500Y-59578842D01*
X182300500Y-59421158D01*
X182300500Y-59421155D01*
X182300499Y-59421153D01*
X182299288Y-59415066D01*
X182269737Y-59266503D01*
X182269735Y-59266498D01*
X182209397Y-59120827D01*
X182209390Y-59120814D01*
X182121789Y-58989711D01*
X182121786Y-58989707D01*
X182010292Y-58878213D01*
X182010288Y-58878210D01*
X181879185Y-58790609D01*
X181879172Y-58790602D01*
X181733501Y-58730264D01*
X181733489Y-58730261D01*
X181578845Y-58699500D01*
X181578842Y-58699500D01*
X181421158Y-58699500D01*
X181421155Y-58699500D01*
X181266510Y-58730261D01*
X181266498Y-58730264D01*
X181120827Y-58790602D01*
X181120814Y-58790609D01*
X180989711Y-58878210D01*
X180989707Y-58878213D01*
X180878213Y-58989707D01*
X180878210Y-58989711D01*
X180790609Y-59120814D01*
X180790602Y-59120827D01*
X180730264Y-59266498D01*
X180730261Y-59266510D01*
X180699500Y-59421153D01*
X131325499Y-59421153D01*
X131325499Y-58989711D01*
X131325499Y-58127129D01*
X131325498Y-58127123D01*
X131319091Y-58067516D01*
X131268797Y-57932671D01*
X131268793Y-57932664D01*
X131182547Y-57817455D01*
X131182544Y-57817452D01*
X131067335Y-57731206D01*
X131067328Y-57731202D01*
X130932482Y-57680908D01*
X130932483Y-57680908D01*
X130872883Y-57674501D01*
X130872881Y-57674500D01*
X130872873Y-57674500D01*
X130872864Y-57674500D01*
X129127129Y-57674500D01*
X129127123Y-57674501D01*
X129067516Y-57680908D01*
X128932671Y-57731202D01*
X128932664Y-57731206D01*
X128817455Y-57817452D01*
X128817452Y-57817455D01*
X128731206Y-57932664D01*
X128731202Y-57932671D01*
X128680908Y-58067517D01*
X128679126Y-58075062D01*
X128676253Y-58074383D01*
X128654804Y-58126162D01*
X128597411Y-58166008D01*
X128527586Y-58168500D01*
X128470574Y-58136034D01*
X128323506Y-57988966D01*
X128246023Y-57932671D01*
X128154714Y-57866330D01*
X127968820Y-57771612D01*
X127770389Y-57707137D01*
X127564324Y-57674500D01*
X127564319Y-57674500D01*
X127355681Y-57674500D01*
X127355676Y-57674500D01*
X127149610Y-57707137D01*
X126951179Y-57771612D01*
X126765285Y-57866330D01*
X126596493Y-57988966D01*
X126448966Y-58136493D01*
X126326330Y-58305285D01*
X126231612Y-58491179D01*
X126167137Y-58689610D01*
X126134500Y-58895675D01*
X100500500Y-58895675D01*
X100500500Y-56921153D01*
X104199500Y-56921153D01*
X104199500Y-57078846D01*
X104230261Y-57233489D01*
X104230264Y-57233501D01*
X104290602Y-57379172D01*
X104290609Y-57379185D01*
X104378210Y-57510288D01*
X104378213Y-57510292D01*
X104489707Y-57621786D01*
X104489711Y-57621789D01*
X104620814Y-57709390D01*
X104620827Y-57709397D01*
X104766498Y-57769735D01*
X104766503Y-57769737D01*
X104921153Y-57800499D01*
X104921156Y-57800500D01*
X104921158Y-57800500D01*
X105078844Y-57800500D01*
X105078845Y-57800499D01*
X105233497Y-57769737D01*
X105379179Y-57709394D01*
X105510289Y-57621789D01*
X105621789Y-57510289D01*
X105709394Y-57379179D01*
X105769737Y-57233497D01*
X105800500Y-57078842D01*
X105800500Y-56921158D01*
X105800500Y-56921155D01*
X105800499Y-56921153D01*
X105770380Y-56769735D01*
X105769737Y-56766503D01*
X105746080Y-56709390D01*
X105709397Y-56620827D01*
X105709390Y-56620814D01*
X105621789Y-56489711D01*
X105621786Y-56489707D01*
X105510292Y-56378213D01*
X105510288Y-56378210D01*
X105379185Y-56290609D01*
X105379172Y-56290602D01*
X105233501Y-56230264D01*
X105233489Y-56230261D01*
X105078845Y-56199500D01*
X105078842Y-56199500D01*
X104921158Y-56199500D01*
X104921155Y-56199500D01*
X104766510Y-56230261D01*
X104766498Y-56230264D01*
X104620827Y-56290602D01*
X104620814Y-56290609D01*
X104489711Y-56378210D01*
X104489707Y-56378213D01*
X104378213Y-56489707D01*
X104378210Y-56489711D01*
X104290609Y-56620814D01*
X104290602Y-56620827D01*
X104230264Y-56766498D01*
X104230261Y-56766510D01*
X104199500Y-56921153D01*
X100500500Y-56921153D01*
X100500500Y-56066153D01*
X176344500Y-56066153D01*
X176344500Y-56223846D01*
X176375261Y-56378489D01*
X176375264Y-56378501D01*
X176435602Y-56524172D01*
X176435609Y-56524185D01*
X176523210Y-56655288D01*
X176523213Y-56655292D01*
X176634707Y-56766786D01*
X176634711Y-56766789D01*
X176765814Y-56854390D01*
X176765827Y-56854397D01*
X176911498Y-56914735D01*
X176911503Y-56914737D01*
X177066153Y-56945499D01*
X177066156Y-56945500D01*
X177066158Y-56945500D01*
X177223844Y-56945500D01*
X177223845Y-56945499D01*
X177378497Y-56914737D01*
X177524179Y-56854394D01*
X177655289Y-56766789D01*
X177766789Y-56655289D01*
X177854394Y-56524179D01*
X177914737Y-56378497D01*
X177945500Y-56223842D01*
X177945500Y-56066158D01*
X177945500Y-56066155D01*
X177920258Y-55939258D01*
X177920258Y-55939257D01*
X177917660Y-55926198D01*
X177916656Y-55921153D01*
X181699500Y-55921153D01*
X181699500Y-56078846D01*
X181730261Y-56233489D01*
X181730264Y-56233501D01*
X181790602Y-56379172D01*
X181790609Y-56379185D01*
X181878210Y-56510288D01*
X181878213Y-56510292D01*
X181989707Y-56621786D01*
X181989711Y-56621789D01*
X182120814Y-56709390D01*
X182120827Y-56709397D01*
X182259386Y-56766789D01*
X182266503Y-56769737D01*
X182421153Y-56800499D01*
X182421156Y-56800500D01*
X182421158Y-56800500D01*
X182578844Y-56800500D01*
X182578845Y-56800499D01*
X182733497Y-56769737D01*
X182879179Y-56709394D01*
X183010289Y-56621789D01*
X183121789Y-56510289D01*
X183209394Y-56379179D01*
X183209677Y-56378497D01*
X183223067Y-56346166D01*
X183269737Y-56233497D01*
X183300500Y-56078842D01*
X183300500Y-55921158D01*
X183300500Y-55921155D01*
X183300499Y-55921153D01*
X192699500Y-55921153D01*
X192699500Y-56078846D01*
X192730261Y-56233489D01*
X192730264Y-56233501D01*
X192790602Y-56379172D01*
X192790609Y-56379185D01*
X192878210Y-56510288D01*
X192878213Y-56510292D01*
X192989707Y-56621786D01*
X192989711Y-56621789D01*
X193120814Y-56709390D01*
X193120827Y-56709397D01*
X193259386Y-56766789D01*
X193266503Y-56769737D01*
X193421153Y-56800499D01*
X193421156Y-56800500D01*
X193421158Y-56800500D01*
X193578844Y-56800500D01*
X193578845Y-56800499D01*
X193733497Y-56769737D01*
X193879179Y-56709394D01*
X194010289Y-56621789D01*
X194121789Y-56510289D01*
X194209394Y-56379179D01*
X194209677Y-56378497D01*
X194223067Y-56346166D01*
X194269737Y-56233497D01*
X194300500Y-56078842D01*
X194300500Y-55921158D01*
X194300500Y-55921155D01*
X194300499Y-55921153D01*
X194269738Y-55766510D01*
X194269737Y-55766503D01*
X194269452Y-55765814D01*
X194209397Y-55620827D01*
X194209390Y-55620814D01*
X194121789Y-55489711D01*
X194121786Y-55489707D01*
X194010292Y-55378213D01*
X194010288Y-55378210D01*
X193879185Y-55290609D01*
X193879172Y-55290602D01*
X193733501Y-55230264D01*
X193733489Y-55230261D01*
X193578845Y-55199500D01*
X193578842Y-55199500D01*
X193421158Y-55199500D01*
X193421155Y-55199500D01*
X193266510Y-55230261D01*
X193266498Y-55230264D01*
X193120827Y-55290602D01*
X193120814Y-55290609D01*
X192989711Y-55378210D01*
X192989707Y-55378213D01*
X192878213Y-55489707D01*
X192878210Y-55489711D01*
X192790609Y-55620814D01*
X192790602Y-55620827D01*
X192730264Y-55766498D01*
X192730261Y-55766510D01*
X192699500Y-55921153D01*
X183300499Y-55921153D01*
X183269738Y-55766510D01*
X183269737Y-55766503D01*
X183269452Y-55765814D01*
X183209397Y-55620827D01*
X183209390Y-55620814D01*
X183121789Y-55489711D01*
X183121786Y-55489707D01*
X183010292Y-55378213D01*
X183010288Y-55378210D01*
X182879185Y-55290609D01*
X182879172Y-55290602D01*
X182733501Y-55230264D01*
X182733489Y-55230261D01*
X182578845Y-55199500D01*
X182578842Y-55199500D01*
X182421158Y-55199500D01*
X182421155Y-55199500D01*
X182266510Y-55230261D01*
X182266498Y-55230264D01*
X182120827Y-55290602D01*
X182120814Y-55290609D01*
X181989711Y-55378210D01*
X181989707Y-55378213D01*
X181878213Y-55489707D01*
X181878210Y-55489711D01*
X181790609Y-55620814D01*
X181790602Y-55620827D01*
X181730264Y-55766498D01*
X181730261Y-55766510D01*
X181699500Y-55921153D01*
X177916656Y-55921153D01*
X177914737Y-55911503D01*
X177914735Y-55911498D01*
X177854397Y-55765827D01*
X177854390Y-55765814D01*
X177766789Y-55634711D01*
X177766786Y-55634707D01*
X177655292Y-55523213D01*
X177655288Y-55523210D01*
X177524185Y-55435609D01*
X177524172Y-55435602D01*
X177378501Y-55375264D01*
X177378489Y-55375261D01*
X177223845Y-55344500D01*
X177223842Y-55344500D01*
X177066158Y-55344500D01*
X177066155Y-55344500D01*
X176911510Y-55375261D01*
X176911498Y-55375264D01*
X176765827Y-55435602D01*
X176765814Y-55435609D01*
X176634711Y-55523210D01*
X176634707Y-55523213D01*
X176523213Y-55634707D01*
X176523210Y-55634711D01*
X176435609Y-55765814D01*
X176435602Y-55765827D01*
X176375264Y-55911498D01*
X176375261Y-55911510D01*
X176344500Y-56066153D01*
X100500500Y-56066153D01*
X100500500Y-54421153D01*
X135699500Y-54421153D01*
X135699500Y-54578846D01*
X135730261Y-54733489D01*
X135730264Y-54733501D01*
X135790602Y-54879172D01*
X135790609Y-54879185D01*
X135878210Y-55010288D01*
X135878213Y-55010292D01*
X135989707Y-55121786D01*
X135989711Y-55121789D01*
X136120814Y-55209390D01*
X136120827Y-55209397D01*
X136266498Y-55269735D01*
X136266503Y-55269737D01*
X136421153Y-55300499D01*
X136421156Y-55300500D01*
X136421158Y-55300500D01*
X136578844Y-55300500D01*
X136578845Y-55300499D01*
X136733497Y-55269737D01*
X136879179Y-55209394D01*
X137010289Y-55121789D01*
X137121789Y-55010289D01*
X137129145Y-54999279D01*
X137146898Y-54972712D01*
X137200510Y-54927906D01*
X137269835Y-54919199D01*
X137332862Y-54949353D01*
X137353102Y-54972712D01*
X137378207Y-55010284D01*
X137378213Y-55010292D01*
X137489707Y-55121786D01*
X137489711Y-55121789D01*
X137620814Y-55209390D01*
X137620827Y-55209397D01*
X137766498Y-55269735D01*
X137766503Y-55269737D01*
X137921153Y-55300499D01*
X137921156Y-55300500D01*
X137921158Y-55300500D01*
X138078844Y-55300500D01*
X138078845Y-55300499D01*
X138233497Y-55269737D01*
X138379179Y-55209394D01*
X138510289Y-55121789D01*
X138621789Y-55010289D01*
X138709394Y-54879179D01*
X138769737Y-54733497D01*
X138800500Y-54578842D01*
X138800500Y-54421158D01*
X138800500Y-54421155D01*
X138800499Y-54421153D01*
X138769737Y-54266503D01*
X138709794Y-54121786D01*
X138709397Y-54120827D01*
X138709390Y-54120814D01*
X138621789Y-53989711D01*
X138621786Y-53989707D01*
X138510292Y-53878213D01*
X138510288Y-53878210D01*
X138379185Y-53790609D01*
X138379172Y-53790602D01*
X138233501Y-53730264D01*
X138233489Y-53730261D01*
X138078845Y-53699500D01*
X138078842Y-53699500D01*
X137921158Y-53699500D01*
X137921155Y-53699500D01*
X137766510Y-53730261D01*
X137766498Y-53730264D01*
X137620827Y-53790602D01*
X137620814Y-53790609D01*
X137489711Y-53878210D01*
X137489707Y-53878213D01*
X137378213Y-53989707D01*
X137353102Y-54027289D01*
X137299489Y-54072093D01*
X137230164Y-54080800D01*
X137167137Y-54050645D01*
X137146898Y-54027289D01*
X137121786Y-53989707D01*
X137010292Y-53878213D01*
X137010288Y-53878210D01*
X136879185Y-53790609D01*
X136879172Y-53790602D01*
X136733501Y-53730264D01*
X136733489Y-53730261D01*
X136578845Y-53699500D01*
X136578842Y-53699500D01*
X136421158Y-53699500D01*
X136421155Y-53699500D01*
X136266510Y-53730261D01*
X136266498Y-53730264D01*
X136120827Y-53790602D01*
X136120814Y-53790609D01*
X135989711Y-53878210D01*
X135989707Y-53878213D01*
X135878213Y-53989707D01*
X135878210Y-53989711D01*
X135790609Y-54120814D01*
X135790602Y-54120827D01*
X135730264Y-54266498D01*
X135730261Y-54266510D01*
X135699500Y-54421153D01*
X100500500Y-54421153D01*
X100500500Y-52921153D01*
X147199500Y-52921153D01*
X147199500Y-53078846D01*
X147230261Y-53233489D01*
X147230264Y-53233501D01*
X147290602Y-53379172D01*
X147290609Y-53379185D01*
X147378210Y-53510288D01*
X147378213Y-53510292D01*
X147489707Y-53621786D01*
X147489711Y-53621789D01*
X147620814Y-53709390D01*
X147620827Y-53709397D01*
X147717209Y-53749319D01*
X147766503Y-53769737D01*
X147921153Y-53800499D01*
X147921156Y-53800500D01*
X147921158Y-53800500D01*
X148078844Y-53800500D01*
X148078845Y-53800499D01*
X148233497Y-53769737D01*
X148379179Y-53709394D01*
X148510289Y-53621789D01*
X148621789Y-53510289D01*
X148709394Y-53379179D01*
X148769737Y-53233497D01*
X148800500Y-53078842D01*
X148800500Y-52921158D01*
X148800500Y-52921155D01*
X148800499Y-52921153D01*
X148775008Y-52792997D01*
X148770857Y-52772130D01*
X159674500Y-52772130D01*
X159674500Y-54517870D01*
X159674501Y-54517876D01*
X159680908Y-54577483D01*
X159731202Y-54712328D01*
X159731206Y-54712335D01*
X159817452Y-54827544D01*
X159817455Y-54827547D01*
X159932664Y-54913793D01*
X159932671Y-54913797D01*
X160067517Y-54964091D01*
X160067516Y-54964091D01*
X160074444Y-54964835D01*
X160127127Y-54970500D01*
X161872872Y-54970499D01*
X161932483Y-54964091D01*
X162067331Y-54913796D01*
X162182546Y-54827546D01*
X162268796Y-54712331D01*
X162319091Y-54577483D01*
X162325500Y-54517873D01*
X162325499Y-53540675D01*
X163174500Y-53540675D01*
X163174500Y-53749324D01*
X163207137Y-53955389D01*
X163271612Y-54153820D01*
X163366330Y-54339714D01*
X163488965Y-54508505D01*
X163636495Y-54656035D01*
X163805286Y-54778670D01*
X163893116Y-54823421D01*
X163991179Y-54873387D01*
X163991181Y-54873387D01*
X163991184Y-54873389D01*
X164097545Y-54907948D01*
X164189610Y-54937862D01*
X164395676Y-54970500D01*
X164395681Y-54970500D01*
X164604324Y-54970500D01*
X164810389Y-54937862D01*
X164841030Y-54927906D01*
X165008816Y-54873389D01*
X165194714Y-54778670D01*
X165363505Y-54656035D01*
X165511035Y-54508505D01*
X165633670Y-54339714D01*
X165728389Y-54153816D01*
X165792862Y-53955389D01*
X165825500Y-53749324D01*
X165825500Y-53540675D01*
X165806569Y-53421153D01*
X193699500Y-53421153D01*
X193699500Y-53578846D01*
X193730261Y-53733489D01*
X193730264Y-53733501D01*
X193790602Y-53879172D01*
X193790609Y-53879185D01*
X193878210Y-54010288D01*
X193878213Y-54010292D01*
X193989707Y-54121786D01*
X193989711Y-54121789D01*
X194120814Y-54209390D01*
X194120827Y-54209397D01*
X194258683Y-54266498D01*
X194266503Y-54269737D01*
X194421153Y-54300499D01*
X194421156Y-54300500D01*
X194421158Y-54300500D01*
X194578844Y-54300500D01*
X194578845Y-54300499D01*
X194733497Y-54269737D01*
X194879179Y-54209394D01*
X195010289Y-54121789D01*
X195121789Y-54010289D01*
X195209394Y-53879179D01*
X195269737Y-53733497D01*
X195300500Y-53578842D01*
X195300500Y-53421158D01*
X195300500Y-53421155D01*
X195300499Y-53421153D01*
X195292148Y-53379172D01*
X195269737Y-53266503D01*
X195215758Y-53136184D01*
X195209397Y-53120827D01*
X195209390Y-53120814D01*
X195121789Y-52989711D01*
X195121786Y-52989707D01*
X195010292Y-52878213D01*
X195010288Y-52878210D01*
X194879185Y-52790609D01*
X194879172Y-52790602D01*
X194733501Y-52730264D01*
X194733489Y-52730261D01*
X194578845Y-52699500D01*
X194578842Y-52699500D01*
X194421158Y-52699500D01*
X194421155Y-52699500D01*
X194266510Y-52730261D01*
X194266498Y-52730264D01*
X194120827Y-52790602D01*
X194120814Y-52790609D01*
X193989711Y-52878210D01*
X193989707Y-52878213D01*
X193878213Y-52989707D01*
X193878210Y-52989711D01*
X193790609Y-53120814D01*
X193790602Y-53120827D01*
X193730264Y-53266498D01*
X193730261Y-53266510D01*
X193699500Y-53421153D01*
X165806569Y-53421153D01*
X165792862Y-53334610D01*
X165728387Y-53136179D01*
X165633669Y-52950285D01*
X165612503Y-52921153D01*
X165511035Y-52781495D01*
X165363505Y-52633965D01*
X165200294Y-52515384D01*
X165200293Y-52515382D01*
X165194716Y-52511331D01*
X165017732Y-52421153D01*
X175199500Y-52421153D01*
X175199500Y-52578846D01*
X175230261Y-52733489D01*
X175230264Y-52733501D01*
X175290602Y-52879172D01*
X175290609Y-52879185D01*
X175378210Y-53010288D01*
X175378213Y-53010292D01*
X175489707Y-53121786D01*
X175489711Y-53121789D01*
X175620814Y-53209390D01*
X175620827Y-53209397D01*
X175758683Y-53266498D01*
X175766503Y-53269737D01*
X175921153Y-53300499D01*
X175921156Y-53300500D01*
X175921158Y-53300500D01*
X176078844Y-53300500D01*
X176078845Y-53300499D01*
X176089179Y-53298443D01*
X176114287Y-53293450D01*
X176114292Y-53293449D01*
X176199800Y-53276439D01*
X176233497Y-53269737D01*
X176379179Y-53209394D01*
X176510289Y-53121789D01*
X176621789Y-53010289D01*
X176709394Y-52879179D01*
X176769737Y-52733497D01*
X176800500Y-52578842D01*
X176800500Y-52421158D01*
X176800500Y-52421155D01*
X176800499Y-52421153D01*
X176786771Y-52352137D01*
X176769737Y-52266503D01*
X176769735Y-52266498D01*
X176709397Y-52120827D01*
X176709390Y-52120814D01*
X176621789Y-51989711D01*
X176621786Y-51989707D01*
X176510292Y-51878213D01*
X176510288Y-51878210D01*
X176379185Y-51790609D01*
X176379172Y-51790602D01*
X176233501Y-51730264D01*
X176233489Y-51730261D01*
X176078845Y-51699500D01*
X176078842Y-51699500D01*
X175921158Y-51699500D01*
X175921155Y-51699500D01*
X175766510Y-51730261D01*
X175766498Y-51730264D01*
X175620827Y-51790602D01*
X175620814Y-51790609D01*
X175489711Y-51878210D01*
X175489707Y-51878213D01*
X175378213Y-51989707D01*
X175378210Y-51989711D01*
X175290609Y-52120814D01*
X175290602Y-52120827D01*
X175230264Y-52266498D01*
X175230261Y-52266510D01*
X175199500Y-52421153D01*
X165017732Y-52421153D01*
X165008820Y-52416612D01*
X164810389Y-52352137D01*
X164604324Y-52319500D01*
X164604319Y-52319500D01*
X164395681Y-52319500D01*
X164395676Y-52319500D01*
X164189610Y-52352137D01*
X163991179Y-52416612D01*
X163805285Y-52511330D01*
X163636493Y-52633966D01*
X163488966Y-52781493D01*
X163366330Y-52950285D01*
X163271612Y-53136179D01*
X163207137Y-53334610D01*
X163174500Y-53540675D01*
X162325499Y-53540675D01*
X162325499Y-52772128D01*
X162319091Y-52712517D01*
X162289793Y-52633966D01*
X162268797Y-52577671D01*
X162268793Y-52577664D01*
X162182547Y-52462455D01*
X162182544Y-52462452D01*
X162067335Y-52376206D01*
X162067328Y-52376202D01*
X161932482Y-52325908D01*
X161932483Y-52325908D01*
X161872883Y-52319501D01*
X161872881Y-52319500D01*
X161872873Y-52319500D01*
X161872864Y-52319500D01*
X160127129Y-52319500D01*
X160127123Y-52319501D01*
X160067516Y-52325908D01*
X159932671Y-52376202D01*
X159932664Y-52376206D01*
X159817455Y-52462452D01*
X159817452Y-52462455D01*
X159731206Y-52577664D01*
X159731202Y-52577671D01*
X159680908Y-52712517D01*
X159674501Y-52772116D01*
X159674500Y-52772130D01*
X148770857Y-52772130D01*
X148769738Y-52766507D01*
X148769735Y-52766498D01*
X148709397Y-52620827D01*
X148709390Y-52620814D01*
X148621789Y-52489711D01*
X148621786Y-52489707D01*
X148510292Y-52378213D01*
X148510288Y-52378210D01*
X148379185Y-52290609D01*
X148379172Y-52290602D01*
X148233501Y-52230264D01*
X148233489Y-52230261D01*
X148078845Y-52199500D01*
X148078842Y-52199500D01*
X147921158Y-52199500D01*
X147921155Y-52199500D01*
X147766510Y-52230261D01*
X147766498Y-52230264D01*
X147620827Y-52290602D01*
X147620814Y-52290609D01*
X147489711Y-52378210D01*
X147489707Y-52378213D01*
X147378213Y-52489707D01*
X147378210Y-52489711D01*
X147290609Y-52620814D01*
X147290602Y-52620827D01*
X147230264Y-52766498D01*
X147230261Y-52766510D01*
X147199500Y-52921153D01*
X100500500Y-52921153D01*
X100500500Y-50921153D01*
X106199500Y-50921153D01*
X106199500Y-51078846D01*
X106230261Y-51233489D01*
X106230264Y-51233501D01*
X106290602Y-51379172D01*
X106290609Y-51379185D01*
X106378210Y-51510288D01*
X106378213Y-51510292D01*
X106489707Y-51621786D01*
X106489711Y-51621789D01*
X106620814Y-51709390D01*
X106620827Y-51709397D01*
X106766498Y-51769735D01*
X106766503Y-51769737D01*
X106921153Y-51800499D01*
X106921156Y-51800500D01*
X106921158Y-51800500D01*
X107078844Y-51800500D01*
X107078845Y-51800499D01*
X107233497Y-51769737D01*
X107379179Y-51709394D01*
X107510289Y-51621789D01*
X107621789Y-51510289D01*
X107709394Y-51379179D01*
X107769737Y-51233497D01*
X107800500Y-51078842D01*
X107800500Y-50921158D01*
X107800500Y-50921155D01*
X107800499Y-50921153D01*
X173199500Y-50921153D01*
X173199500Y-51078846D01*
X173230261Y-51233489D01*
X173230264Y-51233501D01*
X173290602Y-51379172D01*
X173290609Y-51379185D01*
X173378210Y-51510288D01*
X173378213Y-51510292D01*
X173489707Y-51621786D01*
X173489711Y-51621789D01*
X173620814Y-51709390D01*
X173620827Y-51709397D01*
X173766498Y-51769735D01*
X173766503Y-51769737D01*
X173921153Y-51800499D01*
X173921156Y-51800500D01*
X173921158Y-51800500D01*
X174078844Y-51800500D01*
X174078845Y-51800499D01*
X174233497Y-51769737D01*
X174379179Y-51709394D01*
X174510289Y-51621789D01*
X174621789Y-51510289D01*
X174709394Y-51379179D01*
X174769737Y-51233497D01*
X174800500Y-51078842D01*
X174800500Y-50921158D01*
X174800500Y-50921155D01*
X174800499Y-50921153D01*
X174769738Y-50766510D01*
X174769737Y-50766503D01*
X174769735Y-50766498D01*
X174709397Y-50620827D01*
X174709390Y-50620814D01*
X174621789Y-50489711D01*
X174621786Y-50489707D01*
X174510292Y-50378213D01*
X174510288Y-50378210D01*
X174379185Y-50290609D01*
X174379172Y-50290602D01*
X174233501Y-50230264D01*
X174233489Y-50230261D01*
X174078845Y-50199500D01*
X174078842Y-50199500D01*
X173921158Y-50199500D01*
X173921155Y-50199500D01*
X173766510Y-50230261D01*
X173766498Y-50230264D01*
X173620827Y-50290602D01*
X173620814Y-50290609D01*
X173489711Y-50378210D01*
X173489707Y-50378213D01*
X173378213Y-50489707D01*
X173378210Y-50489711D01*
X173290609Y-50620814D01*
X173290602Y-50620827D01*
X173230264Y-50766498D01*
X173230261Y-50766510D01*
X173199500Y-50921153D01*
X107800499Y-50921153D01*
X107769738Y-50766510D01*
X107769737Y-50766503D01*
X107769735Y-50766498D01*
X107709397Y-50620827D01*
X107709390Y-50620814D01*
X107621789Y-50489711D01*
X107621786Y-50489707D01*
X107510292Y-50378213D01*
X107510288Y-50378210D01*
X107379185Y-50290609D01*
X107379172Y-50290602D01*
X107233501Y-50230264D01*
X107233489Y-50230261D01*
X107078845Y-50199500D01*
X107078842Y-50199500D01*
X106921158Y-50199500D01*
X106921155Y-50199500D01*
X106766510Y-50230261D01*
X106766498Y-50230264D01*
X106620827Y-50290602D01*
X106620814Y-50290609D01*
X106489711Y-50378210D01*
X106489707Y-50378213D01*
X106378213Y-50489707D01*
X106378210Y-50489711D01*
X106290609Y-50620814D01*
X106290602Y-50620827D01*
X106230264Y-50766498D01*
X106230261Y-50766510D01*
X106199500Y-50921153D01*
X100500500Y-50921153D01*
X100500500Y-49421153D01*
X115199500Y-49421153D01*
X115199500Y-49578846D01*
X115230261Y-49733489D01*
X115230264Y-49733501D01*
X115290602Y-49879172D01*
X115290609Y-49879185D01*
X115378210Y-50010288D01*
X115378213Y-50010292D01*
X115489707Y-50121786D01*
X115489711Y-50121789D01*
X115620814Y-50209390D01*
X115620827Y-50209397D01*
X115766498Y-50269735D01*
X115766503Y-50269737D01*
X115921153Y-50300499D01*
X115921156Y-50300500D01*
X115921158Y-50300500D01*
X116078844Y-50300500D01*
X116078845Y-50300499D01*
X116233497Y-50269737D01*
X116379179Y-50209394D01*
X116510289Y-50121789D01*
X116621789Y-50010289D01*
X116709394Y-49879179D01*
X116769737Y-49733497D01*
X116800500Y-49578842D01*
X116800500Y-49421158D01*
X116800500Y-49421155D01*
X116800499Y-49421153D01*
X122699500Y-49421153D01*
X122699500Y-49578846D01*
X122730261Y-49733489D01*
X122730264Y-49733501D01*
X122790602Y-49879172D01*
X122790609Y-49879185D01*
X122878210Y-50010288D01*
X122878213Y-50010292D01*
X122989707Y-50121786D01*
X122989711Y-50121789D01*
X123120814Y-50209390D01*
X123120827Y-50209397D01*
X123266498Y-50269735D01*
X123266503Y-50269737D01*
X123421153Y-50300499D01*
X123421156Y-50300500D01*
X123421158Y-50300500D01*
X123578844Y-50300500D01*
X123578845Y-50300499D01*
X123733497Y-50269737D01*
X123879179Y-50209394D01*
X124010289Y-50121789D01*
X124121789Y-50010289D01*
X124209394Y-49879179D01*
X124269737Y-49733497D01*
X124300500Y-49578842D01*
X124300500Y-49421158D01*
X124300500Y-49421155D01*
X124300499Y-49421153D01*
X127199500Y-49421153D01*
X127199500Y-49578846D01*
X127230261Y-49733489D01*
X127230264Y-49733501D01*
X127290602Y-49879172D01*
X127290609Y-49879185D01*
X127378210Y-50010288D01*
X127378213Y-50010292D01*
X127489707Y-50121786D01*
X127489711Y-50121789D01*
X127620814Y-50209390D01*
X127620827Y-50209397D01*
X127766498Y-50269735D01*
X127766503Y-50269737D01*
X127921153Y-50300499D01*
X127921156Y-50300500D01*
X127921158Y-50300500D01*
X128078844Y-50300500D01*
X128078845Y-50300499D01*
X128233497Y-50269737D01*
X128379179Y-50209394D01*
X128510289Y-50121789D01*
X128621789Y-50010289D01*
X128709394Y-49879179D01*
X128769737Y-49733497D01*
X128800500Y-49578842D01*
X128800500Y-49421158D01*
X128800500Y-49421155D01*
X128800499Y-49421153D01*
X128769738Y-49266510D01*
X128769737Y-49266503D01*
X128709794Y-49121786D01*
X128709397Y-49120827D01*
X128709390Y-49120814D01*
X128621789Y-48989711D01*
X128621786Y-48989707D01*
X128620885Y-48988806D01*
X128620563Y-48988217D01*
X128617924Y-48985001D01*
X128618533Y-48984500D01*
X128587400Y-48927483D01*
X128592384Y-48857791D01*
X128634256Y-48801858D01*
X128684372Y-48779508D01*
X128733497Y-48769737D01*
X128879179Y-48709394D01*
X129010289Y-48621789D01*
X129121789Y-48510289D01*
X129181348Y-48421153D01*
X172699500Y-48421153D01*
X172699500Y-48578846D01*
X172730261Y-48733489D01*
X172730264Y-48733501D01*
X172790602Y-48879172D01*
X172790609Y-48879185D01*
X172878210Y-49010288D01*
X172878213Y-49010292D01*
X172989707Y-49121786D01*
X172989711Y-49121789D01*
X173120814Y-49209390D01*
X173120827Y-49209397D01*
X173258683Y-49266498D01*
X173266503Y-49269737D01*
X173421153Y-49300499D01*
X173421156Y-49300500D01*
X173421158Y-49300500D01*
X173578844Y-49300500D01*
X173578845Y-49300499D01*
X173733497Y-49269737D01*
X173879179Y-49209394D01*
X174010289Y-49121789D01*
X174121789Y-49010289D01*
X174209394Y-48879179D01*
X174269737Y-48733497D01*
X174300500Y-48578842D01*
X174300500Y-48421158D01*
X174300500Y-48421155D01*
X174300499Y-48421153D01*
X185699500Y-48421153D01*
X185699500Y-48578846D01*
X185730261Y-48733489D01*
X185730264Y-48733501D01*
X185790602Y-48879172D01*
X185790609Y-48879185D01*
X185878210Y-49010288D01*
X185878213Y-49010292D01*
X185989707Y-49121786D01*
X185989711Y-49121789D01*
X186120814Y-49209390D01*
X186120827Y-49209397D01*
X186258683Y-49266498D01*
X186266503Y-49269737D01*
X186421153Y-49300499D01*
X186421156Y-49300500D01*
X186421158Y-49300500D01*
X186578844Y-49300500D01*
X186578845Y-49300499D01*
X186733497Y-49269737D01*
X186879179Y-49209394D01*
X187010289Y-49121789D01*
X187121789Y-49010289D01*
X187209394Y-48879179D01*
X187269737Y-48733497D01*
X187300500Y-48578842D01*
X187300500Y-48421158D01*
X187300500Y-48421155D01*
X187300499Y-48421153D01*
X187269738Y-48266510D01*
X187269737Y-48266503D01*
X187256062Y-48233489D01*
X187209397Y-48120827D01*
X187209390Y-48120814D01*
X187121789Y-47989711D01*
X187121786Y-47989707D01*
X187010292Y-47878213D01*
X187010288Y-47878210D01*
X186879185Y-47790609D01*
X186879172Y-47790602D01*
X186733501Y-47730264D01*
X186733489Y-47730261D01*
X186578845Y-47699500D01*
X186578842Y-47699500D01*
X186421158Y-47699500D01*
X186421155Y-47699500D01*
X186266510Y-47730261D01*
X186266498Y-47730264D01*
X186120827Y-47790602D01*
X186120814Y-47790609D01*
X185989711Y-47878210D01*
X185989707Y-47878213D01*
X185878213Y-47989707D01*
X185878210Y-47989711D01*
X185790609Y-48120814D01*
X185790602Y-48120827D01*
X185730264Y-48266498D01*
X185730261Y-48266510D01*
X185699500Y-48421153D01*
X174300499Y-48421153D01*
X174269738Y-48266510D01*
X174269737Y-48266503D01*
X174256062Y-48233489D01*
X174209397Y-48120827D01*
X174209390Y-48120814D01*
X174121789Y-47989711D01*
X174121786Y-47989707D01*
X174010292Y-47878213D01*
X174010288Y-47878210D01*
X173879185Y-47790609D01*
X173879172Y-47790602D01*
X173733501Y-47730264D01*
X173733489Y-47730261D01*
X173578845Y-47699500D01*
X173578842Y-47699500D01*
X173421158Y-47699500D01*
X173421155Y-47699500D01*
X173266510Y-47730261D01*
X173266498Y-47730264D01*
X173120827Y-47790602D01*
X173120814Y-47790609D01*
X172989711Y-47878210D01*
X172989707Y-47878213D01*
X172878213Y-47989707D01*
X172878210Y-47989711D01*
X172790609Y-48120814D01*
X172790602Y-48120827D01*
X172730264Y-48266498D01*
X172730261Y-48266510D01*
X172699500Y-48421153D01*
X129181348Y-48421153D01*
X129209394Y-48379179D01*
X129269737Y-48233497D01*
X129300500Y-48078842D01*
X129300500Y-47921158D01*
X129300500Y-47921155D01*
X129300499Y-47921153D01*
X129274531Y-47790606D01*
X129269737Y-47766503D01*
X129269735Y-47766498D01*
X129209397Y-47620827D01*
X129209390Y-47620814D01*
X129121789Y-47489711D01*
X129121786Y-47489707D01*
X129010292Y-47378213D01*
X129010288Y-47378210D01*
X128879185Y-47290609D01*
X128879172Y-47290602D01*
X128733501Y-47230264D01*
X128733489Y-47230261D01*
X128578845Y-47199500D01*
X128578842Y-47199500D01*
X128421158Y-47199500D01*
X128421155Y-47199500D01*
X128266510Y-47230261D01*
X128266498Y-47230264D01*
X128120827Y-47290602D01*
X128120814Y-47290609D01*
X127989711Y-47378210D01*
X127989707Y-47378213D01*
X127878213Y-47489707D01*
X127878210Y-47489711D01*
X127790609Y-47620814D01*
X127790602Y-47620827D01*
X127730264Y-47766498D01*
X127730261Y-47766510D01*
X127699500Y-47921153D01*
X127699500Y-48078846D01*
X127730261Y-48233489D01*
X127730264Y-48233501D01*
X127790602Y-48379172D01*
X127790609Y-48379185D01*
X127878210Y-48510288D01*
X127878213Y-48510292D01*
X127879114Y-48511193D01*
X127879435Y-48511780D01*
X127882076Y-48514999D01*
X127881465Y-48515499D01*
X127912599Y-48572516D01*
X127907615Y-48642208D01*
X127865743Y-48698141D01*
X127815626Y-48720491D01*
X127766507Y-48730261D01*
X127766498Y-48730264D01*
X127620827Y-48790602D01*
X127620814Y-48790609D01*
X127489711Y-48878210D01*
X127489707Y-48878213D01*
X127378213Y-48989707D01*
X127378210Y-48989711D01*
X127290609Y-49120814D01*
X127290602Y-49120827D01*
X127230264Y-49266498D01*
X127230261Y-49266510D01*
X127199500Y-49421153D01*
X124300499Y-49421153D01*
X124269738Y-49266510D01*
X124269737Y-49266503D01*
X124209794Y-49121786D01*
X124209397Y-49120827D01*
X124209390Y-49120814D01*
X124121789Y-48989711D01*
X124121786Y-48989707D01*
X124010292Y-48878213D01*
X124010288Y-48878210D01*
X123879185Y-48790609D01*
X123879172Y-48790602D01*
X123733501Y-48730264D01*
X123733489Y-48730261D01*
X123578845Y-48699500D01*
X123578842Y-48699500D01*
X123421158Y-48699500D01*
X123421155Y-48699500D01*
X123266510Y-48730261D01*
X123266498Y-48730264D01*
X123120827Y-48790602D01*
X123120814Y-48790609D01*
X122989711Y-48878210D01*
X122989707Y-48878213D01*
X122878213Y-48989707D01*
X122878210Y-48989711D01*
X122790609Y-49120814D01*
X122790602Y-49120827D01*
X122730264Y-49266498D01*
X122730261Y-49266510D01*
X122699500Y-49421153D01*
X116800499Y-49421153D01*
X116769738Y-49266510D01*
X116769737Y-49266503D01*
X116709794Y-49121786D01*
X116709397Y-49120827D01*
X116709390Y-49120814D01*
X116621789Y-48989711D01*
X116621786Y-48989707D01*
X116510292Y-48878213D01*
X116510288Y-48878210D01*
X116379185Y-48790609D01*
X116379172Y-48790602D01*
X116233501Y-48730264D01*
X116233489Y-48730261D01*
X116078845Y-48699500D01*
X116078842Y-48699500D01*
X115921158Y-48699500D01*
X115921155Y-48699500D01*
X115766510Y-48730261D01*
X115766498Y-48730264D01*
X115620827Y-48790602D01*
X115620814Y-48790609D01*
X115489711Y-48878210D01*
X115489707Y-48878213D01*
X115378213Y-48989707D01*
X115378210Y-48989711D01*
X115290609Y-49120814D01*
X115290602Y-49120827D01*
X115230264Y-49266498D01*
X115230261Y-49266510D01*
X115199500Y-49421153D01*
X100500500Y-49421153D01*
X100500500Y-46421153D01*
X106699500Y-46421153D01*
X106699500Y-46578846D01*
X106730261Y-46733489D01*
X106730264Y-46733501D01*
X106790602Y-46879172D01*
X106790609Y-46879185D01*
X106878210Y-47010288D01*
X106878213Y-47010292D01*
X106989707Y-47121786D01*
X106989711Y-47121789D01*
X107120814Y-47209390D01*
X107120827Y-47209397D01*
X107266498Y-47269735D01*
X107266503Y-47269737D01*
X107421153Y-47300499D01*
X107421156Y-47300500D01*
X107421158Y-47300500D01*
X107578844Y-47300500D01*
X107578845Y-47300499D01*
X107733497Y-47269737D01*
X107879179Y-47209394D01*
X108010289Y-47121789D01*
X108121789Y-47010289D01*
X108209394Y-46879179D01*
X108269737Y-46733497D01*
X108300500Y-46578842D01*
X108300500Y-46421158D01*
X108300500Y-46421155D01*
X108300499Y-46421153D01*
X108269738Y-46266510D01*
X108269737Y-46266503D01*
X108209794Y-46121786D01*
X108209397Y-46120827D01*
X108209390Y-46120814D01*
X108121789Y-45989711D01*
X108121786Y-45989707D01*
X108010292Y-45878213D01*
X108010288Y-45878210D01*
X107879185Y-45790609D01*
X107879172Y-45790602D01*
X107733501Y-45730264D01*
X107733489Y-45730261D01*
X107578845Y-45699500D01*
X107578842Y-45699500D01*
X107421158Y-45699500D01*
X107421155Y-45699500D01*
X107266510Y-45730261D01*
X107266498Y-45730264D01*
X107120827Y-45790602D01*
X107120814Y-45790609D01*
X106989711Y-45878210D01*
X106989707Y-45878213D01*
X106878213Y-45989707D01*
X106878210Y-45989711D01*
X106790609Y-46120814D01*
X106790602Y-46120827D01*
X106730264Y-46266498D01*
X106730261Y-46266510D01*
X106699500Y-46421153D01*
X100500500Y-46421153D01*
X100500500Y-45421153D01*
X127199500Y-45421153D01*
X127199500Y-45578846D01*
X127230261Y-45733489D01*
X127230264Y-45733501D01*
X127290602Y-45879172D01*
X127290609Y-45879185D01*
X127378210Y-46010288D01*
X127378213Y-46010292D01*
X127489707Y-46121786D01*
X127489711Y-46121789D01*
X127620814Y-46209390D01*
X127620827Y-46209397D01*
X127758683Y-46266498D01*
X127766503Y-46269737D01*
X127921153Y-46300499D01*
X127921156Y-46300500D01*
X127921158Y-46300500D01*
X128078844Y-46300500D01*
X128078845Y-46300499D01*
X128233497Y-46269737D01*
X128379179Y-46209394D01*
X128510289Y-46121789D01*
X128621789Y-46010289D01*
X128709394Y-45879179D01*
X128769737Y-45733497D01*
X128800500Y-45578842D01*
X128800500Y-45421158D01*
X128800500Y-45421155D01*
X128800499Y-45421153D01*
X128769738Y-45266510D01*
X128769737Y-45266503D01*
X128769735Y-45266498D01*
X128709397Y-45120827D01*
X128709390Y-45120814D01*
X128621789Y-44989711D01*
X128621786Y-44989707D01*
X128510292Y-44878213D01*
X128510288Y-44878210D01*
X128379185Y-44790609D01*
X128379172Y-44790602D01*
X128233501Y-44730264D01*
X128233489Y-44730261D01*
X128078845Y-44699500D01*
X128078842Y-44699500D01*
X127921158Y-44699500D01*
X127921155Y-44699500D01*
X127766510Y-44730261D01*
X127766498Y-44730264D01*
X127620827Y-44790602D01*
X127620814Y-44790609D01*
X127489711Y-44878210D01*
X127489707Y-44878213D01*
X127378213Y-44989707D01*
X127378210Y-44989711D01*
X127290609Y-45120814D01*
X127290602Y-45120827D01*
X127230264Y-45266498D01*
X127230261Y-45266510D01*
X127199500Y-45421153D01*
X100500500Y-45421153D01*
X100500500Y-41421153D01*
X114699500Y-41421153D01*
X114699500Y-41578846D01*
X114730261Y-41733489D01*
X114730264Y-41733501D01*
X114790602Y-41879172D01*
X114790609Y-41879185D01*
X114878210Y-42010288D01*
X114878213Y-42010292D01*
X114989707Y-42121786D01*
X114989711Y-42121789D01*
X115120814Y-42209390D01*
X115120827Y-42209397D01*
X115266498Y-42269735D01*
X115266503Y-42269737D01*
X115421153Y-42300499D01*
X115421156Y-42300500D01*
X115421158Y-42300500D01*
X115578844Y-42300500D01*
X115578845Y-42300499D01*
X115733497Y-42269737D01*
X115879179Y-42209394D01*
X116010289Y-42121789D01*
X116121789Y-42010289D01*
X116209394Y-41879179D01*
X116269737Y-41733497D01*
X116300500Y-41578842D01*
X116300500Y-41421158D01*
X116300500Y-41421155D01*
X116300499Y-41421153D01*
X121699500Y-41421153D01*
X121699500Y-41578846D01*
X121730261Y-41733489D01*
X121730264Y-41733501D01*
X121790602Y-41879172D01*
X121790609Y-41879185D01*
X121878210Y-42010288D01*
X121878213Y-42010292D01*
X121989707Y-42121786D01*
X121989711Y-42121789D01*
X122120814Y-42209390D01*
X122120827Y-42209397D01*
X122266498Y-42269735D01*
X122266503Y-42269737D01*
X122421153Y-42300499D01*
X122421156Y-42300500D01*
X122421158Y-42300500D01*
X122578844Y-42300500D01*
X122578845Y-42300499D01*
X122733497Y-42269737D01*
X122879179Y-42209394D01*
X123010289Y-42121789D01*
X123121789Y-42010289D01*
X123209394Y-41879179D01*
X123269737Y-41733497D01*
X123300500Y-41578842D01*
X123300500Y-41421158D01*
X123300500Y-41421155D01*
X123300499Y-41421153D01*
X123269738Y-41266510D01*
X123269737Y-41266503D01*
X123269735Y-41266498D01*
X123209397Y-41120827D01*
X123209390Y-41120814D01*
X123121789Y-40989711D01*
X123121786Y-40989707D01*
X123010292Y-40878213D01*
X123010288Y-40878210D01*
X122879185Y-40790609D01*
X122879172Y-40790602D01*
X122733501Y-40730264D01*
X122733489Y-40730261D01*
X122578845Y-40699500D01*
X122578842Y-40699500D01*
X122421158Y-40699500D01*
X122421155Y-40699500D01*
X122266510Y-40730261D01*
X122266498Y-40730264D01*
X122120827Y-40790602D01*
X122120814Y-40790609D01*
X121989711Y-40878210D01*
X121989707Y-40878213D01*
X121878213Y-40989707D01*
X121878210Y-40989711D01*
X121790609Y-41120814D01*
X121790602Y-41120827D01*
X121730264Y-41266498D01*
X121730261Y-41266510D01*
X121699500Y-41421153D01*
X116300499Y-41421153D01*
X116269738Y-41266510D01*
X116269737Y-41266503D01*
X116269735Y-41266498D01*
X116209397Y-41120827D01*
X116209390Y-41120814D01*
X116121789Y-40989711D01*
X116121786Y-40989707D01*
X116010292Y-40878213D01*
X116010288Y-40878210D01*
X115879185Y-40790609D01*
X115879172Y-40790602D01*
X115733501Y-40730264D01*
X115733489Y-40730261D01*
X115578845Y-40699500D01*
X115578842Y-40699500D01*
X115421158Y-40699500D01*
X115421155Y-40699500D01*
X115266510Y-40730261D01*
X115266498Y-40730264D01*
X115120827Y-40790602D01*
X115120814Y-40790609D01*
X114989711Y-40878210D01*
X114989707Y-40878213D01*
X114878213Y-40989707D01*
X114878210Y-40989711D01*
X114790609Y-41120814D01*
X114790602Y-41120827D01*
X114730264Y-41266498D01*
X114730261Y-41266510D01*
X114699500Y-41421153D01*
X100500500Y-41421153D01*
X100500500Y-39921153D01*
X125699500Y-39921153D01*
X125699500Y-40078846D01*
X125730261Y-40233489D01*
X125730264Y-40233501D01*
X125790602Y-40379172D01*
X125790609Y-40379185D01*
X125878210Y-40510288D01*
X125878213Y-40510292D01*
X125989707Y-40621786D01*
X125989711Y-40621789D01*
X126120814Y-40709390D01*
X126120827Y-40709397D01*
X126266498Y-40769735D01*
X126266503Y-40769737D01*
X126421153Y-40800499D01*
X126421156Y-40800500D01*
X126421158Y-40800500D01*
X126578844Y-40800500D01*
X126578845Y-40800499D01*
X126733497Y-40769737D01*
X126879179Y-40709394D01*
X127010289Y-40621789D01*
X127121789Y-40510289D01*
X127209394Y-40379179D01*
X127269737Y-40233497D01*
X127300500Y-40078842D01*
X127300500Y-39921158D01*
X127300500Y-39921155D01*
X127300499Y-39921153D01*
X127269738Y-39766510D01*
X127269737Y-39766503D01*
X127209794Y-39621786D01*
X127209397Y-39620827D01*
X127209390Y-39620814D01*
X127121789Y-39489711D01*
X127121786Y-39489707D01*
X127010292Y-39378213D01*
X127010288Y-39378210D01*
X126879185Y-39290609D01*
X126879172Y-39290602D01*
X126733501Y-39230264D01*
X126733489Y-39230261D01*
X126578845Y-39199500D01*
X126578842Y-39199500D01*
X126421158Y-39199500D01*
X126421155Y-39199500D01*
X126266510Y-39230261D01*
X126266498Y-39230264D01*
X126120827Y-39290602D01*
X126120814Y-39290609D01*
X125989711Y-39378210D01*
X125989707Y-39378213D01*
X125878213Y-39489707D01*
X125878210Y-39489711D01*
X125790609Y-39620814D01*
X125790602Y-39620827D01*
X125730264Y-39766498D01*
X125730261Y-39766510D01*
X125699500Y-39921153D01*
X100500500Y-39921153D01*
X100500500Y-38921153D01*
X106699500Y-38921153D01*
X106699500Y-39078846D01*
X106730261Y-39233489D01*
X106730264Y-39233501D01*
X106790602Y-39379172D01*
X106790609Y-39379185D01*
X106878210Y-39510288D01*
X106878213Y-39510292D01*
X106989707Y-39621786D01*
X106989711Y-39621789D01*
X107120814Y-39709390D01*
X107120827Y-39709397D01*
X107258683Y-39766498D01*
X107266503Y-39769737D01*
X107421153Y-39800499D01*
X107421156Y-39800500D01*
X107421158Y-39800500D01*
X107578844Y-39800500D01*
X107578845Y-39800499D01*
X107589179Y-39798443D01*
X107614287Y-39793450D01*
X107614292Y-39793449D01*
X107699800Y-39776439D01*
X107733497Y-39769737D01*
X107879179Y-39709394D01*
X108010289Y-39621789D01*
X108121789Y-39510289D01*
X108209394Y-39379179D01*
X108269737Y-39233497D01*
X108300500Y-39078842D01*
X108300500Y-38921158D01*
X108300500Y-38921155D01*
X108300499Y-38921153D01*
X108269738Y-38766510D01*
X108269737Y-38766503D01*
X108269735Y-38766498D01*
X108209397Y-38620827D01*
X108209390Y-38620814D01*
X108121789Y-38489711D01*
X108121786Y-38489707D01*
X108010292Y-38378213D01*
X108010288Y-38378210D01*
X107879185Y-38290609D01*
X107879172Y-38290602D01*
X107733501Y-38230264D01*
X107733489Y-38230261D01*
X107578845Y-38199500D01*
X107578842Y-38199500D01*
X107421158Y-38199500D01*
X107421155Y-38199500D01*
X107266510Y-38230261D01*
X107266498Y-38230264D01*
X107120827Y-38290602D01*
X107120814Y-38290609D01*
X106989711Y-38378210D01*
X106989707Y-38378213D01*
X106878213Y-38489707D01*
X106878210Y-38489711D01*
X106790609Y-38620814D01*
X106790602Y-38620827D01*
X106730264Y-38766498D01*
X106730261Y-38766510D01*
X106699500Y-38921153D01*
X100500500Y-38921153D01*
X100500500Y-33627135D01*
X157974500Y-33627135D01*
X157974500Y-35372870D01*
X157974501Y-35372876D01*
X157980908Y-35432483D01*
X158031202Y-35567328D01*
X158031206Y-35567335D01*
X158117452Y-35682544D01*
X158117455Y-35682547D01*
X158232664Y-35768793D01*
X158232671Y-35768797D01*
X158367517Y-35819091D01*
X158367516Y-35819091D01*
X158374444Y-35819835D01*
X158427127Y-35825500D01*
X160172872Y-35825499D01*
X160232483Y-35819091D01*
X160367331Y-35768796D01*
X160482546Y-35682546D01*
X160523357Y-35628029D01*
X160579288Y-35586159D01*
X160648980Y-35581175D01*
X160710303Y-35614659D01*
X160743788Y-35675982D01*
X160738804Y-35745674D01*
X160737185Y-35749788D01*
X160730265Y-35766495D01*
X160730261Y-35766510D01*
X160699500Y-35921153D01*
X160699500Y-36078846D01*
X160730261Y-36233489D01*
X160730264Y-36233501D01*
X160790602Y-36379172D01*
X160790609Y-36379185D01*
X160878210Y-36510288D01*
X160878213Y-36510292D01*
X160989707Y-36621786D01*
X160989711Y-36621789D01*
X161120814Y-36709390D01*
X161120827Y-36709397D01*
X161266498Y-36769735D01*
X161266503Y-36769737D01*
X161421153Y-36800499D01*
X161421156Y-36800500D01*
X161421158Y-36800500D01*
X161578844Y-36800500D01*
X161578845Y-36800499D01*
X161733497Y-36769737D01*
X161879179Y-36709394D01*
X162010289Y-36621789D01*
X162121789Y-36510289D01*
X162209394Y-36379179D01*
X162269737Y-36233497D01*
X162300500Y-36078842D01*
X162300500Y-35921158D01*
X162300500Y-35921155D01*
X162288443Y-35860543D01*
X162294670Y-35790951D01*
X162337533Y-35735774D01*
X162353757Y-35725871D01*
X162534714Y-35633670D01*
X162703505Y-35511035D01*
X162851035Y-35363505D01*
X162973670Y-35194714D01*
X162999515Y-35143990D01*
X163047489Y-35093194D01*
X163115310Y-35076398D01*
X163181445Y-35098935D01*
X163220485Y-35143990D01*
X163246328Y-35194712D01*
X163328086Y-35307241D01*
X163368965Y-35363505D01*
X163516495Y-35511035D01*
X163685286Y-35633670D01*
X163768329Y-35675982D01*
X163871179Y-35728387D01*
X163871181Y-35728387D01*
X163871184Y-35728389D01*
X163954795Y-35755556D01*
X164069610Y-35792862D01*
X164275676Y-35825500D01*
X164275681Y-35825500D01*
X164484324Y-35825500D01*
X164690389Y-35792862D01*
X164696270Y-35790951D01*
X164888816Y-35728389D01*
X165074714Y-35633670D01*
X165243505Y-35511035D01*
X165391035Y-35363505D01*
X165513670Y-35194714D01*
X165539515Y-35143990D01*
X165587489Y-35093194D01*
X165655310Y-35076398D01*
X165721445Y-35098935D01*
X165760485Y-35143990D01*
X165786328Y-35194712D01*
X165868086Y-35307241D01*
X165908965Y-35363505D01*
X166056495Y-35511035D01*
X166225286Y-35633670D01*
X166308329Y-35675982D01*
X166411179Y-35728387D01*
X166411181Y-35728387D01*
X166411184Y-35728389D01*
X166494795Y-35755556D01*
X166609610Y-35792862D01*
X166815676Y-35825500D01*
X166815681Y-35825500D01*
X167024324Y-35825500D01*
X167230389Y-35792862D01*
X167236270Y-35790951D01*
X167428816Y-35728389D01*
X167614714Y-35633670D01*
X167783505Y-35511035D01*
X167931035Y-35363505D01*
X168053670Y-35194714D01*
X168079515Y-35143990D01*
X168127489Y-35093194D01*
X168195310Y-35076398D01*
X168261445Y-35098935D01*
X168300485Y-35143990D01*
X168326328Y-35194712D01*
X168408086Y-35307241D01*
X168448965Y-35363505D01*
X168596495Y-35511035D01*
X168765286Y-35633670D01*
X168848329Y-35675982D01*
X168951179Y-35728387D01*
X168951181Y-35728387D01*
X168951184Y-35728389D01*
X169034795Y-35755556D01*
X169149610Y-35792862D01*
X169355676Y-35825500D01*
X169355681Y-35825500D01*
X169564324Y-35825500D01*
X169770389Y-35792862D01*
X169776270Y-35790951D01*
X169968816Y-35728389D01*
X170154714Y-35633670D01*
X170323505Y-35511035D01*
X170471035Y-35363505D01*
X170593670Y-35194714D01*
X170619515Y-35143990D01*
X170667489Y-35093194D01*
X170735310Y-35076398D01*
X170801445Y-35098935D01*
X170840485Y-35143990D01*
X170866328Y-35194712D01*
X170948086Y-35307241D01*
X170988965Y-35363505D01*
X171136495Y-35511035D01*
X171305286Y-35633670D01*
X171388329Y-35675982D01*
X171491179Y-35728387D01*
X171491181Y-35728387D01*
X171491184Y-35728389D01*
X171574795Y-35755556D01*
X171689610Y-35792862D01*
X171895676Y-35825500D01*
X171895681Y-35825500D01*
X172104324Y-35825500D01*
X172310389Y-35792862D01*
X172316270Y-35790951D01*
X172508816Y-35728389D01*
X172694714Y-35633670D01*
X172863505Y-35511035D01*
X173011035Y-35363505D01*
X173133670Y-35194714D01*
X173159515Y-35143990D01*
X173207489Y-35093194D01*
X173275310Y-35076398D01*
X173341445Y-35098935D01*
X173380485Y-35143990D01*
X173406328Y-35194712D01*
X173488086Y-35307241D01*
X173528965Y-35363505D01*
X173676495Y-35511035D01*
X173845286Y-35633670D01*
X173928329Y-35675982D01*
X174031179Y-35728387D01*
X174031181Y-35728387D01*
X174031184Y-35728389D01*
X174114795Y-35755556D01*
X174229610Y-35792862D01*
X174435676Y-35825500D01*
X174435681Y-35825500D01*
X174644324Y-35825500D01*
X174850389Y-35792862D01*
X174856270Y-35790951D01*
X175048816Y-35728389D01*
X175234714Y-35633670D01*
X175403505Y-35511035D01*
X175551035Y-35363505D01*
X175673670Y-35194714D01*
X175699515Y-35143990D01*
X175747489Y-35093194D01*
X175815310Y-35076398D01*
X175881445Y-35098935D01*
X175920485Y-35143990D01*
X175946328Y-35194712D01*
X176028086Y-35307241D01*
X176068965Y-35363505D01*
X176216495Y-35511035D01*
X176385286Y-35633670D01*
X176468329Y-35675982D01*
X176571179Y-35728387D01*
X176571181Y-35728387D01*
X176571184Y-35728389D01*
X176654795Y-35755556D01*
X176769610Y-35792862D01*
X176975676Y-35825500D01*
X176975681Y-35825500D01*
X177184324Y-35825500D01*
X177390389Y-35792862D01*
X177396270Y-35790951D01*
X177588816Y-35728389D01*
X177774714Y-35633670D01*
X177943505Y-35511035D01*
X178091035Y-35363505D01*
X178213670Y-35194714D01*
X178239515Y-35143990D01*
X178287489Y-35093194D01*
X178355310Y-35076398D01*
X178421445Y-35098935D01*
X178460485Y-35143990D01*
X178486328Y-35194712D01*
X178568086Y-35307241D01*
X178608965Y-35363505D01*
X178756495Y-35511035D01*
X178925286Y-35633670D01*
X179008329Y-35675982D01*
X179111179Y-35728387D01*
X179111181Y-35728387D01*
X179111184Y-35728389D01*
X179194795Y-35755556D01*
X179309610Y-35792862D01*
X179515676Y-35825500D01*
X179515681Y-35825500D01*
X179724324Y-35825500D01*
X179930389Y-35792862D01*
X179936270Y-35790951D01*
X180128816Y-35728389D01*
X180314714Y-35633670D01*
X180483505Y-35511035D01*
X180631035Y-35363505D01*
X180753670Y-35194714D01*
X180779515Y-35143990D01*
X180827489Y-35093194D01*
X180895310Y-35076398D01*
X180961445Y-35098935D01*
X181000485Y-35143990D01*
X181026328Y-35194712D01*
X181108086Y-35307241D01*
X181148965Y-35363505D01*
X181296495Y-35511035D01*
X181465286Y-35633670D01*
X181548329Y-35675982D01*
X181651179Y-35728387D01*
X181651181Y-35728387D01*
X181651184Y-35728389D01*
X181734795Y-35755556D01*
X181849610Y-35792862D01*
X182055676Y-35825500D01*
X182055681Y-35825500D01*
X182264324Y-35825500D01*
X182470389Y-35792862D01*
X182476270Y-35790951D01*
X182668816Y-35728389D01*
X182854714Y-35633670D01*
X183023505Y-35511035D01*
X183171035Y-35363505D01*
X183293670Y-35194714D01*
X183388389Y-35008816D01*
X183452862Y-34810389D01*
X183485500Y-34604324D01*
X183485500Y-34395675D01*
X183452862Y-34189610D01*
X183388387Y-33991179D01*
X183293669Y-33805285D01*
X183171035Y-33636495D01*
X183023505Y-33488965D01*
X182854714Y-33366330D01*
X182668820Y-33271612D01*
X182470389Y-33207137D01*
X182264324Y-33174500D01*
X182264319Y-33174500D01*
X182055681Y-33174500D01*
X182055676Y-33174500D01*
X181849610Y-33207137D01*
X181651179Y-33271612D01*
X181465285Y-33366330D01*
X181296493Y-33488966D01*
X181148966Y-33636493D01*
X181026330Y-33805285D01*
X181000485Y-33856010D01*
X180952510Y-33906806D01*
X180884690Y-33923601D01*
X180818555Y-33901064D01*
X180779515Y-33856010D01*
X180753669Y-33805285D01*
X180631035Y-33636495D01*
X180483505Y-33488965D01*
X180314714Y-33366330D01*
X180128820Y-33271612D01*
X179930389Y-33207137D01*
X179724324Y-33174500D01*
X179724319Y-33174500D01*
X179515681Y-33174500D01*
X179515676Y-33174500D01*
X179309610Y-33207137D01*
X179111179Y-33271612D01*
X178925285Y-33366330D01*
X178756493Y-33488966D01*
X178608966Y-33636493D01*
X178486330Y-33805285D01*
X178460485Y-33856010D01*
X178412510Y-33906806D01*
X178344690Y-33923601D01*
X178278555Y-33901064D01*
X178239515Y-33856010D01*
X178213669Y-33805285D01*
X178091035Y-33636495D01*
X177943505Y-33488965D01*
X177774714Y-33366330D01*
X177588820Y-33271612D01*
X177390389Y-33207137D01*
X177184324Y-33174500D01*
X177184319Y-33174500D01*
X176975681Y-33174500D01*
X176975676Y-33174500D01*
X176769610Y-33207137D01*
X176571179Y-33271612D01*
X176385285Y-33366330D01*
X176216493Y-33488966D01*
X176068966Y-33636493D01*
X175946330Y-33805285D01*
X175920485Y-33856010D01*
X175872510Y-33906806D01*
X175804690Y-33923601D01*
X175738555Y-33901064D01*
X175699515Y-33856010D01*
X175673669Y-33805285D01*
X175551035Y-33636495D01*
X175403505Y-33488965D01*
X175234714Y-33366330D01*
X175048820Y-33271612D01*
X174850389Y-33207137D01*
X174644324Y-33174500D01*
X174644319Y-33174500D01*
X174435681Y-33174500D01*
X174435676Y-33174500D01*
X174229610Y-33207137D01*
X174031179Y-33271612D01*
X173845285Y-33366330D01*
X173676493Y-33488966D01*
X173528966Y-33636493D01*
X173406330Y-33805285D01*
X173380485Y-33856010D01*
X173332510Y-33906806D01*
X173264690Y-33923601D01*
X173198555Y-33901064D01*
X173159515Y-33856010D01*
X173133669Y-33805285D01*
X173011035Y-33636495D01*
X172863505Y-33488965D01*
X172694714Y-33366330D01*
X172508820Y-33271612D01*
X172310389Y-33207137D01*
X172104324Y-33174500D01*
X172104319Y-33174500D01*
X171895681Y-33174500D01*
X171895676Y-33174500D01*
X171689610Y-33207137D01*
X171491179Y-33271612D01*
X171305285Y-33366330D01*
X171136493Y-33488966D01*
X170988966Y-33636493D01*
X170866330Y-33805285D01*
X170840485Y-33856010D01*
X170792510Y-33906806D01*
X170724690Y-33923601D01*
X170658555Y-33901064D01*
X170619515Y-33856010D01*
X170593669Y-33805285D01*
X170471035Y-33636495D01*
X170323505Y-33488965D01*
X170154714Y-33366330D01*
X169968820Y-33271612D01*
X169770389Y-33207137D01*
X169564324Y-33174500D01*
X169564319Y-33174500D01*
X169355681Y-33174500D01*
X169355676Y-33174500D01*
X169149610Y-33207137D01*
X168951179Y-33271612D01*
X168765285Y-33366330D01*
X168596493Y-33488966D01*
X168448966Y-33636493D01*
X168326330Y-33805285D01*
X168300485Y-33856010D01*
X168252510Y-33906806D01*
X168184690Y-33923601D01*
X168118555Y-33901064D01*
X168079515Y-33856010D01*
X168053669Y-33805285D01*
X167931035Y-33636495D01*
X167783505Y-33488965D01*
X167614714Y-33366330D01*
X167428820Y-33271612D01*
X167230389Y-33207137D01*
X167024324Y-33174500D01*
X167024319Y-33174500D01*
X166815681Y-33174500D01*
X166815676Y-33174500D01*
X166609610Y-33207137D01*
X166411179Y-33271612D01*
X166225285Y-33366330D01*
X166056493Y-33488966D01*
X165908966Y-33636493D01*
X165786330Y-33805285D01*
X165760485Y-33856010D01*
X165712510Y-33906806D01*
X165644690Y-33923601D01*
X165578555Y-33901064D01*
X165539515Y-33856010D01*
X165513669Y-33805285D01*
X165391035Y-33636495D01*
X165243505Y-33488965D01*
X165074714Y-33366330D01*
X164888820Y-33271612D01*
X164690389Y-33207137D01*
X164484324Y-33174500D01*
X164484319Y-33174500D01*
X164275681Y-33174500D01*
X164275676Y-33174500D01*
X164069610Y-33207137D01*
X163871179Y-33271612D01*
X163685285Y-33366330D01*
X163516493Y-33488966D01*
X163368966Y-33636493D01*
X163246330Y-33805285D01*
X163220485Y-33856010D01*
X163172510Y-33906806D01*
X163104690Y-33923601D01*
X163038555Y-33901064D01*
X162999515Y-33856010D01*
X162973669Y-33805285D01*
X162851035Y-33636495D01*
X162703505Y-33488965D01*
X162534714Y-33366330D01*
X162348820Y-33271612D01*
X162150389Y-33207137D01*
X161944324Y-33174500D01*
X161944319Y-33174500D01*
X161735681Y-33174500D01*
X161735676Y-33174500D01*
X161529610Y-33207137D01*
X161331179Y-33271612D01*
X161145285Y-33366330D01*
X160976496Y-33488964D01*
X160829426Y-33636034D01*
X160768103Y-33669518D01*
X160698411Y-33664534D01*
X160642478Y-33622662D01*
X160623515Y-33574444D01*
X160620876Y-33575068D01*
X160619092Y-33567520D01*
X160568797Y-33432671D01*
X160568793Y-33432664D01*
X160482547Y-33317455D01*
X160482544Y-33317452D01*
X160367335Y-33231206D01*
X160367328Y-33231202D01*
X160232482Y-33180908D01*
X160232483Y-33180908D01*
X160172883Y-33174501D01*
X160172881Y-33174500D01*
X160172873Y-33174500D01*
X160172864Y-33174500D01*
X158427129Y-33174500D01*
X158427123Y-33174501D01*
X158367516Y-33180908D01*
X158232671Y-33231202D01*
X158232664Y-33231206D01*
X158117455Y-33317452D01*
X158117452Y-33317455D01*
X158031206Y-33432664D01*
X158031202Y-33432671D01*
X157980908Y-33567517D01*
X157974501Y-33627116D01*
X157974500Y-33627135D01*
X100500500Y-33627135D01*
X100500500Y-31921153D01*
X126699500Y-31921153D01*
X126699500Y-32078846D01*
X126730261Y-32233489D01*
X126730264Y-32233501D01*
X126790602Y-32379172D01*
X126790609Y-32379185D01*
X126878210Y-32510288D01*
X126878213Y-32510292D01*
X126989707Y-32621786D01*
X126989711Y-32621789D01*
X127120814Y-32709390D01*
X127120827Y-32709397D01*
X127266498Y-32769735D01*
X127266503Y-32769737D01*
X127421153Y-32800499D01*
X127421156Y-32800500D01*
X127421158Y-32800500D01*
X127578844Y-32800500D01*
X127578845Y-32800499D01*
X127733497Y-32769737D01*
X127879179Y-32709394D01*
X128010289Y-32621789D01*
X128121789Y-32510289D01*
X128209394Y-32379179D01*
X128269737Y-32233497D01*
X128300500Y-32078842D01*
X128300500Y-31921158D01*
X128300500Y-31921155D01*
X128300499Y-31921153D01*
X151699500Y-31921153D01*
X151699500Y-32078846D01*
X151730261Y-32233489D01*
X151730264Y-32233501D01*
X151790602Y-32379172D01*
X151790609Y-32379185D01*
X151878210Y-32510288D01*
X151878213Y-32510292D01*
X151989707Y-32621786D01*
X151989711Y-32621789D01*
X152120814Y-32709390D01*
X152120827Y-32709397D01*
X152266498Y-32769735D01*
X152266503Y-32769737D01*
X152421153Y-32800499D01*
X152421156Y-32800500D01*
X152421158Y-32800500D01*
X152578844Y-32800500D01*
X152578845Y-32800499D01*
X152733497Y-32769737D01*
X152879179Y-32709394D01*
X153010289Y-32621789D01*
X153121789Y-32510289D01*
X153209394Y-32379179D01*
X153269737Y-32233497D01*
X153300500Y-32078842D01*
X153300500Y-31921158D01*
X153300500Y-31921155D01*
X153300499Y-31921153D01*
X153269738Y-31766510D01*
X153269737Y-31766503D01*
X153269735Y-31766498D01*
X153209397Y-31620827D01*
X153209390Y-31620814D01*
X153121789Y-31489711D01*
X153121786Y-31489707D01*
X153010292Y-31378213D01*
X153010288Y-31378210D01*
X152879185Y-31290609D01*
X152879172Y-31290602D01*
X152733501Y-31230264D01*
X152733489Y-31230261D01*
X152578845Y-31199500D01*
X152578842Y-31199500D01*
X152421158Y-31199500D01*
X152421155Y-31199500D01*
X152266510Y-31230261D01*
X152266498Y-31230264D01*
X152120827Y-31290602D01*
X152120814Y-31290609D01*
X151989711Y-31378210D01*
X151989707Y-31378213D01*
X151878213Y-31489707D01*
X151878210Y-31489711D01*
X151790609Y-31620814D01*
X151790602Y-31620827D01*
X151730264Y-31766498D01*
X151730261Y-31766510D01*
X151699500Y-31921153D01*
X128300499Y-31921153D01*
X128269738Y-31766510D01*
X128269737Y-31766503D01*
X128269735Y-31766498D01*
X128209397Y-31620827D01*
X128209390Y-31620814D01*
X128121789Y-31489711D01*
X128121786Y-31489707D01*
X128010292Y-31378213D01*
X128010288Y-31378210D01*
X127879185Y-31290609D01*
X127879172Y-31290602D01*
X127733501Y-31230264D01*
X127733489Y-31230261D01*
X127578845Y-31199500D01*
X127578842Y-31199500D01*
X127421158Y-31199500D01*
X127421155Y-31199500D01*
X127266510Y-31230261D01*
X127266498Y-31230264D01*
X127120827Y-31290602D01*
X127120814Y-31290609D01*
X126989711Y-31378210D01*
X126989707Y-31378213D01*
X126878213Y-31489707D01*
X126878210Y-31489711D01*
X126790609Y-31620814D01*
X126790602Y-31620827D01*
X126730264Y-31766498D01*
X126730261Y-31766510D01*
X126699500Y-31921153D01*
X100500500Y-31921153D01*
X100500500Y-30624500D01*
X100520185Y-30557461D01*
X100572989Y-30511706D01*
X100624500Y-30500500D01*
X199375500Y-30500500D01*
X199442539Y-30520185D01*
G37*
%TD.AperFunction*%
%TD*%
M02*
