%TF.GenerationSoftware,KiCad,Pcbnew,9.0.7*%
%TF.CreationDate,2026-06-10T23:03:17-03:00*%
%TF.ProjectId,Estacion_Nivel,45737461-6369-46f6-9e5f-4e6976656c2e,rev?*%
%TF.SameCoordinates,Original*%
%TF.FileFunction,Copper,L2,Inr*%
%TF.FilePolarity,Positive*%
%FSLAX46Y46*%
G04 Gerber Fmt 4.6, Leading zero omitted, Abs format (unit mm)*
G04 Created by KiCad (PCBNEW 9.0.7) date 2026-06-10 23:03:17*
%MOMM*%
%LPD*%
G01*
G04 APERTURE LIST*
%TA.AperFunction,ComponentPad*%
%ADD10R,1.650000X1.650000*%
%TD*%
%TA.AperFunction,ComponentPad*%
%ADD11C,1.650000*%
%TD*%
%TA.AperFunction,ComponentPad*%
%ADD12C,0.650000*%
%TD*%
%TA.AperFunction,ComponentPad*%
%ADD13O,0.900000X1.700000*%
%TD*%
%TA.AperFunction,ComponentPad*%
%ADD14O,0.900000X2.400000*%
%TD*%
%TA.AperFunction,ComponentPad*%
%ADD15C,2.680000*%
%TD*%
%TA.AperFunction,ViaPad*%
%ADD16C,0.600000*%
%TD*%
%TA.AperFunction,Conductor*%
%ADD17C,0.500000*%
%TD*%
G04 APERTURE END LIST*
D10*
%TO.N,GND*%
%TO.C,J10*%
X159300000Y-34500000D03*
D11*
%TO.N,DI1*%
X161840000Y-34500000D03*
%TO.N,RO1*%
X164380000Y-34500000D03*
%TO.N,U0TX*%
X166920000Y-34500000D03*
%TO.N,U0RX*%
X169460000Y-34500000D03*
%TO.N,GPIO42*%
X172000000Y-34500000D03*
%TO.N,GPIO41*%
X174540000Y-34500000D03*
%TO.N,GPIO40*%
X177080000Y-34500000D03*
%TO.N,GPIO39*%
X179620000Y-34500000D03*
%TO.N,GPIO38*%
X182160000Y-34500000D03*
%TD*%
D12*
%TO.N,GND*%
%TO.C,J9*%
X111200000Y-69140000D03*
%TO.N,VBUS*%
X112050000Y-69140000D03*
%TO.N,Net-(J9-CC1)*%
X112900000Y-69140000D03*
%TO.N,D+*%
X113750000Y-69140000D03*
%TO.N,D-*%
X114600000Y-69140000D03*
%TO.N,unconnected-(J9-SBU1-PadA8)*%
X115450000Y-69140000D03*
%TO.N,VBUS*%
X116300000Y-69140000D03*
%TO.N,GND*%
X117150000Y-69140000D03*
X117150000Y-70490000D03*
%TO.N,VBUS*%
X116300000Y-70490000D03*
%TO.N,Net-(J9-CC2)*%
X115450000Y-70490000D03*
%TO.N,unconnected-(J9-DP2-PadB6)*%
X114600000Y-70490000D03*
%TO.N,unconnected-(J9-DN2-PadB7)*%
X113750000Y-70490000D03*
%TO.N,unconnected-(J9-SBU2-PadB8)*%
X112900000Y-70490000D03*
%TO.N,VBUS*%
X112050000Y-70490000D03*
%TO.N,GND*%
X111200000Y-70490000D03*
D13*
X109850000Y-73500000D03*
X118500000Y-73500000D03*
D14*
X109850000Y-70120000D03*
X118500000Y-70120000D03*
%TD*%
D10*
%TO.N,VCC*%
%TO.C,J2*%
X105000000Y-96000000D03*
D11*
%TO.N,GND*%
X105000000Y-99500000D03*
%TD*%
D10*
%TO.N,GPIO21*%
%TO.C,J7*%
X130000000Y-59000000D03*
D11*
%TO.N,ESP_IO*%
X127460000Y-59000000D03*
%TD*%
D10*
%TO.N,VCC*%
%TO.C,J3*%
X105000000Y-85750000D03*
D11*
%TO.N,GND*%
X105000000Y-89250000D03*
%TD*%
D15*
%TO.N,N/C*%
%TO.C,J8*%
X102790000Y-111785000D03*
%TD*%
D10*
%TO.N,A1*%
%TO.C,J4*%
X161000000Y-53645000D03*
D11*
%TO.N,B1*%
X164500000Y-53645000D03*
%TD*%
D10*
%TO.N,A2*%
%TO.C,J5*%
X161000000Y-64045000D03*
D11*
%TO.N,B2*%
X164500000Y-64045000D03*
%TD*%
D16*
%TO.N,GND*%
X136000000Y-35000000D03*
X120500000Y-123500000D03*
X123500000Y-127500000D03*
X149000000Y-110500000D03*
X141500000Y-108000000D03*
X110500000Y-100500000D03*
X154000000Y-86000000D03*
X151000000Y-106000000D03*
X181000000Y-91500000D03*
X182000000Y-70500000D03*
X181000000Y-79000000D03*
X114500000Y-100000000D03*
X178525000Y-104475000D03*
X111500000Y-105000000D03*
X174500000Y-84500000D03*
X124000000Y-83500000D03*
X116000000Y-49500000D03*
X177145000Y-56145000D03*
X105000000Y-57000000D03*
X107500000Y-39000000D03*
X111000000Y-89000000D03*
X107500000Y-46500000D03*
X125000000Y-113000000D03*
X192000000Y-117000000D03*
X196500000Y-111000000D03*
X123500000Y-49500000D03*
X174500000Y-116000000D03*
X193000000Y-63500000D03*
X178500000Y-101000000D03*
X176000000Y-65000000D03*
X127500000Y-32000000D03*
X107000000Y-51000000D03*
X168500000Y-91500000D03*
X130500000Y-111500000D03*
X176000000Y-79000000D03*
X177000000Y-84500000D03*
X194000000Y-98500000D03*
X152500000Y-32000000D03*
X115000000Y-95500000D03*
X118000000Y-87500000D03*
X105500000Y-60500000D03*
X107500000Y-122500000D03*
X173500000Y-71000000D03*
X193500000Y-56000000D03*
X183000000Y-116500000D03*
X125000000Y-73000000D03*
%TO.N,3V3*%
X128500000Y-34000000D03*
X184500000Y-74000000D03*
X180960000Y-120540000D03*
X174500000Y-104500000D03*
X122500000Y-37000000D03*
X120000000Y-88500000D03*
X135500000Y-124500000D03*
X193500000Y-42000000D03*
X125500000Y-116500000D03*
X124000000Y-85000000D03*
X192500000Y-52500000D03*
X119000000Y-82500000D03*
X139500000Y-54000000D03*
X174500000Y-69500000D03*
X158000000Y-110500000D03*
X126000000Y-87000000D03*
X174500000Y-74500000D03*
X110500000Y-50000000D03*
X181000000Y-69500000D03*
X171000000Y-109500000D03*
X164000000Y-109500000D03*
X192000000Y-60000000D03*
X111000000Y-59000000D03*
X169500000Y-114500000D03*
X173500000Y-120500000D03*
X117000000Y-54500000D03*
X136000000Y-76000000D03*
X168000000Y-109500000D03*
X137000000Y-119000000D03*
X178500000Y-105500000D03*
X178500000Y-107000000D03*
X178500000Y-85500000D03*
%TO.N,DI1*%
X161500000Y-36000000D03*
X173500000Y-48500000D03*
%TO.N,DE{slash}RE 2*%
X189500000Y-65500000D03*
X131000000Y-40500000D03*
%TO.N,SDA*%
X131000000Y-47000000D03*
X125000000Y-83000000D03*
X131000000Y-47000000D03*
X126000000Y-77000000D03*
%TO.N,SCL*%
X130000000Y-80500000D03*
X135500000Y-50500000D03*
X122500000Y-91000000D03*
%TO.N,RO2*%
X131000000Y-39000000D03*
X187000000Y-60000000D03*
%TO.N,Net-(D7-A)*%
X123000000Y-105500000D03*
X131000000Y-106500000D03*
%TO.N,ESP_IO*%
X115500000Y-41500000D03*
X128000000Y-49500000D03*
X122500000Y-41500000D03*
X126500000Y-40000000D03*
X148000000Y-53000000D03*
X128000000Y-45500000D03*
%TO.N,VCC*%
X128500000Y-121500000D03*
%TO.N,B1*%
X174000000Y-51000000D03*
X186500000Y-48500000D03*
%TO.N,A1*%
X168000000Y-57500000D03*
X194500000Y-53500000D03*
X171500000Y-57500000D03*
X176000000Y-52500000D03*
%TO.N,D-*%
X128500000Y-48000000D03*
X114674265Y-67674265D03*
%TO.N,SD MISO*%
X140500000Y-50500000D03*
X181500000Y-103500000D03*
%TO.N,B2*%
X172000000Y-60000000D03*
X194500000Y-62500000D03*
X164500000Y-62945000D03*
X192500000Y-61000000D03*
%TO.N,SD MOSI*%
X177500000Y-104500000D03*
X178212925Y-107775000D03*
X176500000Y-124000000D03*
X138000000Y-54500000D03*
%TO.N,A2*%
X177000000Y-61000000D03*
X177000000Y-61000000D03*
X168000000Y-67000000D03*
%TO.N,SD CS*%
X136500000Y-54500000D03*
X171000000Y-104000000D03*
%TO.N,DE{slash}RE 1*%
X182500000Y-56000000D03*
X181500000Y-59500000D03*
X131075000Y-36550000D03*
%TO.N,SD DET*%
X178000000Y-93000000D03*
X131000000Y-41500000D03*
%TO.N,SQW*%
X191500000Y-38000000D03*
X131000000Y-43000000D03*
X133500000Y-75730000D03*
X126500000Y-70000000D03*
%TO.N,DI2*%
X183530331Y-63530331D03*
X131000000Y-38000000D03*
%TD*%
D17*
%TO.N,GND*%
X107500000Y-65440000D02*
X111200000Y-69140000D01*
%TD*%
%TA.AperFunction,Conductor*%
%TO.N,GND*%
G36*
X199442539Y-30520185D02*
G01*
X199488294Y-30572989D01*
X199499500Y-30624500D01*
X199499500Y-129375500D01*
X199479815Y-129442539D01*
X199427011Y-129488294D01*
X199375500Y-129499500D01*
X100624500Y-129499500D01*
X100557461Y-129479815D01*
X100511706Y-129427011D01*
X100500500Y-129375500D01*
X100500500Y-124421153D01*
X134699500Y-124421153D01*
X134699500Y-124578846D01*
X134730261Y-124733489D01*
X134730264Y-124733501D01*
X134790602Y-124879172D01*
X134790609Y-124879185D01*
X134878210Y-125010288D01*
X134878213Y-125010292D01*
X134989707Y-125121786D01*
X134989711Y-125121789D01*
X135120814Y-125209390D01*
X135120827Y-125209397D01*
X135266498Y-125269735D01*
X135266503Y-125269737D01*
X135421153Y-125300499D01*
X135421156Y-125300500D01*
X135421158Y-125300500D01*
X135578844Y-125300500D01*
X135578845Y-125300499D01*
X135733497Y-125269737D01*
X135879179Y-125209394D01*
X136010289Y-125121789D01*
X136121789Y-125010289D01*
X136209394Y-124879179D01*
X136269737Y-124733497D01*
X136300500Y-124578842D01*
X136300500Y-124421158D01*
X136300500Y-124421155D01*
X136300499Y-124421153D01*
X136269738Y-124266510D01*
X136269737Y-124266503D01*
X136256062Y-124233489D01*
X136209397Y-124120827D01*
X136209390Y-124120814D01*
X136121790Y-123989712D01*
X136121784Y-123989705D01*
X136053232Y-123921153D01*
X175699500Y-123921153D01*
X175699500Y-124078846D01*
X175730261Y-124233489D01*
X175730264Y-124233501D01*
X175790602Y-124379172D01*
X175790609Y-124379185D01*
X175878210Y-124510288D01*
X175878213Y-124510292D01*
X175989707Y-124621786D01*
X175989711Y-124621789D01*
X176120814Y-124709390D01*
X176120827Y-124709397D01*
X176266498Y-124769735D01*
X176266503Y-124769737D01*
X176421153Y-124800499D01*
X176421156Y-124800500D01*
X176421158Y-124800500D01*
X176578844Y-124800500D01*
X176578845Y-124800499D01*
X176733497Y-124769737D01*
X176879179Y-124709394D01*
X177010289Y-124621789D01*
X177121789Y-124510289D01*
X177209394Y-124379179D01*
X177269737Y-124233497D01*
X177300500Y-124078842D01*
X177300500Y-123921158D01*
X177300500Y-123921155D01*
X177300499Y-123921153D01*
X177274531Y-123790606D01*
X177269737Y-123766503D01*
X177269735Y-123766498D01*
X177209397Y-123620827D01*
X177209390Y-123620814D01*
X177121789Y-123489711D01*
X177121786Y-123489707D01*
X177010292Y-123378213D01*
X177010288Y-123378210D01*
X176879185Y-123290609D01*
X176879172Y-123290602D01*
X176733501Y-123230264D01*
X176733489Y-123230261D01*
X176578845Y-123199500D01*
X176578842Y-123199500D01*
X176421158Y-123199500D01*
X176421155Y-123199500D01*
X176266510Y-123230261D01*
X176266498Y-123230264D01*
X176120827Y-123290602D01*
X176120814Y-123290609D01*
X175989711Y-123378210D01*
X175989707Y-123378213D01*
X175878213Y-123489707D01*
X175878210Y-123489711D01*
X175790609Y-123620814D01*
X175790602Y-123620827D01*
X175730264Y-123766498D01*
X175730261Y-123766510D01*
X175699500Y-123921153D01*
X136053232Y-123921153D01*
X136010292Y-123878213D01*
X136010288Y-123878210D01*
X135879185Y-123790609D01*
X135879172Y-123790602D01*
X135733501Y-123730264D01*
X135733489Y-123730261D01*
X135578845Y-123699500D01*
X135578842Y-123699500D01*
X135421158Y-123699500D01*
X135421155Y-123699500D01*
X135266510Y-123730261D01*
X135266498Y-123730264D01*
X135120827Y-123790602D01*
X135120814Y-123790609D01*
X134989711Y-123878210D01*
X134989707Y-123878213D01*
X134878213Y-123989707D01*
X134878210Y-123989711D01*
X134790609Y-124120814D01*
X134790602Y-124120827D01*
X134730264Y-124266498D01*
X134730261Y-124266510D01*
X134699500Y-124421153D01*
X100500500Y-124421153D01*
X100500500Y-121421153D01*
X127699500Y-121421153D01*
X127699500Y-121578846D01*
X127730261Y-121733489D01*
X127730264Y-121733501D01*
X127790602Y-121879172D01*
X127790609Y-121879185D01*
X127878210Y-122010288D01*
X127878213Y-122010292D01*
X127989707Y-122121786D01*
X127989711Y-122121789D01*
X128120814Y-122209390D01*
X128120827Y-122209397D01*
X128266498Y-122269735D01*
X128266503Y-122269737D01*
X128421153Y-122300499D01*
X128421156Y-122300500D01*
X128421158Y-122300500D01*
X128578844Y-122300500D01*
X128578845Y-122300499D01*
X128733497Y-122269737D01*
X128879179Y-122209394D01*
X129010289Y-122121789D01*
X129121789Y-122010289D01*
X129209394Y-121879179D01*
X129269737Y-121733497D01*
X129300500Y-121578842D01*
X129300500Y-121421158D01*
X129300500Y-121421155D01*
X129300499Y-121421153D01*
X129269738Y-121266510D01*
X129269737Y-121266503D01*
X129246080Y-121209390D01*
X129209397Y-121120827D01*
X129209390Y-121120814D01*
X129121789Y-120989711D01*
X129121786Y-120989707D01*
X129010292Y-120878213D01*
X129010288Y-120878210D01*
X128879185Y-120790609D01*
X128879172Y-120790602D01*
X128733501Y-120730264D01*
X128733489Y-120730261D01*
X128578845Y-120699500D01*
X128578842Y-120699500D01*
X128421158Y-120699500D01*
X128421155Y-120699500D01*
X128266510Y-120730261D01*
X128266498Y-120730264D01*
X128120827Y-120790602D01*
X128120814Y-120790609D01*
X127989711Y-120878210D01*
X127989707Y-120878213D01*
X127878213Y-120989707D01*
X127878210Y-120989711D01*
X127790609Y-121120814D01*
X127790602Y-121120827D01*
X127730264Y-121266498D01*
X127730261Y-121266510D01*
X127699500Y-121421153D01*
X100500500Y-121421153D01*
X100500500Y-120421153D01*
X172699500Y-120421153D01*
X172699500Y-120578846D01*
X172730261Y-120733489D01*
X172730264Y-120733501D01*
X172790602Y-120879172D01*
X172790609Y-120879185D01*
X172878210Y-121010288D01*
X172878213Y-121010292D01*
X172989707Y-121121786D01*
X172989711Y-121121789D01*
X173120814Y-121209390D01*
X173120827Y-121209397D01*
X173258683Y-121266498D01*
X173266503Y-121269737D01*
X173421153Y-121300499D01*
X173421156Y-121300500D01*
X173421158Y-121300500D01*
X173578844Y-121300500D01*
X173578845Y-121300499D01*
X173733497Y-121269737D01*
X173879179Y-121209394D01*
X174010289Y-121121789D01*
X174121789Y-121010289D01*
X174209394Y-120879179D01*
X174269737Y-120733497D01*
X174300500Y-120578842D01*
X174300500Y-120461153D01*
X180159500Y-120461153D01*
X180159500Y-120618846D01*
X180190261Y-120773489D01*
X180190264Y-120773501D01*
X180250602Y-120919172D01*
X180250609Y-120919185D01*
X180338210Y-121050288D01*
X180338213Y-121050292D01*
X180449707Y-121161786D01*
X180449711Y-121161789D01*
X180580814Y-121249390D01*
X180580827Y-121249397D01*
X180726498Y-121309735D01*
X180726503Y-121309737D01*
X180881153Y-121340499D01*
X180881156Y-121340500D01*
X180881158Y-121340500D01*
X181038844Y-121340500D01*
X181038845Y-121340499D01*
X181193497Y-121309737D01*
X181339179Y-121249394D01*
X181470289Y-121161789D01*
X181581789Y-121050289D01*
X181669394Y-120919179D01*
X181729737Y-120773497D01*
X181760500Y-120618842D01*
X181760500Y-120461158D01*
X181760500Y-120461155D01*
X181760499Y-120461153D01*
X181729738Y-120306510D01*
X181729737Y-120306503D01*
X181729735Y-120306498D01*
X181669397Y-120160827D01*
X181669390Y-120160814D01*
X181581789Y-120029711D01*
X181581786Y-120029707D01*
X181470292Y-119918213D01*
X181470288Y-119918210D01*
X181339185Y-119830609D01*
X181339172Y-119830602D01*
X181193501Y-119770264D01*
X181193489Y-119770261D01*
X181038845Y-119739500D01*
X181038842Y-119739500D01*
X180881158Y-119739500D01*
X180881155Y-119739500D01*
X180726510Y-119770261D01*
X180726498Y-119770264D01*
X180580827Y-119830602D01*
X180580814Y-119830609D01*
X180449711Y-119918210D01*
X180449707Y-119918213D01*
X180338213Y-120029707D01*
X180338210Y-120029711D01*
X180250609Y-120160814D01*
X180250602Y-120160827D01*
X180190264Y-120306498D01*
X180190261Y-120306510D01*
X180159500Y-120461153D01*
X174300500Y-120461153D01*
X174300500Y-120421158D01*
X174300500Y-120421155D01*
X174300499Y-120421153D01*
X174277695Y-120306510D01*
X174269737Y-120266503D01*
X174225965Y-120160827D01*
X174209397Y-120120827D01*
X174209390Y-120120814D01*
X174121789Y-119989711D01*
X174121786Y-119989707D01*
X174010292Y-119878213D01*
X174010288Y-119878210D01*
X173879185Y-119790609D01*
X173879172Y-119790602D01*
X173733501Y-119730264D01*
X173733489Y-119730261D01*
X173578845Y-119699500D01*
X173578842Y-119699500D01*
X173421158Y-119699500D01*
X173421155Y-119699500D01*
X173266510Y-119730261D01*
X173266498Y-119730264D01*
X173120827Y-119790602D01*
X173120814Y-119790609D01*
X172989711Y-119878210D01*
X172989707Y-119878213D01*
X172878213Y-119989707D01*
X172878210Y-119989711D01*
X172790609Y-120120814D01*
X172790602Y-120120827D01*
X172730264Y-120266498D01*
X172730261Y-120266510D01*
X172699500Y-120421153D01*
X100500500Y-120421153D01*
X100500500Y-118921153D01*
X136199500Y-118921153D01*
X136199500Y-119078846D01*
X136230261Y-119233489D01*
X136230264Y-119233501D01*
X136290602Y-119379172D01*
X136290609Y-119379185D01*
X136378210Y-119510288D01*
X136378213Y-119510292D01*
X136489707Y-119621786D01*
X136489711Y-119621789D01*
X136620814Y-119709390D01*
X136620827Y-119709397D01*
X136766498Y-119769735D01*
X136766503Y-119769737D01*
X136921153Y-119800499D01*
X136921156Y-119800500D01*
X136921158Y-119800500D01*
X137078844Y-119800500D01*
X137078845Y-119800499D01*
X137233497Y-119769737D01*
X137379179Y-119709394D01*
X137510289Y-119621789D01*
X137621789Y-119510289D01*
X137709394Y-119379179D01*
X137769737Y-119233497D01*
X137800500Y-119078842D01*
X137800500Y-118921158D01*
X137800500Y-118921155D01*
X137800499Y-118921153D01*
X137769738Y-118766510D01*
X137769737Y-118766503D01*
X137769735Y-118766498D01*
X137709397Y-118620827D01*
X137709390Y-118620814D01*
X137621789Y-118489711D01*
X137621786Y-118489707D01*
X137510292Y-118378213D01*
X137510288Y-118378210D01*
X137379185Y-118290609D01*
X137379172Y-118290602D01*
X137233501Y-118230264D01*
X137233489Y-118230261D01*
X137078845Y-118199500D01*
X137078842Y-118199500D01*
X136921158Y-118199500D01*
X136921155Y-118199500D01*
X136766510Y-118230261D01*
X136766498Y-118230264D01*
X136620827Y-118290602D01*
X136620814Y-118290609D01*
X136489711Y-118378210D01*
X136489707Y-118378213D01*
X136378213Y-118489707D01*
X136378210Y-118489711D01*
X136290609Y-118620814D01*
X136290602Y-118620827D01*
X136230264Y-118766498D01*
X136230261Y-118766510D01*
X136199500Y-118921153D01*
X100500500Y-118921153D01*
X100500500Y-116421153D01*
X124699500Y-116421153D01*
X124699500Y-116578846D01*
X124730261Y-116733489D01*
X124730264Y-116733501D01*
X124790602Y-116879172D01*
X124790609Y-116879185D01*
X124878210Y-117010288D01*
X124878213Y-117010292D01*
X124989707Y-117121786D01*
X124989711Y-117121789D01*
X125120814Y-117209390D01*
X125120827Y-117209397D01*
X125266498Y-117269735D01*
X125266503Y-117269737D01*
X125421153Y-117300499D01*
X125421156Y-117300500D01*
X125421158Y-117300500D01*
X125578844Y-117300500D01*
X125578845Y-117300499D01*
X125733497Y-117269737D01*
X125879179Y-117209394D01*
X126010289Y-117121789D01*
X126121789Y-117010289D01*
X126209394Y-116879179D01*
X126269737Y-116733497D01*
X126300500Y-116578842D01*
X126300500Y-116421158D01*
X126300500Y-116421155D01*
X126300499Y-116421153D01*
X126269738Y-116266510D01*
X126269737Y-116266503D01*
X126269735Y-116266498D01*
X126209397Y-116120827D01*
X126209390Y-116120814D01*
X126121789Y-115989711D01*
X126121786Y-115989707D01*
X126010292Y-115878213D01*
X126010288Y-115878210D01*
X125879185Y-115790609D01*
X125879172Y-115790602D01*
X125733501Y-115730264D01*
X125733489Y-115730261D01*
X125578845Y-115699500D01*
X125578842Y-115699500D01*
X125421158Y-115699500D01*
X125421155Y-115699500D01*
X125266510Y-115730261D01*
X125266498Y-115730264D01*
X125120827Y-115790602D01*
X125120814Y-115790609D01*
X124989711Y-115878210D01*
X124989707Y-115878213D01*
X124878213Y-115989707D01*
X124878210Y-115989711D01*
X124790609Y-116120814D01*
X124790602Y-116120827D01*
X124730264Y-116266498D01*
X124730261Y-116266510D01*
X124699500Y-116421153D01*
X100500500Y-116421153D01*
X100500500Y-114421153D01*
X168699500Y-114421153D01*
X168699500Y-114578846D01*
X168730261Y-114733489D01*
X168730264Y-114733501D01*
X168790602Y-114879172D01*
X168790609Y-114879185D01*
X168878210Y-115010288D01*
X168878213Y-115010292D01*
X168989707Y-115121786D01*
X168989711Y-115121789D01*
X169120814Y-115209390D01*
X169120827Y-115209397D01*
X169266498Y-115269735D01*
X169266503Y-115269737D01*
X169421153Y-115300499D01*
X169421156Y-115300500D01*
X169421158Y-115300500D01*
X169578844Y-115300500D01*
X169578845Y-115300499D01*
X169733497Y-115269737D01*
X169879179Y-115209394D01*
X170010289Y-115121789D01*
X170121789Y-115010289D01*
X170209394Y-114879179D01*
X170269737Y-114733497D01*
X170300500Y-114578842D01*
X170300500Y-114421158D01*
X170300500Y-114421155D01*
X170300499Y-114421153D01*
X170269738Y-114266510D01*
X170269737Y-114266503D01*
X170269735Y-114266498D01*
X170209397Y-114120827D01*
X170209390Y-114120814D01*
X170121789Y-113989711D01*
X170121786Y-113989707D01*
X170010292Y-113878213D01*
X170010288Y-113878210D01*
X169879185Y-113790609D01*
X169879172Y-113790602D01*
X169733501Y-113730264D01*
X169733489Y-113730261D01*
X169578845Y-113699500D01*
X169578842Y-113699500D01*
X169421158Y-113699500D01*
X169421155Y-113699500D01*
X169266510Y-113730261D01*
X169266498Y-113730264D01*
X169120827Y-113790602D01*
X169120814Y-113790609D01*
X168989711Y-113878210D01*
X168989707Y-113878213D01*
X168878213Y-113989707D01*
X168878210Y-113989711D01*
X168790609Y-114120814D01*
X168790602Y-114120827D01*
X168730264Y-114266498D01*
X168730261Y-114266510D01*
X168699500Y-114421153D01*
X100500500Y-114421153D01*
X100500500Y-111664359D01*
X100949500Y-111664359D01*
X100949500Y-111905640D01*
X100973993Y-112091678D01*
X100980992Y-112144834D01*
X101043436Y-112377878D01*
X101043439Y-112377888D01*
X101135762Y-112600775D01*
X101135767Y-112600786D01*
X101256392Y-112809713D01*
X101256403Y-112809729D01*
X101403268Y-113001128D01*
X101403274Y-113001135D01*
X101573864Y-113171725D01*
X101573870Y-113171730D01*
X101765279Y-113318603D01*
X101765286Y-113318607D01*
X101974213Y-113439232D01*
X101974218Y-113439234D01*
X101974221Y-113439236D01*
X102197121Y-113531564D01*
X102430166Y-113594008D01*
X102669367Y-113625500D01*
X102669374Y-113625500D01*
X102910626Y-113625500D01*
X102910633Y-113625500D01*
X103149834Y-113594008D01*
X103382879Y-113531564D01*
X103605779Y-113439236D01*
X103814721Y-113318603D01*
X104006130Y-113171730D01*
X104176730Y-113001130D01*
X104323603Y-112809721D01*
X104444236Y-112600779D01*
X104536564Y-112377879D01*
X104599008Y-112144834D01*
X104630500Y-111905633D01*
X104630500Y-111664367D01*
X104599008Y-111425166D01*
X104536564Y-111192121D01*
X104444236Y-110969221D01*
X104444234Y-110969218D01*
X104444232Y-110969213D01*
X104323607Y-110760286D01*
X104323603Y-110760279D01*
X104184385Y-110578846D01*
X104176731Y-110568871D01*
X104176725Y-110568864D01*
X104029014Y-110421153D01*
X157199500Y-110421153D01*
X157199500Y-110578846D01*
X157230261Y-110733489D01*
X157230264Y-110733501D01*
X157290602Y-110879172D01*
X157290609Y-110879185D01*
X157378210Y-111010288D01*
X157378213Y-111010292D01*
X157489707Y-111121786D01*
X157489711Y-111121789D01*
X157620814Y-111209390D01*
X157620827Y-111209397D01*
X157766498Y-111269735D01*
X157766503Y-111269737D01*
X157921153Y-111300499D01*
X157921156Y-111300500D01*
X157921158Y-111300500D01*
X158078844Y-111300500D01*
X158078845Y-111300499D01*
X158233497Y-111269737D01*
X158379179Y-111209394D01*
X158510289Y-111121789D01*
X158621789Y-111010289D01*
X158709394Y-110879179D01*
X158769737Y-110733497D01*
X158800500Y-110578842D01*
X158800500Y-110421158D01*
X158800500Y-110421155D01*
X158800499Y-110421153D01*
X158769738Y-110266510D01*
X158769737Y-110266503D01*
X158769735Y-110266498D01*
X158709397Y-110120827D01*
X158709390Y-110120814D01*
X158621789Y-109989711D01*
X158621786Y-109989707D01*
X158510292Y-109878213D01*
X158510288Y-109878210D01*
X158379185Y-109790609D01*
X158379172Y-109790602D01*
X158233501Y-109730264D01*
X158233489Y-109730261D01*
X158078845Y-109699500D01*
X158078842Y-109699500D01*
X157921158Y-109699500D01*
X157921155Y-109699500D01*
X157766510Y-109730261D01*
X157766498Y-109730264D01*
X157620827Y-109790602D01*
X157620814Y-109790609D01*
X157489711Y-109878210D01*
X157489707Y-109878213D01*
X157378213Y-109989707D01*
X157378210Y-109989711D01*
X157290609Y-110120814D01*
X157290602Y-110120827D01*
X157230264Y-110266498D01*
X157230261Y-110266510D01*
X157199500Y-110421153D01*
X104029014Y-110421153D01*
X104006135Y-110398274D01*
X104006128Y-110398268D01*
X103814729Y-110251403D01*
X103814727Y-110251401D01*
X103814721Y-110251397D01*
X103814716Y-110251394D01*
X103814713Y-110251392D01*
X103605786Y-110130767D01*
X103605775Y-110130762D01*
X103382888Y-110038439D01*
X103382881Y-110038437D01*
X103382879Y-110038436D01*
X103149834Y-109975992D01*
X103096678Y-109968993D01*
X102910640Y-109944500D01*
X102910633Y-109944500D01*
X102669367Y-109944500D01*
X102669359Y-109944500D01*
X102456743Y-109972492D01*
X102430166Y-109975992D01*
X102197121Y-110038436D01*
X102197111Y-110038439D01*
X101974224Y-110130762D01*
X101974213Y-110130767D01*
X101765286Y-110251392D01*
X101765270Y-110251403D01*
X101573871Y-110398268D01*
X101573864Y-110398274D01*
X101403274Y-110568864D01*
X101403268Y-110568871D01*
X101256403Y-110760270D01*
X101256392Y-110760286D01*
X101135767Y-110969213D01*
X101135762Y-110969224D01*
X101043439Y-111192111D01*
X101043436Y-111192121D01*
X101022640Y-111269735D01*
X100980992Y-111425167D01*
X100949500Y-111664359D01*
X100500500Y-111664359D01*
X100500500Y-109421153D01*
X163199500Y-109421153D01*
X163199500Y-109578846D01*
X163230261Y-109733489D01*
X163230264Y-109733501D01*
X163290602Y-109879172D01*
X163290609Y-109879185D01*
X163378210Y-110010288D01*
X163378213Y-110010292D01*
X163489707Y-110121786D01*
X163489711Y-110121789D01*
X163620814Y-110209390D01*
X163620827Y-110209397D01*
X163722240Y-110251403D01*
X163766503Y-110269737D01*
X163921153Y-110300499D01*
X163921156Y-110300500D01*
X163921158Y-110300500D01*
X164078844Y-110300500D01*
X164078845Y-110300499D01*
X164233497Y-110269737D01*
X164379179Y-110209394D01*
X164510289Y-110121789D01*
X164621789Y-110010289D01*
X164709394Y-109879179D01*
X164769737Y-109733497D01*
X164800500Y-109578842D01*
X164800500Y-109421158D01*
X164800500Y-109421155D01*
X164800499Y-109421153D01*
X167199500Y-109421153D01*
X167199500Y-109578846D01*
X167230261Y-109733489D01*
X167230264Y-109733501D01*
X167290602Y-109879172D01*
X167290609Y-109879185D01*
X167378210Y-110010288D01*
X167378213Y-110010292D01*
X167489707Y-110121786D01*
X167489711Y-110121789D01*
X167620814Y-110209390D01*
X167620827Y-110209397D01*
X167722240Y-110251403D01*
X167766503Y-110269737D01*
X167921153Y-110300499D01*
X167921156Y-110300500D01*
X167921158Y-110300500D01*
X168078844Y-110300500D01*
X168078845Y-110300499D01*
X168233497Y-110269737D01*
X168379179Y-110209394D01*
X168510289Y-110121789D01*
X168621789Y-110010289D01*
X168709394Y-109879179D01*
X168769737Y-109733497D01*
X168800500Y-109578842D01*
X168800500Y-109421158D01*
X168800500Y-109421155D01*
X168800499Y-109421153D01*
X170199500Y-109421153D01*
X170199500Y-109578846D01*
X170230261Y-109733489D01*
X170230264Y-109733501D01*
X170290602Y-109879172D01*
X170290609Y-109879185D01*
X170378210Y-110010288D01*
X170378213Y-110010292D01*
X170489707Y-110121786D01*
X170489711Y-110121789D01*
X170620814Y-110209390D01*
X170620827Y-110209397D01*
X170722240Y-110251403D01*
X170766503Y-110269737D01*
X170921153Y-110300499D01*
X170921156Y-110300500D01*
X170921158Y-110300500D01*
X171078844Y-110300500D01*
X171078845Y-110300499D01*
X171233497Y-110269737D01*
X171379179Y-110209394D01*
X171510289Y-110121789D01*
X171621789Y-110010289D01*
X171709394Y-109879179D01*
X171769737Y-109733497D01*
X171800500Y-109578842D01*
X171800500Y-109421158D01*
X171800500Y-109421155D01*
X171800499Y-109421153D01*
X171769738Y-109266510D01*
X171769737Y-109266503D01*
X171769735Y-109266498D01*
X171709397Y-109120827D01*
X171709390Y-109120814D01*
X171621789Y-108989711D01*
X171621786Y-108989707D01*
X171510292Y-108878213D01*
X171510288Y-108878210D01*
X171379185Y-108790609D01*
X171379172Y-108790602D01*
X171233501Y-108730264D01*
X171233489Y-108730261D01*
X171078845Y-108699500D01*
X171078842Y-108699500D01*
X170921158Y-108699500D01*
X170921155Y-108699500D01*
X170766510Y-108730261D01*
X170766498Y-108730264D01*
X170620827Y-108790602D01*
X170620814Y-108790609D01*
X170489711Y-108878210D01*
X170489707Y-108878213D01*
X170378213Y-108989707D01*
X170378210Y-108989711D01*
X170290609Y-109120814D01*
X170290602Y-109120827D01*
X170230264Y-109266498D01*
X170230261Y-109266510D01*
X170199500Y-109421153D01*
X168800499Y-109421153D01*
X168769738Y-109266510D01*
X168769737Y-109266503D01*
X168769735Y-109266498D01*
X168709397Y-109120827D01*
X168709390Y-109120814D01*
X168621789Y-108989711D01*
X168621786Y-108989707D01*
X168510292Y-108878213D01*
X168510288Y-108878210D01*
X168379185Y-108790609D01*
X168379172Y-108790602D01*
X168233501Y-108730264D01*
X168233489Y-108730261D01*
X168078845Y-108699500D01*
X168078842Y-108699500D01*
X167921158Y-108699500D01*
X167921155Y-108699500D01*
X167766510Y-108730261D01*
X167766498Y-108730264D01*
X167620827Y-108790602D01*
X167620814Y-108790609D01*
X167489711Y-108878210D01*
X167489707Y-108878213D01*
X167378213Y-108989707D01*
X167378210Y-108989711D01*
X167290609Y-109120814D01*
X167290602Y-109120827D01*
X167230264Y-109266498D01*
X167230261Y-109266510D01*
X167199500Y-109421153D01*
X164800499Y-109421153D01*
X164769738Y-109266510D01*
X164769737Y-109266503D01*
X164769735Y-109266498D01*
X164709397Y-109120827D01*
X164709390Y-109120814D01*
X164621789Y-108989711D01*
X164621786Y-108989707D01*
X164510292Y-108878213D01*
X164510288Y-108878210D01*
X164379185Y-108790609D01*
X164379172Y-108790602D01*
X164233501Y-108730264D01*
X164233489Y-108730261D01*
X164078845Y-108699500D01*
X164078842Y-108699500D01*
X163921158Y-108699500D01*
X163921155Y-108699500D01*
X163766510Y-108730261D01*
X163766498Y-108730264D01*
X163620827Y-108790602D01*
X163620814Y-108790609D01*
X163489711Y-108878210D01*
X163489707Y-108878213D01*
X163378213Y-108989707D01*
X163378210Y-108989711D01*
X163290609Y-109120814D01*
X163290602Y-109120827D01*
X163230264Y-109266498D01*
X163230261Y-109266510D01*
X163199500Y-109421153D01*
X100500500Y-109421153D01*
X100500500Y-106421153D01*
X130199500Y-106421153D01*
X130199500Y-106578846D01*
X130230261Y-106733489D01*
X130230264Y-106733501D01*
X130290602Y-106879172D01*
X130290609Y-106879185D01*
X130378210Y-107010288D01*
X130378213Y-107010292D01*
X130489707Y-107121786D01*
X130489711Y-107121789D01*
X130620814Y-107209390D01*
X130620827Y-107209397D01*
X130754359Y-107264707D01*
X130766503Y-107269737D01*
X130921153Y-107300499D01*
X130921156Y-107300500D01*
X130921158Y-107300500D01*
X131078844Y-107300500D01*
X131078845Y-107300499D01*
X131233497Y-107269737D01*
X131379179Y-107209394D01*
X131510289Y-107121789D01*
X131621789Y-107010289D01*
X131709394Y-106879179D01*
X131769737Y-106733497D01*
X131800500Y-106578842D01*
X131800500Y-106421158D01*
X131800500Y-106421155D01*
X131800499Y-106421153D01*
X131776499Y-106300499D01*
X131769737Y-106266503D01*
X131762901Y-106250000D01*
X131709397Y-106120827D01*
X131709390Y-106120814D01*
X131621789Y-105989711D01*
X131621786Y-105989707D01*
X131510292Y-105878213D01*
X131510288Y-105878210D01*
X131379185Y-105790609D01*
X131379172Y-105790602D01*
X131233501Y-105730264D01*
X131233489Y-105730261D01*
X131078845Y-105699500D01*
X131078842Y-105699500D01*
X130921158Y-105699500D01*
X130921155Y-105699500D01*
X130766510Y-105730261D01*
X130766498Y-105730264D01*
X130620827Y-105790602D01*
X130620814Y-105790609D01*
X130489711Y-105878210D01*
X130489707Y-105878213D01*
X130378213Y-105989707D01*
X130378210Y-105989711D01*
X130290609Y-106120814D01*
X130290602Y-106120827D01*
X130230264Y-106266498D01*
X130230261Y-106266510D01*
X130199500Y-106421153D01*
X100500500Y-106421153D01*
X100500500Y-105421153D01*
X122199500Y-105421153D01*
X122199500Y-105578846D01*
X122230261Y-105733489D01*
X122230264Y-105733501D01*
X122290602Y-105879172D01*
X122290609Y-105879185D01*
X122378210Y-106010288D01*
X122378213Y-106010292D01*
X122489707Y-106121786D01*
X122489711Y-106121789D01*
X122620814Y-106209390D01*
X122620827Y-106209397D01*
X122718853Y-106250000D01*
X122766503Y-106269737D01*
X122921153Y-106300499D01*
X122921156Y-106300500D01*
X122921158Y-106300500D01*
X123078844Y-106300500D01*
X123078845Y-106300499D01*
X123089179Y-106298443D01*
X123114287Y-106293450D01*
X123114292Y-106293449D01*
X123199800Y-106276439D01*
X123233497Y-106269737D01*
X123379179Y-106209394D01*
X123510289Y-106121789D01*
X123621789Y-106010289D01*
X123709394Y-105879179D01*
X123769737Y-105733497D01*
X123800500Y-105578842D01*
X123800500Y-105421158D01*
X123800500Y-105421155D01*
X123800499Y-105421153D01*
X123769737Y-105266503D01*
X123709794Y-105121786D01*
X123709397Y-105120827D01*
X123709390Y-105120814D01*
X123621789Y-104989711D01*
X123621786Y-104989707D01*
X123510292Y-104878213D01*
X123510288Y-104878210D01*
X123379185Y-104790609D01*
X123379172Y-104790602D01*
X123233501Y-104730264D01*
X123233489Y-104730261D01*
X123078845Y-104699500D01*
X123078842Y-104699500D01*
X122921158Y-104699500D01*
X122921155Y-104699500D01*
X122766510Y-104730261D01*
X122766498Y-104730264D01*
X122620827Y-104790602D01*
X122620814Y-104790609D01*
X122489711Y-104878210D01*
X122489707Y-104878213D01*
X122378213Y-104989707D01*
X122378210Y-104989711D01*
X122290609Y-105120814D01*
X122290602Y-105120827D01*
X122230264Y-105266498D01*
X122230261Y-105266510D01*
X122199500Y-105421153D01*
X100500500Y-105421153D01*
X100500500Y-103921153D01*
X170199500Y-103921153D01*
X170199500Y-104078846D01*
X170230261Y-104233489D01*
X170230264Y-104233501D01*
X170290602Y-104379172D01*
X170290609Y-104379185D01*
X170378210Y-104510288D01*
X170378213Y-104510292D01*
X170489707Y-104621786D01*
X170489711Y-104621789D01*
X170620814Y-104709390D01*
X170620827Y-104709397D01*
X170766498Y-104769735D01*
X170766503Y-104769737D01*
X170921153Y-104800499D01*
X170921156Y-104800500D01*
X170921158Y-104800500D01*
X171078844Y-104800500D01*
X171078845Y-104800499D01*
X171233497Y-104769737D01*
X171379179Y-104709394D01*
X171510289Y-104621789D01*
X171621789Y-104510289D01*
X171681348Y-104421153D01*
X173699500Y-104421153D01*
X173699500Y-104578846D01*
X173730261Y-104733489D01*
X173730264Y-104733501D01*
X173790602Y-104879172D01*
X173790609Y-104879185D01*
X173878210Y-105010288D01*
X173878213Y-105010292D01*
X173989707Y-105121786D01*
X173989711Y-105121789D01*
X174120814Y-105209390D01*
X174120827Y-105209397D01*
X174258683Y-105266498D01*
X174266503Y-105269737D01*
X174421153Y-105300499D01*
X174421156Y-105300500D01*
X174421158Y-105300500D01*
X174578844Y-105300500D01*
X174578845Y-105300499D01*
X174733497Y-105269737D01*
X174879179Y-105209394D01*
X175010289Y-105121789D01*
X175121789Y-105010289D01*
X175209394Y-104879179D01*
X175269737Y-104733497D01*
X175300500Y-104578842D01*
X175300500Y-104421158D01*
X175300500Y-104421155D01*
X175300499Y-104421153D01*
X176699500Y-104421153D01*
X176699500Y-104578846D01*
X176730261Y-104733489D01*
X176730264Y-104733501D01*
X176790602Y-104879172D01*
X176790609Y-104879185D01*
X176878210Y-105010288D01*
X176878213Y-105010292D01*
X176989707Y-105121786D01*
X176989711Y-105121789D01*
X177120814Y-105209390D01*
X177120827Y-105209397D01*
X177258683Y-105266498D01*
X177266503Y-105269737D01*
X177421153Y-105300499D01*
X177421156Y-105300500D01*
X177575500Y-105300500D01*
X177642539Y-105320185D01*
X177688294Y-105372989D01*
X177699500Y-105424500D01*
X177699500Y-105578846D01*
X177730261Y-105733489D01*
X177730264Y-105733501D01*
X177790602Y-105879172D01*
X177790609Y-105879185D01*
X177878210Y-106010288D01*
X177878213Y-106010292D01*
X177989707Y-106121786D01*
X177989710Y-106121788D01*
X177989711Y-106121789D01*
X178015219Y-106138833D01*
X178027289Y-106146898D01*
X178072093Y-106200511D01*
X178080800Y-106269836D01*
X178050645Y-106332863D01*
X178027289Y-106353102D01*
X177989707Y-106378213D01*
X177878213Y-106489707D01*
X177878210Y-106489711D01*
X177790609Y-106620814D01*
X177790602Y-106620827D01*
X177730264Y-106766498D01*
X177730261Y-106766510D01*
X177699500Y-106921153D01*
X177699500Y-107078843D01*
X177700097Y-107084905D01*
X177698842Y-107085028D01*
X177693202Y-107148071D01*
X177665492Y-107190354D01*
X177591138Y-107264707D01*
X177591135Y-107264711D01*
X177503534Y-107395814D01*
X177503527Y-107395827D01*
X177443189Y-107541498D01*
X177443186Y-107541510D01*
X177412425Y-107696153D01*
X177412425Y-107853846D01*
X177443186Y-108008489D01*
X177443189Y-108008501D01*
X177503527Y-108154172D01*
X177503534Y-108154185D01*
X177591135Y-108285288D01*
X177591138Y-108285292D01*
X177702632Y-108396786D01*
X177702636Y-108396789D01*
X177833739Y-108484390D01*
X177833752Y-108484397D01*
X177979423Y-108544735D01*
X177979428Y-108544737D01*
X178134078Y-108575499D01*
X178134081Y-108575500D01*
X178134083Y-108575500D01*
X178291769Y-108575500D01*
X178291770Y-108575499D01*
X178446422Y-108544737D01*
X178592104Y-108484394D01*
X178723214Y-108396789D01*
X178834714Y-108285289D01*
X178922319Y-108154179D01*
X178982662Y-108008497D01*
X179013425Y-107853842D01*
X179013425Y-107696158D01*
X179013425Y-107696155D01*
X179012828Y-107690093D01*
X179014082Y-107689969D01*
X179019723Y-107626928D01*
X179047431Y-107584646D01*
X179121789Y-107510289D01*
X179209394Y-107379179D01*
X179269737Y-107233497D01*
X179300500Y-107078842D01*
X179300500Y-106921158D01*
X179300500Y-106921155D01*
X179300499Y-106921153D01*
X179269738Y-106766510D01*
X179269737Y-106766503D01*
X179256062Y-106733489D01*
X179209397Y-106620827D01*
X179209390Y-106620814D01*
X179121789Y-106489711D01*
X179121786Y-106489707D01*
X179010292Y-106378213D01*
X179010284Y-106378207D01*
X178972712Y-106353102D01*
X178927906Y-106299490D01*
X178919199Y-106230165D01*
X178949353Y-106167138D01*
X178972712Y-106146898D01*
X178999279Y-106129145D01*
X179010289Y-106121789D01*
X179121789Y-106010289D01*
X179209394Y-105879179D01*
X179269737Y-105733497D01*
X179300500Y-105578842D01*
X179300500Y-105421158D01*
X179300500Y-105421155D01*
X179300499Y-105421153D01*
X179269737Y-105266503D01*
X179209794Y-105121786D01*
X179209397Y-105120827D01*
X179209390Y-105120814D01*
X179121789Y-104989711D01*
X179121786Y-104989707D01*
X179010292Y-104878213D01*
X179010288Y-104878210D01*
X178879185Y-104790609D01*
X178879172Y-104790602D01*
X178733501Y-104730264D01*
X178733489Y-104730261D01*
X178578845Y-104699500D01*
X178578842Y-104699500D01*
X178424500Y-104699500D01*
X178357461Y-104679815D01*
X178311706Y-104627011D01*
X178300500Y-104575500D01*
X178300500Y-104421155D01*
X178300499Y-104421153D01*
X178269738Y-104266510D01*
X178269737Y-104266503D01*
X178256062Y-104233489D01*
X178209397Y-104120827D01*
X178209390Y-104120814D01*
X178121789Y-103989711D01*
X178121786Y-103989707D01*
X178010292Y-103878213D01*
X178010288Y-103878210D01*
X177879185Y-103790609D01*
X177879172Y-103790602D01*
X177733501Y-103730264D01*
X177733489Y-103730261D01*
X177578845Y-103699500D01*
X177578842Y-103699500D01*
X177421158Y-103699500D01*
X177421155Y-103699500D01*
X177266510Y-103730261D01*
X177266498Y-103730264D01*
X177120827Y-103790602D01*
X177120814Y-103790609D01*
X176989711Y-103878210D01*
X176989707Y-103878213D01*
X176878213Y-103989707D01*
X176878210Y-103989711D01*
X176790609Y-104120814D01*
X176790602Y-104120827D01*
X176730264Y-104266498D01*
X176730261Y-104266510D01*
X176699500Y-104421153D01*
X175300499Y-104421153D01*
X175269738Y-104266510D01*
X175269737Y-104266503D01*
X175256062Y-104233489D01*
X175209397Y-104120827D01*
X175209390Y-104120814D01*
X175121789Y-103989711D01*
X175121786Y-103989707D01*
X175010292Y-103878213D01*
X175010288Y-103878210D01*
X174879185Y-103790609D01*
X174879172Y-103790602D01*
X174733501Y-103730264D01*
X174733489Y-103730261D01*
X174578845Y-103699500D01*
X174578842Y-103699500D01*
X174421158Y-103699500D01*
X174421155Y-103699500D01*
X174266510Y-103730261D01*
X174266498Y-103730264D01*
X174120827Y-103790602D01*
X174120814Y-103790609D01*
X173989711Y-103878210D01*
X173989707Y-103878213D01*
X173878213Y-103989707D01*
X173878210Y-103989711D01*
X173790609Y-104120814D01*
X173790602Y-104120827D01*
X173730264Y-104266498D01*
X173730261Y-104266510D01*
X173699500Y-104421153D01*
X171681348Y-104421153D01*
X171709394Y-104379179D01*
X171769737Y-104233497D01*
X171800500Y-104078842D01*
X171800500Y-103921158D01*
X171800500Y-103921155D01*
X171800499Y-103921153D01*
X171774531Y-103790606D01*
X171769737Y-103766503D01*
X171769735Y-103766498D01*
X171709397Y-103620827D01*
X171709390Y-103620814D01*
X171621789Y-103489711D01*
X171621786Y-103489707D01*
X171510292Y-103378213D01*
X171510288Y-103378210D01*
X171379185Y-103290609D01*
X171379172Y-103290602D01*
X171233501Y-103230264D01*
X171233489Y-103230261D01*
X171078845Y-103199500D01*
X171078842Y-103199500D01*
X170921158Y-103199500D01*
X170921155Y-103199500D01*
X170766510Y-103230261D01*
X170766498Y-103230264D01*
X170620827Y-103290602D01*
X170620814Y-103290609D01*
X170489711Y-103378210D01*
X170489707Y-103378213D01*
X170378213Y-103489707D01*
X170378210Y-103489711D01*
X170290609Y-103620814D01*
X170290602Y-103620827D01*
X170230264Y-103766498D01*
X170230261Y-103766510D01*
X170199500Y-103921153D01*
X100500500Y-103921153D01*
X100500500Y-99395720D01*
X103675000Y-99395720D01*
X103675000Y-99604279D01*
X103707626Y-99810272D01*
X103772075Y-100008627D01*
X103866759Y-100194451D01*
X103902627Y-100243818D01*
X103902627Y-100243819D01*
X104476212Y-99670234D01*
X104487482Y-99712292D01*
X104559890Y-99837708D01*
X104662292Y-99940110D01*
X104787708Y-100012518D01*
X104829765Y-100023787D01*
X104256179Y-100597371D01*
X104256180Y-100597372D01*
X104305543Y-100633236D01*
X104305556Y-100633244D01*
X104491372Y-100727924D01*
X104689727Y-100792373D01*
X104895721Y-100825000D01*
X105104279Y-100825000D01*
X105310272Y-100792373D01*
X105508627Y-100727924D01*
X105694451Y-100633240D01*
X105743818Y-100597372D01*
X105743818Y-100597371D01*
X105170234Y-100023787D01*
X105212292Y-100012518D01*
X105337708Y-99940110D01*
X105440110Y-99837708D01*
X105512518Y-99712292D01*
X105523787Y-99670234D01*
X106097371Y-100243818D01*
X106097372Y-100243818D01*
X106133240Y-100194451D01*
X106227924Y-100008627D01*
X106292373Y-99810272D01*
X106325000Y-99604279D01*
X106325000Y-99395720D01*
X106292373Y-99189727D01*
X106227924Y-98991372D01*
X106133244Y-98805556D01*
X106133236Y-98805543D01*
X106097372Y-98756180D01*
X106097371Y-98756179D01*
X105523787Y-99329764D01*
X105512518Y-99287708D01*
X105440110Y-99162292D01*
X105337708Y-99059890D01*
X105212292Y-98987482D01*
X105170233Y-98976212D01*
X105743819Y-98402627D01*
X105694451Y-98366759D01*
X105508627Y-98272075D01*
X105310272Y-98207626D01*
X105104279Y-98175000D01*
X104895721Y-98175000D01*
X104689727Y-98207626D01*
X104491372Y-98272075D01*
X104305552Y-98366757D01*
X104256180Y-98402627D01*
X104829766Y-98976212D01*
X104787708Y-98987482D01*
X104662292Y-99059890D01*
X104559890Y-99162292D01*
X104487482Y-99287708D01*
X104476212Y-99329765D01*
X103902627Y-98756180D01*
X103866757Y-98805552D01*
X103772075Y-98991372D01*
X103707626Y-99189727D01*
X103675000Y-99395720D01*
X100500500Y-99395720D01*
X100500500Y-95127135D01*
X103674500Y-95127135D01*
X103674500Y-96872870D01*
X103674501Y-96872876D01*
X103680908Y-96932483D01*
X103731202Y-97067328D01*
X103731206Y-97067335D01*
X103817452Y-97182544D01*
X103817455Y-97182547D01*
X103932664Y-97268793D01*
X103932671Y-97268797D01*
X104067517Y-97319091D01*
X104067516Y-97319091D01*
X104074444Y-97319835D01*
X104127127Y-97325500D01*
X105872872Y-97325499D01*
X105932483Y-97319091D01*
X106067331Y-97268796D01*
X106182546Y-97182546D01*
X106268796Y-97067331D01*
X106319091Y-96932483D01*
X106325500Y-96872873D01*
X106325499Y-95127128D01*
X106319091Y-95067517D01*
X106268796Y-94932669D01*
X106268795Y-94932668D01*
X106268793Y-94932664D01*
X106182547Y-94817455D01*
X106182544Y-94817452D01*
X106067335Y-94731206D01*
X106067328Y-94731202D01*
X105932482Y-94680908D01*
X105932483Y-94680908D01*
X105872883Y-94674501D01*
X105872881Y-94674500D01*
X105872873Y-94674500D01*
X105872864Y-94674500D01*
X104127129Y-94674500D01*
X104127123Y-94674501D01*
X104067516Y-94680908D01*
X103932671Y-94731202D01*
X103932664Y-94731206D01*
X103817455Y-94817452D01*
X103817452Y-94817455D01*
X103731206Y-94932664D01*
X103731202Y-94932671D01*
X103680908Y-95067517D01*
X103674501Y-95127116D01*
X103674501Y-95127123D01*
X103674500Y-95127135D01*
X100500500Y-95127135D01*
X100500500Y-90921153D01*
X121699500Y-90921153D01*
X121699500Y-91078846D01*
X121730261Y-91233489D01*
X121730264Y-91233501D01*
X121790602Y-91379172D01*
X121790609Y-91379185D01*
X121878210Y-91510288D01*
X121878213Y-91510292D01*
X121989707Y-91621786D01*
X121989711Y-91621789D01*
X122120814Y-91709390D01*
X122120827Y-91709397D01*
X122266498Y-91769735D01*
X122266503Y-91769737D01*
X122421153Y-91800499D01*
X122421156Y-91800500D01*
X122421158Y-91800500D01*
X122578844Y-91800500D01*
X122578845Y-91800499D01*
X122733497Y-91769737D01*
X122879179Y-91709394D01*
X123010289Y-91621789D01*
X123121789Y-91510289D01*
X123209394Y-91379179D01*
X123269737Y-91233497D01*
X123300500Y-91078842D01*
X123300500Y-90921158D01*
X123300500Y-90921155D01*
X123300499Y-90921153D01*
X123269738Y-90766510D01*
X123269737Y-90766503D01*
X123269735Y-90766498D01*
X123209397Y-90620827D01*
X123209390Y-90620814D01*
X123121789Y-90489711D01*
X123121786Y-90489707D01*
X123010292Y-90378213D01*
X123010288Y-90378210D01*
X122879185Y-90290609D01*
X122879172Y-90290602D01*
X122733501Y-90230264D01*
X122733489Y-90230261D01*
X122578845Y-90199500D01*
X122578842Y-90199500D01*
X122421158Y-90199500D01*
X122421155Y-90199500D01*
X122266510Y-90230261D01*
X122266498Y-90230264D01*
X122120827Y-90290602D01*
X122120814Y-90290609D01*
X121989711Y-90378210D01*
X121989707Y-90378213D01*
X121878213Y-90489707D01*
X121878210Y-90489711D01*
X121790609Y-90620814D01*
X121790602Y-90620827D01*
X121730264Y-90766498D01*
X121730261Y-90766510D01*
X121699500Y-90921153D01*
X100500500Y-90921153D01*
X100500500Y-89145720D01*
X103675000Y-89145720D01*
X103675000Y-89354279D01*
X103707626Y-89560272D01*
X103772075Y-89758627D01*
X103866759Y-89944451D01*
X103902627Y-89993818D01*
X103902627Y-89993819D01*
X104476212Y-89420234D01*
X104487482Y-89462292D01*
X104559890Y-89587708D01*
X104662292Y-89690110D01*
X104787708Y-89762518D01*
X104829765Y-89773787D01*
X104256179Y-90347371D01*
X104256180Y-90347372D01*
X104305543Y-90383236D01*
X104305556Y-90383244D01*
X104491372Y-90477924D01*
X104689727Y-90542373D01*
X104895721Y-90575000D01*
X105104279Y-90575000D01*
X105310272Y-90542373D01*
X105508627Y-90477924D01*
X105694451Y-90383240D01*
X105743818Y-90347372D01*
X105743818Y-90347371D01*
X105170234Y-89773787D01*
X105212292Y-89762518D01*
X105337708Y-89690110D01*
X105440110Y-89587708D01*
X105512518Y-89462292D01*
X105523787Y-89420234D01*
X106097371Y-89993818D01*
X106097372Y-89993818D01*
X106133240Y-89944451D01*
X106227924Y-89758627D01*
X106292373Y-89560272D01*
X106325000Y-89354279D01*
X106325000Y-89145720D01*
X106292373Y-88939727D01*
X106227924Y-88741372D01*
X106133244Y-88555556D01*
X106133236Y-88555543D01*
X106097372Y-88506180D01*
X106097371Y-88506179D01*
X105523787Y-89079764D01*
X105512518Y-89037708D01*
X105440110Y-88912292D01*
X105337708Y-88809890D01*
X105212292Y-88737482D01*
X105170233Y-88726212D01*
X105475293Y-88421153D01*
X119199500Y-88421153D01*
X119199500Y-88578846D01*
X119230261Y-88733489D01*
X119230264Y-88733501D01*
X119290602Y-88879172D01*
X119290609Y-88879185D01*
X119378210Y-89010288D01*
X119378213Y-89010292D01*
X119489707Y-89121786D01*
X119489711Y-89121789D01*
X119620814Y-89209390D01*
X119620827Y-89209397D01*
X119766498Y-89269735D01*
X119766503Y-89269737D01*
X119921153Y-89300499D01*
X119921156Y-89300500D01*
X119921158Y-89300500D01*
X120078844Y-89300500D01*
X120078845Y-89300499D01*
X120233497Y-89269737D01*
X120379179Y-89209394D01*
X120510289Y-89121789D01*
X120621789Y-89010289D01*
X120709394Y-88879179D01*
X120769737Y-88733497D01*
X120800500Y-88578842D01*
X120800500Y-88421158D01*
X120800500Y-88421155D01*
X120800499Y-88421153D01*
X120769738Y-88266510D01*
X120769737Y-88266503D01*
X120769735Y-88266498D01*
X120709397Y-88120827D01*
X120709390Y-88120814D01*
X120621789Y-87989711D01*
X120621786Y-87989707D01*
X120510292Y-87878213D01*
X120510288Y-87878210D01*
X120379185Y-87790609D01*
X120379172Y-87790602D01*
X120233501Y-87730264D01*
X120233489Y-87730261D01*
X120078845Y-87699500D01*
X120078842Y-87699500D01*
X119921158Y-87699500D01*
X119921155Y-87699500D01*
X119766510Y-87730261D01*
X119766498Y-87730264D01*
X119620827Y-87790602D01*
X119620814Y-87790609D01*
X119489711Y-87878210D01*
X119489707Y-87878213D01*
X119378213Y-87989707D01*
X119378210Y-87989711D01*
X119290609Y-88120814D01*
X119290602Y-88120827D01*
X119230264Y-88266498D01*
X119230261Y-88266510D01*
X119199500Y-88421153D01*
X105475293Y-88421153D01*
X105743819Y-88152627D01*
X105694451Y-88116759D01*
X105508627Y-88022075D01*
X105310272Y-87957626D01*
X105104279Y-87925000D01*
X104895721Y-87925000D01*
X104689727Y-87957626D01*
X104491372Y-88022075D01*
X104305552Y-88116757D01*
X104256180Y-88152627D01*
X104829766Y-88726212D01*
X104787708Y-88737482D01*
X104662292Y-88809890D01*
X104559890Y-88912292D01*
X104487482Y-89037708D01*
X104476212Y-89079765D01*
X103902627Y-88506180D01*
X103866757Y-88555552D01*
X103772075Y-88741372D01*
X103707626Y-88939727D01*
X103675000Y-89145720D01*
X100500500Y-89145720D01*
X100500500Y-84877135D01*
X103674500Y-84877135D01*
X103674500Y-86622870D01*
X103674501Y-86622876D01*
X103680908Y-86682483D01*
X103731202Y-86817328D01*
X103731206Y-86817335D01*
X103817452Y-86932544D01*
X103817455Y-86932547D01*
X103932664Y-87018793D01*
X103932671Y-87018797D01*
X104067517Y-87069091D01*
X104067516Y-87069091D01*
X104074444Y-87069835D01*
X104127127Y-87075500D01*
X105872872Y-87075499D01*
X105932483Y-87069091D01*
X106067331Y-87018796D01*
X106182546Y-86932546D01*
X106191075Y-86921153D01*
X125199500Y-86921153D01*
X125199500Y-87078846D01*
X125230261Y-87233489D01*
X125230264Y-87233501D01*
X125290602Y-87379172D01*
X125290609Y-87379185D01*
X125378210Y-87510288D01*
X125378213Y-87510292D01*
X125489707Y-87621786D01*
X125489711Y-87621789D01*
X125620814Y-87709390D01*
X125620827Y-87709397D01*
X125766498Y-87769735D01*
X125766503Y-87769737D01*
X125921153Y-87800499D01*
X125921156Y-87800500D01*
X125921158Y-87800500D01*
X126078844Y-87800500D01*
X126078845Y-87800499D01*
X126233497Y-87769737D01*
X126379179Y-87709394D01*
X126510289Y-87621789D01*
X126621789Y-87510289D01*
X126709394Y-87379179D01*
X126769737Y-87233497D01*
X126800500Y-87078842D01*
X126800500Y-86921158D01*
X126800500Y-86921155D01*
X126800499Y-86921153D01*
X126769737Y-86766503D01*
X126734935Y-86682482D01*
X126709397Y-86620827D01*
X126709390Y-86620814D01*
X126621789Y-86489711D01*
X126621786Y-86489707D01*
X126510292Y-86378213D01*
X126510288Y-86378210D01*
X126379185Y-86290609D01*
X126379172Y-86290602D01*
X126233501Y-86230264D01*
X126233489Y-86230261D01*
X126078845Y-86199500D01*
X126078842Y-86199500D01*
X125921158Y-86199500D01*
X125921155Y-86199500D01*
X125766510Y-86230261D01*
X125766498Y-86230264D01*
X125620827Y-86290602D01*
X125620814Y-86290609D01*
X125489711Y-86378210D01*
X125489707Y-86378213D01*
X125378213Y-86489707D01*
X125378210Y-86489711D01*
X125290609Y-86620814D01*
X125290602Y-86620827D01*
X125230264Y-86766498D01*
X125230261Y-86766510D01*
X125199500Y-86921153D01*
X106191075Y-86921153D01*
X106251262Y-86840754D01*
X106251263Y-86840753D01*
X106259822Y-86829318D01*
X106268796Y-86817331D01*
X106319091Y-86682483D01*
X106325500Y-86622873D01*
X106325499Y-84921153D01*
X123199500Y-84921153D01*
X123199500Y-85078846D01*
X123230261Y-85233489D01*
X123230264Y-85233501D01*
X123290602Y-85379172D01*
X123290609Y-85379185D01*
X123378210Y-85510288D01*
X123378213Y-85510292D01*
X123489707Y-85621786D01*
X123489711Y-85621789D01*
X123620814Y-85709390D01*
X123620827Y-85709397D01*
X123766498Y-85769735D01*
X123766503Y-85769737D01*
X123921153Y-85800499D01*
X123921156Y-85800500D01*
X123921158Y-85800500D01*
X124078844Y-85800500D01*
X124078845Y-85800499D01*
X124233497Y-85769737D01*
X124379179Y-85709394D01*
X124510289Y-85621789D01*
X124621789Y-85510289D01*
X124681348Y-85421153D01*
X177699500Y-85421153D01*
X177699500Y-85578846D01*
X177730261Y-85733489D01*
X177730264Y-85733501D01*
X177790602Y-85879172D01*
X177790609Y-85879185D01*
X177878210Y-86010288D01*
X177878213Y-86010292D01*
X177989707Y-86121786D01*
X177989711Y-86121789D01*
X178120814Y-86209390D01*
X178120827Y-86209397D01*
X178266498Y-86269735D01*
X178266503Y-86269737D01*
X178421153Y-86300499D01*
X178421156Y-86300500D01*
X178421158Y-86300500D01*
X178578844Y-86300500D01*
X178578845Y-86300499D01*
X178733497Y-86269737D01*
X178879179Y-86209394D01*
X179010289Y-86121789D01*
X179121789Y-86010289D01*
X179209394Y-85879179D01*
X179269737Y-85733497D01*
X179300500Y-85578842D01*
X179300500Y-85421158D01*
X179300500Y-85421155D01*
X179300499Y-85421153D01*
X179269738Y-85266510D01*
X179269737Y-85266503D01*
X179256062Y-85233489D01*
X179209397Y-85120827D01*
X179209390Y-85120814D01*
X179121789Y-84989711D01*
X179121786Y-84989707D01*
X179010292Y-84878213D01*
X179010288Y-84878210D01*
X178879185Y-84790609D01*
X178879172Y-84790602D01*
X178733501Y-84730264D01*
X178733489Y-84730261D01*
X178578845Y-84699500D01*
X178578842Y-84699500D01*
X178421158Y-84699500D01*
X178421155Y-84699500D01*
X178266510Y-84730261D01*
X178266498Y-84730264D01*
X178120827Y-84790602D01*
X178120814Y-84790609D01*
X177989711Y-84878210D01*
X177989707Y-84878213D01*
X177878213Y-84989707D01*
X177878210Y-84989711D01*
X177790609Y-85120814D01*
X177790602Y-85120827D01*
X177730264Y-85266498D01*
X177730261Y-85266510D01*
X177699500Y-85421153D01*
X124681348Y-85421153D01*
X124709394Y-85379179D01*
X124769737Y-85233497D01*
X124800500Y-85078842D01*
X124800500Y-84921158D01*
X124800500Y-84921155D01*
X124800499Y-84921153D01*
X124774531Y-84790606D01*
X124769737Y-84766503D01*
X124769735Y-84766498D01*
X124709397Y-84620827D01*
X124709390Y-84620814D01*
X124621789Y-84489711D01*
X124621786Y-84489707D01*
X124510292Y-84378213D01*
X124510288Y-84378210D01*
X124379185Y-84290609D01*
X124379172Y-84290602D01*
X124233501Y-84230264D01*
X124233489Y-84230261D01*
X124078845Y-84199500D01*
X124078842Y-84199500D01*
X123921158Y-84199500D01*
X123921155Y-84199500D01*
X123766510Y-84230261D01*
X123766498Y-84230264D01*
X123620827Y-84290602D01*
X123620814Y-84290609D01*
X123489711Y-84378210D01*
X123489707Y-84378213D01*
X123378213Y-84489707D01*
X123378210Y-84489711D01*
X123290609Y-84620814D01*
X123290602Y-84620827D01*
X123230264Y-84766498D01*
X123230261Y-84766510D01*
X123199500Y-84921153D01*
X106325499Y-84921153D01*
X106325499Y-84877128D01*
X106319091Y-84817517D01*
X106309052Y-84790602D01*
X106268797Y-84682671D01*
X106268793Y-84682664D01*
X106182547Y-84567455D01*
X106182544Y-84567452D01*
X106067335Y-84481206D01*
X106067328Y-84481202D01*
X105932482Y-84430908D01*
X105932483Y-84430908D01*
X105872883Y-84424501D01*
X105872881Y-84424500D01*
X105872873Y-84424500D01*
X105872864Y-84424500D01*
X104127129Y-84424500D01*
X104127123Y-84424501D01*
X104067516Y-84430908D01*
X103932671Y-84481202D01*
X103932664Y-84481206D01*
X103817455Y-84567452D01*
X103817452Y-84567455D01*
X103731206Y-84682664D01*
X103731202Y-84682671D01*
X103680908Y-84817517D01*
X103674501Y-84877116D01*
X103674501Y-84877123D01*
X103674500Y-84877135D01*
X100500500Y-84877135D01*
X100500500Y-82421153D01*
X118199500Y-82421153D01*
X118199500Y-82578846D01*
X118230261Y-82733489D01*
X118230264Y-82733501D01*
X118290602Y-82879172D01*
X118290609Y-82879185D01*
X118378210Y-83010288D01*
X118378213Y-83010292D01*
X118489707Y-83121786D01*
X118489711Y-83121789D01*
X118620814Y-83209390D01*
X118620827Y-83209397D01*
X118766498Y-83269735D01*
X118766503Y-83269737D01*
X118921153Y-83300499D01*
X118921156Y-83300500D01*
X118921158Y-83300500D01*
X119078844Y-83300500D01*
X119078845Y-83300499D01*
X119233497Y-83269737D01*
X119379179Y-83209394D01*
X119510289Y-83121789D01*
X119621789Y-83010289D01*
X119681348Y-82921153D01*
X124199500Y-82921153D01*
X124199500Y-83078846D01*
X124230261Y-83233489D01*
X124230264Y-83233501D01*
X124290602Y-83379172D01*
X124290609Y-83379185D01*
X124378210Y-83510288D01*
X124378213Y-83510292D01*
X124489707Y-83621786D01*
X124489711Y-83621789D01*
X124620814Y-83709390D01*
X124620827Y-83709397D01*
X124766498Y-83769735D01*
X124766503Y-83769737D01*
X124921153Y-83800499D01*
X124921156Y-83800500D01*
X124921158Y-83800500D01*
X125078844Y-83800500D01*
X125078845Y-83800499D01*
X125233497Y-83769737D01*
X125379179Y-83709394D01*
X125510289Y-83621789D01*
X125621789Y-83510289D01*
X125709394Y-83379179D01*
X125769737Y-83233497D01*
X125800500Y-83078842D01*
X125800500Y-82921158D01*
X125800500Y-82921155D01*
X125800499Y-82921153D01*
X125769738Y-82766510D01*
X125769737Y-82766503D01*
X125756062Y-82733489D01*
X125709397Y-82620827D01*
X125709390Y-82620814D01*
X125621789Y-82489711D01*
X125621786Y-82489707D01*
X125510292Y-82378213D01*
X125510288Y-82378210D01*
X125379185Y-82290609D01*
X125379172Y-82290602D01*
X125233501Y-82230264D01*
X125233489Y-82230261D01*
X125078845Y-82199500D01*
X125078842Y-82199500D01*
X124921158Y-82199500D01*
X124921155Y-82199500D01*
X124766510Y-82230261D01*
X124766498Y-82230264D01*
X124620827Y-82290602D01*
X124620814Y-82290609D01*
X124489711Y-82378210D01*
X124489707Y-82378213D01*
X124378213Y-82489707D01*
X124378210Y-82489711D01*
X124290609Y-82620814D01*
X124290602Y-82620827D01*
X124230264Y-82766498D01*
X124230261Y-82766510D01*
X124199500Y-82921153D01*
X119681348Y-82921153D01*
X119709394Y-82879179D01*
X119769737Y-82733497D01*
X119800500Y-82578842D01*
X119800500Y-82421158D01*
X119800500Y-82421155D01*
X119800499Y-82421153D01*
X119774531Y-82290606D01*
X119769737Y-82266503D01*
X119769735Y-82266498D01*
X119709397Y-82120827D01*
X119709390Y-82120814D01*
X119621789Y-81989711D01*
X119621786Y-81989707D01*
X119510292Y-81878213D01*
X119510288Y-81878210D01*
X119379185Y-81790609D01*
X119379172Y-81790602D01*
X119233501Y-81730264D01*
X119233489Y-81730261D01*
X119078845Y-81699500D01*
X119078842Y-81699500D01*
X118921158Y-81699500D01*
X118921155Y-81699500D01*
X118766510Y-81730261D01*
X118766498Y-81730264D01*
X118620827Y-81790602D01*
X118620814Y-81790609D01*
X118489711Y-81878210D01*
X118489707Y-81878213D01*
X118378213Y-81989707D01*
X118378210Y-81989711D01*
X118290609Y-82120814D01*
X118290602Y-82120827D01*
X118230264Y-82266498D01*
X118230261Y-82266510D01*
X118199500Y-82421153D01*
X100500500Y-82421153D01*
X100500500Y-80421153D01*
X129199500Y-80421153D01*
X129199500Y-80578846D01*
X129230261Y-80733489D01*
X129230264Y-80733501D01*
X129290602Y-80879172D01*
X129290609Y-80879185D01*
X129378210Y-81010288D01*
X129378213Y-81010292D01*
X129489707Y-81121786D01*
X129489711Y-81121789D01*
X129620814Y-81209390D01*
X129620827Y-81209397D01*
X129766498Y-81269735D01*
X129766503Y-81269737D01*
X129921153Y-81300499D01*
X129921156Y-81300500D01*
X129921158Y-81300500D01*
X130078844Y-81300500D01*
X130078845Y-81300499D01*
X130233497Y-81269737D01*
X130379179Y-81209394D01*
X130510289Y-81121789D01*
X130621789Y-81010289D01*
X130709394Y-80879179D01*
X130769737Y-80733497D01*
X130800500Y-80578842D01*
X130800500Y-80421158D01*
X130800500Y-80421155D01*
X130800499Y-80421153D01*
X130769738Y-80266510D01*
X130769737Y-80266503D01*
X130769735Y-80266498D01*
X130709397Y-80120827D01*
X130709390Y-80120814D01*
X130621789Y-79989711D01*
X130621786Y-79989707D01*
X130510292Y-79878213D01*
X130510288Y-79878210D01*
X130379185Y-79790609D01*
X130379172Y-79790602D01*
X130233501Y-79730264D01*
X130233489Y-79730261D01*
X130078845Y-79699500D01*
X130078842Y-79699500D01*
X129921158Y-79699500D01*
X129921155Y-79699500D01*
X129766510Y-79730261D01*
X129766498Y-79730264D01*
X129620827Y-79790602D01*
X129620814Y-79790609D01*
X129489711Y-79878210D01*
X129489707Y-79878213D01*
X129378213Y-79989707D01*
X129378210Y-79989711D01*
X129290609Y-80120814D01*
X129290602Y-80120827D01*
X129230264Y-80266498D01*
X129230261Y-80266510D01*
X129199500Y-80421153D01*
X100500500Y-80421153D01*
X100500500Y-76921153D01*
X125199500Y-76921153D01*
X125199500Y-77078846D01*
X125230261Y-77233489D01*
X125230264Y-77233501D01*
X125290602Y-77379172D01*
X125290609Y-77379185D01*
X125378210Y-77510288D01*
X125378213Y-77510292D01*
X125489707Y-77621786D01*
X125489711Y-77621789D01*
X125620814Y-77709390D01*
X125620827Y-77709397D01*
X125766498Y-77769735D01*
X125766503Y-77769737D01*
X125921153Y-77800499D01*
X125921156Y-77800500D01*
X125921158Y-77800500D01*
X126078844Y-77800500D01*
X126078845Y-77800499D01*
X126233497Y-77769737D01*
X126379179Y-77709394D01*
X126510289Y-77621789D01*
X126621789Y-77510289D01*
X126709394Y-77379179D01*
X126769737Y-77233497D01*
X126800500Y-77078842D01*
X126800500Y-76921158D01*
X126800500Y-76921155D01*
X126800499Y-76921153D01*
X126769738Y-76766510D01*
X126769737Y-76766503D01*
X126709794Y-76621786D01*
X126709397Y-76620827D01*
X126709390Y-76620814D01*
X126621789Y-76489711D01*
X126621786Y-76489707D01*
X126510292Y-76378213D01*
X126510288Y-76378210D01*
X126379185Y-76290609D01*
X126379172Y-76290602D01*
X126233501Y-76230264D01*
X126233489Y-76230261D01*
X126078845Y-76199500D01*
X126078842Y-76199500D01*
X125921158Y-76199500D01*
X125921155Y-76199500D01*
X125766510Y-76230261D01*
X125766498Y-76230264D01*
X125620827Y-76290602D01*
X125620814Y-76290609D01*
X125489711Y-76378210D01*
X125489707Y-76378213D01*
X125378213Y-76489707D01*
X125378210Y-76489711D01*
X125290609Y-76620814D01*
X125290602Y-76620827D01*
X125230264Y-76766498D01*
X125230261Y-76766510D01*
X125199500Y-76921153D01*
X100500500Y-76921153D01*
X100500500Y-75921153D01*
X135199500Y-75921153D01*
X135199500Y-76078846D01*
X135230261Y-76233489D01*
X135230264Y-76233501D01*
X135290602Y-76379172D01*
X135290609Y-76379185D01*
X135378210Y-76510288D01*
X135378213Y-76510292D01*
X135489707Y-76621786D01*
X135489711Y-76621789D01*
X135620814Y-76709390D01*
X135620827Y-76709397D01*
X135758683Y-76766498D01*
X135766503Y-76769737D01*
X135921153Y-76800499D01*
X135921156Y-76800500D01*
X135921158Y-76800500D01*
X136078844Y-76800500D01*
X136078845Y-76800499D01*
X136233497Y-76769737D01*
X136379179Y-76709394D01*
X136510289Y-76621789D01*
X136621789Y-76510289D01*
X136709394Y-76379179D01*
X136769737Y-76233497D01*
X136800500Y-76078842D01*
X136800500Y-75921158D01*
X136800500Y-75921155D01*
X136800499Y-75921153D01*
X136769738Y-75766510D01*
X136769737Y-75766503D01*
X136769735Y-75766498D01*
X136709397Y-75620827D01*
X136709390Y-75620814D01*
X136621789Y-75489711D01*
X136621786Y-75489707D01*
X136510292Y-75378213D01*
X136510288Y-75378210D01*
X136379185Y-75290609D01*
X136379172Y-75290602D01*
X136233501Y-75230264D01*
X136233489Y-75230261D01*
X136078845Y-75199500D01*
X136078842Y-75199500D01*
X135921158Y-75199500D01*
X135921155Y-75199500D01*
X135766510Y-75230261D01*
X135766498Y-75230264D01*
X135620827Y-75290602D01*
X135620814Y-75290609D01*
X135489711Y-75378210D01*
X135489707Y-75378213D01*
X135378213Y-75489707D01*
X135378210Y-75489711D01*
X135290609Y-75620814D01*
X135290602Y-75620827D01*
X135230264Y-75766498D01*
X135230261Y-75766510D01*
X135199500Y-75921153D01*
X100500500Y-75921153D01*
X100500500Y-73006428D01*
X108900000Y-73006428D01*
X108900000Y-73250000D01*
X109550000Y-73250000D01*
X109550000Y-73750000D01*
X108900000Y-73750000D01*
X108900000Y-73993571D01*
X108936506Y-74177097D01*
X108936508Y-74177105D01*
X109008119Y-74349991D01*
X109008124Y-74350000D01*
X109112086Y-74505589D01*
X109112089Y-74505593D01*
X109244406Y-74637910D01*
X109244410Y-74637913D01*
X109399999Y-74741875D01*
X109400012Y-74741882D01*
X109572889Y-74813489D01*
X109572896Y-74813491D01*
X109600000Y-74818882D01*
X109600000Y-74066988D01*
X109609940Y-74084205D01*
X109665795Y-74140060D01*
X109734204Y-74179556D01*
X109810504Y-74200000D01*
X109889496Y-74200000D01*
X109965796Y-74179556D01*
X110034205Y-74140060D01*
X110090060Y-74084205D01*
X110100000Y-74066988D01*
X110100000Y-74818881D01*
X110127103Y-74813491D01*
X110127110Y-74813489D01*
X110299987Y-74741882D01*
X110300000Y-74741875D01*
X110455589Y-74637913D01*
X110455593Y-74637910D01*
X110587910Y-74505593D01*
X110587913Y-74505589D01*
X110691875Y-74350000D01*
X110691880Y-74349991D01*
X110763491Y-74177105D01*
X110763493Y-74177097D01*
X110799999Y-73993571D01*
X110800000Y-73993569D01*
X110800000Y-73750000D01*
X110150000Y-73750000D01*
X110150000Y-73250000D01*
X110800000Y-73250000D01*
X110800000Y-73006430D01*
X110799999Y-73006428D01*
X117550000Y-73006428D01*
X117550000Y-73250000D01*
X118200000Y-73250000D01*
X118200000Y-73750000D01*
X117550000Y-73750000D01*
X117550000Y-73993571D01*
X117586506Y-74177097D01*
X117586508Y-74177105D01*
X117658119Y-74349991D01*
X117658124Y-74350000D01*
X117762086Y-74505589D01*
X117762089Y-74505593D01*
X117894406Y-74637910D01*
X117894410Y-74637913D01*
X118049999Y-74741875D01*
X118050012Y-74741882D01*
X118222889Y-74813489D01*
X118222896Y-74813491D01*
X118250000Y-74818882D01*
X118250000Y-74066988D01*
X118259940Y-74084205D01*
X118315795Y-74140060D01*
X118384204Y-74179556D01*
X118460504Y-74200000D01*
X118539496Y-74200000D01*
X118615796Y-74179556D01*
X118684205Y-74140060D01*
X118740060Y-74084205D01*
X118750000Y-74066988D01*
X118750000Y-74818881D01*
X118777103Y-74813491D01*
X118777110Y-74813489D01*
X118949987Y-74741882D01*
X118950000Y-74741875D01*
X119105589Y-74637913D01*
X119105593Y-74637910D01*
X119237910Y-74505593D01*
X119237913Y-74505589D01*
X119294331Y-74421153D01*
X173699500Y-74421153D01*
X173699500Y-74578846D01*
X173730261Y-74733489D01*
X173730264Y-74733501D01*
X173790602Y-74879172D01*
X173790609Y-74879185D01*
X173878210Y-75010288D01*
X173878213Y-75010292D01*
X173989707Y-75121786D01*
X173989711Y-75121789D01*
X174120814Y-75209390D01*
X174120827Y-75209397D01*
X174266498Y-75269735D01*
X174266503Y-75269737D01*
X174421153Y-75300499D01*
X174421156Y-75300500D01*
X174421158Y-75300500D01*
X174578844Y-75300500D01*
X174578845Y-75300499D01*
X174733497Y-75269737D01*
X174879179Y-75209394D01*
X175010289Y-75121789D01*
X175121789Y-75010289D01*
X175209394Y-74879179D01*
X175269737Y-74733497D01*
X175300500Y-74578842D01*
X175300500Y-74421158D01*
X175300500Y-74421155D01*
X175300499Y-74421153D01*
X175269738Y-74266510D01*
X175269737Y-74266503D01*
X175233723Y-74179556D01*
X175209397Y-74120827D01*
X175209390Y-74120814D01*
X175121790Y-73989712D01*
X175121784Y-73989705D01*
X175053232Y-73921153D01*
X183699500Y-73921153D01*
X183699500Y-74078846D01*
X183730261Y-74233489D01*
X183730264Y-74233501D01*
X183790602Y-74379172D01*
X183790609Y-74379185D01*
X183878210Y-74510288D01*
X183878213Y-74510292D01*
X183989707Y-74621786D01*
X183989711Y-74621789D01*
X184120814Y-74709390D01*
X184120827Y-74709397D01*
X184266498Y-74769735D01*
X184266503Y-74769737D01*
X184421153Y-74800499D01*
X184421156Y-74800500D01*
X184421158Y-74800500D01*
X184578844Y-74800500D01*
X184578845Y-74800499D01*
X184733497Y-74769737D01*
X184879179Y-74709394D01*
X185010289Y-74621789D01*
X185121789Y-74510289D01*
X185209394Y-74379179D01*
X185269737Y-74233497D01*
X185300500Y-74078842D01*
X185300500Y-73921158D01*
X185300500Y-73921155D01*
X185300499Y-73921153D01*
X185274531Y-73790606D01*
X185269737Y-73766503D01*
X185262901Y-73750000D01*
X185209397Y-73620827D01*
X185209390Y-73620814D01*
X185121789Y-73489711D01*
X185121786Y-73489707D01*
X185010292Y-73378213D01*
X185010288Y-73378210D01*
X184879185Y-73290609D01*
X184879172Y-73290602D01*
X184733501Y-73230264D01*
X184733489Y-73230261D01*
X184578845Y-73199500D01*
X184578842Y-73199500D01*
X184421158Y-73199500D01*
X184421155Y-73199500D01*
X184266510Y-73230261D01*
X184266498Y-73230264D01*
X184120827Y-73290602D01*
X184120814Y-73290609D01*
X183989711Y-73378210D01*
X183989707Y-73378213D01*
X183878213Y-73489707D01*
X183878210Y-73489711D01*
X183790609Y-73620814D01*
X183790602Y-73620827D01*
X183730264Y-73766498D01*
X183730261Y-73766510D01*
X183699500Y-73921153D01*
X175053232Y-73921153D01*
X175010292Y-73878213D01*
X175010288Y-73878210D01*
X174879185Y-73790609D01*
X174879172Y-73790602D01*
X174733501Y-73730264D01*
X174733489Y-73730261D01*
X174578845Y-73699500D01*
X174578842Y-73699500D01*
X174421158Y-73699500D01*
X174421155Y-73699500D01*
X174266510Y-73730261D01*
X174266498Y-73730264D01*
X174120827Y-73790602D01*
X174120814Y-73790609D01*
X173989711Y-73878210D01*
X173989707Y-73878213D01*
X173878213Y-73989707D01*
X173878210Y-73989711D01*
X173790609Y-74120814D01*
X173790602Y-74120827D01*
X173730264Y-74266498D01*
X173730261Y-74266510D01*
X173699500Y-74421153D01*
X119294331Y-74421153D01*
X119341877Y-74349996D01*
X119341880Y-74349991D01*
X119413491Y-74177105D01*
X119413493Y-74177097D01*
X119449999Y-73993571D01*
X119450000Y-73993569D01*
X119450000Y-73750000D01*
X118800000Y-73750000D01*
X118800000Y-73250000D01*
X119450000Y-73250000D01*
X119450000Y-73006430D01*
X119449999Y-73006428D01*
X119413493Y-72822902D01*
X119413491Y-72822894D01*
X119341880Y-72650008D01*
X119341875Y-72649999D01*
X119237913Y-72494410D01*
X119237910Y-72494406D01*
X119105593Y-72362089D01*
X119105589Y-72362086D01*
X118950000Y-72258124D01*
X118949991Y-72258119D01*
X118777103Y-72186507D01*
X118777100Y-72186506D01*
X118750000Y-72181115D01*
X118750000Y-72933011D01*
X118740060Y-72915795D01*
X118684205Y-72859940D01*
X118615796Y-72820444D01*
X118539496Y-72800000D01*
X118460504Y-72800000D01*
X118384204Y-72820444D01*
X118315795Y-72859940D01*
X118259940Y-72915795D01*
X118250000Y-72933011D01*
X118250000Y-72181116D01*
X118249999Y-72181115D01*
X118222899Y-72186506D01*
X118222896Y-72186507D01*
X118050008Y-72258119D01*
X118049999Y-72258124D01*
X117894410Y-72362086D01*
X117894406Y-72362089D01*
X117762089Y-72494406D01*
X117762086Y-72494410D01*
X117658124Y-72649999D01*
X117658119Y-72650008D01*
X117586508Y-72822894D01*
X117586506Y-72822902D01*
X117550000Y-73006428D01*
X110799999Y-73006428D01*
X110763493Y-72822902D01*
X110763491Y-72822894D01*
X110691880Y-72650008D01*
X110691875Y-72649999D01*
X110587913Y-72494410D01*
X110587910Y-72494406D01*
X110455593Y-72362089D01*
X110455589Y-72362086D01*
X110300000Y-72258124D01*
X110299991Y-72258119D01*
X110127103Y-72186507D01*
X110127100Y-72186506D01*
X110100000Y-72181115D01*
X110100000Y-72933011D01*
X110090060Y-72915795D01*
X110034205Y-72859940D01*
X109965796Y-72820444D01*
X109889496Y-72800000D01*
X109810504Y-72800000D01*
X109734204Y-72820444D01*
X109665795Y-72859940D01*
X109609940Y-72915795D01*
X109600000Y-72933011D01*
X109600000Y-72181116D01*
X109599999Y-72181115D01*
X109572899Y-72186506D01*
X109572896Y-72186507D01*
X109400008Y-72258119D01*
X109399999Y-72258124D01*
X109244410Y-72362086D01*
X109244406Y-72362089D01*
X109112089Y-72494406D01*
X109112086Y-72494410D01*
X109008124Y-72649999D01*
X109008119Y-72650008D01*
X108936508Y-72822894D01*
X108936506Y-72822902D01*
X108900000Y-73006428D01*
X100500500Y-73006428D01*
X100500500Y-69276428D01*
X108900000Y-69276428D01*
X108900000Y-69870000D01*
X109550000Y-69870000D01*
X109550000Y-70370000D01*
X108900000Y-70370000D01*
X108900000Y-70963571D01*
X108936506Y-71147097D01*
X108936508Y-71147105D01*
X109008119Y-71319991D01*
X109008124Y-71320000D01*
X109112086Y-71475589D01*
X109112089Y-71475593D01*
X109244406Y-71607910D01*
X109244410Y-71607913D01*
X109399999Y-71711875D01*
X109400012Y-71711882D01*
X109572889Y-71783489D01*
X109572896Y-71783491D01*
X109600000Y-71788882D01*
X109600000Y-71036988D01*
X109609940Y-71054205D01*
X109665795Y-71110060D01*
X109734204Y-71149556D01*
X109810504Y-71170000D01*
X109889496Y-71170000D01*
X109965796Y-71149556D01*
X110034205Y-71110060D01*
X110090060Y-71054205D01*
X110100000Y-71036988D01*
X110100000Y-71788881D01*
X110127103Y-71783491D01*
X110127110Y-71783489D01*
X110299987Y-71711882D01*
X110300000Y-71711875D01*
X110455589Y-71607913D01*
X110455593Y-71607910D01*
X110587910Y-71475593D01*
X110587913Y-71475589D01*
X110691875Y-71320000D01*
X110691877Y-71319995D01*
X110696570Y-71308667D01*
X110740410Y-71254262D01*
X110806703Y-71232195D01*
X110858586Y-71241555D01*
X110959355Y-71283295D01*
X110959363Y-71283297D01*
X111118740Y-71314999D01*
X111118744Y-71315000D01*
X111281256Y-71315000D01*
X111281259Y-71314999D01*
X111440636Y-71283297D01*
X111440644Y-71283295D01*
X111576895Y-71226859D01*
X111646365Y-71219390D01*
X111671800Y-71226858D01*
X111809211Y-71283776D01*
X111809215Y-71283776D01*
X111809216Y-71283777D01*
X111968692Y-71315500D01*
X111968695Y-71315500D01*
X112131307Y-71315500D01*
X112238598Y-71294157D01*
X112290789Y-71283776D01*
X112427547Y-71227128D01*
X112497017Y-71219660D01*
X112522452Y-71227128D01*
X112659211Y-71283776D01*
X112659215Y-71283776D01*
X112659216Y-71283777D01*
X112818692Y-71315500D01*
X112818695Y-71315500D01*
X112981307Y-71315500D01*
X113088598Y-71294157D01*
X113140789Y-71283776D01*
X113277547Y-71227128D01*
X113347017Y-71219660D01*
X113372452Y-71227128D01*
X113509211Y-71283776D01*
X113509215Y-71283776D01*
X113509216Y-71283777D01*
X113668692Y-71315500D01*
X113668695Y-71315500D01*
X113831307Y-71315500D01*
X113938598Y-71294157D01*
X113990789Y-71283776D01*
X114127547Y-71227128D01*
X114197017Y-71219660D01*
X114222452Y-71227128D01*
X114359211Y-71283776D01*
X114359215Y-71283776D01*
X114359216Y-71283777D01*
X114518692Y-71315500D01*
X114518695Y-71315500D01*
X114681307Y-71315500D01*
X114788598Y-71294157D01*
X114840789Y-71283776D01*
X114977547Y-71227128D01*
X115047017Y-71219660D01*
X115072452Y-71227128D01*
X115209211Y-71283776D01*
X115209215Y-71283776D01*
X115209216Y-71283777D01*
X115368692Y-71315500D01*
X115368695Y-71315500D01*
X115531307Y-71315500D01*
X115638598Y-71294157D01*
X115690789Y-71283776D01*
X115827547Y-71227128D01*
X115897017Y-71219660D01*
X115922452Y-71227128D01*
X116059211Y-71283776D01*
X116059215Y-71283776D01*
X116059216Y-71283777D01*
X116218692Y-71315500D01*
X116218695Y-71315500D01*
X116381307Y-71315500D01*
X116488598Y-71294157D01*
X116540789Y-71283776D01*
X116678199Y-71226858D01*
X116747669Y-71219390D01*
X116773105Y-71226859D01*
X116909355Y-71283295D01*
X116909363Y-71283297D01*
X117068740Y-71314999D01*
X117068744Y-71315000D01*
X117231256Y-71315000D01*
X117231259Y-71314999D01*
X117390636Y-71283297D01*
X117390640Y-71283296D01*
X117491412Y-71241555D01*
X117560882Y-71234086D01*
X117623361Y-71265360D01*
X117653426Y-71308661D01*
X117658118Y-71319988D01*
X117658124Y-71320000D01*
X117762086Y-71475589D01*
X117762089Y-71475593D01*
X117894406Y-71607910D01*
X117894410Y-71607913D01*
X118049999Y-71711875D01*
X118050012Y-71711882D01*
X118222889Y-71783489D01*
X118222896Y-71783491D01*
X118250000Y-71788882D01*
X118250000Y-71036988D01*
X118259940Y-71054205D01*
X118315795Y-71110060D01*
X118384204Y-71149556D01*
X118460504Y-71170000D01*
X118539496Y-71170000D01*
X118615796Y-71149556D01*
X118684205Y-71110060D01*
X118740060Y-71054205D01*
X118750000Y-71036988D01*
X118750000Y-71788881D01*
X118777103Y-71783491D01*
X118777110Y-71783489D01*
X118949987Y-71711882D01*
X118950000Y-71711875D01*
X119105589Y-71607913D01*
X119105593Y-71607910D01*
X119237910Y-71475593D01*
X119237913Y-71475589D01*
X119341875Y-71320000D01*
X119341880Y-71319991D01*
X119413491Y-71147105D01*
X119413493Y-71147097D01*
X119449999Y-70963571D01*
X119450000Y-70963569D01*
X119450000Y-70370000D01*
X118800000Y-70370000D01*
X118800000Y-69870000D01*
X119450000Y-69870000D01*
X119450000Y-69421153D01*
X173699500Y-69421153D01*
X173699500Y-69578846D01*
X173730261Y-69733489D01*
X173730264Y-69733501D01*
X173790602Y-69879172D01*
X173790609Y-69879185D01*
X173878210Y-70010288D01*
X173878213Y-70010292D01*
X173989707Y-70121786D01*
X173989711Y-70121789D01*
X174120814Y-70209390D01*
X174120827Y-70209397D01*
X174216948Y-70249211D01*
X174266503Y-70269737D01*
X174421153Y-70300499D01*
X174421156Y-70300500D01*
X174421158Y-70300500D01*
X174578844Y-70300500D01*
X174578845Y-70300499D01*
X174733497Y-70269737D01*
X174879179Y-70209394D01*
X175010289Y-70121789D01*
X175121789Y-70010289D01*
X175209394Y-69879179D01*
X175269737Y-69733497D01*
X175300500Y-69578842D01*
X175300500Y-69421158D01*
X175300500Y-69421155D01*
X175300499Y-69421153D01*
X180199500Y-69421153D01*
X180199500Y-69578846D01*
X180230261Y-69733489D01*
X180230264Y-69733501D01*
X180290602Y-69879172D01*
X180290609Y-69879185D01*
X180378210Y-70010288D01*
X180378213Y-70010292D01*
X180489707Y-70121786D01*
X180489711Y-70121789D01*
X180620814Y-70209390D01*
X180620827Y-70209397D01*
X180716948Y-70249211D01*
X180766503Y-70269737D01*
X180921153Y-70300499D01*
X180921156Y-70300500D01*
X180921158Y-70300500D01*
X181078844Y-70300500D01*
X181078845Y-70300499D01*
X181233497Y-70269737D01*
X181379179Y-70209394D01*
X181510289Y-70121789D01*
X181621789Y-70010289D01*
X181709394Y-69879179D01*
X181769737Y-69733497D01*
X181800500Y-69578842D01*
X181800500Y-69421158D01*
X181800500Y-69421155D01*
X181800499Y-69421153D01*
X181788920Y-69362943D01*
X181769737Y-69266503D01*
X181764643Y-69254204D01*
X181709397Y-69120827D01*
X181709390Y-69120814D01*
X181621789Y-68989711D01*
X181621786Y-68989707D01*
X181510292Y-68878213D01*
X181510288Y-68878210D01*
X181379185Y-68790609D01*
X181379172Y-68790602D01*
X181233501Y-68730264D01*
X181233489Y-68730261D01*
X181078845Y-68699500D01*
X181078842Y-68699500D01*
X180921158Y-68699500D01*
X180921155Y-68699500D01*
X180766510Y-68730261D01*
X180766498Y-68730264D01*
X180620827Y-68790602D01*
X180620814Y-68790609D01*
X180489711Y-68878210D01*
X180489707Y-68878213D01*
X180378213Y-68989707D01*
X180378210Y-68989711D01*
X180290609Y-69120814D01*
X180290602Y-69120827D01*
X180230264Y-69266498D01*
X180230261Y-69266510D01*
X180199500Y-69421153D01*
X175300499Y-69421153D01*
X175288920Y-69362943D01*
X175269737Y-69266503D01*
X175264643Y-69254204D01*
X175209397Y-69120827D01*
X175209390Y-69120814D01*
X175121789Y-68989711D01*
X175121786Y-68989707D01*
X175010292Y-68878213D01*
X175010288Y-68878210D01*
X174879185Y-68790609D01*
X174879172Y-68790602D01*
X174733501Y-68730264D01*
X174733489Y-68730261D01*
X174578845Y-68699500D01*
X174578842Y-68699500D01*
X174421158Y-68699500D01*
X174421155Y-68699500D01*
X174266510Y-68730261D01*
X174266498Y-68730264D01*
X174120827Y-68790602D01*
X174120814Y-68790609D01*
X173989711Y-68878210D01*
X173989707Y-68878213D01*
X173878213Y-68989707D01*
X173878210Y-68989711D01*
X173790609Y-69120814D01*
X173790602Y-69120827D01*
X173730264Y-69266498D01*
X173730261Y-69266510D01*
X173699500Y-69421153D01*
X119450000Y-69421153D01*
X119450000Y-69276430D01*
X119449999Y-69276428D01*
X119413493Y-69092902D01*
X119413491Y-69092894D01*
X119341880Y-68920008D01*
X119341875Y-68919999D01*
X119237913Y-68764410D01*
X119237910Y-68764406D01*
X119105593Y-68632089D01*
X119105589Y-68632086D01*
X118950000Y-68528124D01*
X118949991Y-68528119D01*
X118777103Y-68456507D01*
X118777100Y-68456506D01*
X118750000Y-68451115D01*
X118750000Y-69203011D01*
X118740060Y-69185795D01*
X118684205Y-69129940D01*
X118615796Y-69090444D01*
X118539496Y-69070000D01*
X118460504Y-69070000D01*
X118384204Y-69090444D01*
X118315795Y-69129940D01*
X118259940Y-69185795D01*
X118250000Y-69203011D01*
X118250000Y-68451116D01*
X118249999Y-68451115D01*
X118222899Y-68456506D01*
X118222896Y-68456507D01*
X118050008Y-68528119D01*
X118049999Y-68528124D01*
X117953307Y-68592732D01*
X117947559Y-68651098D01*
X117945311Y-68650876D01*
X117942884Y-68684824D01*
X117914383Y-68729171D01*
X117503554Y-69140000D01*
X117914383Y-69550829D01*
X117947868Y-69612152D01*
X117942884Y-69681844D01*
X117914383Y-69726191D01*
X117825574Y-69815000D01*
X117914383Y-69903809D01*
X117947868Y-69965132D01*
X117942884Y-70034824D01*
X117914383Y-70079171D01*
X117414458Y-70579096D01*
X117406512Y-70583434D01*
X117401087Y-70590682D01*
X117376327Y-70599916D01*
X117353135Y-70612581D01*
X117344105Y-70611935D01*
X117335623Y-70615099D01*
X117312725Y-70610117D01*
X117319552Y-70603291D01*
X117350000Y-70529782D01*
X117350000Y-70450218D01*
X117319552Y-70376709D01*
X117263291Y-70320448D01*
X117189782Y-70290000D01*
X117110218Y-70290000D01*
X117102523Y-70293186D01*
X117097326Y-70267056D01*
X117103553Y-70197464D01*
X117131262Y-70155183D01*
X117471445Y-69814999D01*
X117131262Y-69474816D01*
X117097777Y-69413493D01*
X117097326Y-69362943D01*
X117102523Y-69336812D01*
X117110218Y-69340000D01*
X117189782Y-69340000D01*
X117263291Y-69309552D01*
X117319552Y-69253291D01*
X117350000Y-69179782D01*
X117350000Y-69100218D01*
X117319552Y-69026709D01*
X117263291Y-68970448D01*
X117189782Y-68940000D01*
X117110218Y-68940000D01*
X117102523Y-68943186D01*
X117097326Y-68917056D01*
X117103553Y-68847464D01*
X117131262Y-68805183D01*
X117531427Y-68405018D01*
X117390644Y-68346704D01*
X117390636Y-68346702D01*
X117231259Y-68315000D01*
X117068740Y-68315000D01*
X116909363Y-68346702D01*
X116909351Y-68346705D01*
X116773104Y-68403140D01*
X116703635Y-68410609D01*
X116678200Y-68403140D01*
X116540793Y-68346225D01*
X116540783Y-68346222D01*
X116381307Y-68314500D01*
X116381305Y-68314500D01*
X116218695Y-68314500D01*
X116218693Y-68314500D01*
X116059216Y-68346222D01*
X116059210Y-68346224D01*
X115922453Y-68402871D01*
X115852983Y-68410340D01*
X115827547Y-68402871D01*
X115764958Y-68376946D01*
X115690789Y-68346224D01*
X115690783Y-68346222D01*
X115531307Y-68314500D01*
X115531305Y-68314500D01*
X115441215Y-68314500D01*
X115374176Y-68294815D01*
X115328421Y-68242011D01*
X115318477Y-68172853D01*
X115338113Y-68121609D01*
X115383655Y-68053450D01*
X115383656Y-68053448D01*
X115383659Y-68053444D01*
X115444002Y-67907762D01*
X115474765Y-67753107D01*
X115474765Y-67595423D01*
X115474765Y-67595420D01*
X115474764Y-67595418D01*
X115444003Y-67440775D01*
X115444002Y-67440768D01*
X115444000Y-67440763D01*
X115383662Y-67295092D01*
X115383655Y-67295079D01*
X115296054Y-67163976D01*
X115296051Y-67163972D01*
X115184557Y-67052478D01*
X115184553Y-67052475D01*
X115053450Y-66964874D01*
X115053437Y-66964867D01*
X114907766Y-66904529D01*
X114907754Y-66904526D01*
X114753110Y-66873765D01*
X114753107Y-66873765D01*
X114595423Y-66873765D01*
X114595420Y-66873765D01*
X114440775Y-66904526D01*
X114440763Y-66904529D01*
X114295092Y-66964867D01*
X114295079Y-66964874D01*
X114163976Y-67052475D01*
X114163972Y-67052478D01*
X114052478Y-67163972D01*
X114052475Y-67163976D01*
X113964874Y-67295079D01*
X113964867Y-67295092D01*
X113904529Y-67440763D01*
X113904526Y-67440775D01*
X113873765Y-67595418D01*
X113873765Y-67753111D01*
X113904526Y-67907754D01*
X113904529Y-67907766D01*
X113964867Y-68053437D01*
X113964873Y-68053448D01*
X114020196Y-68136245D01*
X114041073Y-68202922D01*
X114022588Y-68270302D01*
X113970609Y-68316992D01*
X113901639Y-68328168D01*
X113892901Y-68326752D01*
X113831307Y-68314500D01*
X113831305Y-68314500D01*
X113668695Y-68314500D01*
X113668693Y-68314500D01*
X113509216Y-68346222D01*
X113509210Y-68346224D01*
X113372453Y-68402871D01*
X113302983Y-68410340D01*
X113277547Y-68402871D01*
X113214958Y-68376946D01*
X113140789Y-68346224D01*
X113140783Y-68346222D01*
X112981307Y-68314500D01*
X112981305Y-68314500D01*
X112818695Y-68314500D01*
X112818693Y-68314500D01*
X112659216Y-68346222D01*
X112659210Y-68346224D01*
X112522453Y-68402871D01*
X112452983Y-68410340D01*
X112427547Y-68402871D01*
X112364958Y-68376946D01*
X112290789Y-68346224D01*
X112290783Y-68346222D01*
X112131307Y-68314500D01*
X112131305Y-68314500D01*
X111968695Y-68314500D01*
X111968693Y-68314500D01*
X111809216Y-68346222D01*
X111809210Y-68346224D01*
X111671801Y-68403141D01*
X111602331Y-68410610D01*
X111576895Y-68403141D01*
X111440644Y-68346704D01*
X111440636Y-68346702D01*
X111281259Y-68315000D01*
X111118740Y-68315000D01*
X110959363Y-68346701D01*
X110959354Y-68346704D01*
X110818571Y-68405018D01*
X111218737Y-68805183D01*
X111252222Y-68866506D01*
X111252673Y-68917055D01*
X111247475Y-68943186D01*
X111239782Y-68940000D01*
X111160218Y-68940000D01*
X111086709Y-68970448D01*
X111030448Y-69026709D01*
X111000000Y-69100218D01*
X111000000Y-69179782D01*
X111030448Y-69253291D01*
X111086709Y-69309552D01*
X111160218Y-69340000D01*
X111239782Y-69340000D01*
X111247475Y-69336813D01*
X111252673Y-69362944D01*
X111246446Y-69432535D01*
X111218737Y-69474816D01*
X110878554Y-69814999D01*
X110878554Y-69815000D01*
X111218737Y-70155183D01*
X111221946Y-70161060D01*
X111227455Y-70164869D01*
X111238480Y-70191339D01*
X111252222Y-70216506D01*
X111252376Y-70224704D01*
X111254319Y-70229368D01*
X111253023Y-70259033D01*
X111253129Y-70264642D01*
X111252907Y-70265886D01*
X111247476Y-70293187D01*
X111239782Y-70290000D01*
X111160218Y-70290000D01*
X111086709Y-70320448D01*
X111030448Y-70376709D01*
X111000000Y-70450218D01*
X111000000Y-70529782D01*
X111030448Y-70603291D01*
X111038979Y-70611822D01*
X110979889Y-70607597D01*
X110935542Y-70579096D01*
X110435617Y-70079171D01*
X110402132Y-70017848D01*
X110407116Y-69948156D01*
X110435617Y-69903809D01*
X110524426Y-69815000D01*
X110435617Y-69726191D01*
X110402132Y-69664868D01*
X110407116Y-69595176D01*
X110435617Y-69550829D01*
X110846446Y-69140000D01*
X110435616Y-68729170D01*
X110402131Y-68667847D01*
X110403335Y-68651008D01*
X110402440Y-68651097D01*
X110396691Y-68592733D01*
X110299991Y-68528119D01*
X110127103Y-68456507D01*
X110127100Y-68456506D01*
X110100000Y-68451115D01*
X110100000Y-69203011D01*
X110090060Y-69185795D01*
X110034205Y-69129940D01*
X109965796Y-69090444D01*
X109889496Y-69070000D01*
X109810504Y-69070000D01*
X109734204Y-69090444D01*
X109665795Y-69129940D01*
X109609940Y-69185795D01*
X109600000Y-69203011D01*
X109600000Y-68451116D01*
X109599999Y-68451115D01*
X109572899Y-68456506D01*
X109572896Y-68456507D01*
X109400008Y-68528119D01*
X109399999Y-68528124D01*
X109244410Y-68632086D01*
X109244406Y-68632089D01*
X109112089Y-68764406D01*
X109112086Y-68764410D01*
X109008124Y-68919999D01*
X109008119Y-68920008D01*
X108936508Y-69092894D01*
X108936506Y-69092902D01*
X108900000Y-69276428D01*
X100500500Y-69276428D01*
X100500500Y-63172135D01*
X159674500Y-63172135D01*
X159674500Y-64917870D01*
X159674501Y-64917876D01*
X159680908Y-64977483D01*
X159731202Y-65112328D01*
X159731206Y-65112335D01*
X159817452Y-65227544D01*
X159817455Y-65227547D01*
X159932664Y-65313793D01*
X159932671Y-65313797D01*
X160067517Y-65364091D01*
X160067516Y-65364091D01*
X160074444Y-65364835D01*
X160127127Y-65370500D01*
X161872872Y-65370499D01*
X161932483Y-65364091D01*
X162067331Y-65313796D01*
X162182546Y-65227546D01*
X162268796Y-65112331D01*
X162319091Y-64977483D01*
X162325500Y-64917873D01*
X162325499Y-63940675D01*
X163174500Y-63940675D01*
X163174500Y-64149324D01*
X163207137Y-64355389D01*
X163271612Y-64553820D01*
X163366330Y-64739714D01*
X163488965Y-64908505D01*
X163636495Y-65056035D01*
X163805286Y-65178670D01*
X163893116Y-65223421D01*
X163991179Y-65273387D01*
X163991181Y-65273387D01*
X163991184Y-65273389D01*
X164097545Y-65307948D01*
X164189610Y-65337862D01*
X164395676Y-65370500D01*
X164395681Y-65370500D01*
X164604324Y-65370500D01*
X164810389Y-65337862D01*
X165008816Y-65273389D01*
X165194714Y-65178670D01*
X165363505Y-65056035D01*
X165511035Y-64908505D01*
X165633670Y-64739714D01*
X165728389Y-64553816D01*
X165792862Y-64355389D01*
X165825500Y-64149324D01*
X165825500Y-63940675D01*
X165792862Y-63734610D01*
X165728387Y-63536179D01*
X165633669Y-63350285D01*
X165597497Y-63300499D01*
X165511035Y-63181495D01*
X165363505Y-63033965D01*
X165194714Y-62911330D01*
X165008820Y-62816612D01*
X164810389Y-62752137D01*
X164604324Y-62719500D01*
X164604319Y-62719500D01*
X164395681Y-62719500D01*
X164395676Y-62719500D01*
X164189610Y-62752137D01*
X163991179Y-62816612D01*
X163805285Y-62911330D01*
X163636493Y-63033966D01*
X163488966Y-63181493D01*
X163366330Y-63350285D01*
X163271612Y-63536179D01*
X163207137Y-63734610D01*
X163174500Y-63940675D01*
X162325499Y-63940675D01*
X162325499Y-63172128D01*
X162319091Y-63112517D01*
X162289793Y-63033966D01*
X162268797Y-62977671D01*
X162268793Y-62977664D01*
X162182547Y-62862455D01*
X162182544Y-62862452D01*
X162067335Y-62776206D01*
X162067328Y-62776202D01*
X161932482Y-62725908D01*
X161932483Y-62725908D01*
X161872883Y-62719501D01*
X161872881Y-62719500D01*
X161872873Y-62719500D01*
X161872864Y-62719500D01*
X160127129Y-62719500D01*
X160127123Y-62719501D01*
X160067516Y-62725908D01*
X159932671Y-62776202D01*
X159932664Y-62776206D01*
X159817455Y-62862452D01*
X159817452Y-62862455D01*
X159731206Y-62977664D01*
X159731202Y-62977671D01*
X159680908Y-63112517D01*
X159674501Y-63172116D01*
X159674501Y-63172123D01*
X159674500Y-63172135D01*
X100500500Y-63172135D01*
X100500500Y-62421153D01*
X193699500Y-62421153D01*
X193699500Y-62578846D01*
X193730261Y-62733489D01*
X193730264Y-62733501D01*
X193790602Y-62879172D01*
X193790609Y-62879185D01*
X193878210Y-63010288D01*
X193878213Y-63010292D01*
X193989707Y-63121786D01*
X193989711Y-63121789D01*
X194120814Y-63209390D01*
X194120827Y-63209397D01*
X194266498Y-63269735D01*
X194266503Y-63269737D01*
X194421153Y-63300499D01*
X194421156Y-63300500D01*
X194421158Y-63300500D01*
X194578844Y-63300500D01*
X194578845Y-63300499D01*
X194733497Y-63269737D01*
X194879179Y-63209394D01*
X195010289Y-63121789D01*
X195121789Y-63010289D01*
X195209394Y-62879179D01*
X195216323Y-62862452D01*
X195252048Y-62776202D01*
X195269737Y-62733497D01*
X195300500Y-62578842D01*
X195300500Y-62421158D01*
X195300500Y-62421155D01*
X195300499Y-62421153D01*
X195269738Y-62266510D01*
X195269737Y-62266503D01*
X195269735Y-62266498D01*
X195209397Y-62120827D01*
X195209390Y-62120814D01*
X195121789Y-61989711D01*
X195121786Y-61989707D01*
X195010292Y-61878213D01*
X195010288Y-61878210D01*
X194879185Y-61790609D01*
X194879172Y-61790602D01*
X194733501Y-61730264D01*
X194733489Y-61730261D01*
X194578845Y-61699500D01*
X194578842Y-61699500D01*
X194421158Y-61699500D01*
X194421155Y-61699500D01*
X194266510Y-61730261D01*
X194266498Y-61730264D01*
X194120827Y-61790602D01*
X194120814Y-61790609D01*
X193989711Y-61878210D01*
X193989707Y-61878213D01*
X193878213Y-61989707D01*
X193878210Y-61989711D01*
X193790609Y-62120814D01*
X193790602Y-62120827D01*
X193730264Y-62266498D01*
X193730261Y-62266510D01*
X193699500Y-62421153D01*
X100500500Y-62421153D01*
X100500500Y-58921153D01*
X110199500Y-58921153D01*
X110199500Y-59078846D01*
X110230261Y-59233489D01*
X110230264Y-59233501D01*
X110290602Y-59379172D01*
X110290609Y-59379185D01*
X110378210Y-59510288D01*
X110378213Y-59510292D01*
X110489707Y-59621786D01*
X110489711Y-59621789D01*
X110620814Y-59709390D01*
X110620827Y-59709397D01*
X110758683Y-59766498D01*
X110766503Y-59769737D01*
X110921153Y-59800499D01*
X110921156Y-59800500D01*
X110921158Y-59800500D01*
X111078844Y-59800500D01*
X111078845Y-59800499D01*
X111233497Y-59769737D01*
X111379179Y-59709394D01*
X111510289Y-59621789D01*
X111621789Y-59510289D01*
X111709394Y-59379179D01*
X111769737Y-59233497D01*
X111800500Y-59078842D01*
X111800500Y-58921158D01*
X111799275Y-58914998D01*
X111799275Y-58914996D01*
X111795432Y-58895675D01*
X126134500Y-58895675D01*
X126134500Y-59104324D01*
X126167137Y-59310389D01*
X126231612Y-59508820D01*
X126289173Y-59621789D01*
X126326330Y-59694714D01*
X126448965Y-59863505D01*
X126596495Y-60011035D01*
X126765286Y-60133670D01*
X126842837Y-60173184D01*
X126951179Y-60228387D01*
X126951181Y-60228387D01*
X126951184Y-60228389D01*
X126997842Y-60243549D01*
X127149610Y-60292862D01*
X127355676Y-60325500D01*
X127355681Y-60325500D01*
X127564324Y-60325500D01*
X127770389Y-60292862D01*
X127799756Y-60283320D01*
X127968816Y-60228389D01*
X128154714Y-60133670D01*
X128323505Y-60011035D01*
X128470576Y-59863963D01*
X128531896Y-59830481D01*
X128601587Y-59835465D01*
X128657521Y-59877336D01*
X128676496Y-59925552D01*
X128679124Y-59924932D01*
X128680907Y-59932479D01*
X128731202Y-60067328D01*
X128731206Y-60067335D01*
X128817452Y-60182544D01*
X128817455Y-60182547D01*
X128932664Y-60268793D01*
X128932671Y-60268797D01*
X129067517Y-60319091D01*
X129067516Y-60319091D01*
X129074444Y-60319835D01*
X129127127Y-60325500D01*
X130872872Y-60325499D01*
X130932483Y-60319091D01*
X131067331Y-60268796D01*
X131182546Y-60182546D01*
X131268796Y-60067331D01*
X131319091Y-59932483D01*
X131325500Y-59872873D01*
X131325499Y-59421153D01*
X180699500Y-59421153D01*
X180699500Y-59578846D01*
X180730261Y-59733489D01*
X180730264Y-59733501D01*
X180790602Y-59879172D01*
X180790609Y-59879185D01*
X180878210Y-60010288D01*
X180878213Y-60010292D01*
X180989707Y-60121786D01*
X180989711Y-60121789D01*
X181120814Y-60209390D01*
X181120827Y-60209397D01*
X181266498Y-60269735D01*
X181266503Y-60269737D01*
X181421153Y-60300499D01*
X181421156Y-60300500D01*
X181421158Y-60300500D01*
X181578844Y-60300500D01*
X181578845Y-60300499D01*
X181733497Y-60269737D01*
X181879179Y-60209394D01*
X182010289Y-60121789D01*
X182121789Y-60010289D01*
X182181348Y-59921153D01*
X191199500Y-59921153D01*
X191199500Y-60078846D01*
X191230261Y-60233489D01*
X191230264Y-60233501D01*
X191290602Y-60379172D01*
X191290609Y-60379185D01*
X191378210Y-60510288D01*
X191378213Y-60510292D01*
X191489707Y-60621786D01*
X191489711Y-60621789D01*
X191620817Y-60709392D01*
X191620819Y-60709393D01*
X191620821Y-60709394D01*
X191638409Y-60716679D01*
X191692812Y-60760520D01*
X191714877Y-60826814D01*
X191712573Y-60855431D01*
X191699500Y-60921153D01*
X191699500Y-61078846D01*
X191730261Y-61233489D01*
X191730264Y-61233501D01*
X191790602Y-61379172D01*
X191790609Y-61379185D01*
X191878210Y-61510288D01*
X191878213Y-61510292D01*
X191989707Y-61621786D01*
X191989711Y-61621789D01*
X192120814Y-61709390D01*
X192120827Y-61709397D01*
X192266498Y-61769735D01*
X192266503Y-61769737D01*
X192421153Y-61800499D01*
X192421156Y-61800500D01*
X192421158Y-61800500D01*
X192578844Y-61800500D01*
X192578845Y-61800499D01*
X192733497Y-61769737D01*
X192879179Y-61709394D01*
X193010289Y-61621789D01*
X193121789Y-61510289D01*
X193209394Y-61379179D01*
X193269737Y-61233497D01*
X193300500Y-61078842D01*
X193300500Y-60921158D01*
X193300500Y-60921155D01*
X193300499Y-60921153D01*
X193287426Y-60855431D01*
X193269737Y-60766503D01*
X193265573Y-60756450D01*
X193209397Y-60620827D01*
X193209390Y-60620814D01*
X193121789Y-60489711D01*
X193121786Y-60489707D01*
X193010292Y-60378213D01*
X193010288Y-60378210D01*
X192879185Y-60290609D01*
X192879179Y-60290606D01*
X192861589Y-60283320D01*
X192807186Y-60239478D01*
X192785122Y-60173184D01*
X192787425Y-60144571D01*
X192800500Y-60078842D01*
X192800500Y-59921158D01*
X192800500Y-59921155D01*
X192800499Y-59921153D01*
X192769738Y-59766510D01*
X192769737Y-59766503D01*
X192746080Y-59709390D01*
X192709397Y-59620827D01*
X192709390Y-59620814D01*
X192621789Y-59489711D01*
X192621786Y-59489707D01*
X192510292Y-59378213D01*
X192510288Y-59378210D01*
X192379185Y-59290609D01*
X192379172Y-59290602D01*
X192233501Y-59230264D01*
X192233489Y-59230261D01*
X192078845Y-59199500D01*
X192078842Y-59199500D01*
X191921158Y-59199500D01*
X191921155Y-59199500D01*
X191766510Y-59230261D01*
X191766498Y-59230264D01*
X191620827Y-59290602D01*
X191620814Y-59290609D01*
X191489711Y-59378210D01*
X191489707Y-59378213D01*
X191378213Y-59489707D01*
X191378210Y-59489711D01*
X191290609Y-59620814D01*
X191290602Y-59620827D01*
X191230264Y-59766498D01*
X191230261Y-59766510D01*
X191199500Y-59921153D01*
X182181348Y-59921153D01*
X182209394Y-59879179D01*
X182269737Y-59733497D01*
X182300500Y-59578842D01*
X182300500Y-59421158D01*
X182300500Y-59421155D01*
X182300499Y-59421153D01*
X182291957Y-59378210D01*
X182269737Y-59266503D01*
X182256062Y-59233489D01*
X182209397Y-59120827D01*
X182209390Y-59120814D01*
X182121789Y-58989711D01*
X182121786Y-58989707D01*
X182010292Y-58878213D01*
X182010288Y-58878210D01*
X181879185Y-58790609D01*
X181879172Y-58790602D01*
X181733501Y-58730264D01*
X181733489Y-58730261D01*
X181578845Y-58699500D01*
X181578842Y-58699500D01*
X181421158Y-58699500D01*
X181421155Y-58699500D01*
X181266510Y-58730261D01*
X181266498Y-58730264D01*
X181120827Y-58790602D01*
X181120814Y-58790609D01*
X180989711Y-58878210D01*
X180989707Y-58878213D01*
X180878213Y-58989707D01*
X180878210Y-58989711D01*
X180790609Y-59120814D01*
X180790602Y-59120827D01*
X180730264Y-59266498D01*
X180730261Y-59266510D01*
X180699500Y-59421153D01*
X131325499Y-59421153D01*
X131325499Y-58989711D01*
X131325499Y-58127129D01*
X131325498Y-58127123D01*
X131319091Y-58067516D01*
X131268797Y-57932671D01*
X131268793Y-57932664D01*
X131182547Y-57817455D01*
X131182544Y-57817452D01*
X131067335Y-57731206D01*
X131067328Y-57731202D01*
X130932482Y-57680908D01*
X130932483Y-57680908D01*
X130872883Y-57674501D01*
X130872881Y-57674500D01*
X130872873Y-57674500D01*
X130872864Y-57674500D01*
X129127129Y-57674500D01*
X129127123Y-57674501D01*
X129067516Y-57680908D01*
X128932671Y-57731202D01*
X128932664Y-57731206D01*
X128817455Y-57817452D01*
X128817452Y-57817455D01*
X128731206Y-57932664D01*
X128731202Y-57932671D01*
X128680908Y-58067517D01*
X128679126Y-58075062D01*
X128676253Y-58074383D01*
X128654804Y-58126162D01*
X128597411Y-58166008D01*
X128527586Y-58168500D01*
X128470574Y-58136034D01*
X128323506Y-57988966D01*
X128246023Y-57932671D01*
X128154714Y-57866330D01*
X127968820Y-57771612D01*
X127770389Y-57707137D01*
X127564324Y-57674500D01*
X127564319Y-57674500D01*
X127355681Y-57674500D01*
X127355676Y-57674500D01*
X127149610Y-57707137D01*
X126951179Y-57771612D01*
X126765285Y-57866330D01*
X126596493Y-57988966D01*
X126448966Y-58136493D01*
X126326330Y-58305285D01*
X126231612Y-58491179D01*
X126167137Y-58689610D01*
X126134500Y-58895675D01*
X111795432Y-58895675D01*
X111769738Y-58766508D01*
X111769737Y-58766507D01*
X111769737Y-58766503D01*
X111769735Y-58766498D01*
X111709397Y-58620827D01*
X111709390Y-58620814D01*
X111621789Y-58489711D01*
X111621786Y-58489707D01*
X111510292Y-58378213D01*
X111510288Y-58378210D01*
X111379185Y-58290609D01*
X111379172Y-58290602D01*
X111233501Y-58230264D01*
X111233489Y-58230261D01*
X111078845Y-58199500D01*
X111078842Y-58199500D01*
X110921158Y-58199500D01*
X110921155Y-58199500D01*
X110766510Y-58230261D01*
X110766498Y-58230264D01*
X110620827Y-58290602D01*
X110620814Y-58290609D01*
X110489711Y-58378210D01*
X110489707Y-58378213D01*
X110378213Y-58489707D01*
X110378210Y-58489711D01*
X110290609Y-58620814D01*
X110290602Y-58620827D01*
X110230264Y-58766498D01*
X110230261Y-58766510D01*
X110199500Y-58921153D01*
X100500500Y-58921153D01*
X100500500Y-55921153D01*
X181699500Y-55921153D01*
X181699500Y-56078846D01*
X181730261Y-56233489D01*
X181730264Y-56233501D01*
X181790602Y-56379172D01*
X181790609Y-56379185D01*
X181878210Y-56510288D01*
X181878213Y-56510292D01*
X181989707Y-56621786D01*
X181989711Y-56621789D01*
X182120814Y-56709390D01*
X182120827Y-56709397D01*
X182266498Y-56769735D01*
X182266503Y-56769737D01*
X182421153Y-56800499D01*
X182421156Y-56800500D01*
X182421158Y-56800500D01*
X182578844Y-56800500D01*
X182578845Y-56800499D01*
X182733497Y-56769737D01*
X182879179Y-56709394D01*
X183010289Y-56621789D01*
X183121789Y-56510289D01*
X183209394Y-56379179D01*
X183269737Y-56233497D01*
X183300500Y-56078842D01*
X183300500Y-55921158D01*
X183300500Y-55921155D01*
X183300499Y-55921153D01*
X183269738Y-55766510D01*
X183269737Y-55766503D01*
X183269735Y-55766498D01*
X183209397Y-55620827D01*
X183209390Y-55620814D01*
X183121789Y-55489711D01*
X183121786Y-55489707D01*
X183010292Y-55378213D01*
X183010288Y-55378210D01*
X182879185Y-55290609D01*
X182879172Y-55290602D01*
X182733501Y-55230264D01*
X182733489Y-55230261D01*
X182578845Y-55199500D01*
X182578842Y-55199500D01*
X182421158Y-55199500D01*
X182421155Y-55199500D01*
X182266510Y-55230261D01*
X182266498Y-55230264D01*
X182120827Y-55290602D01*
X182120814Y-55290609D01*
X181989711Y-55378210D01*
X181989707Y-55378213D01*
X181878213Y-55489707D01*
X181878210Y-55489711D01*
X181790609Y-55620814D01*
X181790602Y-55620827D01*
X181730264Y-55766498D01*
X181730261Y-55766510D01*
X181699500Y-55921153D01*
X100500500Y-55921153D01*
X100500500Y-54421153D01*
X116199500Y-54421153D01*
X116199500Y-54578846D01*
X116230261Y-54733489D01*
X116230264Y-54733501D01*
X116290602Y-54879172D01*
X116290609Y-54879185D01*
X116378210Y-55010288D01*
X116378213Y-55010292D01*
X116489707Y-55121786D01*
X116489711Y-55121789D01*
X116620814Y-55209390D01*
X116620827Y-55209397D01*
X116766498Y-55269735D01*
X116766503Y-55269737D01*
X116921153Y-55300499D01*
X116921156Y-55300500D01*
X116921158Y-55300500D01*
X117078844Y-55300500D01*
X117078845Y-55300499D01*
X117233497Y-55269737D01*
X117379179Y-55209394D01*
X117510289Y-55121789D01*
X117621789Y-55010289D01*
X117709394Y-54879179D01*
X117769737Y-54733497D01*
X117800500Y-54578842D01*
X117800500Y-54421158D01*
X117800500Y-54421155D01*
X117800499Y-54421153D01*
X135699500Y-54421153D01*
X135699500Y-54578846D01*
X135730261Y-54733489D01*
X135730264Y-54733501D01*
X135790602Y-54879172D01*
X135790609Y-54879185D01*
X135878210Y-55010288D01*
X135878213Y-55010292D01*
X135989707Y-55121786D01*
X135989711Y-55121789D01*
X136120814Y-55209390D01*
X136120827Y-55209397D01*
X136266498Y-55269735D01*
X136266503Y-55269737D01*
X136421153Y-55300499D01*
X136421156Y-55300500D01*
X136421158Y-55300500D01*
X136578844Y-55300500D01*
X136578845Y-55300499D01*
X136733497Y-55269737D01*
X136879179Y-55209394D01*
X137010289Y-55121789D01*
X137121789Y-55010289D01*
X137129145Y-54999279D01*
X137146898Y-54972712D01*
X137200510Y-54927906D01*
X137269835Y-54919199D01*
X137332862Y-54949353D01*
X137353102Y-54972712D01*
X137378207Y-55010284D01*
X137378213Y-55010292D01*
X137489707Y-55121786D01*
X137489711Y-55121789D01*
X137620814Y-55209390D01*
X137620827Y-55209397D01*
X137766498Y-55269735D01*
X137766503Y-55269737D01*
X137921153Y-55300499D01*
X137921156Y-55300500D01*
X137921158Y-55300500D01*
X138078844Y-55300500D01*
X138078845Y-55300499D01*
X138233497Y-55269737D01*
X138379179Y-55209394D01*
X138510289Y-55121789D01*
X138621789Y-55010289D01*
X138709394Y-54879179D01*
X138769737Y-54733497D01*
X138800500Y-54578842D01*
X138800500Y-54421158D01*
X138800500Y-54421155D01*
X138800499Y-54421153D01*
X138769737Y-54266503D01*
X138709794Y-54121786D01*
X138709397Y-54120827D01*
X138709390Y-54120814D01*
X138621789Y-53989711D01*
X138621786Y-53989707D01*
X138510292Y-53878213D01*
X138510288Y-53878210D01*
X138379185Y-53790609D01*
X138379172Y-53790602D01*
X138233501Y-53730264D01*
X138233489Y-53730261D01*
X138078845Y-53699500D01*
X138078842Y-53699500D01*
X137921158Y-53699500D01*
X137921155Y-53699500D01*
X137766510Y-53730261D01*
X137766498Y-53730264D01*
X137620827Y-53790602D01*
X137620814Y-53790609D01*
X137489711Y-53878210D01*
X137489707Y-53878213D01*
X137378213Y-53989707D01*
X137353102Y-54027289D01*
X137299489Y-54072093D01*
X137230164Y-54080800D01*
X137167137Y-54050645D01*
X137146898Y-54027289D01*
X137121786Y-53989707D01*
X137010292Y-53878213D01*
X137010288Y-53878210D01*
X136879185Y-53790609D01*
X136879172Y-53790602D01*
X136733501Y-53730264D01*
X136733489Y-53730261D01*
X136578845Y-53699500D01*
X136578842Y-53699500D01*
X136421158Y-53699500D01*
X136421155Y-53699500D01*
X136266510Y-53730261D01*
X136266498Y-53730264D01*
X136120827Y-53790602D01*
X136120814Y-53790609D01*
X135989711Y-53878210D01*
X135989707Y-53878213D01*
X135878213Y-53989707D01*
X135878210Y-53989711D01*
X135790609Y-54120814D01*
X135790602Y-54120827D01*
X135730264Y-54266498D01*
X135730261Y-54266510D01*
X135699500Y-54421153D01*
X117800499Y-54421153D01*
X117769737Y-54266503D01*
X117709794Y-54121786D01*
X117709397Y-54120827D01*
X117709390Y-54120814D01*
X117621789Y-53989711D01*
X117621786Y-53989707D01*
X117510292Y-53878213D01*
X117510288Y-53878210D01*
X117379185Y-53790609D01*
X117379172Y-53790602D01*
X117233501Y-53730264D01*
X117233489Y-53730261D01*
X117078845Y-53699500D01*
X117078842Y-53699500D01*
X116921158Y-53699500D01*
X116921155Y-53699500D01*
X116766510Y-53730261D01*
X116766498Y-53730264D01*
X116620827Y-53790602D01*
X116620814Y-53790609D01*
X116489711Y-53878210D01*
X116489707Y-53878213D01*
X116378213Y-53989707D01*
X116378210Y-53989711D01*
X116290609Y-54120814D01*
X116290602Y-54120827D01*
X116230264Y-54266498D01*
X116230261Y-54266510D01*
X116199500Y-54421153D01*
X100500500Y-54421153D01*
X100500500Y-52921153D01*
X147199500Y-52921153D01*
X147199500Y-53078846D01*
X147230261Y-53233489D01*
X147230264Y-53233501D01*
X147290602Y-53379172D01*
X147290609Y-53379185D01*
X147378210Y-53510288D01*
X147378213Y-53510292D01*
X147489707Y-53621786D01*
X147489711Y-53621789D01*
X147620814Y-53709390D01*
X147620827Y-53709397D01*
X147717209Y-53749319D01*
X147766503Y-53769737D01*
X147921153Y-53800499D01*
X147921156Y-53800500D01*
X147921158Y-53800500D01*
X148078844Y-53800500D01*
X148078845Y-53800499D01*
X148233497Y-53769737D01*
X148379179Y-53709394D01*
X148510289Y-53621789D01*
X148621789Y-53510289D01*
X148709394Y-53379179D01*
X148769737Y-53233497D01*
X148800500Y-53078842D01*
X148800500Y-52921158D01*
X148800500Y-52921155D01*
X148800499Y-52921153D01*
X148775008Y-52792997D01*
X148770857Y-52772130D01*
X159674500Y-52772130D01*
X159674500Y-54517870D01*
X159674501Y-54517876D01*
X159680908Y-54577483D01*
X159731202Y-54712328D01*
X159731206Y-54712335D01*
X159817452Y-54827544D01*
X159817455Y-54827547D01*
X159932664Y-54913793D01*
X159932671Y-54913797D01*
X160067517Y-54964091D01*
X160067516Y-54964091D01*
X160074444Y-54964835D01*
X160127127Y-54970500D01*
X161872872Y-54970499D01*
X161932483Y-54964091D01*
X162067331Y-54913796D01*
X162182546Y-54827546D01*
X162268796Y-54712331D01*
X162319091Y-54577483D01*
X162325500Y-54517873D01*
X162325499Y-53540675D01*
X163174500Y-53540675D01*
X163174500Y-53749324D01*
X163207137Y-53955389D01*
X163271612Y-54153820D01*
X163366330Y-54339714D01*
X163488965Y-54508505D01*
X163636495Y-54656035D01*
X163805286Y-54778670D01*
X163893116Y-54823421D01*
X163991179Y-54873387D01*
X163991181Y-54873387D01*
X163991184Y-54873389D01*
X164097545Y-54907948D01*
X164189610Y-54937862D01*
X164395676Y-54970500D01*
X164395681Y-54970500D01*
X164604324Y-54970500D01*
X164810389Y-54937862D01*
X164841030Y-54927906D01*
X165008816Y-54873389D01*
X165194714Y-54778670D01*
X165363505Y-54656035D01*
X165511035Y-54508505D01*
X165633670Y-54339714D01*
X165728389Y-54153816D01*
X165792862Y-53955389D01*
X165825500Y-53749324D01*
X165825500Y-53540675D01*
X165806569Y-53421153D01*
X193699500Y-53421153D01*
X193699500Y-53578846D01*
X193730261Y-53733489D01*
X193730264Y-53733501D01*
X193790602Y-53879172D01*
X193790609Y-53879185D01*
X193878210Y-54010288D01*
X193878213Y-54010292D01*
X193989707Y-54121786D01*
X193989711Y-54121789D01*
X194120814Y-54209390D01*
X194120827Y-54209397D01*
X194258683Y-54266498D01*
X194266503Y-54269737D01*
X194421153Y-54300499D01*
X194421156Y-54300500D01*
X194421158Y-54300500D01*
X194578844Y-54300500D01*
X194578845Y-54300499D01*
X194733497Y-54269737D01*
X194879179Y-54209394D01*
X195010289Y-54121789D01*
X195121789Y-54010289D01*
X195209394Y-53879179D01*
X195269737Y-53733497D01*
X195300500Y-53578842D01*
X195300500Y-53421158D01*
X195300500Y-53421155D01*
X195300499Y-53421153D01*
X195292148Y-53379172D01*
X195269737Y-53266503D01*
X195215758Y-53136184D01*
X195209397Y-53120827D01*
X195209390Y-53120814D01*
X195121789Y-52989711D01*
X195121786Y-52989707D01*
X195010292Y-52878213D01*
X195010288Y-52878210D01*
X194879185Y-52790609D01*
X194879172Y-52790602D01*
X194733501Y-52730264D01*
X194733489Y-52730261D01*
X194578845Y-52699500D01*
X194578842Y-52699500D01*
X194421158Y-52699500D01*
X194421155Y-52699500D01*
X194266510Y-52730261D01*
X194266498Y-52730264D01*
X194120827Y-52790602D01*
X194120814Y-52790609D01*
X193989711Y-52878210D01*
X193989707Y-52878213D01*
X193878213Y-52989707D01*
X193878210Y-52989711D01*
X193790609Y-53120814D01*
X193790602Y-53120827D01*
X193730264Y-53266498D01*
X193730261Y-53266510D01*
X193699500Y-53421153D01*
X165806569Y-53421153D01*
X165792862Y-53334610D01*
X165728387Y-53136179D01*
X165633669Y-52950285D01*
X165612503Y-52921153D01*
X165511035Y-52781495D01*
X165363505Y-52633965D01*
X165200294Y-52515384D01*
X165200293Y-52515382D01*
X165194716Y-52511331D01*
X165017732Y-52421153D01*
X175199500Y-52421153D01*
X175199500Y-52578846D01*
X175230261Y-52733489D01*
X175230264Y-52733501D01*
X175290602Y-52879172D01*
X175290609Y-52879185D01*
X175378210Y-53010288D01*
X175378213Y-53010292D01*
X175489707Y-53121786D01*
X175489711Y-53121789D01*
X175620814Y-53209390D01*
X175620827Y-53209397D01*
X175758683Y-53266498D01*
X175766503Y-53269737D01*
X175921153Y-53300499D01*
X175921156Y-53300500D01*
X175921158Y-53300500D01*
X176078844Y-53300500D01*
X176078845Y-53300499D01*
X176233497Y-53269737D01*
X176379179Y-53209394D01*
X176510289Y-53121789D01*
X176621789Y-53010289D01*
X176709394Y-52879179D01*
X176769737Y-52733497D01*
X176800500Y-52578842D01*
X176800500Y-52421158D01*
X176800500Y-52421155D01*
X176800499Y-52421153D01*
X191699500Y-52421153D01*
X191699500Y-52578846D01*
X191730261Y-52733489D01*
X191730264Y-52733501D01*
X191790602Y-52879172D01*
X191790609Y-52879185D01*
X191878210Y-53010288D01*
X191878213Y-53010292D01*
X191989707Y-53121786D01*
X191989711Y-53121789D01*
X192120814Y-53209390D01*
X192120827Y-53209397D01*
X192258683Y-53266498D01*
X192266503Y-53269737D01*
X192421153Y-53300499D01*
X192421156Y-53300500D01*
X192421158Y-53300500D01*
X192578844Y-53300500D01*
X192578845Y-53300499D01*
X192589179Y-53298443D01*
X192614287Y-53293450D01*
X192614292Y-53293449D01*
X192699800Y-53276439D01*
X192733497Y-53269737D01*
X192879179Y-53209394D01*
X193010289Y-53121789D01*
X193121789Y-53010289D01*
X193209394Y-52879179D01*
X193269737Y-52733497D01*
X193300500Y-52578842D01*
X193300500Y-52421158D01*
X193300500Y-52421155D01*
X193300499Y-52421153D01*
X193286771Y-52352137D01*
X193269737Y-52266503D01*
X193269735Y-52266498D01*
X193209397Y-52120827D01*
X193209390Y-52120814D01*
X193121789Y-51989711D01*
X193121786Y-51989707D01*
X193010292Y-51878213D01*
X193010288Y-51878210D01*
X192879185Y-51790609D01*
X192879172Y-51790602D01*
X192733501Y-51730264D01*
X192733489Y-51730261D01*
X192578845Y-51699500D01*
X192578842Y-51699500D01*
X192421158Y-51699500D01*
X192421155Y-51699500D01*
X192266510Y-51730261D01*
X192266498Y-51730264D01*
X192120827Y-51790602D01*
X192120814Y-51790609D01*
X191989711Y-51878210D01*
X191989707Y-51878213D01*
X191878213Y-51989707D01*
X191878210Y-51989711D01*
X191790609Y-52120814D01*
X191790602Y-52120827D01*
X191730264Y-52266498D01*
X191730261Y-52266510D01*
X191699500Y-52421153D01*
X176800499Y-52421153D01*
X176786771Y-52352137D01*
X176769737Y-52266503D01*
X176769735Y-52266498D01*
X176709397Y-52120827D01*
X176709390Y-52120814D01*
X176621789Y-51989711D01*
X176621786Y-51989707D01*
X176510292Y-51878213D01*
X176510288Y-51878210D01*
X176379185Y-51790609D01*
X176379172Y-51790602D01*
X176233501Y-51730264D01*
X176233489Y-51730261D01*
X176078845Y-51699500D01*
X176078842Y-51699500D01*
X175921158Y-51699500D01*
X175921155Y-51699500D01*
X175766510Y-51730261D01*
X175766498Y-51730264D01*
X175620827Y-51790602D01*
X175620814Y-51790609D01*
X175489711Y-51878210D01*
X175489707Y-51878213D01*
X175378213Y-51989707D01*
X175378210Y-51989711D01*
X175290609Y-52120814D01*
X175290602Y-52120827D01*
X175230264Y-52266498D01*
X175230261Y-52266510D01*
X175199500Y-52421153D01*
X165017732Y-52421153D01*
X165008820Y-52416612D01*
X164810389Y-52352137D01*
X164604324Y-52319500D01*
X164604319Y-52319500D01*
X164395681Y-52319500D01*
X164395676Y-52319500D01*
X164189610Y-52352137D01*
X163991179Y-52416612D01*
X163805285Y-52511330D01*
X163636493Y-52633966D01*
X163488966Y-52781493D01*
X163366330Y-52950285D01*
X163271612Y-53136179D01*
X163207137Y-53334610D01*
X163174500Y-53540675D01*
X162325499Y-53540675D01*
X162325499Y-52772128D01*
X162319091Y-52712517D01*
X162289793Y-52633966D01*
X162268797Y-52577671D01*
X162268793Y-52577664D01*
X162182547Y-52462455D01*
X162182544Y-52462452D01*
X162067335Y-52376206D01*
X162067328Y-52376202D01*
X161932482Y-52325908D01*
X161932483Y-52325908D01*
X161872883Y-52319501D01*
X161872881Y-52319500D01*
X161872873Y-52319500D01*
X161872864Y-52319500D01*
X160127129Y-52319500D01*
X160127123Y-52319501D01*
X160067516Y-52325908D01*
X159932671Y-52376202D01*
X159932664Y-52376206D01*
X159817455Y-52462452D01*
X159817452Y-52462455D01*
X159731206Y-52577664D01*
X159731202Y-52577671D01*
X159680908Y-52712517D01*
X159674501Y-52772116D01*
X159674500Y-52772130D01*
X148770857Y-52772130D01*
X148769738Y-52766507D01*
X148769735Y-52766498D01*
X148709397Y-52620827D01*
X148709390Y-52620814D01*
X148621789Y-52489711D01*
X148621786Y-52489707D01*
X148510292Y-52378213D01*
X148510288Y-52378210D01*
X148379185Y-52290609D01*
X148379172Y-52290602D01*
X148233501Y-52230264D01*
X148233489Y-52230261D01*
X148078845Y-52199500D01*
X148078842Y-52199500D01*
X147921158Y-52199500D01*
X147921155Y-52199500D01*
X147766510Y-52230261D01*
X147766498Y-52230264D01*
X147620827Y-52290602D01*
X147620814Y-52290609D01*
X147489711Y-52378210D01*
X147489707Y-52378213D01*
X147378213Y-52489707D01*
X147378210Y-52489711D01*
X147290609Y-52620814D01*
X147290602Y-52620827D01*
X147230264Y-52766498D01*
X147230261Y-52766510D01*
X147199500Y-52921153D01*
X100500500Y-52921153D01*
X100500500Y-50921153D01*
X173199500Y-50921153D01*
X173199500Y-51078846D01*
X173230261Y-51233489D01*
X173230264Y-51233501D01*
X173290602Y-51379172D01*
X173290609Y-51379185D01*
X173378210Y-51510288D01*
X173378213Y-51510292D01*
X173489707Y-51621786D01*
X173489711Y-51621789D01*
X173620814Y-51709390D01*
X173620827Y-51709397D01*
X173766498Y-51769735D01*
X173766503Y-51769737D01*
X173921153Y-51800499D01*
X173921156Y-51800500D01*
X173921158Y-51800500D01*
X174078844Y-51800500D01*
X174078845Y-51800499D01*
X174233497Y-51769737D01*
X174379179Y-51709394D01*
X174510289Y-51621789D01*
X174621789Y-51510289D01*
X174709394Y-51379179D01*
X174769737Y-51233497D01*
X174800500Y-51078842D01*
X174800500Y-50921158D01*
X174800500Y-50921155D01*
X174800499Y-50921153D01*
X174769738Y-50766510D01*
X174769737Y-50766503D01*
X174709794Y-50621786D01*
X174709397Y-50620827D01*
X174709390Y-50620814D01*
X174621789Y-50489711D01*
X174621786Y-50489707D01*
X174510292Y-50378213D01*
X174510288Y-50378210D01*
X174379185Y-50290609D01*
X174379172Y-50290602D01*
X174233501Y-50230264D01*
X174233489Y-50230261D01*
X174078845Y-50199500D01*
X174078842Y-50199500D01*
X173921158Y-50199500D01*
X173921155Y-50199500D01*
X173766510Y-50230261D01*
X173766498Y-50230264D01*
X173620827Y-50290602D01*
X173620814Y-50290609D01*
X173489711Y-50378210D01*
X173489707Y-50378213D01*
X173378213Y-50489707D01*
X173378210Y-50489711D01*
X173290609Y-50620814D01*
X173290602Y-50620827D01*
X173230264Y-50766498D01*
X173230261Y-50766510D01*
X173199500Y-50921153D01*
X100500500Y-50921153D01*
X100500500Y-49921153D01*
X109699500Y-49921153D01*
X109699500Y-50078846D01*
X109730261Y-50233489D01*
X109730264Y-50233501D01*
X109790602Y-50379172D01*
X109790609Y-50379185D01*
X109878210Y-50510288D01*
X109878213Y-50510292D01*
X109989707Y-50621786D01*
X109989711Y-50621789D01*
X110120814Y-50709390D01*
X110120827Y-50709397D01*
X110258683Y-50766498D01*
X110266503Y-50769737D01*
X110421153Y-50800499D01*
X110421156Y-50800500D01*
X110421158Y-50800500D01*
X110578844Y-50800500D01*
X110578845Y-50800499D01*
X110589179Y-50798443D01*
X110614287Y-50793450D01*
X110614292Y-50793449D01*
X110699800Y-50776439D01*
X110733497Y-50769737D01*
X110879179Y-50709394D01*
X111010289Y-50621789D01*
X111121789Y-50510289D01*
X111209394Y-50379179D01*
X111269737Y-50233497D01*
X111300500Y-50078842D01*
X111300500Y-49921158D01*
X111300500Y-49921155D01*
X111300499Y-49921153D01*
X111269738Y-49766510D01*
X111269737Y-49766503D01*
X111256062Y-49733489D01*
X111209397Y-49620827D01*
X111209390Y-49620814D01*
X111121790Y-49489712D01*
X111121784Y-49489705D01*
X111053232Y-49421153D01*
X127199500Y-49421153D01*
X127199500Y-49578846D01*
X127230261Y-49733489D01*
X127230264Y-49733501D01*
X127290602Y-49879172D01*
X127290609Y-49879185D01*
X127378210Y-50010288D01*
X127378213Y-50010292D01*
X127489707Y-50121786D01*
X127489711Y-50121789D01*
X127620814Y-50209390D01*
X127620827Y-50209397D01*
X127766498Y-50269735D01*
X127766503Y-50269737D01*
X127921153Y-50300499D01*
X127921156Y-50300500D01*
X127921158Y-50300500D01*
X128078844Y-50300500D01*
X128078845Y-50300499D01*
X128233497Y-50269737D01*
X128379179Y-50209394D01*
X128510289Y-50121789D01*
X128621789Y-50010289D01*
X128709394Y-49879179D01*
X128769737Y-49733497D01*
X128800500Y-49578842D01*
X128800500Y-49421158D01*
X128800500Y-49421155D01*
X128800499Y-49421153D01*
X128774531Y-49290606D01*
X128769737Y-49266503D01*
X128769735Y-49266498D01*
X128709397Y-49120827D01*
X128709390Y-49120814D01*
X128621789Y-48989711D01*
X128621786Y-48989707D01*
X128620885Y-48988806D01*
X128620563Y-48988217D01*
X128617924Y-48985001D01*
X128618533Y-48984500D01*
X128587400Y-48927483D01*
X128592384Y-48857791D01*
X128634256Y-48801858D01*
X128684372Y-48779508D01*
X128733497Y-48769737D01*
X128879179Y-48709394D01*
X129010289Y-48621789D01*
X129121789Y-48510289D01*
X129181348Y-48421153D01*
X172699500Y-48421153D01*
X172699500Y-48578846D01*
X172730261Y-48733489D01*
X172730264Y-48733501D01*
X172790602Y-48879172D01*
X172790609Y-48879185D01*
X172878210Y-49010288D01*
X172878213Y-49010292D01*
X172989707Y-49121786D01*
X172989711Y-49121789D01*
X173120814Y-49209390D01*
X173120827Y-49209397D01*
X173258683Y-49266498D01*
X173266503Y-49269737D01*
X173421153Y-49300499D01*
X173421156Y-49300500D01*
X173421158Y-49300500D01*
X173578844Y-49300500D01*
X173578845Y-49300499D01*
X173733497Y-49269737D01*
X173879179Y-49209394D01*
X174010289Y-49121789D01*
X174121789Y-49010289D01*
X174209394Y-48879179D01*
X174269737Y-48733497D01*
X174300500Y-48578842D01*
X174300500Y-48421158D01*
X174300500Y-48421155D01*
X174300499Y-48421153D01*
X185699500Y-48421153D01*
X185699500Y-48578846D01*
X185730261Y-48733489D01*
X185730264Y-48733501D01*
X185790602Y-48879172D01*
X185790609Y-48879185D01*
X185878210Y-49010288D01*
X185878213Y-49010292D01*
X185989707Y-49121786D01*
X185989711Y-49121789D01*
X186120814Y-49209390D01*
X186120827Y-49209397D01*
X186258683Y-49266498D01*
X186266503Y-49269737D01*
X186421153Y-49300499D01*
X186421156Y-49300500D01*
X186421158Y-49300500D01*
X186578844Y-49300500D01*
X186578845Y-49300499D01*
X186733497Y-49269737D01*
X186879179Y-49209394D01*
X187010289Y-49121789D01*
X187121789Y-49010289D01*
X187209394Y-48879179D01*
X187269737Y-48733497D01*
X187300500Y-48578842D01*
X187300500Y-48421158D01*
X187300500Y-48421155D01*
X187300499Y-48421153D01*
X187269738Y-48266510D01*
X187269737Y-48266503D01*
X187256062Y-48233489D01*
X187209397Y-48120827D01*
X187209390Y-48120814D01*
X187121789Y-47989711D01*
X187121786Y-47989707D01*
X187010292Y-47878213D01*
X187010288Y-47878210D01*
X186879185Y-47790609D01*
X186879172Y-47790602D01*
X186733501Y-47730264D01*
X186733489Y-47730261D01*
X186578845Y-47699500D01*
X186578842Y-47699500D01*
X186421158Y-47699500D01*
X186421155Y-47699500D01*
X186266510Y-47730261D01*
X186266498Y-47730264D01*
X186120827Y-47790602D01*
X186120814Y-47790609D01*
X185989711Y-47878210D01*
X185989707Y-47878213D01*
X185878213Y-47989707D01*
X185878210Y-47989711D01*
X185790609Y-48120814D01*
X185790602Y-48120827D01*
X185730264Y-48266498D01*
X185730261Y-48266510D01*
X185699500Y-48421153D01*
X174300499Y-48421153D01*
X174269738Y-48266510D01*
X174269737Y-48266503D01*
X174256062Y-48233489D01*
X174209397Y-48120827D01*
X174209390Y-48120814D01*
X174121789Y-47989711D01*
X174121786Y-47989707D01*
X174010292Y-47878213D01*
X174010288Y-47878210D01*
X173879185Y-47790609D01*
X173879172Y-47790602D01*
X173733501Y-47730264D01*
X173733489Y-47730261D01*
X173578845Y-47699500D01*
X173578842Y-47699500D01*
X173421158Y-47699500D01*
X173421155Y-47699500D01*
X173266510Y-47730261D01*
X173266498Y-47730264D01*
X173120827Y-47790602D01*
X173120814Y-47790609D01*
X172989711Y-47878210D01*
X172989707Y-47878213D01*
X172878213Y-47989707D01*
X172878210Y-47989711D01*
X172790609Y-48120814D01*
X172790602Y-48120827D01*
X172730264Y-48266498D01*
X172730261Y-48266510D01*
X172699500Y-48421153D01*
X129181348Y-48421153D01*
X129209394Y-48379179D01*
X129269737Y-48233497D01*
X129300500Y-48078842D01*
X129300500Y-47921158D01*
X129300500Y-47921155D01*
X129300499Y-47921153D01*
X129274531Y-47790606D01*
X129269737Y-47766503D01*
X129269735Y-47766498D01*
X129209397Y-47620827D01*
X129209390Y-47620814D01*
X129121789Y-47489711D01*
X129121786Y-47489707D01*
X129010292Y-47378213D01*
X129010288Y-47378210D01*
X128879185Y-47290609D01*
X128879172Y-47290602D01*
X128733501Y-47230264D01*
X128733489Y-47230261D01*
X128578845Y-47199500D01*
X128578842Y-47199500D01*
X128421158Y-47199500D01*
X128421155Y-47199500D01*
X128266510Y-47230261D01*
X128266498Y-47230264D01*
X128120827Y-47290602D01*
X128120814Y-47290609D01*
X127989711Y-47378210D01*
X127989707Y-47378213D01*
X127878213Y-47489707D01*
X127878210Y-47489711D01*
X127790609Y-47620814D01*
X127790602Y-47620827D01*
X127730264Y-47766498D01*
X127730261Y-47766510D01*
X127699500Y-47921153D01*
X127699500Y-48078846D01*
X127730261Y-48233489D01*
X127730264Y-48233501D01*
X127790602Y-48379172D01*
X127790609Y-48379185D01*
X127878210Y-48510288D01*
X127878213Y-48510292D01*
X127879114Y-48511193D01*
X127879435Y-48511780D01*
X127882076Y-48514999D01*
X127881465Y-48515499D01*
X127912599Y-48572516D01*
X127907615Y-48642208D01*
X127865743Y-48698141D01*
X127815626Y-48720491D01*
X127766507Y-48730261D01*
X127766498Y-48730264D01*
X127620827Y-48790602D01*
X127620814Y-48790609D01*
X127489711Y-48878210D01*
X127489707Y-48878213D01*
X127378213Y-48989707D01*
X127378210Y-48989711D01*
X127290609Y-49120814D01*
X127290602Y-49120827D01*
X127230264Y-49266498D01*
X127230261Y-49266510D01*
X127199500Y-49421153D01*
X111053232Y-49421153D01*
X111010292Y-49378213D01*
X111010288Y-49378210D01*
X110879185Y-49290609D01*
X110879172Y-49290602D01*
X110733501Y-49230264D01*
X110733489Y-49230261D01*
X110578845Y-49199500D01*
X110578842Y-49199500D01*
X110421158Y-49199500D01*
X110421155Y-49199500D01*
X110266510Y-49230261D01*
X110266498Y-49230264D01*
X110120827Y-49290602D01*
X110120814Y-49290609D01*
X109989711Y-49378210D01*
X109989707Y-49378213D01*
X109878213Y-49489707D01*
X109878210Y-49489711D01*
X109790609Y-49620814D01*
X109790602Y-49620827D01*
X109730264Y-49766498D01*
X109730261Y-49766510D01*
X109699500Y-49921153D01*
X100500500Y-49921153D01*
X100500500Y-45421153D01*
X127199500Y-45421153D01*
X127199500Y-45578846D01*
X127230261Y-45733489D01*
X127230264Y-45733501D01*
X127290602Y-45879172D01*
X127290609Y-45879185D01*
X127378210Y-46010288D01*
X127378213Y-46010292D01*
X127489707Y-46121786D01*
X127489711Y-46121789D01*
X127620814Y-46209390D01*
X127620827Y-46209397D01*
X127766498Y-46269735D01*
X127766503Y-46269737D01*
X127921153Y-46300499D01*
X127921156Y-46300500D01*
X127921158Y-46300500D01*
X128078844Y-46300500D01*
X128078845Y-46300499D01*
X128233497Y-46269737D01*
X128379179Y-46209394D01*
X128510289Y-46121789D01*
X128621789Y-46010289D01*
X128709394Y-45879179D01*
X128769737Y-45733497D01*
X128800500Y-45578842D01*
X128800500Y-45421158D01*
X128800500Y-45421155D01*
X128800499Y-45421153D01*
X128769738Y-45266510D01*
X128769737Y-45266503D01*
X128769735Y-45266498D01*
X128709397Y-45120827D01*
X128709390Y-45120814D01*
X128621789Y-44989711D01*
X128621786Y-44989707D01*
X128510292Y-44878213D01*
X128510288Y-44878210D01*
X128379185Y-44790609D01*
X128379172Y-44790602D01*
X128233501Y-44730264D01*
X128233489Y-44730261D01*
X128078845Y-44699500D01*
X128078842Y-44699500D01*
X127921158Y-44699500D01*
X127921155Y-44699500D01*
X127766510Y-44730261D01*
X127766498Y-44730264D01*
X127620827Y-44790602D01*
X127620814Y-44790609D01*
X127489711Y-44878210D01*
X127489707Y-44878213D01*
X127378213Y-44989707D01*
X127378210Y-44989711D01*
X127290609Y-45120814D01*
X127290602Y-45120827D01*
X127230264Y-45266498D01*
X127230261Y-45266510D01*
X127199500Y-45421153D01*
X100500500Y-45421153D01*
X100500500Y-41421153D01*
X114699500Y-41421153D01*
X114699500Y-41578846D01*
X114730261Y-41733489D01*
X114730264Y-41733501D01*
X114790602Y-41879172D01*
X114790609Y-41879185D01*
X114878210Y-42010288D01*
X114878213Y-42010292D01*
X114989707Y-42121786D01*
X114989711Y-42121789D01*
X115120814Y-42209390D01*
X115120827Y-42209397D01*
X115266498Y-42269735D01*
X115266503Y-42269737D01*
X115421153Y-42300499D01*
X115421156Y-42300500D01*
X115421158Y-42300500D01*
X115578844Y-42300500D01*
X115578845Y-42300499D01*
X115733497Y-42269737D01*
X115879179Y-42209394D01*
X116010289Y-42121789D01*
X116121789Y-42010289D01*
X116209394Y-41879179D01*
X116269737Y-41733497D01*
X116300500Y-41578842D01*
X116300500Y-41421158D01*
X116300500Y-41421155D01*
X116300499Y-41421153D01*
X121699500Y-41421153D01*
X121699500Y-41578846D01*
X121730261Y-41733489D01*
X121730264Y-41733501D01*
X121790602Y-41879172D01*
X121790609Y-41879185D01*
X121878210Y-42010288D01*
X121878213Y-42010292D01*
X121989707Y-42121786D01*
X121989711Y-42121789D01*
X122120814Y-42209390D01*
X122120827Y-42209397D01*
X122266498Y-42269735D01*
X122266503Y-42269737D01*
X122421153Y-42300499D01*
X122421156Y-42300500D01*
X122421158Y-42300500D01*
X122578844Y-42300500D01*
X122578845Y-42300499D01*
X122733497Y-42269737D01*
X122879179Y-42209394D01*
X123010289Y-42121789D01*
X123121789Y-42010289D01*
X123181348Y-41921153D01*
X192699500Y-41921153D01*
X192699500Y-42078846D01*
X192730261Y-42233489D01*
X192730264Y-42233501D01*
X192790602Y-42379172D01*
X192790609Y-42379185D01*
X192878210Y-42510288D01*
X192878213Y-42510292D01*
X192989707Y-42621786D01*
X192989711Y-42621789D01*
X193120814Y-42709390D01*
X193120827Y-42709397D01*
X193266498Y-42769735D01*
X193266503Y-42769737D01*
X193421153Y-42800499D01*
X193421156Y-42800500D01*
X193421158Y-42800500D01*
X193578844Y-42800500D01*
X193578845Y-42800499D01*
X193733497Y-42769737D01*
X193879179Y-42709394D01*
X194010289Y-42621789D01*
X194121789Y-42510289D01*
X194209394Y-42379179D01*
X194269737Y-42233497D01*
X194300500Y-42078842D01*
X194300500Y-41921158D01*
X194300500Y-41921155D01*
X194300499Y-41921153D01*
X194269738Y-41766510D01*
X194269737Y-41766503D01*
X194256062Y-41733489D01*
X194209397Y-41620827D01*
X194209390Y-41620814D01*
X194121789Y-41489711D01*
X194121786Y-41489707D01*
X194010292Y-41378213D01*
X194010288Y-41378210D01*
X193879185Y-41290609D01*
X193879172Y-41290602D01*
X193733501Y-41230264D01*
X193733489Y-41230261D01*
X193578845Y-41199500D01*
X193578842Y-41199500D01*
X193421158Y-41199500D01*
X193421155Y-41199500D01*
X193266510Y-41230261D01*
X193266498Y-41230264D01*
X193120827Y-41290602D01*
X193120814Y-41290609D01*
X192989711Y-41378210D01*
X192989707Y-41378213D01*
X192878213Y-41489707D01*
X192878210Y-41489711D01*
X192790609Y-41620814D01*
X192790602Y-41620827D01*
X192730264Y-41766498D01*
X192730261Y-41766510D01*
X192699500Y-41921153D01*
X123181348Y-41921153D01*
X123209394Y-41879179D01*
X123269737Y-41733497D01*
X123300500Y-41578842D01*
X123300500Y-41421158D01*
X123300500Y-41421155D01*
X123300499Y-41421153D01*
X123274531Y-41290606D01*
X123269737Y-41266503D01*
X123269735Y-41266498D01*
X123209397Y-41120827D01*
X123209390Y-41120814D01*
X123121789Y-40989711D01*
X123121786Y-40989707D01*
X123010292Y-40878213D01*
X123010288Y-40878210D01*
X122879185Y-40790609D01*
X122879172Y-40790602D01*
X122733501Y-40730264D01*
X122733489Y-40730261D01*
X122578845Y-40699500D01*
X122578842Y-40699500D01*
X122421158Y-40699500D01*
X122421155Y-40699500D01*
X122266510Y-40730261D01*
X122266498Y-40730264D01*
X122120827Y-40790602D01*
X122120814Y-40790609D01*
X121989711Y-40878210D01*
X121989707Y-40878213D01*
X121878213Y-40989707D01*
X121878210Y-40989711D01*
X121790609Y-41120814D01*
X121790602Y-41120827D01*
X121730264Y-41266498D01*
X121730261Y-41266510D01*
X121699500Y-41421153D01*
X116300499Y-41421153D01*
X116274531Y-41290606D01*
X116269737Y-41266503D01*
X116269735Y-41266498D01*
X116209397Y-41120827D01*
X116209390Y-41120814D01*
X116121789Y-40989711D01*
X116121786Y-40989707D01*
X116010292Y-40878213D01*
X116010288Y-40878210D01*
X115879185Y-40790609D01*
X115879172Y-40790602D01*
X115733501Y-40730264D01*
X115733489Y-40730261D01*
X115578845Y-40699500D01*
X115578842Y-40699500D01*
X115421158Y-40699500D01*
X115421155Y-40699500D01*
X115266510Y-40730261D01*
X115266498Y-40730264D01*
X115120827Y-40790602D01*
X115120814Y-40790609D01*
X114989711Y-40878210D01*
X114989707Y-40878213D01*
X114878213Y-40989707D01*
X114878210Y-40989711D01*
X114790609Y-41120814D01*
X114790602Y-41120827D01*
X114730264Y-41266498D01*
X114730261Y-41266510D01*
X114699500Y-41421153D01*
X100500500Y-41421153D01*
X100500500Y-39921153D01*
X125699500Y-39921153D01*
X125699500Y-40078846D01*
X125730261Y-40233489D01*
X125730264Y-40233501D01*
X125790602Y-40379172D01*
X125790609Y-40379185D01*
X125878210Y-40510288D01*
X125878213Y-40510292D01*
X125989707Y-40621786D01*
X125989711Y-40621789D01*
X126120814Y-40709390D01*
X126120827Y-40709397D01*
X126266498Y-40769735D01*
X126266503Y-40769737D01*
X126421153Y-40800499D01*
X126421156Y-40800500D01*
X126421158Y-40800500D01*
X126578844Y-40800500D01*
X126578845Y-40800499D01*
X126733497Y-40769737D01*
X126879179Y-40709394D01*
X127010289Y-40621789D01*
X127121789Y-40510289D01*
X127209394Y-40379179D01*
X127269737Y-40233497D01*
X127300500Y-40078842D01*
X127300500Y-39921158D01*
X127300500Y-39921155D01*
X127300499Y-39921153D01*
X127269738Y-39766510D01*
X127269737Y-39766503D01*
X127269735Y-39766498D01*
X127209397Y-39620827D01*
X127209390Y-39620814D01*
X127121789Y-39489711D01*
X127121786Y-39489707D01*
X127010292Y-39378213D01*
X127010288Y-39378210D01*
X126879185Y-39290609D01*
X126879172Y-39290602D01*
X126733501Y-39230264D01*
X126733489Y-39230261D01*
X126578845Y-39199500D01*
X126578842Y-39199500D01*
X126421158Y-39199500D01*
X126421155Y-39199500D01*
X126266510Y-39230261D01*
X126266498Y-39230264D01*
X126120827Y-39290602D01*
X126120814Y-39290609D01*
X125989711Y-39378210D01*
X125989707Y-39378213D01*
X125878213Y-39489707D01*
X125878210Y-39489711D01*
X125790609Y-39620814D01*
X125790602Y-39620827D01*
X125730264Y-39766498D01*
X125730261Y-39766510D01*
X125699500Y-39921153D01*
X100500500Y-39921153D01*
X100500500Y-36921153D01*
X121699500Y-36921153D01*
X121699500Y-37078846D01*
X121730261Y-37233489D01*
X121730264Y-37233501D01*
X121790602Y-37379172D01*
X121790609Y-37379185D01*
X121878210Y-37510288D01*
X121878213Y-37510292D01*
X121989707Y-37621786D01*
X121989711Y-37621789D01*
X122120814Y-37709390D01*
X122120827Y-37709397D01*
X122266498Y-37769735D01*
X122266503Y-37769737D01*
X122421153Y-37800499D01*
X122421156Y-37800500D01*
X122421158Y-37800500D01*
X122578844Y-37800500D01*
X122578845Y-37800499D01*
X122733497Y-37769737D01*
X122879179Y-37709394D01*
X123010289Y-37621789D01*
X123121789Y-37510289D01*
X123209394Y-37379179D01*
X123269737Y-37233497D01*
X123300500Y-37078842D01*
X123300500Y-36921158D01*
X123300500Y-36921155D01*
X123300499Y-36921153D01*
X123269738Y-36766510D01*
X123269737Y-36766503D01*
X123209794Y-36621786D01*
X123209397Y-36620827D01*
X123209390Y-36620814D01*
X123121789Y-36489711D01*
X123121786Y-36489707D01*
X123010292Y-36378213D01*
X123010288Y-36378210D01*
X122879185Y-36290609D01*
X122879172Y-36290602D01*
X122733501Y-36230264D01*
X122733489Y-36230261D01*
X122578845Y-36199500D01*
X122578842Y-36199500D01*
X122421158Y-36199500D01*
X122421155Y-36199500D01*
X122266510Y-36230261D01*
X122266498Y-36230264D01*
X122120827Y-36290602D01*
X122120814Y-36290609D01*
X121989711Y-36378210D01*
X121989707Y-36378213D01*
X121878213Y-36489707D01*
X121878210Y-36489711D01*
X121790609Y-36620814D01*
X121790602Y-36620827D01*
X121730264Y-36766498D01*
X121730261Y-36766510D01*
X121699500Y-36921153D01*
X100500500Y-36921153D01*
X100500500Y-33921153D01*
X127699500Y-33921153D01*
X127699500Y-34078846D01*
X127730261Y-34233489D01*
X127730264Y-34233501D01*
X127790602Y-34379172D01*
X127790609Y-34379185D01*
X127878210Y-34510288D01*
X127878213Y-34510292D01*
X127989707Y-34621786D01*
X127989711Y-34621789D01*
X128120814Y-34709390D01*
X128120827Y-34709397D01*
X128218853Y-34750000D01*
X128266503Y-34769737D01*
X128421153Y-34800499D01*
X128421156Y-34800500D01*
X128421158Y-34800500D01*
X128578844Y-34800500D01*
X128578845Y-34800499D01*
X128733497Y-34769737D01*
X128879179Y-34709394D01*
X129010289Y-34621789D01*
X129010292Y-34621786D01*
X129021122Y-34610957D01*
X129121786Y-34510292D01*
X129121789Y-34510289D01*
X129209394Y-34379179D01*
X129269737Y-34233497D01*
X129300500Y-34078842D01*
X129300500Y-33921158D01*
X129300500Y-33921155D01*
X129300499Y-33921153D01*
X129269738Y-33766510D01*
X129269737Y-33766503D01*
X129269735Y-33766498D01*
X129230305Y-33671303D01*
X129212018Y-33627155D01*
X157975000Y-33627155D01*
X157975000Y-34250000D01*
X158809252Y-34250000D01*
X158787482Y-34287708D01*
X158750000Y-34427591D01*
X158750000Y-34572409D01*
X158787482Y-34712292D01*
X158809252Y-34750000D01*
X157975000Y-34750000D01*
X157975000Y-35372844D01*
X157981401Y-35432372D01*
X157981403Y-35432379D01*
X158031645Y-35567086D01*
X158031649Y-35567093D01*
X158117809Y-35682187D01*
X158117812Y-35682190D01*
X158232906Y-35768350D01*
X158232913Y-35768354D01*
X158367620Y-35818596D01*
X158367627Y-35818598D01*
X158427155Y-35824999D01*
X158427172Y-35825000D01*
X159050000Y-35825000D01*
X159050000Y-34990747D01*
X159087708Y-35012518D01*
X159227591Y-35050000D01*
X159372409Y-35050000D01*
X159512292Y-35012518D01*
X159550000Y-34990747D01*
X159550000Y-35825000D01*
X160172828Y-35825000D01*
X160172844Y-35824999D01*
X160232372Y-35818598D01*
X160232379Y-35818596D01*
X160367086Y-35768354D01*
X160367093Y-35768350D01*
X160482186Y-35682191D01*
X160524129Y-35626163D01*
X160580063Y-35584292D01*
X160649754Y-35579308D01*
X160711077Y-35612793D01*
X160744562Y-35674116D01*
X160739578Y-35743808D01*
X160737958Y-35747924D01*
X160730264Y-35766498D01*
X160730261Y-35766510D01*
X160699500Y-35921153D01*
X160699500Y-36078846D01*
X160730261Y-36233489D01*
X160730264Y-36233501D01*
X160790602Y-36379172D01*
X160790609Y-36379185D01*
X160878210Y-36510288D01*
X160878213Y-36510292D01*
X160989707Y-36621786D01*
X160989711Y-36621789D01*
X161120814Y-36709390D01*
X161120827Y-36709397D01*
X161258683Y-36766498D01*
X161266503Y-36769737D01*
X161421153Y-36800499D01*
X161421156Y-36800500D01*
X161421158Y-36800500D01*
X161578844Y-36800500D01*
X161578845Y-36800499D01*
X161733497Y-36769737D01*
X161879179Y-36709394D01*
X162010289Y-36621789D01*
X162121789Y-36510289D01*
X162209394Y-36379179D01*
X162269737Y-36233497D01*
X162300500Y-36078842D01*
X162300500Y-35921158D01*
X162300500Y-35921155D01*
X162288443Y-35860543D01*
X162294670Y-35790951D01*
X162337533Y-35735774D01*
X162353757Y-35725871D01*
X162534714Y-35633670D01*
X162703505Y-35511035D01*
X162851035Y-35363505D01*
X162973670Y-35194714D01*
X162999515Y-35143990D01*
X163047489Y-35093194D01*
X163115310Y-35076398D01*
X163181445Y-35098935D01*
X163220485Y-35143990D01*
X163246328Y-35194712D01*
X163328086Y-35307241D01*
X163368965Y-35363505D01*
X163516495Y-35511035D01*
X163685286Y-35633670D01*
X163764666Y-35674116D01*
X163871179Y-35728387D01*
X163871181Y-35728387D01*
X163871184Y-35728389D01*
X163954795Y-35755556D01*
X164069610Y-35792862D01*
X164275676Y-35825500D01*
X164275681Y-35825500D01*
X164484324Y-35825500D01*
X164690389Y-35792862D01*
X164696270Y-35790951D01*
X164888816Y-35728389D01*
X165074714Y-35633670D01*
X165243505Y-35511035D01*
X165391035Y-35363505D01*
X165513670Y-35194714D01*
X165539515Y-35143990D01*
X165587489Y-35093194D01*
X165655310Y-35076398D01*
X165721445Y-35098935D01*
X165760485Y-35143990D01*
X165786328Y-35194712D01*
X165868086Y-35307241D01*
X165908965Y-35363505D01*
X166056495Y-35511035D01*
X166225286Y-35633670D01*
X166304666Y-35674116D01*
X166411179Y-35728387D01*
X166411181Y-35728387D01*
X166411184Y-35728389D01*
X166494795Y-35755556D01*
X166609610Y-35792862D01*
X166815676Y-35825500D01*
X166815681Y-35825500D01*
X167024324Y-35825500D01*
X167230389Y-35792862D01*
X167236270Y-35790951D01*
X167428816Y-35728389D01*
X167614714Y-35633670D01*
X167783505Y-35511035D01*
X167931035Y-35363505D01*
X168053670Y-35194714D01*
X168079515Y-35143990D01*
X168127489Y-35093194D01*
X168195310Y-35076398D01*
X168261445Y-35098935D01*
X168300485Y-35143990D01*
X168326328Y-35194712D01*
X168408086Y-35307241D01*
X168448965Y-35363505D01*
X168596495Y-35511035D01*
X168765286Y-35633670D01*
X168844666Y-35674116D01*
X168951179Y-35728387D01*
X168951181Y-35728387D01*
X168951184Y-35728389D01*
X169034795Y-35755556D01*
X169149610Y-35792862D01*
X169355676Y-35825500D01*
X169355681Y-35825500D01*
X169564324Y-35825500D01*
X169770389Y-35792862D01*
X169776270Y-35790951D01*
X169968816Y-35728389D01*
X170154714Y-35633670D01*
X170323505Y-35511035D01*
X170471035Y-35363505D01*
X170593670Y-35194714D01*
X170619515Y-35143990D01*
X170667489Y-35093194D01*
X170735310Y-35076398D01*
X170801445Y-35098935D01*
X170840485Y-35143990D01*
X170866328Y-35194712D01*
X170948086Y-35307241D01*
X170988965Y-35363505D01*
X171136495Y-35511035D01*
X171305286Y-35633670D01*
X171384666Y-35674116D01*
X171491179Y-35728387D01*
X171491181Y-35728387D01*
X171491184Y-35728389D01*
X171574795Y-35755556D01*
X171689610Y-35792862D01*
X171895676Y-35825500D01*
X171895681Y-35825500D01*
X172104324Y-35825500D01*
X172310389Y-35792862D01*
X172316270Y-35790951D01*
X172508816Y-35728389D01*
X172694714Y-35633670D01*
X172863505Y-35511035D01*
X173011035Y-35363505D01*
X173133670Y-35194714D01*
X173159515Y-35143990D01*
X173207489Y-35093194D01*
X173275310Y-35076398D01*
X173341445Y-35098935D01*
X173380485Y-35143990D01*
X173406328Y-35194712D01*
X173488086Y-35307241D01*
X173528965Y-35363505D01*
X173676495Y-35511035D01*
X173845286Y-35633670D01*
X173924666Y-35674116D01*
X174031179Y-35728387D01*
X174031181Y-35728387D01*
X174031184Y-35728389D01*
X174114795Y-35755556D01*
X174229610Y-35792862D01*
X174435676Y-35825500D01*
X174435681Y-35825500D01*
X174644324Y-35825500D01*
X174850389Y-35792862D01*
X174856270Y-35790951D01*
X175048816Y-35728389D01*
X175234714Y-35633670D01*
X175403505Y-35511035D01*
X175551035Y-35363505D01*
X175673670Y-35194714D01*
X175699515Y-35143990D01*
X175747489Y-35093194D01*
X175815310Y-35076398D01*
X175881445Y-35098935D01*
X175920485Y-35143990D01*
X175946328Y-35194712D01*
X176028086Y-35307241D01*
X176068965Y-35363505D01*
X176216495Y-35511035D01*
X176385286Y-35633670D01*
X176464666Y-35674116D01*
X176571179Y-35728387D01*
X176571181Y-35728387D01*
X176571184Y-35728389D01*
X176654795Y-35755556D01*
X176769610Y-35792862D01*
X176975676Y-35825500D01*
X176975681Y-35825500D01*
X177184324Y-35825500D01*
X177390389Y-35792862D01*
X177396270Y-35790951D01*
X177588816Y-35728389D01*
X177774714Y-35633670D01*
X177943505Y-35511035D01*
X178091035Y-35363505D01*
X178213670Y-35194714D01*
X178239515Y-35143990D01*
X178287489Y-35093194D01*
X178355310Y-35076398D01*
X178421445Y-35098935D01*
X178460485Y-35143990D01*
X178486328Y-35194712D01*
X178568086Y-35307241D01*
X178608965Y-35363505D01*
X178756495Y-35511035D01*
X178925286Y-35633670D01*
X179004666Y-35674116D01*
X179111179Y-35728387D01*
X179111181Y-35728387D01*
X179111184Y-35728389D01*
X179194795Y-35755556D01*
X179309610Y-35792862D01*
X179515676Y-35825500D01*
X179515681Y-35825500D01*
X179724324Y-35825500D01*
X179930389Y-35792862D01*
X179936270Y-35790951D01*
X180128816Y-35728389D01*
X180314714Y-35633670D01*
X180483505Y-35511035D01*
X180631035Y-35363505D01*
X180753670Y-35194714D01*
X180779515Y-35143990D01*
X180827489Y-35093194D01*
X180895310Y-35076398D01*
X180961445Y-35098935D01*
X181000485Y-35143990D01*
X181026328Y-35194712D01*
X181108086Y-35307241D01*
X181148965Y-35363505D01*
X181296495Y-35511035D01*
X181465286Y-35633670D01*
X181544666Y-35674116D01*
X181651179Y-35728387D01*
X181651181Y-35728387D01*
X181651184Y-35728389D01*
X181734795Y-35755556D01*
X181849610Y-35792862D01*
X182055676Y-35825500D01*
X182055681Y-35825500D01*
X182264324Y-35825500D01*
X182470389Y-35792862D01*
X182476270Y-35790951D01*
X182668816Y-35728389D01*
X182854714Y-35633670D01*
X183023505Y-35511035D01*
X183171035Y-35363505D01*
X183293670Y-35194714D01*
X183388389Y-35008816D01*
X183452862Y-34810389D01*
X183454428Y-34800499D01*
X183485500Y-34604324D01*
X183485500Y-34395675D01*
X183452862Y-34189610D01*
X183416872Y-34078846D01*
X183388389Y-33991184D01*
X183388387Y-33991181D01*
X183388387Y-33991179D01*
X183293669Y-33805285D01*
X183265492Y-33766503D01*
X183171035Y-33636495D01*
X183023505Y-33488965D01*
X182854714Y-33366330D01*
X182668820Y-33271612D01*
X182470389Y-33207137D01*
X182264324Y-33174500D01*
X182264319Y-33174500D01*
X182055681Y-33174500D01*
X182055676Y-33174500D01*
X181849610Y-33207137D01*
X181651179Y-33271612D01*
X181465285Y-33366330D01*
X181296493Y-33488966D01*
X181296492Y-33488967D01*
X181148970Y-33636490D01*
X181148966Y-33636493D01*
X181026330Y-33805285D01*
X181000485Y-33856010D01*
X180952510Y-33906806D01*
X180884690Y-33923601D01*
X180818555Y-33901064D01*
X180779515Y-33856010D01*
X180753669Y-33805285D01*
X180725492Y-33766503D01*
X180631035Y-33636495D01*
X180483505Y-33488965D01*
X180314714Y-33366330D01*
X180128820Y-33271612D01*
X179930389Y-33207137D01*
X179724324Y-33174500D01*
X179724319Y-33174500D01*
X179515681Y-33174500D01*
X179515676Y-33174500D01*
X179309610Y-33207137D01*
X179111179Y-33271612D01*
X178925285Y-33366330D01*
X178756493Y-33488966D01*
X178756492Y-33488967D01*
X178608970Y-33636490D01*
X178608966Y-33636493D01*
X178486330Y-33805285D01*
X178460485Y-33856010D01*
X178412510Y-33906806D01*
X178344690Y-33923601D01*
X178278555Y-33901064D01*
X178239515Y-33856010D01*
X178213669Y-33805285D01*
X178185492Y-33766503D01*
X178091035Y-33636495D01*
X177943505Y-33488965D01*
X177774714Y-33366330D01*
X177588820Y-33271612D01*
X177390389Y-33207137D01*
X177184324Y-33174500D01*
X177184319Y-33174500D01*
X176975681Y-33174500D01*
X176975676Y-33174500D01*
X176769610Y-33207137D01*
X176571179Y-33271612D01*
X176385285Y-33366330D01*
X176216493Y-33488966D01*
X176216492Y-33488967D01*
X176068970Y-33636490D01*
X176068966Y-33636493D01*
X175946330Y-33805285D01*
X175920485Y-33856010D01*
X175872510Y-33906806D01*
X175804690Y-33923601D01*
X175738555Y-33901064D01*
X175699515Y-33856010D01*
X175673669Y-33805285D01*
X175645492Y-33766503D01*
X175551035Y-33636495D01*
X175403505Y-33488965D01*
X175234714Y-33366330D01*
X175048820Y-33271612D01*
X174850389Y-33207137D01*
X174644324Y-33174500D01*
X174644319Y-33174500D01*
X174435681Y-33174500D01*
X174435676Y-33174500D01*
X174229610Y-33207137D01*
X174031179Y-33271612D01*
X173845285Y-33366330D01*
X173676493Y-33488966D01*
X173676492Y-33488967D01*
X173528970Y-33636490D01*
X173528966Y-33636493D01*
X173406330Y-33805285D01*
X173380485Y-33856010D01*
X173332510Y-33906806D01*
X173264690Y-33923601D01*
X173198555Y-33901064D01*
X173159515Y-33856010D01*
X173133669Y-33805285D01*
X173105492Y-33766503D01*
X173011035Y-33636495D01*
X172863505Y-33488965D01*
X172694714Y-33366330D01*
X172508820Y-33271612D01*
X172310389Y-33207137D01*
X172104324Y-33174500D01*
X172104319Y-33174500D01*
X171895681Y-33174500D01*
X171895676Y-33174500D01*
X171689610Y-33207137D01*
X171491179Y-33271612D01*
X171305285Y-33366330D01*
X171136493Y-33488966D01*
X171136492Y-33488967D01*
X170988970Y-33636490D01*
X170988966Y-33636493D01*
X170866330Y-33805285D01*
X170840485Y-33856010D01*
X170792510Y-33906806D01*
X170724690Y-33923601D01*
X170658555Y-33901064D01*
X170619515Y-33856010D01*
X170593669Y-33805285D01*
X170565492Y-33766503D01*
X170471035Y-33636495D01*
X170323505Y-33488965D01*
X170154714Y-33366330D01*
X169968820Y-33271612D01*
X169770389Y-33207137D01*
X169564324Y-33174500D01*
X169564319Y-33174500D01*
X169355681Y-33174500D01*
X169355676Y-33174500D01*
X169149610Y-33207137D01*
X168951179Y-33271612D01*
X168765285Y-33366330D01*
X168596493Y-33488966D01*
X168596492Y-33488967D01*
X168448970Y-33636490D01*
X168448966Y-33636493D01*
X168326330Y-33805285D01*
X168300485Y-33856010D01*
X168252510Y-33906806D01*
X168184690Y-33923601D01*
X168118555Y-33901064D01*
X168079515Y-33856010D01*
X168053669Y-33805285D01*
X168025492Y-33766503D01*
X167931035Y-33636495D01*
X167783505Y-33488965D01*
X167614714Y-33366330D01*
X167428820Y-33271612D01*
X167230389Y-33207137D01*
X167024324Y-33174500D01*
X167024319Y-33174500D01*
X166815681Y-33174500D01*
X166815676Y-33174500D01*
X166609610Y-33207137D01*
X166411179Y-33271612D01*
X166225285Y-33366330D01*
X166056493Y-33488966D01*
X166056492Y-33488967D01*
X165908970Y-33636490D01*
X165908966Y-33636493D01*
X165786330Y-33805285D01*
X165760485Y-33856010D01*
X165712510Y-33906806D01*
X165644690Y-33923601D01*
X165578555Y-33901064D01*
X165539515Y-33856010D01*
X165513669Y-33805285D01*
X165485492Y-33766503D01*
X165391035Y-33636495D01*
X165243505Y-33488965D01*
X165074714Y-33366330D01*
X164888820Y-33271612D01*
X164690389Y-33207137D01*
X164484324Y-33174500D01*
X164484319Y-33174500D01*
X164275681Y-33174500D01*
X164275676Y-33174500D01*
X164069610Y-33207137D01*
X163871179Y-33271612D01*
X163685285Y-33366330D01*
X163516493Y-33488966D01*
X163516492Y-33488967D01*
X163368970Y-33636490D01*
X163368966Y-33636493D01*
X163246330Y-33805285D01*
X163220485Y-33856010D01*
X163172510Y-33906806D01*
X163104690Y-33923601D01*
X163038555Y-33901064D01*
X162999515Y-33856010D01*
X162973669Y-33805285D01*
X162945492Y-33766503D01*
X162851035Y-33636495D01*
X162703505Y-33488965D01*
X162534714Y-33366330D01*
X162348820Y-33271612D01*
X162150389Y-33207137D01*
X161944324Y-33174500D01*
X161944319Y-33174500D01*
X161735681Y-33174500D01*
X161735676Y-33174500D01*
X161529610Y-33207137D01*
X161331179Y-33271612D01*
X161145285Y-33366330D01*
X160976496Y-33488964D01*
X160828970Y-33636490D01*
X160767647Y-33669974D01*
X160697955Y-33664990D01*
X160642022Y-33623118D01*
X160622922Y-33574567D01*
X160620380Y-33575168D01*
X160618596Y-33567620D01*
X160568354Y-33432913D01*
X160568350Y-33432906D01*
X160482190Y-33317812D01*
X160482187Y-33317809D01*
X160367093Y-33231649D01*
X160367086Y-33231645D01*
X160232379Y-33181403D01*
X160232372Y-33181401D01*
X160172844Y-33175000D01*
X159550000Y-33175000D01*
X159550000Y-34009252D01*
X159512292Y-33987482D01*
X159372409Y-33950000D01*
X159227591Y-33950000D01*
X159087708Y-33987482D01*
X159050000Y-34009252D01*
X159050000Y-33175000D01*
X158427155Y-33175000D01*
X158367627Y-33181401D01*
X158367620Y-33181403D01*
X158232913Y-33231645D01*
X158232906Y-33231649D01*
X158117812Y-33317809D01*
X158117809Y-33317812D01*
X158031649Y-33432906D01*
X158031645Y-33432913D01*
X157981403Y-33567620D01*
X157981401Y-33567627D01*
X157975000Y-33627155D01*
X129212018Y-33627155D01*
X129209395Y-33620824D01*
X129209394Y-33620821D01*
X129209392Y-33620818D01*
X129209390Y-33620814D01*
X129121789Y-33489711D01*
X129121786Y-33489707D01*
X129010292Y-33378213D01*
X129010288Y-33378210D01*
X128879185Y-33290609D01*
X128879172Y-33290602D01*
X128733501Y-33230264D01*
X128733489Y-33230261D01*
X128578845Y-33199500D01*
X128578842Y-33199500D01*
X128421158Y-33199500D01*
X128421155Y-33199500D01*
X128266510Y-33230261D01*
X128266498Y-33230264D01*
X128120827Y-33290602D01*
X128120814Y-33290609D01*
X127989711Y-33378210D01*
X127989707Y-33378213D01*
X127878213Y-33489707D01*
X127878210Y-33489711D01*
X127790609Y-33620814D01*
X127790602Y-33620827D01*
X127730264Y-33766498D01*
X127730261Y-33766510D01*
X127699500Y-33921153D01*
X100500500Y-33921153D01*
X100500500Y-30624500D01*
X100520185Y-30557461D01*
X100572989Y-30511706D01*
X100624500Y-30500500D01*
X199375500Y-30500500D01*
X199442539Y-30520185D01*
G37*
%TD.AperFunction*%
%TD*%
M02*
