%TF.GenerationSoftware,KiCad,Pcbnew,9.0.7*%
%TF.CreationDate,2026-06-10T23:03:18-03:00*%
%TF.ProjectId,Estacion_Nivel,45737461-6369-46f6-9e5f-4e6976656c2e,rev?*%
%TF.SameCoordinates,Original*%
%TF.FileFunction,Soldermask,Bot*%
%TF.FilePolarity,Negative*%
%FSLAX46Y46*%
G04 Gerber Fmt 4.6, Leading zero omitted, Abs format (unit mm)*
G04 Created by KiCad (PCBNEW 9.0.7) date 2026-06-10 23:03:18*
%MOMM*%
%LPD*%
G01*
G04 APERTURE LIST*
%ADD10R,1.650000X1.650000*%
%ADD11C,1.650000*%
%ADD12C,0.854000*%
%ADD13O,1.104000X1.904000*%
%ADD14O,1.104000X2.604000*%
%ADD15C,2.680000*%
G04 APERTURE END LIST*
D10*
%TO.C,J10*%
X159300000Y-34500000D03*
D11*
X161840000Y-34500000D03*
X164380000Y-34500000D03*
X166920000Y-34500000D03*
X169460000Y-34500000D03*
X172000000Y-34500000D03*
X174540000Y-34500000D03*
X177080000Y-34500000D03*
X179620000Y-34500000D03*
X182160000Y-34500000D03*
%TD*%
D12*
%TO.C,J9*%
X111200000Y-69140000D03*
X112050000Y-69140000D03*
X112900000Y-69140000D03*
X113750000Y-69140000D03*
X114600000Y-69140000D03*
X115450000Y-69140000D03*
X116300000Y-69140000D03*
X117150000Y-69140000D03*
X117150000Y-70490000D03*
X116300000Y-70490000D03*
X115450000Y-70490000D03*
X114600000Y-70490000D03*
X113750000Y-70490000D03*
X112900000Y-70490000D03*
X112050000Y-70490000D03*
X111200000Y-70490000D03*
D13*
X109850000Y-73500000D03*
X118500000Y-73500000D03*
D14*
X109850000Y-70120000D03*
X118500000Y-70120000D03*
%TD*%
D10*
%TO.C,J2*%
X105000000Y-96000000D03*
D11*
X105000000Y-99500000D03*
%TD*%
D10*
%TO.C,J7*%
X130000000Y-59000000D03*
D11*
X127460000Y-59000000D03*
%TD*%
D10*
%TO.C,J3*%
X105000000Y-85750000D03*
D11*
X105000000Y-89250000D03*
%TD*%
D15*
%TO.C,J8*%
X102790000Y-111785000D03*
%TD*%
D10*
%TO.C,J4*%
X161000000Y-53645000D03*
D11*
X164500000Y-53645000D03*
%TD*%
D10*
%TO.C,J5*%
X161000000Y-64045000D03*
D11*
X164500000Y-64045000D03*
%TD*%
M02*
